<svg xmlns="http://www.w3.org/2000/svg" viewBox="0 0 77.64 55.72"><defs><style>.cls-1{fill:#151515;}.cls-2{fill:#fff;}</style></defs><g id="Layer_2" data-name="Layer 2"><g id="Layer_3" data-name="Layer 3"><path class="cls-1" d="M10.72,22.23l4.38-3.05,2.43-8.81L25.12,7l5.68,1.8,4.76-3.69,9.28-1.39L51,6.11l4.34,5,1.8,4.72,5.31-1.42,7.8,2.37v5.44l1.62,5.83s2.51,3.48,2.75,5.11S73,41.56,73,41.56l-6.52,4.36-6.34-1-4.58,3.35-8.43,3.45H35.69S30,53.12,29,53a39.13,39.13,0,0,1-6.56-2.15c-.58-.4-3.65-3.87-3.65-3.87l-3.59-2.68-6.24-.81L2.41,40.1V31.65L6,22.54Z"/></g><g id="Layer_2-2" data-name="Layer 2"><path class="cls-2" d="M70.26,24.39a8.85,8.85,0,0,1,1.34.54,10.21,10.21,0,0,1,1.15.68,10.9,10.9,0,0,1,2,1.78,11.59,11.59,0,0,1,2.48,4.78,15.06,15.06,0,0,1,.39,2.63,16.13,16.13,0,0,1-.07,2.67,11.77,11.77,0,0,1-2,5.16,13.18,13.18,0,0,1-8.88,5.48,12,12,0,0,1-9.79-2.92A2,2,0,0,1,59.32,42l.06,0a8.69,8.69,0,0,0,3.13,1.3,8.58,8.58,0,0,0,3.31-.09,8.67,8.67,0,0,0,5.28-3.63,6.85,6.85,0,0,0,1-2.85,11.26,11.26,0,0,0,0-1.65,8.66,8.66,0,0,0-.26-1.63,10.5,10.5,0,0,0-1.24-3,11.28,11.28,0,0,0-1-1.35c-.17-.22-.37-.43-.56-.64l-.29-.3c-.08-.1-.22-.22-.22-.26l.58-3a.84.84,0,0,1,1-.66Z"/><path class="cls-2" d="M56.07,14.16a7.54,7.54,0,0,1,.77-.75,5.6,5.6,0,0,1,.79-.59,8.91,8.91,0,0,1,1.76-.92,9.39,9.39,0,0,1,4.12-.58,9.54,9.54,0,0,1,4.12,1.37,9.71,9.71,0,0,1,1.71,1.24,11.36,11.36,0,0,1,1.43,1.5,9.53,9.53,0,0,1,1.89,3.95,10,10,0,0,1,0,4.12A12,12,0,0,1,71.29,27a13,13,0,0,1-2.13,2.86,1.45,1.45,0,0,1-2.41-1.46l.06-.18a15.63,15.63,0,0,0,1-5.26,5.65,5.65,0,0,0-.43-2.08,4.26,4.26,0,0,0-1.07-1.49,7.4,7.4,0,0,0-1.69-1.19,6.67,6.67,0,0,0-1.78-.55,12,12,0,0,0-2.09-.17l-1.22,0-.64,0a2,2,0,0,1-.6,0l-1.56-.59a1.69,1.69,0,0,1-.61-2.77Z"/><path class="cls-2" d="M40.5,48.17c.06,0,.29.18.46.26s.4.19.6.29a9.33,9.33,0,0,0,1.29.44,10.36,10.36,0,0,0,2.72.42,14.23,14.23,0,0,0,5.57-1,6.49,6.49,0,0,0,3.77-3.12,8.17,8.17,0,0,0,.9-2.47A12.22,12.22,0,0,0,56,41.63a10,10,0,0,0,0-1.3v-.19a2,2,0,0,1,4-.27,12.53,12.53,0,0,1,.09,2,15.42,15.42,0,0,1-.18,1.91,12.62,12.62,0,0,1-1.21,3.73,10.45,10.45,0,0,1-2.56,3.22,6.4,6.4,0,0,1-.83.62,7.94,7.94,0,0,1-.87.55,13.75,13.75,0,0,1-1.79.8,17.72,17.72,0,0,1-7.33,1.17,14.19,14.19,0,0,1-3.74-.7,15.28,15.28,0,0,1-1.79-.73c-.29-.16-.58-.3-.86-.48a8.78,8.78,0,0,1-.93-.62A2,2,0,0,1,40.1,48Z"/><path class="cls-2" d="M19.78,44.3c.07.09.21.41.34.62a7.45,7.45,0,0,0,.43.71,9.9,9.9,0,0,0,1,1.3,9.42,9.42,0,0,0,2.6,2A11.35,11.35,0,0,0,27.34,50a15.81,15.81,0,0,0,1.74.27c.56,0,1.09,0,1.64,0a11.53,11.53,0,0,0,6.18-2.39,19.63,19.63,0,0,0,2.74-2.45A24.41,24.41,0,0,0,42,42.59l.11-.15a2,2,0,0,1,3.47,1.94,16.62,16.62,0,0,1-1.07,2.11c-.39.66-.8,1.3-1.25,1.92a19.1,19.1,0,0,1-3.17,3.45,15.37,15.37,0,0,1-9,3.85,21.27,21.27,0,0,1-2.53-.06,19.63,19.63,0,0,1-2.37-.42L25,54.92l-1.16-.44A8.33,8.33,0,0,1,22.65,54a7.4,7.4,0,0,1-1.1-.62,12.89,12.89,0,0,1-3.7-3.47,13.26,13.26,0,0,1-1.23-2.21,11.2,11.2,0,0,1-.44-1.19,10.32,10.32,0,0,1-.31-1.36,1.93,1.93,0,0,1,3.5-1.42Z"/><path class="cls-2" d="M29.16,7.67c.15-.31.24-.49.36-.71a5.2,5.2,0,0,1,.37-.61,11.55,11.55,0,0,1,.81-1.13,14.61,14.61,0,0,1,2-1.94,14.92,14.92,0,0,1,5-2.56A17.3,17.3,0,0,1,43.16,0a19.93,19.93,0,0,1,2.69.28l1.32.23c.45.11.92.25,1.37.39a15.51,15.51,0,0,1,5.18,2.71,15.55,15.55,0,0,1,3.69,4.47,16.9,16.9,0,0,1,1.71,5.17,14.47,14.47,0,0,1,.23,2.61,14.76,14.76,0,0,1-.2,2.67,2,2,0,0,1-3.88.32l-.12-.36c-.17-.53-.39-1.26-.62-1.87a17.91,17.91,0,0,0-.76-1.85,15.62,15.62,0,0,0-1.92-3.17A11.49,11.49,0,0,0,49.4,9.39a10.37,10.37,0,0,0-3-1.27l-.82-.22-.94-.15c-.62-.13-1.23-.15-1.84-.22a18.34,18.34,0,0,0-3.56.07,16,16,0,0,0-3.48.81,13.35,13.35,0,0,0-1.72.72,8.29,8.29,0,0,0-.84.43,8.43,8.43,0,0,1-.77.4l-1.18.3A1.83,1.83,0,0,1,29,8.94,1.79,1.79,0,0,1,29.16,7.67Z"/><path class="cls-2" d="M24.35,41.16a7.11,7.11,0,0,1-2.81,3.05,12.59,12.59,0,0,1-3.27,1.37,17.44,17.44,0,0,1-6.7.49,14.37,14.37,0,0,1-6.52-2.36,10.79,10.79,0,0,1-2.62-2.56,12.41,12.41,0,0,1-1.64-3.3A18,18,0,0,1,.1,34.34,16.69,16.69,0,0,1,0,32.61a10.16,10.16,0,0,1,0-1.74A11.81,11.81,0,0,1,2.8,24,13.08,13.08,0,0,1,9,20a16,16,0,0,1,3.43-.65,14.81,14.81,0,0,1,3.49.15h0L14,22.36a12,12,0,0,1-1.1-2.26,13.3,13.3,0,0,1-.62-2.39,11.66,11.66,0,0,1,.39-5.21,11.49,11.49,0,0,1,2.85-4.6c.31-.3.63-.61,1-.9s.69-.5,1-.75A13.1,13.1,0,0,1,19.74,5l.58-.28c.2-.08.42-.14.63-.21l1.3-.39a8.64,8.64,0,0,1,1.38-.22A7.33,7.33,0,0,1,25,3.82L26.47,4c.47.09.93.22,1.38.35a7.07,7.07,0,0,1,1.31.49,6.56,6.56,0,0,1,1.2.65A13.33,13.33,0,0,1,32.43,7,18.54,18.54,0,0,1,34,8.91a14.75,14.75,0,0,1,2.11,4.26,2,2,0,0,1-3.44,1.9l-.18-.21a15.27,15.27,0,0,0-5.05-4.14A5.26,5.26,0,0,0,25,10.26a2.54,2.54,0,0,0-.61.07c-.21.06-.41,0-.63.12a10.24,10.24,0,0,0-1.32.49,9.47,9.47,0,0,0-1.33.72c-.21.14-.44.26-.64.41s-.37.3-.56.45a6.86,6.86,0,0,0-1.68,2.09,7.9,7.9,0,0,0-.75,2.79,12.69,12.69,0,0,0,0,1.64c0,.53.13,1.18.16,1.61L17.73,22a1.49,1.49,0,0,1-2,1.52h0c-.74.17-1.69.37-2.5.62a16.63,16.63,0,0,0-2.37.9,9.93,9.93,0,0,0-3.6,2.7c-.11.14-.22.28-.34.41s-.19.31-.28.46a7.36,7.36,0,0,0-.55.95c-.13.35-.33.67-.48,1s-.24.76-.38,1.14A6.35,6.35,0,0,0,5,33c-.06.42-.19.86-.21,1.27a8.17,8.17,0,0,0,.16,2.43,6.72,6.72,0,0,0,2.51,3.79,9.79,9.79,0,0,0,4.63,1.81,13.62,13.62,0,0,0,5.21-.33,8.5,8.5,0,0,0,2.25-1,3,3,0,0,0,1.22-1.29h0A2,2,0,1,1,24.4,41,.69.69,0,0,1,24.35,41.16Z"/></g></g></svg>