<svg xmlns="http://www.w3.org/2000/svg" viewBox="0 0 88.4 63.02"><defs><style>.cls-1{fill:#151515;}.cls-2{fill:#fff;}</style></defs><g id="Layer_2" data-name="Layer 2"><g id="Layer_3" data-name="Layer 3"><path class="cls-1" d="M9.48,27.74l3.87-11.17,7.14-2.34,7.58-3.87,7.53-7.3,10.55-1,4.43,3.59,4.81,4.45V16l3.39-1.14,6,2,1.89,5.35,2,4.75,5.11-1.62,5.17,2.36,4.75,2.18.91,5.54,1.08,5.68-4.21,3.23L77.2,46.58l-1.59,5.64-2.85,5H64.34l-4.41-2.89L54.27,57.1l-12.72,3-8.48-3.47-5-3.65-3.43-.72-8.73,2.1L7.29,51.06s-4.53-9.9-4.52-9.92-.14-6.72,0-6.72S9.48,27.74,9.48,27.74Z"/></g><g id="Layer_2-2" data-name="Layer 2"><path class="cls-2" d="M59.3,52.5l.51.28.62.32a11.16,11.16,0,0,0,1.29.51,11.38,11.38,0,0,0,2.68.59,12.83,12.83,0,0,0,2.7,0,11.92,11.92,0,0,0,2.64-.73A9.35,9.35,0,0,0,74,50.53a5.22,5.22,0,0,0,1-2.09,5.79,5.79,0,0,0,.17-1.19c0-.2,0-.4,0-.6s0-.44,0-.48l.26-1.09a1.84,1.84,0,0,1,3.54-.17A7.89,7.89,0,0,1,79.2,46a9.71,9.71,0,0,1,.08,3.14,9.51,9.51,0,0,1-1.53,4,10,10,0,0,1-1.33,1.63,14.31,14.31,0,0,1-1.56,1.28l-.83.55c-.28.17-.56.31-.85.46s-.56.3-.85.44l-.89.36a14.92,14.92,0,0,1-7.64.87,15.12,15.12,0,0,1-3.7-1.07,18.31,18.31,0,0,1-1.7-.89,11.93,11.93,0,0,1-1.65-1.2A2,2,0,0,1,59,52.34Z"/><path class="cls-2" d="M68.67,25.21A11.08,11.08,0,0,1,71,23.69a12.68,12.68,0,0,1,2.57-.94,10.93,10.93,0,0,1,11.09,3.47,14.71,14.71,0,0,1,2.78,5,16.11,16.11,0,0,1,1,5.44,11.25,11.25,0,0,1-1.49,5.75,10.28,10.28,0,0,1-4.35,4A10.85,10.85,0,0,1,77,47.54a2,2,0,0,1-.09-4H77a6.64,6.64,0,0,0,5.35-3.62c.85-1.87.6-4.31-.38-6.72a9.85,9.85,0,0,0-1.79-3,5,5,0,0,0-2.45-1.55,11,11,0,0,0-3.27-.32q-.93,0-1.92.15c-.64.05-1.37.2-2,.23l-.49,0A2,2,0,0,1,68,26.84,2,2,0,0,1,68.67,25.21Z"/><path class="cls-2" d="M54.56,13.25a11,11,0,0,1,1.1-.51,7.84,7.84,0,0,1,1-.33,9.69,9.69,0,0,1,2.15-.3,10.53,10.53,0,0,1,4.29.78,12.31,12.31,0,0,1,3.59,2.27,15.11,15.11,0,0,1,1.42,1.47l.64.77c.21.27.4.62.6.93a10.35,10.35,0,0,1,1.45,4.1,12.14,12.14,0,0,1-.12,4.09,14.75,14.75,0,0,1-1.2,3.65,15,15,0,0,1-2,3.19,1,1,0,0,1-1.44.14,1,1,0,0,1-.35-1l0-.09a23.9,23.9,0,0,0,.87-6.26,8.35,8.35,0,0,0-1.5-5c-.14-.16-.23-.32-.38-.49l-.49-.53a10.33,10.33,0,0,0-1-1,9.62,9.62,0,0,0-2.18-1.45,8.18,8.18,0,0,0-2.39-.73,7.84,7.84,0,0,0-1.29-.08,4.72,4.72,0,0,0-.65,0c-.19,0-.47.05-.53,0l-1.46-.53a1.7,1.7,0,0,1-.21-3.11Z"/><path class="cls-2" d="M28.26,50c.22.23.57.59.88.87s.63.61,1,.9a24.69,24.69,0,0,0,2.07,1.63,22.2,22.2,0,0,0,4.51,2.44,19,19,0,0,0,9.91,1,17.83,17.83,0,0,0,9.14-4,18.68,18.68,0,0,0,3.43-3.9,22.75,22.75,0,0,0,2.43-4.76l.06-.15a1.42,1.42,0,0,1,2.75.6,16.28,16.28,0,0,1-.54,3.22,19.56,19.56,0,0,1-1.06,3,19.84,19.84,0,0,1-3.58,5.51,20.74,20.74,0,0,1-11.64,6.25,23,23,0,0,1-6.68.28,21.15,21.15,0,0,1-6.49-1.83,22,22,0,0,1-5.49-3.72,23,23,0,0,1-2.22-2.41,19.22,19.22,0,0,1-1.84-2.81,2,2,0,0,1,3.2-2.32Z"/><path class="cls-2" d="M24.42,13.47a15.55,15.55,0,0,1,1-3.32,17.77,17.77,0,0,1,1.65-3,16.07,16.07,0,0,1,5.17-4.86l.79-.46c.27-.14.55-.25.83-.38A13.7,13.7,0,0,1,35.62.77L37.39.33A13.33,13.33,0,0,1,39.17.1a22,22,0,0,1,6.91.52,16.82,16.82,0,0,1,6.6,2.91,10.85,10.85,0,0,1,2.73,3,10.64,10.64,0,0,1,1.39,3.81A14.56,14.56,0,0,1,56,17.49a22.12,22.12,0,0,1-1.37,3.05,21.76,21.76,0,0,1-1.8,2.81,2,2,0,0,1-3.41-2.06l.07-.14C51,18,52.11,14.07,51.39,11.36a5,5,0,0,0-2.21-3.09,12.19,12.19,0,0,0-4.42-1.7l-1.29-.21a7.09,7.09,0,0,0-1.28-.15,14.66,14.66,0,0,0-2.48,0,11.62,11.62,0,0,0-4.56,1.22,13.37,13.37,0,0,0-3.9,2.93,19.22,19.22,0,0,0-1.62,2,13.1,13.1,0,0,0-.73,1.1c-.23.36-.47.8-.63,1.08l-.16.27a2,2,0,0,1-3.69-1.38Z"/><path class="cls-2" d="M8,29.73a10.75,10.75,0,0,1-1-6.12,14.75,14.75,0,0,1,1.91-5.7,15.73,15.73,0,0,1,4-4.52,14.1,14.1,0,0,1,5.51-2.59,15,15,0,0,1,6-.3,11.52,11.52,0,0,1,5.67,2.59,13.06,13.06,0,0,1,4.41,10.5,1.43,1.43,0,0,1-2.82.23v-.05a11.1,11.1,0,0,0-4.36-7.06,7.76,7.76,0,0,0-3.57-1.21,11.17,11.17,0,0,0-4,.46,11,11,0,0,0-6.28,4.72,10.21,10.21,0,0,0-1.73,7.53l0,.14A2,2,0,0,1,8,29.73Z"/><path class="cls-2" d="M14.05,29.86c-.82.55-1.79,1.2-2.64,1.81a28.17,28.17,0,0,0-2.4,2,11.14,11.14,0,0,0-3.13,4.58A9.57,9.57,0,0,0,6,43.79,12.13,12.13,0,0,0,8.78,49c2.59,2.81,7,3.68,11.21,2.77a18.29,18.29,0,0,0,6-2.44,14.19,14.19,0,0,0,4.49-4.57l0,0A1.42,1.42,0,0,1,33,46a16,16,0,0,1-4.94,6.23A20.41,20.41,0,0,1,21,55.81a18.24,18.24,0,0,1-8.14.55,14.49,14.49,0,0,1-7.67-3.77A17.32,17.32,0,0,1,.82,45.37,15,15,0,0,1,.5,36.66a14.24,14.24,0,0,1,4.87-7.24,16.75,16.75,0,0,1,3.52-2.16,15,15,0,0,1,3.93-1.21,2,2,0,0,1,1.46,3.65Z"/></g></g></svg>