<svg xmlns="http://www.w3.org/2000/svg" viewBox="0 0 90.63 66.35"><defs><style>.cls-1{fill:#151515;}.cls-2{fill:#fff;}</style></defs><g id="Layer_2" data-name="Layer 2"><g id="Layer_3" data-name="Layer 3"><path class="cls-1" d="M12.09,21.64l.31-.46L20.62,9.29h8.57l8.05-4.51,6.23-1.63L52,6.51,56.92,8.1,64,6.6l8.63,2.78,1.79,3.2,4.35.67,3.12,3.64,2.69,3.17v6L86.66,30l2.15,7.91-3,5.58s-3.25,2.56-4.69,3a23.21,23.21,0,0,0-4.27,2.23L73,52.43,67.89,56s-3.5,1.9-3.59,2-8.4,5.2-8.4,5.2l-7.12-.42-6.31-2.13L37.64,58H29.19L24,56.9l-5.66-4.47-2.83-5.94-1.83-3L9,41.82,4.74,38.4,3.15,33.16l1.36-4.54L6.59,24.9Z"/></g><g id="Layer_2-2" data-name="Layer 2"><path class="cls-2" d="M76.87,45.62a17,17,0,0,0,2.83-.71,12.69,12.69,0,0,0,2.57-1.22,7.43,7.43,0,0,0,3.22-3.95,9.3,9.3,0,0,0,.56-5.25,7.51,7.51,0,0,0-1-2.4A8.42,8.42,0,0,0,84.28,31c-.28-.33-.68-.71-.9-.93l-.23-.24A1.62,1.62,0,0,1,85,27.21a9.05,9.05,0,0,1,1.74,1.15,11.89,11.89,0,0,1,1.43,1.41,10.43,10.43,0,0,1,2,3.61,11.17,11.17,0,0,1,.44,4.09,14.63,14.63,0,0,1-.9,3.85,10.88,10.88,0,0,1-2.12,3.55,11.16,11.16,0,0,1-3.24,2.48,13.2,13.2,0,0,1-3.66,1.28,14.46,14.46,0,0,1-3.81.27,1.64,1.64,0,0,1-.18-3.25Z"/><path class="cls-2" d="M71.87,11.24c.45-.2.69-.32,1-.44a8.3,8.3,0,0,1,1-.29,11.32,11.32,0,0,1,2-.3,11.13,11.13,0,0,1,4.22.64,10.58,10.58,0,0,1,3.73,2.42,12.48,12.48,0,0,1,3.53,7.51,10.54,10.54,0,0,1-.45,4.13,11.92,11.92,0,0,1-1.75,3.47,12.66,12.66,0,0,1-2.61,2.72,1.49,1.49,0,0,1-2.09-.25,1.51,1.51,0,0,1-.09-1.71l.12-.18a15.39,15.39,0,0,0,1.26-2.5,9.61,9.61,0,0,0,.62-2.57,6.69,6.69,0,0,0-1.16-4.46,7.71,7.71,0,0,0-1.5-1.68,6.44,6.44,0,0,0-1.8-.94,10.35,10.35,0,0,0-2.16-.52c-.4-.07-.81-.1-1.24-.15l-.63-.05a1.89,1.89,0,0,1-.55-.07l-1.73-1.09A2.09,2.09,0,0,1,71,12,2.18,2.18,0,0,1,71.87,11.24Z"/><path class="cls-2" d="M62.62,52.22a14.47,14.47,0,0,0,5.21,0,8.86,8.86,0,0,0,2.2-.82A8,8,0,0,0,71.8,50,6.28,6.28,0,0,0,73,48.19,7,7,0,0,0,73.62,46a12.84,12.84,0,0,0,.09-2.5c0-.85-.19-1.8-.31-2.59l0-.24a1.57,1.57,0,0,1,2.89-1.06A12.1,12.1,0,0,1,78,46.37a9.77,9.77,0,0,1-3,6.82,10.43,10.43,0,0,1-3.13,2.1,10.64,10.64,0,0,1-3.59.82,11.77,11.77,0,0,1-3.48-.37,11.41,11.41,0,0,1-3.16-1.32,1.2,1.2,0,0,1,.82-2.22Z"/><path class="cls-2" d="M41.05,54.59c.11.07.34.33.54.5a7,7,0,0,0,.63.58,15.41,15.41,0,0,0,1.33,1.09,16.93,16.93,0,0,0,2.92,1.72,15.05,15.05,0,0,0,3.17,1.1c.53.16,1.11.2,1.67.31a11.75,11.75,0,0,0,1.58.11,16.14,16.14,0,0,0,6.63-1.66,15.56,15.56,0,0,0,3-1.85,6.53,6.53,0,0,0,1.78-2l.27-.58a1.73,1.73,0,0,1,3.31.58,6,6,0,0,1-.59,3,10.65,10.65,0,0,1-1.37,2.22A16.62,16.62,0,0,1,62.31,63a19.41,19.41,0,0,1-4.26,2.23,17.73,17.73,0,0,1-4.85,1.08,17.1,17.1,0,0,1-2.58,0,22.41,22.41,0,0,1-2.43-.41,17.21,17.21,0,0,1-4.64-1.73,17,17,0,0,1-3.94-3A15.05,15.05,0,0,1,38,59.3a12.4,12.4,0,0,1-.68-1A12.11,12.11,0,0,1,36.7,57a2.4,2.4,0,0,1,1.12-3.21,2.37,2.37,0,0,1,2.4.19Z"/><path class="cls-2" d="M17.4,43.29c.18.52.41,1.28.66,1.91a21.8,21.8,0,0,0,2.87,5.34,11,11,0,0,0,6,4,18.46,18.46,0,0,0,1.94.4l1,.06.5,0h.49a14.84,14.84,0,0,0,4-.53,17.36,17.36,0,0,0,3.92-1.57,23.93,23.93,0,0,0,3.63-2.43l.15-.12a1.35,1.35,0,0,1,2,1.72,16.79,16.79,0,0,1-3.36,4.19,17.4,17.4,0,0,1-4.53,3,17,17,0,0,1-5.4,1.55,16.84,16.84,0,0,1-2.84.14,25.54,25.54,0,0,1-2.83-.32,14,14,0,0,1-2.85-.83,14.8,14.8,0,0,1-2.7-1.35,16.31,16.31,0,0,1-4.26-4.14,19,19,0,0,1-2.48-5.08,20.73,20.73,0,0,1-.64-2.67,18.84,18.84,0,0,1-.25-2.82,2.5,2.5,0,0,1,4.87-.82Z"/><path class="cls-2" d="M54,5.54A16.36,16.36,0,0,1,57.6,4.12a19.63,19.63,0,0,1,3.78-.63,15.07,15.07,0,0,1,7.93,1.59,6,6,0,0,1,1,.57,10.53,10.53,0,0,1,.94.66A10.76,10.76,0,0,1,72.78,8a10.45,10.45,0,0,1,1.85,3.89A14.05,14.05,0,0,1,75,15.8a14.87,14.87,0,0,1-.63,3.75,1.55,1.55,0,0,1-1.93,1,1.53,1.53,0,0,1-1.08-1.34l0-.18A16.56,16.56,0,0,0,70,13.44a6.32,6.32,0,0,0-1.39-1.95,5.35,5.35,0,0,0-1.83-1.14,11.05,11.05,0,0,0-2.44-.63,20,20,0,0,0-2.72-.14,28.66,28.66,0,0,0-2.88.2c-.49.07-1,.11-1.47.2l-1.41.2-.3.05A2.51,2.51,0,0,1,54,5.54Z"/><path class="cls-2" d="M30.15,6.72c.3-.39.49-.63.74-.92s.48-.52.73-.77a16.26,16.26,0,0,1,1.6-1.39,17.78,17.78,0,0,1,3.65-2.15A17.56,17.56,0,0,1,45.34.06,11.29,11.29,0,0,1,53.6,4.34a13.21,13.21,0,0,1,2.12,3.81,14.32,14.32,0,0,1,.86,4.11,1.67,1.67,0,0,1-3.16.84l-.1-.2a15.5,15.5,0,0,0-3.59-5,7.67,7.67,0,0,0-2.22-1.29,7.14,7.14,0,0,0-2.44-.37,17.37,17.37,0,0,0-5.82,1.07,22.38,22.38,0,0,0-2.81,1.23c-.45.24-.91.49-1.36.76l-1.24.75-.44.27A2.48,2.48,0,0,1,30,9.53,2.52,2.52,0,0,1,30.15,6.72Z"/><path class="cls-2" d="M12.28,25.36a17.65,17.65,0,0,1-.74-2.48,19.37,19.37,0,0,1-.37-2.52,16.28,16.28,0,0,1,.46-5.29,15.89,15.89,0,0,1,1-2.66A13.59,13.59,0,0,1,14.28,10,12.7,12.7,0,0,1,19,6.51,17.33,17.33,0,0,1,24.18,5.1a14.75,14.75,0,0,1,5.49.41,14.38,14.38,0,0,1,4.86,2.37,14.22,14.22,0,0,1,1.95,1.76,12.32,12.32,0,0,1,1.6,2.17,1.69,1.69,0,0,1-2.31,2.3l-.33-.2c-.47-.27-1.09-.68-1.65-1A14.57,14.57,0,0,0,32,12.13a13.17,13.17,0,0,0-3.53-.89,14,14,0,0,0-6.95,1.15,7.89,7.89,0,0,0-4.39,4.46,15,15,0,0,0-.94,3.61,29.75,29.75,0,0,0-.25,4v.23a1.9,1.9,0,0,1-1.92,1.9A1.92,1.92,0,0,1,12.28,25.36Z"/><path class="cls-2" d="M12.83,24a8.1,8.1,0,0,1-.9.74l-1,.75c-.63.49-1.22,1-1.77,1.49a8.59,8.59,0,0,0-2.44,3.2,7.37,7.37,0,0,0-.31,4A7.82,7.82,0,0,0,8.06,38a7.63,7.63,0,0,0,3.47,2.35,13.48,13.48,0,0,0,4.77.67,17.3,17.3,0,0,0,5-.9,9.43,9.43,0,0,0,4-2.44l.11-.12a1.65,1.65,0,0,1,2.67,1.92,11.91,11.91,0,0,1-5.15,4.42,19.79,19.79,0,0,1-6.19,1.91A17.77,17.77,0,0,1,10,45.52a12.89,12.89,0,0,1-6.28-3.6A13.93,13.93,0,0,1,.37,35.44,13.66,13.66,0,0,1,.68,28,13.52,13.52,0,0,1,5,22a13.31,13.31,0,0,1,3-1.79,11.81,11.81,0,0,1,3.4-.91,2.46,2.46,0,0,1,2.11,4.12Z"/></g></g></svg>