<svg xmlns="http://www.w3.org/2000/svg" viewBox="0 0 98.75 69.33"><defs><style>.cls-1{fill:#151515;}.cls-2{fill:#fff;}</style></defs><g id="Layer_2" data-name="Layer 2"><g id="Layer_3" data-name="Layer 3"><path class="cls-1" d="M6.41,30.93l.28,3.15-4.2,5.36,1.33,5v3.8l1.74,7,4.76,4.6,7.86,1.6,10.21-1.29a11.69,11.69,0,0,1,1.06,1.29,61,61,0,0,0,5.2,3.35l5.84,2s10.22-2.22,11-2.71,3.71-.33,3.71-.33l5.5.33h7.48l7.18-3.71,3.21-5.12H85l6.37-1.73,3.37-5.25V40.69L90,35.9l-5-4.75V28.29l-.3-2.93-5.3-4-4.78-1-4-4.4-.84-4.54-5-3.7L63,4.74l-9.07-.43-5.74.2-8.47-1L32.43,5.26l-4,2.11-5.32,7.36-3.21.41-6.09,1-7.28,4.5-1,9.48-.08.77Z"/></g><g id="Layer_2-2" data-name="Layer 2"><path class="cls-2" d="M83.81,30.12a3.63,3.63,0,0,1,.67-.06h.29l.44,0c.26,0,.54.05.79.09.51.07,1,.17,1.5.28a16.43,16.43,0,0,1,2.89,1,14.48,14.48,0,0,1,5.08,3.73A13.74,13.74,0,0,1,98.38,41a15.24,15.24,0,0,1,.06,6.38,11.68,11.68,0,0,1-3.07,5.82,13.3,13.3,0,0,1-5.48,3.33,16.64,16.64,0,0,1-6.11.75A21.86,21.86,0,0,1,78,56a1.85,1.85,0,0,1,1.11-3.53l.09,0a20.32,20.32,0,0,0,4.78.75,14.19,14.19,0,0,0,4.55-.77,8.87,8.87,0,0,0,3.61-2.34,7.75,7.75,0,0,0,1.83-3.7,10.7,10.7,0,0,0-.1-4.36,9,9,0,0,0-2-3.76,12.77,12.77,0,0,0-3.49-2.75,17.52,17.52,0,0,0-2.14-1c-.36-.15-.73-.3-1.11-.42C85,34,84.78,34,84.6,33.9l-.23-.07-.05,0s-.08,0,0,0a.75.75,0,0,0,.33-.07,1.85,1.85,0,0,1-.85-3.61Z"/><path class="cls-2" d="M70.1,17.84a10.83,10.83,0,0,1,3.6-1.1,12,12,0,0,1,3.78.06,12.18,12.18,0,0,1,7,3.75,9,9,0,0,1,2.33,7.78,11.31,11.31,0,0,1-1.31,3.59,12.91,12.91,0,0,1-2.23,2.89,1.15,1.15,0,0,1-1.82-1.35l0-.11A11.91,11.91,0,0,0,83.07,28a5.23,5.23,0,0,0-1.92-4.09A8.23,8.23,0,0,0,76.65,22c-.87-.15-1.79-.2-2.74-.29s-2-.12-2.87-.25l-.34-.05a1.88,1.88,0,0,1-.6-3.54Z"/><path class="cls-2" d="M46,3.65A13.46,13.46,0,0,1,48.32,2,17.23,17.23,0,0,1,50.89.84,16.86,16.86,0,0,1,56.5,0,19.19,19.19,0,0,1,67,3.69a15.21,15.21,0,0,1,2.22,1.89c.34.37.69.72,1,1.1l.85,1.26A12.23,12.23,0,0,1,73,13.59a14.37,14.37,0,0,1-.67,5.59,15.54,15.54,0,0,1-2.47,4.76,1.21,1.21,0,0,1-1.7.22,1.23,1.23,0,0,1-.42-1.27l0-.13a17,17,0,0,0,.4-8.42,9,9,0,0,0-1.65-3.28l-.59-.69-.71-.63a12.1,12.1,0,0,0-1.54-1.15,18.86,18.86,0,0,0-7.55-2.86,13.21,13.21,0,0,0-2-.11,12.57,12.57,0,0,0-2,.12A16.31,16.31,0,0,0,50,6.1c-.33.09-.68.17-1,.28s-.69.24-.92.28l-.57.12A1.82,1.82,0,0,1,46,3.65Z"/><path class="cls-2" d="M21.25,14.4a14.22,14.22,0,0,1,.36-2.48,16.16,16.16,0,0,1,.74-2.33,19.35,19.35,0,0,1,1.1-2.24l.71-1.06c.25-.35.54-.68.81-1A13.77,13.77,0,0,1,34.21.57c.84,0,1.73-.07,2.54,0s1.56.12,2.34.26A22,22,0,0,1,43.73,2,15.21,15.21,0,0,1,48,4.48a10.84,10.84,0,0,1,1.73,1.85,10.62,10.62,0,0,1,.69,1.1A7.13,7.13,0,0,1,51,8.76a1.11,1.11,0,0,1-.78,1.37,1.12,1.12,0,0,1-.93-.16l-.53-.36c-.11-.08-.36-.37-.56-.54s-.46-.38-.7-.55a9.29,9.29,0,0,0-1.56-.9,15.52,15.52,0,0,0-3.52-1.11c-.62-.12-1.24-.21-1.88-.27s-1.29-.11-1.93-.15-1.31,0-2,0-1.18.1-1.77.13A10.57,10.57,0,0,0,29,9a14.1,14.1,0,0,0-2.27,2.75,17.34,17.34,0,0,0-1,1.62c-.3.54-.61,1.19-.84,1.66l-.14.26a1.85,1.85,0,0,1-3.51-.93Z"/><path class="cls-2" d="M4.69,31.61a14.05,14.05,0,0,1-.93-2.36,16.44,16.44,0,0,1-.54-2.43,13.77,13.77,0,0,1,.25-5.21,11.84,11.84,0,0,1,7-8,14,14,0,0,1,2.44-.84l1.28-.3c.44-.06.89-.1,1.33-.14a11.71,11.71,0,0,1,5.25.84A13,13,0,0,1,25,16a13.38,13.38,0,0,1,2.79,4A1.09,1.09,0,0,1,26,21.21l-.1-.09a14.42,14.42,0,0,0-6.54-3.84,11.12,11.12,0,0,0-1.71-.22c-.28,0-.57,0-.85,0l-.43,0L16,17.2l-.85.14-.84.27a13,13,0,0,0-1.66.69,4,4,0,0,0-.77.42l-.73.44a10.52,10.52,0,0,0-1.2,1.09,7.75,7.75,0,0,0-1,1.24A11.58,11.58,0,0,0,8.33,23a11.51,11.51,0,0,0-.53,3.5,15.36,15.36,0,0,0,.09,1.91c.05.63.16,1.34.25,1.87l0,.24a1.85,1.85,0,0,1-3.49,1.12Z"/><path class="cls-2" d="M14.65,33a22.37,22.37,0,0,0-3,.2A8.55,8.55,0,0,0,9.15,34a7.29,7.29,0,0,0-3.5,3.63A7.48,7.48,0,0,0,4.9,40a4.67,4.67,0,0,0,0,1.12,6.06,6.06,0,0,0,.31,1.06,6.5,6.5,0,0,0,1.46,2.07,11.09,11.09,0,0,0,1.09.93c.38.28.85.59,1.17.78l.2.12a1.85,1.85,0,0,1-1.5,3.35,11.17,11.17,0,0,1-1.95-.79,10.8,10.8,0,0,1-1.75-1.09A9.92,9.92,0,0,1,1,44.26a7,7,0,0,1-.49-1.08C.39,42.8.28,42.41.18,42A9.51,9.51,0,0,1,0,39.66a11.82,11.82,0,0,1,1.15-4.24,19.73,19.73,0,0,1,1.06-1.83,12.23,12.23,0,0,1,1.41-1.67A9.49,9.49,0,0,1,7.43,29.5a9.63,9.63,0,0,1,4.33-.4,9.42,9.42,0,0,1,3.88,1.46A1.33,1.33,0,0,1,16,32.41a1.3,1.3,0,0,1-1.06.59Z"/><path class="cls-2" d="M54.53,61.27c-.06-.08.11,0,.18.06a3.65,3.65,0,0,0,.35.14c.23.1.5.19.76.28a12.29,12.29,0,0,0,1.69.38,22.05,22.05,0,0,0,3.67.24A33.52,33.52,0,0,0,65,62.05a25.8,25.8,0,0,0,3.75-.68A12.82,12.82,0,0,0,72,60.12,10.37,10.37,0,0,0,74.57,58a11.53,11.53,0,0,0,1.81-3,15.47,15.47,0,0,0,1-3.53l0-.17a1.29,1.29,0,0,1,2.54,0A12.93,12.93,0,0,1,79.8,56a12.83,12.83,0,0,1-5.3,8,16.07,16.07,0,0,1-4.42,2,19.84,19.84,0,0,1-2.26.54c-.73.13-1.45.27-2.2.34a28.11,28.11,0,0,1-4.51.21,20.19,20.19,0,0,1-4.63-.73,14.92,14.92,0,0,1-2.28-.89,11.57,11.57,0,0,1-1.11-.66c-.18-.12-.37-.27-.55-.41a5.61,5.61,0,0,1-.63-.58,1.85,1.85,0,1,1,2.62-2.62Z"/><path class="cls-2" d="M30.2,58.57c.08.16.24.53.4.8a7.61,7.61,0,0,0,.51.87,11.13,11.13,0,0,0,1.29,1.52,9.43,9.43,0,0,0,3.34,2.05,17.89,17.89,0,0,0,8.52.49,19.81,19.81,0,0,0,4.22-1.1A11.53,11.53,0,0,0,51.92,61a13,13,0,0,0,3.49-7.76,1.36,1.36,0,0,1,2.71.12,17.13,17.13,0,0,1-.56,5.37,12.82,12.82,0,0,1-2.67,5,14.26,14.26,0,0,1-4.58,3.47A21.08,21.08,0,0,1,45,68.9a19.89,19.89,0,0,1-11-.75,12.19,12.19,0,0,1-6.44-5.89A11.5,11.5,0,0,1,27,60.91a10.85,10.85,0,0,1-.42-1.54A1.83,1.83,0,0,1,30,58.2Z"/><path class="cls-2" d="M7.11,47.39c0,.24-.13.64-.16,1s-.08.71-.11,1.06a10.8,10.8,0,0,0,.08,2.06A7.2,7.2,0,0,0,8.3,54.94a8.25,8.25,0,0,0,3,2.47,11.91,11.91,0,0,0,1.94.91c.68.27,1.43.45,2.13.7s1.45.31,2.17.48c.37.06.73.06,1.09.1a8,8,0,0,0,1.09.08,13.11,13.11,0,0,0,2.17-.14A13.52,13.52,0,0,0,24,59.11a16.36,16.36,0,0,0,4-1.91,18.35,18.35,0,0,0,3.49-3l.09-.1a1,1,0,0,1,1.73,1.14,15.52,15.52,0,0,1-3.25,4.49,16.77,16.77,0,0,1-4.66,3.17,17.91,17.91,0,0,1-11.27.94c-.9-.25-1.81-.43-2.7-.77a19.65,19.65,0,0,1-2.67-1.19,12.45,12.45,0,0,1-4.59-4.1,7.49,7.49,0,0,1-.79-1.41,10.51,10.51,0,0,1-.92-3l-.1-.78,0-.77a12.81,12.81,0,0,1,.32-3,13,13,0,0,1,1-2.85,1.84,1.84,0,0,1,3.47,1.12Z"/></g></g></svg>