<svg xmlns="http://www.w3.org/2000/svg" viewBox="0 0 98.63 65.21"><defs><style>.cls-1{fill:#151515;}.cls-2{fill:#fff;}</style></defs><g id="Layer_2" data-name="Layer 2"><g id="Layer_3" data-name="Layer 3"><path class="cls-1" d="M15.43,22.62l6.7-11.19H29l7-5.24L44.15,2l6.73,4.76,5.57.36,5.9-.36,5.57,2.44,2.16,5.08H74l4.06,4.84,1.42,4.33L84,22.62l4.64,2.58,2.11,3.31L90.21,36l3.73,5.14s0,5.09.77,6.17-2,6.15-2,6.15-3.27,2.24-4.12,1.92-5.21-.15-5.67-.21a9,9,0,0,0-3.48,1.55A16.07,16.07,0,0,1,76,59c-1,.41.14-1.17-2.52,0s-4.29-.74-6.3,0-7.87,0-7.87,0l-9.35,2.36-12-1.15L29,62.5l-6.63-1.12-5-1.81L10.46,61.2,3.17,58l-1-8.86L4.9,44.88,3.37,38.41,4.9,32.92l4.21-4.21,7-3.51Z"/></g><g id="Layer_2-2" data-name="Layer 2"><path class="cls-2" d="M91.09,34.39a14.27,14.27,0,0,1,2.06,1.17A13.93,13.93,0,0,1,95,37a12.11,12.11,0,0,1,2.8,4,10.58,10.58,0,0,1,.84,5A12.57,12.57,0,0,1,94,54.53a11,11,0,0,1-4.39,2.09A15.92,15.92,0,0,1,80.86,56a1.1,1.1,0,0,1,.47-2.14h.11a15.25,15.25,0,0,0,7.08-.88,7.55,7.55,0,0,0,2.58-1.75,8.48,8.48,0,0,0,1.58-2.63,8.33,8.33,0,0,0,.55-5.79A9.42,9.42,0,0,0,91.71,40a13.37,13.37,0,0,0-1.14-1.26c-.39-.39-.9-.81-1.24-1.09l-.19-.16a1.86,1.86,0,0,1,2-3.14Z"/><path class="cls-2" d="M70.64,11.67a9.22,9.22,0,0,1,1.52-.07,10.89,10.89,0,0,1,1.4.15,10.6,10.6,0,0,1,2.69.93,8.47,8.47,0,0,1,2.34,1.69,7,7,0,0,1,.92,1.11,7.48,7.48,0,0,1,.75,1.3A9.88,9.88,0,0,1,81,22.26,13.79,13.79,0,0,1,79.45,27a1,1,0,0,1-1.34.4,1,1,0,0,1-.52-1v-.1a17.2,17.2,0,0,0,0-4.12A6.84,6.84,0,0,0,76.36,19a5.4,5.4,0,0,0-.53-.55l-.3-.3a2.55,2.55,0,0,1-.3-.26,10.17,10.17,0,0,0-1.28-1,7.8,7.8,0,0,0-1.51-.73c-.27-.11-.55-.19-.82-.27s-.62-.14-.74-.2L70,15.24a1.89,1.89,0,0,1-.83-2.55A1.93,1.93,0,0,1,70.64,11.67Z"/><path class="cls-2" d="M84.23,39.53a17.33,17.33,0,0,0,4.29-5A6.69,6.69,0,0,0,89,29a9.26,9.26,0,0,0-1.4-2.56,6.6,6.6,0,0,0-2.12-1.67,16,16,0,0,0-6-1.37h-.12a.88.88,0,0,1-.81-1,.91.91,0,0,1,.46-.71,9.32,9.32,0,0,1,8-.31,9,9,0,0,1,3.42,2.74,11,11,0,0,1,1.87,3.76,9,9,0,0,1,.23,4.32A9.87,9.87,0,0,1,90.93,36a14.91,14.91,0,0,1-6,4.78.74.74,0,0,1-1-.36.74.74,0,0,1,.2-.87Z"/><path class="cls-2" d="M62.73,57.64a1.35,1.35,0,0,0-.26-.66s0,0,.09,0,.32.14.53.21a13.53,13.53,0,0,0,1.38.39,20.57,20.57,0,0,0,3,.45,18.57,18.57,0,0,0,6-.41,9.82,9.82,0,0,0,2.64-1A15.91,15.91,0,0,0,78.66,55a8.65,8.65,0,0,0,1.84-2,6.08,6.08,0,0,0,.55-1.22,6.84,6.84,0,0,0,.25-1.28l0-.31a.92.92,0,0,1,1-.82.93.93,0,0,1,.73.53A5.47,5.47,0,0,1,83.55,52a7,7,0,0,1-.27,2.09,9.3,9.3,0,0,1-2,3.56,15.28,15.28,0,0,1-3,2.51,14,14,0,0,1-3.65,1.59,19.41,19.41,0,0,1-7.56.44,19.62,19.62,0,0,1-3.67-.82,12.27,12.27,0,0,1-1.84-.75,7.93,7.93,0,0,1-1-.6,5.71,5.71,0,0,1-.58-.51,2.47,2.47,0,0,1-.69-1.37,1.73,1.73,0,1,1,3.42-.47Z"/><path class="cls-2" d="M39.21,57.27l.65.34c.27.12.53.25.81.35a15.44,15.44,0,0,0,1.7.58A17.2,17.2,0,0,0,46,59.1,22.42,22.42,0,0,0,49.72,59c1.25-.15,2.5-.45,3.82-.73a19.15,19.15,0,0,0,6.85-2.81,8.52,8.52,0,0,0,2.3-2.66A23.35,23.35,0,0,0,64.23,49h0a.71.71,0,0,1,.91-.44.72.72,0,0,1,.47.62,14,14,0,0,1-.34,4.52A10.24,10.24,0,0,1,63,58.08,13.78,13.78,0,0,1,59.06,61a24.1,24.1,0,0,1-4.26,1.73,26.35,26.35,0,0,1-4.46,1,20.57,20.57,0,0,1-4.71.13,17.29,17.29,0,0,1-4.68-1,14.39,14.39,0,0,1-2.22-1c-.35-.2-.71-.42-1-.66-.17-.13-.34-.24-.52-.39s-.31-.25-.57-.48a2,2,0,0,1,2.23-3.23Z"/><path class="cls-2" d="M20.13,57.57a3.58,3.58,0,0,1,.56.3c.21.12.44.23.66.34.45.23.92.42,1.38.6a15.22,15.22,0,0,0,2.87.77,15.66,15.66,0,0,0,3,.19c.51,0,1,0,1.54-.11l.78-.09.74-.16a12.93,12.93,0,0,0,5.46-2.71,20.91,20.91,0,0,0,4.3-5.1l.07-.11a1.06,1.06,0,0,1,1.95.73,16.31,16.31,0,0,1-3.38,7.33,15,15,0,0,1-7,4.79L32,64.66l-1,.22a13.39,13.39,0,0,1-2.11.29,14.67,14.67,0,0,1-4.32-.32,13.52,13.52,0,0,1-4.07-1.61A11.2,11.2,0,0,1,18.7,62a11.22,11.22,0,0,1-1.57-1.73A1.84,1.84,0,0,1,19,57.33Z"/><path class="cls-2" d="M49.19,12.53a11.82,11.82,0,0,1,1.73-3.82,12.27,12.27,0,0,1,3-3.11,11.64,11.64,0,0,1,4.17-1.93,12.05,12.05,0,0,1,4.67-.12A14.11,14.11,0,0,1,67,5a9.84,9.84,0,0,1,3.61,3.16,7.73,7.73,0,0,1,1.3,4.7A7.88,7.88,0,0,1,70.4,17a1,1,0,0,1-1.33.21,1,1,0,0,1-.39-.77v-.19a9.25,9.25,0,0,0-.42-3.09,4.7,4.7,0,0,0-1.38-2.07,7.17,7.17,0,0,0-2.22-1.26,14.34,14.34,0,0,0-2.8-.75,9.41,9.41,0,0,0-5.34.77,22.63,22.63,0,0,0-5.35,3.67l-.11.1a1.15,1.15,0,0,1-1.87-1.13Z"/><path class="cls-2" d="M30.93,10.1a11,11,0,0,1,.49-2,11.56,11.56,0,0,1,.79-1.85,11.92,11.92,0,0,1,2.58-3.3A11.41,11.41,0,0,1,38.54.7,10.48,10.48,0,0,1,40.63.18l1-.14c.35,0,.69,0,1,0h1l1,.12a12.55,12.55,0,0,1,2,.4,10.27,10.27,0,0,1,4,2,8.85,8.85,0,0,1,3.18,5.9,9.76,9.76,0,0,1,0,1.08,9.58,9.58,0,0,1-.11,1.18A1.7,1.7,0,0,1,52,12.17a1.74,1.74,0,0,1-1-.55l-1-1.16c-.05-.06-.1-.32-.18-.5s-.14-.39-.21-.57a6.71,6.71,0,0,0-.57-1,4.89,4.89,0,0,0-1.51-1.43,7.64,7.64,0,0,0-.95-.47,9.32,9.32,0,0,0-1.13-.32,6.36,6.36,0,0,0-1.27-.2l-.66-.07h-.65a9.6,9.6,0,0,0-2.44.29,7.87,7.87,0,0,0-2.13,1,9.28,9.28,0,0,0-1.86,1.71,10,10,0,0,0-.82,1.09c-.25.36-.51.84-.68,1.11l-.27.42a2,2,0,0,1-3.62-1.35Z"/><path class="cls-2" d="M14.71,25.9a9,9,0,0,1-.48-1.16,11.5,11.5,0,0,1-.31-1.11,10.86,10.86,0,0,1-.26-2.29,11.15,11.15,0,0,1,.9-4.63,14.42,14.42,0,0,1,6.14-6.65,19.61,19.61,0,0,1,4-1.77,13,13,0,0,1,4.56-.54,10.1,10.1,0,0,1,4.49,1.36A8.21,8.21,0,0,1,37,12.42a1.24,1.24,0,0,1-.52,1.67,1.26,1.26,0,0,1-1,.06L35,14c-.4-.15-.94-.42-1.41-.57A8.82,8.82,0,0,0,32.12,13a9.52,9.52,0,0,0-2.82,0,13.46,13.46,0,0,0-2.79.75c-.47.22-.94.37-1.41.62s-1,.48-1.39.76a11.12,11.12,0,0,0-4.13,3.93,7.69,7.69,0,0,0-1,2.58,11.27,11.27,0,0,0-.17,1.45c0,.24,0,.49,0,.74s0,.53,0,.64l-.23,1a1.87,1.87,0,0,1-3.51.39Z"/><path class="cls-2" d="M10.07,42c-2.33,2.43-4.61,4.91-5.44,7.43a5.89,5.89,0,0,0,0,3.8,11.12,11.12,0,0,0,2.27,3.65,8.67,8.67,0,0,0,3.51,2.29,6.81,6.81,0,0,0,4.07,0A7.38,7.38,0,0,0,18,56.82a11.41,11.41,0,0,0,2.12-4.2v0a1,1,0,0,1,1.26-.7A1,1,0,0,1,22.09,53a12.23,12.23,0,0,1-1.76,5.52,10,10,0,0,1-11,4.45,12.06,12.06,0,0,1-5.43-3.11A13.75,13.75,0,0,1,.57,54.64a10.13,10.13,0,0,1,0-6.57,11.65,11.65,0,0,1,3.56-5,13.49,13.49,0,0,1,5.07-2.72,1,1,0,0,1,1.21.69,1,1,0,0,1-.24.95Z"/><path class="cls-2" d="M19.85,28.59a16.56,16.56,0,0,0-3.38-.65,12.24,12.24,0,0,0-3.28.18,11.28,11.28,0,0,0-2.93,1.11,12.92,12.92,0,0,0-2.54,2,9.45,9.45,0,0,0-3,5.3A6.6,6.6,0,0,0,5,39.37a10.09,10.09,0,0,0,.58,1.42c.13.23.25.46.39.68s.31.47.38.58l.24.4A2,2,0,0,1,3.56,44.9,12,12,0,0,1,2.68,44c-.26-.3-.48-.62-.72-.94a11.41,11.41,0,0,1-1.12-2.1,10.4,10.4,0,0,1-.77-4.87,10.76,10.76,0,0,1,1.49-4.64l.61-1,.7-.9A12.85,12.85,0,0,1,4.4,27.83a16,16,0,0,1,3.73-2.68,13,13,0,0,1,4.53-1.23,12.48,12.48,0,0,1,4.53.52,11.79,11.79,0,0,1,4,2A1.24,1.24,0,0,1,20,28.64Z"/></g></g></svg>