<svg xmlns="http://www.w3.org/2000/svg" viewBox="0 0 129.66 80.65"><defs><style>.cls-1{fill:#151515;}.cls-2{fill:#fff;}</style></defs><g id="Layer_2" data-name="Layer 2"><g id="Layer_3" data-name="Layer 3"><path class="cls-1" d="M12.48,45.07l10.84-13.9L29.5,19.36l15.92-5L51.2,4.69,62,4l7.89,5.23,3.51,8.48,4.95-1.09,10.28,4.67,1.76,7.09,3.66-1.47,10.17,2.68,4,6.1,1.62,3.89,6.49.23,8,5.23.3,8.43-1.19,11.73-11.21,2.65-9.2-.87-2.92-.79-4.68,5.89-10.8,2.17-6.27-1.54-4.95-.63-7.66,4.07H53l-6.07-2.72-9.77,2.72s-5.91.09-6.9-.22-4.91-2.16-4.91-2.16l-4.45-3.25L9.8,70l-7-6.78L4,53.75A65,65,0,0,1,8.5,48.68C9.15,48.31,12.48,45.07,12.48,45.07Z"/></g><g id="Layer_2-2" data-name="Layer 2"><path class="cls-2" d="M103.07,63c4,1.32,8.77,2.14,12.59,1.47a8.14,8.14,0,0,0,4.62-2.24,11.65,11.65,0,0,0,2.48-4.92c1-3.88.64-8.39-1.45-11.26A8.93,8.93,0,0,0,117.08,43,21.68,21.68,0,0,0,111,41.87h-.07a2.11,2.11,0,0,1-.47-4.13,16,16,0,0,1,8.26-.31,13.24,13.24,0,0,1,7.54,4.93,17.18,17.18,0,0,1,3.25,8.13,22.69,22.69,0,0,1-.48,8.38,17.28,17.28,0,0,1-4.08,7.83,14.63,14.63,0,0,1-8.16,4.07,25.1,25.1,0,0,1-8.22-.1,38.37,38.37,0,0,1-3.86-.83,35.76,35.76,0,0,1-3.79-1.26,3,3,0,0,1,2-5.64Z"/><path class="cls-2" d="M89.52,24.7c.49-.18.77-.29,1.14-.41s.71-.21,1.06-.29a19.71,19.71,0,0,1,2.15-.37,17.78,17.78,0,0,1,4.43.06,15.44,15.44,0,0,1,8.3,3.84,14.41,14.41,0,0,1,1.57,1.67A20.43,20.43,0,0,1,109.45,31a15.7,15.7,0,0,1,1.89,4,12.62,12.62,0,0,1,.57,4.44,11.9,11.9,0,0,1-.33,2.22,10.38,10.38,0,0,1-.84,2.19,1.5,1.5,0,0,1-2,.64,1.49,1.49,0,0,1-.8-1.26l0-.62c0-.12,0-.44,0-.67s0-.51,0-.77a12.86,12.86,0,0,0-.18-1.52,9.81,9.81,0,0,0-1.06-2.82,12.08,12.08,0,0,0-1.78-2.47,14.5,14.5,0,0,0-1.1-1.12,12.87,12.87,0,0,0-1.13-.91,12.11,12.11,0,0,0-5.3-1.9,21.63,21.63,0,0,0-3-.16c-.52,0-1,0-1.57.07l-.77.06-.67.05-.86,0a2.95,2.95,0,0,1-1-5.7Z"/><path class="cls-2" d="M77.81,69s.13.07.23.12l.35.18a7.82,7.82,0,0,0,.77.36,14.08,14.08,0,0,0,1.65.63,18.86,18.86,0,0,0,3.54.74,21.9,21.9,0,0,0,3.72.09c.63-.06,1.26-.1,1.9-.21l1-.13.81-.21a9.35,9.35,0,0,0,5.47-3.69,20,20,0,0,0,3.11-7.17l0-.11a1.11,1.11,0,0,1,1.34-.82,1.13,1.13,0,0,1,.84.89,16.31,16.31,0,0,1,.09,4.78,16,16,0,0,1-1.34,4.76,9,9,0,0,1-.61,1.14,7.62,7.62,0,0,1-.71,1.1c-.27.35-.52.73-.82,1.06l-1,.95a8.58,8.58,0,0,1-1.06.85,7.77,7.77,0,0,1-1.13.77,12.9,12.9,0,0,1-2.45,1.13l-1.27.43-1.19.28a23.76,23.76,0,0,1-2.41.41,21.89,21.89,0,0,1-5,.07,20.36,20.36,0,0,1-5-1.11,17.19,17.19,0,0,1-2.37-1.06c-.38-.2-.76-.43-1.14-.68-.19-.13-.38-.25-.57-.4s-.35-.26-.66-.52A3,3,0,0,1,77.81,69Z"/><path class="cls-2" d="M48.44,71.65s.23,0,.36.06l.47.12,1,.22c.67.15,1.36.27,2.06.38s1.39.2,2.1.26,1.41.14,2.12.18c1.42,0,2.86.1,4.3,0,.72,0,1.45-.1,2.18-.12s1.35-.12,2-.22a15,15,0,0,0,7.08-2.87,13.78,13.78,0,0,0,2.76-2.88A17,17,0,0,0,76,65c.34-.61.66-1.34.9-1.9l.11-.26a1.46,1.46,0,0,1,2.8.49,13.53,13.53,0,0,1-.1,2.8,15.13,15.13,0,0,1-.64,2.7,15.47,15.47,0,0,1-2.75,5,18.2,18.2,0,0,1-9.74,6,24.55,24.55,0,0,1-2.74.54c-.88.09-1.75.22-2.64.25a28.83,28.83,0,0,1-5.33-.13,26.13,26.13,0,0,1-5.28-1.11,23.11,23.11,0,0,1-2.57-1l-1.25-.64-.63-.38c-.23-.14-.39-.25-.71-.47a.78.78,0,0,1-.21-1.08l0,0Z"/><path class="cls-2" d="M25.42,70.05c0-.06.11.06.19.11l.3.21c.21.14.42.29.66.42a12.63,12.63,0,0,0,1.46.78,18,18,0,0,0,3.21,1.17,25.3,25.3,0,0,0,7.1.81,12.68,12.68,0,0,0,6.33-1.75,13.53,13.53,0,0,0,2.68-2.15,13.94,13.94,0,0,0,1.17-1.36c.35-.45.73-1,1-1.41l.18-.28a1.77,1.77,0,0,1,2.45-.53A1.79,1.79,0,0,1,52.91,68a14.24,14.24,0,0,1-.74,2.36,16.38,16.38,0,0,1-1.08,2.13,15.55,15.55,0,0,1-3.17,3.72A16.55,16.55,0,0,1,38.82,80a30.71,30.71,0,0,1-4.69.09,25.5,25.5,0,0,1-4.69-.83,20.24,20.24,0,0,1-4.5-1.88,17.58,17.58,0,0,1-2.07-1.41c-.33-.26-.65-.55-1-.85-.15-.16-.31-.31-.47-.49s-.29-.31-.55-.62a3,3,0,0,1,4.55-3.91Z"/><path class="cls-2" d="M72,15.1l.62-.35.54-.26a10.61,10.61,0,0,1,1.06-.42,12.76,12.76,0,0,1,2.21-.55,13.09,13.09,0,0,1,8.9,1.71,13.69,13.69,0,0,1,3.53,2.94,11.18,11.18,0,0,1,2.19,4.19,13.36,13.36,0,0,1,.45,4.34,18.18,18.18,0,0,1-2.24,7.66,1.41,1.41,0,0,1-2.63-.87l0-.15a21.52,21.52,0,0,0,.08-6.45,7.78,7.78,0,0,0-2.29-4.65,10.71,10.71,0,0,0-2.18-1.38,9.1,9.1,0,0,0-2.44-.77A9.8,9.8,0,0,0,77.29,20c-.43.05-.88.09-1.31.18l-.64.14-.31.07c-.07,0-.23.07-.19,0A3,3,0,1,1,72,15.1Z"/><path class="cls-2" d="M41.35,12.37c.11-.42.18-.64.27-.94s.18-.55.29-.82c.2-.53.43-1,.68-1.57a18.2,18.2,0,0,1,1.82-2.92,15.62,15.62,0,0,1,5.51-4.58A15.44,15.44,0,0,1,57,0a20.31,20.31,0,0,1,6.62,1.24,17.15,17.15,0,0,1,5.94,3.43,14,14,0,0,1,3.89,5.79A16.62,16.62,0,0,1,74.28,17,19.57,19.57,0,0,1,73,23.13a1.39,1.39,0,0,1-1.8.8,1.42,1.42,0,0,1-.89-1.45l0-.14c.37-3.45,0-7.21-1.47-9.93a9.73,9.73,0,0,0-2.93-3.34A12.77,12.77,0,0,0,61.7,7.2c-3.22-.82-6.37-.83-8.79.43a10.44,10.44,0,0,0-3.35,2.63,14.4,14.4,0,0,0-1.37,1.86,10.32,10.32,0,0,0-.6,1l-.27.51c-.08.14-.17.38-.21.41l-.76.91a2.89,2.89,0,0,1-5-2.59Z"/><path class="cls-2" d="M21.23,31.58a24.21,24.21,0,0,1,1.08-5.38,25.56,25.56,0,0,1,2.19-5.06A20.9,20.9,0,0,1,28,16.57a16.79,16.79,0,0,1,4.89-3.46,17.76,17.76,0,0,1,11.6-1.36,18.48,18.48,0,0,1,5.34,2.13,16.59,16.59,0,0,1,4.33,3.64,1.67,1.67,0,0,1-2,2.58L51.89,20c-.59-.28-1.34-.65-2-.92s-1.41-.54-2.11-.77a19,19,0,0,0-4.23-.85,15.92,15.92,0,0,0-8,1.35,11,11,0,0,0-1.73,1A13.3,13.3,0,0,0,32.18,21a20.52,20.52,0,0,0-2.85,3.2A31.84,31.84,0,0,0,27,28.09c-.7,1.35-1.36,2.86-1.9,4.21l-.06.16a2,2,0,0,1-3.77-.88Z"/><path class="cls-2" d="M13.21,55c-.11-.13-.23-.26-.33-.4l-.15-.21-.07-.1-.24-.38c-.15-.25-.27-.47-.4-.7-.23-.46-.46-.92-.65-1.39a14.23,14.23,0,0,1-.5-1.43,12.38,12.38,0,0,1-.39-1.48,15.91,15.91,0,0,1-.1-6.27,14.56,14.56,0,0,1,.92-3.13,16.55,16.55,0,0,1,1.62-2.84A15.88,15.88,0,0,1,15,34.24a28.64,28.64,0,0,1,2.43-2c.45-.29.91-.56,1.38-.83l.69-.39.76-.32,1.53-.6c.55-.14,1.09-.26,1.64-.38a14.21,14.21,0,0,1,6.56.36,17.41,17.41,0,0,1,5.49,2.82,18.84,18.84,0,0,1,2.2,2,16.53,16.53,0,0,1,1.91,2.31,2,2,0,0,1-2.9,2.8l-.21-.16c-.53-.39-1.23-.9-1.87-1.3a18.5,18.5,0,0,0-2-1.15A14.78,14.78,0,0,0,28.56,36a9.75,9.75,0,0,0-7.38,1.75c-.55.4-1.13.84-1.65,1.3a13.56,13.56,0,0,0-1.36,1.49,10.32,10.32,0,0,0-1.08,1.64A13.92,13.92,0,0,0,16.37,44a13.07,13.07,0,0,0-.46,4.15,15,15,0,0,0,.24,2.2c.05.38.15.73.23,1.09l.12.5.06.2s0,0,0,0l-.06-.07a.64.64,0,0,0-.15-.13,2.19,2.19,0,0,1-3.15,3Z"/><path class="cls-2" d="M12.08,49.64a2.11,2.11,0,0,1-.39.24l-.5.29c-.33.21-.66.4-1,.63s-.6.48-.92.69-.58.48-.82.76a9.89,9.89,0,0,0-2.43,3.84,13.69,13.69,0,0,0-.59,2.37A18,18,0,0,0,5.31,61c0,.43,0,.9,0,1.3a7.11,7.11,0,0,0,.17,1.06,5.13,5.13,0,0,0,.79,1.86A7.59,7.59,0,0,0,9.76,68a15.4,15.4,0,0,0,5,1.11A18.47,18.47,0,0,0,20,68.68a10,10,0,0,0,2.33-.81,3.4,3.4,0,0,0,1.33-1.05l.17-.27A1.79,1.79,0,0,1,27,68.15a6.6,6.6,0,0,1-2.77,3.08,13.93,13.93,0,0,1-3.17,1.38,21.39,21.39,0,0,1-6.48.93A20.34,20.34,0,0,1,8,72.42,15.39,15.39,0,0,1,4.84,70.8a11.16,11.16,0,0,1-2.72-2.64,10.6,10.6,0,0,1-1.65-3.5,12,12,0,0,1-.34-1.87c-.06-.58-.07-1.1-.1-1.66a25.15,25.15,0,0,1,.1-3.35,18.7,18.7,0,0,1,.73-3.41,14.54,14.54,0,0,1,3.71-6.16,11.84,11.84,0,0,1,3-2.09,11.26,11.26,0,0,1,1.69-.68c.3-.08.58-.17.89-.23s.58-.1,1-.16a1.88,1.88,0,0,1,2.1,1.63,1.86,1.86,0,0,1-.21,1.12Z"/></g></g></svg>