<svg xmlns="http://www.w3.org/2000/svg" viewBox="0 0 93.86 64.24"><defs><style>.cls-1{fill:#151515;}.cls-2{fill:#fff;}</style></defs><g id="Layer_2" data-name="Layer 2"><g id="Layer_3" data-name="Layer 3"><path class="cls-1" d="M13.18,26.44l5.87-4.64,6.19-6,5.85-.22a31,31,0,0,0,4-3.17c.78-1,5.42-8,5.42-8l8.55-1.26,4.42,1,5.81,4.15v5.45l2.89,3.11,7.72,1.63,5.14,6.32L73.6,33.2,78,31.77l7.33.34,4.6,6.77,1.72,7.71-4.92,4.93L80.1,55.11l-2.84-.3L73.6,60.76s-7.7,1.11-9.12,1-7.77-3.45-7.77-3.45l-2.79.3-9.11,2.18-7.56-2.48-3.94-1.48-7.11.85-6.57-1.26-4.32-3.11L9.92,50.53S5.62,47.91,5,47a34.21,34.21,0,0,1-2.39-7.28,14.67,14.67,0,0,1,1-5.84c1-2.16,5.65-6.16,5.65-6.16Z"/></g><g id="Layer_2-2" data-name="Layer 2"><path class="cls-2" d="M36.85,55.39s.14.17.24.27.22.24.34.36a7.46,7.46,0,0,0,.8.67,9,9,0,0,0,1.87,1.05,11.62,11.62,0,0,0,4.41.84,14.62,14.62,0,0,0,4.6-.64,13.13,13.13,0,0,0,2.18-.85,9.94,9.94,0,0,0,1-.54,9.3,9.3,0,0,0,.86-.56l.16-.11A2,2,0,0,1,55.82,59a13.76,13.76,0,0,1-1.32,1c-.42.28-.86.55-1.3.79A16.76,16.76,0,0,1,50.41,62a18.05,18.05,0,0,1-6,.93,15.42,15.42,0,0,1-6-1.27A12.73,12.73,0,0,1,35.65,60a9.65,9.65,0,0,1-1.18-1.13,9.43,9.43,0,0,1-1.09-1.46,2,2,0,1,1,3.47-2Z"/><path class="cls-2" d="M60,15.44A8.56,8.56,0,0,1,61.13,15a8.3,8.3,0,0,1,1.09-.28,10.84,10.84,0,0,1,2.21-.24,12.16,12.16,0,0,1,4.35.85,15.05,15.05,0,0,1,6.47,5.31,12.24,12.24,0,0,1,1.91,4,9.81,9.81,0,0,1,.31,2.3,9.23,9.23,0,0,1-.31,2.29,10.3,10.3,0,0,1-2,3.85A13,13,0,0,1,72,35.74h0a1.38,1.38,0,0,1-1.71-2.17l.1-.09a16.73,16.73,0,0,1,2.81-1.84,15.57,15.57,0,0,1,3.11-1.3,12.47,12.47,0,0,1,7-.21,12.3,12.3,0,0,1,6,4,17.85,17.85,0,0,1,2,2.86,26.4,26.4,0,0,1,1.43,3,14.91,14.91,0,0,1,1,7,10.6,10.6,0,0,1-3.58,6.61,14.37,14.37,0,0,1-6.39,3.12,15.28,15.28,0,0,1-7,0,2,2,0,0,1,.85-3.91l.09,0a12.08,12.08,0,0,0,9.6-2.45,6.36,6.36,0,0,0,2.11-3.94,10.56,10.56,0,0,0-.72-4.95c-1.33-3.45-3.44-6.64-6.51-7.62s-7,0-10.18,1.8l-1.61-2.26h0a12,12,0,0,0,2-2.42,7.06,7.06,0,0,0,1-2.7,5.67,5.67,0,0,0-.24-2.62,8.25,8.25,0,0,0-1.44-2.47,12.51,12.51,0,0,0-4.69-3.79,7.54,7.54,0,0,0-2.75-.66,9.49,9.49,0,0,0-1.41,0l-.7.11-.55.13-.72.05a1.93,1.93,0,0,1-1-3.67Z"/><path class="cls-2" d="M54.81,51.48a12.2,12.2,0,0,0,4.1,6.1A9.87,9.87,0,0,0,62,58.91a12.22,12.22,0,0,0,1.73.25l.89.07.94,0A11.29,11.29,0,0,0,72,57.35a8.84,8.84,0,0,0,2.26-2.44,12.1,12.1,0,0,0,.86-1.59,17.16,17.16,0,0,0,.64-1.68l.11-.3a1.52,1.52,0,0,1,3,.41,10.64,10.64,0,0,1-.11,2.55,12.58,12.58,0,0,1-.65,2.44,11.37,11.37,0,0,1-3,4.31A12.43,12.43,0,0,1,73,62.62c-.39.2-.8.37-1.21.55l-.61.26-.62.18-1.25.33c-.42.09-.83.12-1.25.18s-.83.1-1.24.12H65.55l-1.21,0L63.09,64a13.88,13.88,0,0,1-2.49-.6,11.92,11.92,0,0,1-4.42-2.78,11.25,11.25,0,0,1-2.6-4.32A11.49,11.49,0,0,1,53,51.57a.91.91,0,0,1,1-.82.9.9,0,0,1,.77.62Z"/><path class="cls-2" d="M17.24,50.46c.07.09.21.38.36.58s.3.45.45.67a10.09,10.09,0,0,0,1.07,1.19,9.41,9.41,0,0,0,2.61,1.75,12.45,12.45,0,0,0,3.15.9c.58,0,1.14.16,1.73.14a12.64,12.64,0,0,0,1.75,0,9.78,9.78,0,0,0,6-2.31,15.79,15.79,0,0,0,4-5.9l.06-.12A1.15,1.15,0,0,1,40,46.7a1.17,1.17,0,0,1,.72,1.11,14.15,14.15,0,0,1-3.31,8.49,12.7,12.7,0,0,1-3.84,3,12.47,12.47,0,0,1-2.31.88,12.5,12.5,0,0,1-2.39.48,20.35,20.35,0,0,1-4.68,0,14.9,14.9,0,0,1-4.65-1.47,12.52,12.52,0,0,1-3.88-3.13,11.25,11.25,0,0,1-1.86-3.24,5.45,5.45,0,0,1-.2-.61c-.07-.22-.11-.39-.19-.71a1.93,1.93,0,0,1,1.44-2.3,1.9,1.9,0,0,1,1.88.63Z"/><path class="cls-2" d="M31.7,13.59a14.11,14.11,0,0,1,.71-3.29,16.42,16.42,0,0,1,1.38-3.06,14.45,14.45,0,0,1,4.86-5A15.69,15.69,0,0,1,45.39.06a10,10,0,0,1,1.73,0c.57,0,1.15,0,1.71.06,1.1.18,2.2.32,3.28.57a17.26,17.26,0,0,1,6.35,2.82A13,13,0,0,1,61.11,6.1,12.06,12.06,0,0,1,62.8,9.46a14.09,14.09,0,0,1,.33,6.91,18.87,18.87,0,0,1-.87,3.14,19.08,19.08,0,0,1-1.39,2.94A1.54,1.54,0,0,1,58,21.29l0-.14c.88-3.4,1.15-7.28-.1-9.92a7.21,7.21,0,0,0-2.75-3.14A14.69,14.69,0,0,0,50.79,6.4a14.64,14.64,0,0,0-9.38.7A11.23,11.23,0,0,0,37.69,10l-.79,1c-.24.35-.52.69-.73,1.06a22.33,22.33,0,0,0-1.26,2.24l-.13.24a1.64,1.64,0,0,1-3.08-.91Z"/><path class="cls-2" d="M15.29,24.81a9.11,9.11,0,0,1,0-1.16,8.71,8.71,0,0,1,.11-1,10.75,10.75,0,0,1,.54-2A10.88,10.88,0,0,1,18.16,17a12.68,12.68,0,0,1,3.35-2.47,15.93,15.93,0,0,1,3.75-1.26,12.49,12.49,0,0,1,8,.75,10.31,10.31,0,0,1,3.27,2.43,10.64,10.64,0,0,1,1.18,1.6,9.43,9.43,0,0,1,.87,1.86,1.39,1.39,0,0,1-.85,1.77,1.37,1.37,0,0,1-1.52-.41L36,21c-.23-.27-.57-.69-.9-1A11.44,11.44,0,0,0,34,19.12a7.52,7.52,0,0,0-2.37-1.18,9.59,9.59,0,0,0-5.28.08,10.47,10.47,0,0,0-4.7,2.41,7.69,7.69,0,0,0-1.49,2,7.86,7.86,0,0,0-.53,1.18c-.06.2-.14.41-.19.61s-.1.45-.14.52l-.57.94a1.85,1.85,0,0,1-3.43-.85Z"/><path class="cls-2" d="M20.13,29.38c-3.7-.69-8-.56-10.73,1.18a7.71,7.71,0,0,0-3.06,3.65,11.06,11.06,0,0,0-.76,2.54l-.22,1.36a10.27,10.27,0,0,0-.07,1.35,10.29,10.29,0,0,0,1.08,5,8.21,8.21,0,0,0,3.44,3.39,8.56,8.56,0,0,0,4.91.85,11.43,11.43,0,0,0,5-1.89l.09-.05a2,2,0,0,1,2.37,3.21,14.88,14.88,0,0,1-6.75,3.25,13,13,0,0,1-7.72-.92,12.86,12.86,0,0,1-5.85-5.33A14.84,14.84,0,0,1,0,39.42a16.79,16.79,0,0,1,.09-1.88L.37,35.7a15,15,0,0,1,1.14-3.63,12.44,12.44,0,0,1,5.31-5.94,15.16,15.16,0,0,1,7.4-1.79,21.3,21.3,0,0,1,3.59.32,19.6,19.6,0,0,1,3.5.9,2,2,0,0,1-1,3.85Z"/></g></g></svg>