<svg xmlns="http://www.w3.org/2000/svg" viewBox="0 0 121.36 73.04"><defs><style>.cls-1{fill:#151515;}.cls-2{fill:#fff;}</style></defs><g id="Layer_2" data-name="Layer 2"><g id="Layer_3" data-name="Layer 3"><path class="cls-1" d="M4.36,58.85,5.57,48,7.29,38.8l6.93-4.22,3.73-7,4.71-6.34,9.55-9.89,9.06-.71,6.28-7.37,9.23.57,7.73,5.08,2.62,4.66,5.05.55L77,18l1,3.28,5.5.85,5,5.45L89,31l5.6,1.29,5.67,1.83,4,5.54,4.89.13L116,41.88l3.06,6-.68,5.83-4.22,4.7-4.59,0-3.84,5.76-4.67.87a38.53,38.53,0,0,0-6.46,0,37.92,37.92,0,0,0-5.5,2.43l-5.6-.82-3.3,2.43L75,70.35l-6.55-1.19-10.89.67-5.72-2.31-5,2.66-7.84-1.81-4.52-1.56L23.63,66l-5.36-1.11L13,63.39,4.83,62.16Z"/></g><g id="Layer_2-2" data-name="Layer 2"><path class="cls-2" d="M97.56,61.87c.57.13,1.34.35,2,.46a12,12,0,0,0,2,.23,10.78,10.78,0,0,0,1.9-.12c.3-.07.6-.13.89-.21l.43-.14a3.27,3.27,0,0,0,.33-.14,5.21,5.21,0,0,0,2.17-2.51,27.34,27.34,0,0,0,1.5-4.27l0-.12a1,1,0,0,1,1.28-.7,1,1,0,0,1,.7.7,11.39,11.39,0,0,1,.2,5.6,9.18,9.18,0,0,1-1.16,2.9,7.08,7.08,0,0,1-2.5,2.42,8.52,8.52,0,0,1-.8.4l-.74.29a9.28,9.28,0,0,1-1.53.39,10.65,10.65,0,0,1-3.08.09,11.45,11.45,0,0,1-2.88-.7A10.41,10.41,0,0,1,95.74,65a1.82,1.82,0,0,1,1.48-3.24Z"/><path class="cls-2" d="M85.85,63.12c.23.07.67.23,1,.32s.76.2,1.14.26a9.64,9.64,0,0,0,6.61-1.14,3,3,0,0,0,1.21-1.24,6.56,6.56,0,0,0,.74-2.11,15.19,15.19,0,0,0,.19-2.56,11.83,11.83,0,0,0-.05-1.33c0-.41-.11-.93-.14-1.17l0-.35a.65.65,0,0,1,.58-.71.67.67,0,0,1,.56.22,5.9,5.9,0,0,1,.92,1.47,11.31,11.31,0,0,1,.57,1.46,12.45,12.45,0,0,1,.57,3.14,9.17,9.17,0,0,1-.51,3.44,6.68,6.68,0,0,1-2.36,3.11,11.62,11.62,0,0,1-6.43,2.19,11,11,0,0,1-3.39-.42,13.22,13.22,0,0,1-1.59-.59,9.62,9.62,0,0,1-1.56-.9A1.81,1.81,0,0,1,85.45,63Z"/><path class="cls-2" d="M69.43,66.43l1.27.37a13.27,13.27,0,0,0,1.39.31,16.57,16.57,0,0,0,2.78.32,14.26,14.26,0,0,0,2.77-.15,11.76,11.76,0,0,0,2.51-.59,4.2,4.2,0,0,0,1.72-1.27,7.63,7.63,0,0,0,1.26-2.28,24.23,24.23,0,0,0,1.13-6.07v0a.62.62,0,0,1,.66-.57.63.63,0,0,1,.53.38,14.59,14.59,0,0,1,1,7,10,10,0,0,1-1.19,3.81,8.06,8.06,0,0,1-3.13,3.08,10.21,10.21,0,0,1-1.94.78,15.1,15.1,0,0,1-1.85.45,15.69,15.69,0,0,1-3.81.17,14.89,14.89,0,0,1-3.7-.8,15.79,15.79,0,0,1-1.74-.76,12,12,0,0,1-1.68-1.08,1.82,1.82,0,0,1,1.61-3.19Z"/><path class="cls-2" d="M54.12,64.92l1.43.63c.51.21,1,.39,1.52.55a13.52,13.52,0,0,0,3,.6,11.68,11.68,0,0,0,5.84-1.09,9.34,9.34,0,0,0,2.32-1.74,9,9,0,0,0,1.58-2.64,15.48,15.48,0,0,0,.88-6.89v-.06a.66.66,0,0,1,.6-.71.67.67,0,0,1,.65.35,13.42,13.42,0,0,1,1.32,8.19,11.74,11.74,0,0,1-1.59,4.27,12.06,12.06,0,0,1-3.31,3.33,17.36,17.36,0,0,1-2,1.08l-1.06.44-1.11.31a12.45,12.45,0,0,1-4.63.28,13.08,13.08,0,0,1-4.34-1.4,12.2,12.2,0,0,1-1.87-1.21,10.84,10.84,0,0,1-1.66-1.61,1.82,1.82,0,0,1,2.13-2.83Z"/><path class="cls-2" d="M35.57,66.64c.32.17.85.43,1.3.63s1,.39,1.43.54a14.53,14.53,0,0,0,2.94.67,12.13,12.13,0,0,0,2.95,0,11.33,11.33,0,0,0,2.87-.66,9,9,0,0,0,4.45-3.57,11.78,11.78,0,0,0,1.33-2.82,9.77,9.77,0,0,0,.52-3.12v-.09a.72.72,0,0,1,.7-.73.7.7,0,0,1,.67.43,8.66,8.66,0,0,1,.61,3.93,11.64,11.64,0,0,1-.89,3.9,11.07,11.07,0,0,1-2.26,3.49,11.82,11.82,0,0,1-3.45,2.46,15.17,15.17,0,0,1-4,1.19A14.39,14.39,0,0,1,35,70.77a11.51,11.51,0,0,1-1.69-1.29,1.82,1.82,0,0,1,2.05-3Z"/><path class="cls-2" d="M19.54,62.41c.34.12.85.4,1.3.58s.93.39,1.41.56.95.33,1.43.46a11.85,11.85,0,0,0,1.45.37,24.4,24.4,0,0,0,2.95.44,25.36,25.36,0,0,0,3,0,10.42,10.42,0,0,0,5.23-1.48,5.86,5.86,0,0,0,2.48-4.75v-.05a.83.83,0,0,1,1.56-.35A6.82,6.82,0,0,1,41,62.32a7.77,7.77,0,0,1-1.86,4,9.94,9.94,0,0,1-3.53,2.58,14.59,14.59,0,0,1-4,1.13,17.74,17.74,0,0,1-7.92-.6,18.4,18.4,0,0,1-1.87-.71,18.83,18.83,0,0,1-1.77-1,13.57,13.57,0,0,1-1.62-1.2A10.43,10.43,0,0,1,17,65a1.8,1.8,0,0,1,2-2.81Z"/><path class="cls-2" d="M103.7,38.79a8.23,8.23,0,0,1,5.14-1.62,13.36,13.36,0,0,1,5.14,1,12.49,12.49,0,0,1,4.5,3.05,10.72,10.72,0,0,1,2.6,5,11.7,11.7,0,0,1,.28,2.72,14.76,14.76,0,0,1-.24,2.65,12.68,12.68,0,0,1-2,5A8.87,8.87,0,0,1,114.63,60a7.88,7.88,0,0,1-5.42-.37h0a1.21,1.21,0,0,1,.75-2.28,5.13,5.13,0,0,0,5.93-2.79,10.82,10.82,0,0,0,.77-7.3,8.68,8.68,0,0,0-4.37-5.42,12,12,0,0,0-3.67-1.32,7.28,7.28,0,0,0-3.7.13l-.15.05a1.09,1.09,0,0,1-1.06-1.88Z"/><path class="cls-2" d="M88.15,33.06a9.52,9.52,0,0,1,2.92-1.68,11.67,11.67,0,0,1,3.29-.67A12.91,12.91,0,0,1,97.8,31,10.71,10.71,0,0,1,101,32.4a12.48,12.48,0,0,1,1.39,1,10.89,10.89,0,0,1,1.18,1.27,9.13,9.13,0,0,1,1.6,3,10.77,10.77,0,0,1,.57,3.18,11.65,11.65,0,0,1-.3,3.15.88.88,0,0,1-1,.64.85.85,0,0,1-.66-.81v-.1a12.8,12.8,0,0,0-.35-2.57,9.82,9.82,0,0,0-.91-2.34,7.1,7.1,0,0,0-3.32-3.12,7.83,7.83,0,0,0-4.41-.61c-.77.11-1.54.28-2.33.47s-1.63.45-2.33.6l-.35.08a1.83,1.83,0,0,1-1.57-3.18Z"/><path class="cls-2" d="M77.78,19.42a9,9,0,0,1,3.56-.37,10.08,10.08,0,0,1,3.47.94,11.26,11.26,0,0,1,3,2.17A10.42,10.42,0,0,1,90,25.23a12.48,12.48,0,0,1,.72,6.85,18.86,18.86,0,0,1-2,6,1,1,0,0,1-1.85-.63V37.4a26.66,26.66,0,0,0,.43-5.53,13.76,13.76,0,0,0-.34-2.56,8.32,8.32,0,0,0-.85-2.15,8.47,8.47,0,0,0-.64-.84l-.38-.42-.41-.36a8,8,0,0,0-1.88-1.13,21.61,21.61,0,0,0-2.19-.76l-1.18-.31a11.4,11.4,0,0,1-1.16-.3l-.58-.22a1.8,1.8,0,0,1,.12-3.4Z"/><path class="cls-2" d="M67,11.71a11.41,11.41,0,0,1,3-.34,12.26,12.26,0,0,1,3.07.45,10.07,10.07,0,0,1,3.05,1.44,9,9,0,0,1,1.37,1.25,8.82,8.82,0,0,1,1,1.5,10.4,10.4,0,0,1,1.06,3.22,14.77,14.77,0,0,1,.05,3.11A17,17,0,0,1,78.12,28a1.32,1.32,0,0,1-2.51-.71v-.12a24.62,24.62,0,0,0,.14-4.84,8.07,8.07,0,0,0-1.18-3.92,3.75,3.75,0,0,0-1.16-1.12,8.92,8.92,0,0,0-1.75-.78c-1.3-.45-2.93-.75-4.41-1.11l-.24,0a1.85,1.85,0,0,1,0-3.59Z"/><path class="cls-2" d="M39.56,10a12.42,12.42,0,0,1,.95-2.74,13.49,13.49,0,0,1,1.55-2.38,12.87,12.87,0,0,1,4.65-3.6A14.79,14.79,0,0,1,52.48,0a13.43,13.43,0,0,1,1.43.07c.47.05,1,.06,1.41.15A25.78,25.78,0,0,1,58,.87l1.32.46c.22.09.45.16.66.25l.65.32,1.28.68c.41.25.81.55,1.21.84a13.73,13.73,0,0,1,2.17,2,15.2,15.2,0,0,1,1.63,2.46,13.38,13.38,0,0,1,1.46,5.42A14.06,14.06,0,0,1,68.31,16a12.11,12.11,0,0,1-.59,2.63,1.3,1.3,0,0,1-2.53-.29l0-.18A19.16,19.16,0,0,0,64.33,14a11.47,11.47,0,0,0-1.81-3.42,9.61,9.61,0,0,0-1.23-1.31,11.3,11.3,0,0,0-1.48-1c-.27-.13-.51-.31-.79-.43l-.87-.35-.42-.18-.47-.12L56.33,7c-.62-.18-1.3-.23-1.94-.36s-1.27-.12-1.89-.12A12.59,12.59,0,0,0,49,7a11.09,11.09,0,0,0-3.19,1.63,13.24,13.24,0,0,0-1.48,1.25c-.24.23-.49.47-.71.72s-.46.54-.64.69l-.5.43A1.79,1.79,0,0,1,40,11.5,1.81,1.81,0,0,1,39.56,10Z"/><path class="cls-2" d="M20.11,24.38a13.51,13.51,0,0,1,.11-2.5,17.19,17.19,0,0,1,2.45-7A15,15,0,0,1,26.2,11a13.78,13.78,0,0,1,2.28-1.42,14.21,14.21,0,0,1,2.48-1,15.42,15.42,0,0,1,14.5,3,14.37,14.37,0,0,1,3.15,3.76,1.38,1.38,0,0,1-.51,1.88,1.36,1.36,0,0,1-1.45-.06l-.16-.11a20.14,20.14,0,0,0-6.91-3.14,13.31,13.31,0,0,0-3.49-.28,17,17,0,0,0-1.72.18c-.56.16-1.16.24-1.68.44a9.22,9.22,0,0,0-1.56.62,10.16,10.16,0,0,0-1.43.82,13.29,13.29,0,0,0-2.49,2.33,18.93,18.93,0,0,0-2,3.11,29,29,0,0,0-1.49,3.54l-.09.23a1.83,1.83,0,0,1-3.55-.55Z"/><path class="cls-2" d="M14.61,33.91a10,10,0,0,1-.16-1.63,10.45,10.45,0,0,1,.11-1.57,9.77,9.77,0,0,1,1-3.1,9,9,0,0,1,2.15-2.67,8.38,8.38,0,0,1,1.43-1l.76-.39.77-.29a12.13,12.13,0,0,1,3.15-.62,10.08,10.08,0,0,1,3.26.45,8.43,8.43,0,0,1,2.83,1.61,7.46,7.46,0,0,1,1.92,2.55,1.17,1.17,0,0,1-1.68,1.46l-.28-.18a9.57,9.57,0,0,0-1.84-1,7.14,7.14,0,0,0-1.9-.47,8.06,8.06,0,0,0-1.9.1,9.26,9.26,0,0,0-1.9.56,6,6,0,0,0-1.55.89,6.19,6.19,0,0,0-1.16,1.28,8.77,8.77,0,0,0-.84,1.74c-.12.32-.21.66-.3,1l-.23,1-.09.4a1.81,1.81,0,0,1-3.55-.11Z"/><path class="cls-2" d="M7.78,51.11a9,9,0,0,1-3.17-4.38,10.89,10.89,0,0,1-.31-5.46,13,13,0,0,1,2.17-5.05,11.94,11.94,0,0,1,4.22-3.73,12,12,0,0,1,10.86.4,17.45,17.45,0,0,1,6.78,7.44,1,1,0,0,1-1.71,1.11h0a15.83,15.83,0,0,0-6.56-5.35,8.12,8.12,0,0,0-3.75-.47,9.58,9.58,0,0,0-3.47,1.17,13.8,13.8,0,0,0-1.61.88,8.89,8.89,0,0,0-3.34,4.51,7,7,0,0,0,1.35,7.24h0a1.12,1.12,0,0,1-1.46,1.69Z"/><path class="cls-2" d="M7,49.12C6,51.87,4.53,54.54,4.82,57A6,6,0,0,0,6.2,60.22a7,7,0,0,0,3.08,2.15,11.21,11.21,0,0,0,8.21-.22,8.23,8.23,0,0,0,3.26-2.5,15,15,0,0,0,1.12-1.78c.34-.64.63-1.33,1-2.08l0-.06A.8.8,0,0,1,24,55.37a.84.84,0,0,1,.43.53,7.37,7.37,0,0,1-1,5.52,11.61,11.61,0,0,1-4.25,4,14.11,14.11,0,0,1-5.47,1.68,14.61,14.61,0,0,1-5.78-.54A11.41,11.41,0,0,1,2.7,63.24,10.32,10.32,0,0,1,.08,57.49a13,13,0,0,1,.79-6,11.55,11.55,0,0,1,1.32-2.54,10,10,0,0,1,2-2.13,1.86,1.86,0,0,1,2.93,2Z"/></g></g></svg>