<svg xmlns="http://www.w3.org/2000/svg" viewBox="0 0 128.62 69.41"><defs><style>.cls-1{fill:#151515;}.cls-2{fill:#fff;}</style></defs><g id="Layer_2" data-name="Layer 2"><g id="Layer_3" data-name="Layer 3"><polygon class="cls-1" points="3.17 38.23 9.89 25.88 19.33 22.61 27.31 11.53 44.84 6.35 55.76 6.35 66.89 6.84 73.97 5.16 87.52 7.05 92.05 12.84 95.04 19.08 104.31 18.21 111.97 22.63 116.66 29.56 123.08 32.13 125.85 43.82 117.8 53.43 111.22 57.88 99.91 63.26 91.78 64.58 82.46 66.13 74.45 62.18 66.89 63.26 56.32 62.18 50.2 61.3 39.13 62.18 29.63 58.64 20.9 57.88 7.5 51.39 3.17 38.23"/></g><g id="Layer_2-2" data-name="Layer 2"><path class="cls-2" d="M98.59,58.62s0,0,0,0l.09,0,.22.09.48.19a8.81,8.81,0,0,0,1,.27,9.19,9.19,0,0,0,2.16.18,11,11,0,0,0,4.41-1.2,7.94,7.94,0,0,0,1.78-1.2,7.23,7.23,0,0,0,1.38-1.7,10.23,10.23,0,0,0,1-2.2,14.69,14.69,0,0,0,.52-2.45l0-.24a1.43,1.43,0,0,1,2.8-.16,9.54,9.54,0,0,1,.31,1.71,11.88,11.88,0,0,1,.07,1.69,11.61,11.61,0,0,1-.65,3.44,10.87,10.87,0,0,1-4.61,5.64,14.35,14.35,0,0,1-6.72,2.23,12,12,0,0,1-3.67-.31,14,14,0,0,1-1.77-.57,8.59,8.59,0,0,1-.87-.4,4.77,4.77,0,0,1-.44-.24l-.23-.14-.3-.19a2.69,2.69,0,0,1,3-4.47Z"/><path class="cls-2" d="M117.22,27.88a16,16,0,0,1,2.48.93A18.75,18.75,0,0,1,122,30.08a16,16,0,0,1,3.89,3.66,13.71,13.71,0,0,1,2.37,5,16.23,16.23,0,0,1,.27,5.5,15,15,0,0,1-1.69,5.34A14.11,14.11,0,0,1,123.24,54a18.48,18.48,0,0,1-4.64,2.79,22.91,22.91,0,0,1-2.49.86c-.43.11-.85.22-1.29.31s-.82.16-1.4.23a2.68,2.68,0,0,1-.93-5.28l.23,0c.18,0,.56-.13.86-.22s.63-.18,1-.28a16.38,16.38,0,0,0,1.84-.73,13.11,13.11,0,0,0,3.26-2,9.6,9.6,0,0,0,3.54-6.08A10.09,10.09,0,0,0,122,36.41a11.67,11.67,0,0,0-2.53-2.94,15.4,15.4,0,0,0-1.62-1.24,18.54,18.54,0,0,0-1.71-1l-.17-.09a1.77,1.77,0,0,1,1.29-3.27Z"/><path class="cls-2" d="M77,61.31c0-.05.14.06.23.1l.35.18c.24.13.5.24.76.35A11.61,11.61,0,0,0,80,62.5a14.65,14.65,0,0,0,3.44.5,17.72,17.72,0,0,0,3.6-.32,21.41,21.41,0,0,0,3.66-1,10.76,10.76,0,0,0,5.43-4,11.74,11.74,0,0,0,1.54-3.25,17.11,17.11,0,0,0,.69-3.77l0-.23a1.47,1.47,0,0,1,2.87-.33,14.1,14.1,0,0,1-.58,10,13.62,13.62,0,0,1-3.17,4.37A17.18,17.18,0,0,1,93,67.44a21.39,21.39,0,0,1-9.88,1.93A16.74,16.74,0,0,1,78,68.25,15.87,15.87,0,0,1,75.55,67a13.44,13.44,0,0,1-1.12-.79q-.27-.21-.54-.45c-.2-.18-.32-.3-.61-.59a2.69,2.69,0,1,1,3.7-3.9Z"/><path class="cls-2" d="M91.82,20.19a15.77,15.77,0,0,1,3.67-2.33,18.37,18.37,0,0,1,4.17-1.37,15.1,15.1,0,0,1,9,1A14.77,14.77,0,0,1,112.57,20a14,14,0,0,1,2.91,3.56,14.22,14.22,0,0,1,1.62,4.19,13.4,13.4,0,0,1,.23,4.44,1.35,1.35,0,0,1-1.5,1.18,1.36,1.36,0,0,1-1.15-1.06l0-.18a17.47,17.47,0,0,0-1.06-3.29,14,14,0,0,0-1.73-2.9,12.72,12.72,0,0,0-2.31-2.27,14,14,0,0,0-2.81-1.59,13.28,13.28,0,0,0-3.07-.77,16.6,16.6,0,0,0-3.31,0,30.78,30.78,0,0,0-6.89,1.53l-.16,0a1.54,1.54,0,0,1-1.48-2.64Z"/><path class="cls-2" d="M56.19,58.12s0,0,.07.08l.11.16c.08.11.18.22.28.34s.4.45.62.67a9.11,9.11,0,0,0,1.45,1.16,10.79,10.79,0,0,0,3.46,1.53,15.14,15.14,0,0,0,4,.36,18.81,18.81,0,0,0,4.14-.66,8.9,8.9,0,0,0,1.88-.66,9,9,0,0,0,.89-.41l.8-.5a8.67,8.67,0,0,0,2.6-2.72,11.29,11.29,0,0,0,1.41-3.77,16.93,16.93,0,0,0,.25-4.25v-.13a1.43,1.43,0,0,1,2.79-.52,17.08,17.08,0,0,1,.64,5.29,14.76,14.76,0,0,1-1.26,5.37A12.41,12.41,0,0,1,76.72,64l-1.16.86c-.4.27-.82.46-1.24.69a14.21,14.21,0,0,1-2.57,1.06,24.88,24.88,0,0,1-5.26,1.11,17.76,17.76,0,0,1-5.56-.36,15.53,15.53,0,0,1-5.28-2.26,15.33,15.33,0,0,1-2.25-1.86c-.33-.36-.67-.71-1-1.11-.15-.2-.3-.4-.45-.62l-.23-.33c-.07-.13-.14-.22-.25-.43a2.69,2.69,0,1,1,4.7-2.61Z"/><path class="cls-2" d="M62.55,6.79l.59-.59.55-.5c.37-.31.75-.6,1.13-.89a21.79,21.79,0,0,1,2.42-1.52,21.57,21.57,0,0,1,5.38-2A20.73,20.73,0,0,1,78.39.89,22.74,22.74,0,0,1,84,2a27.38,27.38,0,0,1,5.11,2.34,19,19,0,0,1,4.52,3.7,16.82,16.82,0,0,1,3.12,5.08,16.18,16.18,0,0,1,.8,2.9,12.71,12.71,0,0,1,.19,1.51q0,.38,0,.78c0,.29,0,.48,0,.92a2.69,2.69,0,1,1-5.36-.33s0-.2,0-.32l-.07-.45c0-.31-.12-.63-.2-.94a10.07,10.07,0,0,0-.68-1.83,11.49,11.49,0,0,0-2.22-3.2,15.74,15.74,0,0,0-3.21-2.45A21.11,21.11,0,0,0,82,8a17,17,0,0,0-8.19-.67,15.34,15.34,0,0,0-4,1.2A17.29,17.29,0,0,0,68,9.51c-.3.18-.6.36-.88.56l-.41.28c-.12.08-.29.22-.32.24l-1,.39a2.57,2.57,0,0,1-2.77-4.19Z"/><path class="cls-2" d="M31.88,57.16c0-.06,0,0,.06,0l.14.13a2.89,2.89,0,0,0,.31.28,8.11,8.11,0,0,0,.72.56,11.4,11.4,0,0,0,1.64.93,13.59,13.59,0,0,0,3.8,1,20.28,20.28,0,0,0,4.2,0c.72-.11,1.44-.19,2.17-.33s1.47-.29,2.18-.48a19.67,19.67,0,0,0,7.62-3.72,13,13,0,0,0,2.67-3.17,13.62,13.62,0,0,0,.93-1.92,15.21,15.21,0,0,0,.58-2l.05-.24a1.29,1.29,0,0,1,1.52-1,1.32,1.32,0,0,1,1,1.07A11.92,11.92,0,0,1,61,54a15.21,15.21,0,0,1-2.82,5,21,21,0,0,1-9.41,5.85,24.69,24.69,0,0,1-11,1.22,16.69,16.69,0,0,1-5.62-1.75,14,14,0,0,1-2.53-1.7,11.31,11.31,0,0,1-1.13-1.07c-.18-.2-.36-.39-.53-.62s-.17-.21-.26-.34-.16-.22-.31-.45a2.69,2.69,0,1,1,4.49-3Z"/><path class="cls-2" d="M16.78,21.75c.23-.82.45-1.43.69-2.12s.52-1.32.83-1.95a19.64,19.64,0,0,1,.95-1.89c.34-.62.67-1.25,1.06-1.84a37.83,37.83,0,0,1,2.48-3.47,31.39,31.39,0,0,1,3-3.12A27.7,27.7,0,0,1,41.5.18L42.59,0a9.74,9.74,0,0,1,1.08,0H46.9l1,.1L50,.3a18.6,18.6,0,0,1,2.07.34l2.07.4,2.06.6,1,.31,1,.43a17.86,17.86,0,0,1,7.3,5.07,13.21,13.21,0,0,1,2.28,4l.33,1.11c.08.37.15.75.21,1.12s.08.77.09,1.16a11.5,11.5,0,0,1,0,1.25,1.48,1.48,0,0,1-2.89.24l-.11-.41c0-.14-.1-.45-.17-.69s-.17-.51-.26-.76l-.31-.74-.39-.7a9.67,9.67,0,0,0-2.07-2.39,14.54,14.54,0,0,0-5.84-2.91l-.82-.24-.86-.15L53,7l-1.78-.19a14.76,14.76,0,0,0-1.78-.13,32.17,32.17,0,0,0-7,.28l-1.68.27a14.93,14.93,0,0,0-1.62.45c-.53.18-1.08.29-1.6.51s-1,.46-1.53.67c-.26.12-.52.2-.77.34l-.73.41c-.48.29-1,.54-1.45.84-.9.69-1.87,1.26-2.71,2a29.32,29.32,0,0,0-4.75,5.06,32.56,32.56,0,0,0-2,2.91c-.34.5-.6,1-.91,1.53s-.58,1.07-.78,1.47l-.1.21a2.69,2.69,0,0,1-5-1.92Z"/><path class="cls-2" d="M23.26,25.17a27.38,27.38,0,0,0-4.73.31,14.75,14.75,0,0,0-4.13,1.25,12.06,12.06,0,0,0-5.7,6,22.43,22.43,0,0,0-1.51,4.38,14.18,14.18,0,0,0-.46,4.31,13.38,13.38,0,0,0,3.16,7.78,19.39,19.39,0,0,0,7.38,5.29c2.85,1.17,6.06,1.71,8.61,1,5.85-1.53,10.8-6.84,14.18-12.65l0-.09a1.34,1.34,0,0,1,1.83-.49,1.36,1.36,0,0,1,.62,1.52,26.42,26.42,0,0,1-2.15,5.29,28.18,28.18,0,0,1-3.17,4.79,21.56,21.56,0,0,1-9.72,6.92,15.55,15.55,0,0,1-6.43.71,24,24,0,0,1-6-1.32A24.57,24.57,0,0,1,5,53.43,20,20,0,0,1,1.5,48.07,18.92,18.92,0,0,1,0,41.75a21.11,21.11,0,0,1,.64-6.32,29,29,0,0,1,2.15-5.68,20.09,20.09,0,0,1,3.74-5.16A16.27,16.27,0,0,1,9.14,22.5a15.32,15.32,0,0,1,3-1.46,14.46,14.46,0,0,1,3.2-.71,16.78,16.78,0,0,1,3.17,0,16.79,16.79,0,0,1,3,.65,12.67,12.67,0,0,1,2.82,1.29,1.56,1.56,0,0,1-.8,2.9Z"/></g></g></svg>