<svg xmlns="http://www.w3.org/2000/svg" viewBox="0 0 88.45 57.89"><defs><style>.cls-1{fill:#151515;}.cls-2{fill:#fff;}</style></defs><g id="Layer_2" data-name="Layer 2"><g id="Layer_3" data-name="Layer 3"><polygon class="cls-1" points="2.62 39.66 5.49 30.45 5.96 21.32 11.6 13.46 16.52 13.46 19.8 8.12 27.29 5.38 34.64 7.92 42.03 3.76 52.48 3.45 58.87 6.43 61.65 12.26 69.63 11.49 74.06 13.72 75.53 18.68 75.53 23.5 78.67 24.13 84.83 28.67 85.81 35.91 80.87 42.91 71.98 44.25 68.82 48.14 61.51 51.34 54.36 51.31 52.12 49.85 47.66 53.29 38.06 54.01 31.53 52.28 27.29 49.85 21.38 53.29 14.03 49.23 11.6 46.08 5.49 44.25 2.62 39.66"/></g><g id="Layer_2-2" data-name="Layer 2"><path class="cls-2" d="M77.12,21.54A14.73,14.73,0,0,1,82,23.08a13.11,13.11,0,0,1,4.19,3.41,10.14,10.14,0,0,1,2.18,5.36,12.79,12.79,0,0,1-.1,2.74,18.66,18.66,0,0,1-.54,2.55,12.73,12.73,0,0,1-2.54,4.73A11.22,11.22,0,0,1,80.81,45a15.59,15.59,0,0,1-9.87.09,1.28,1.28,0,0,1,.54-2.49h0a13.36,13.36,0,0,0,7.88-.92,7.47,7.47,0,0,0,2.74-2.29A9.11,9.11,0,0,0,83.53,36a14.72,14.72,0,0,0,.25-1.9,9,9,0,0,0,0-1.76,5.84,5.84,0,0,0-1.28-2.86c-1.38-1.7-3.88-3-6.2-4.06l-.21-.1a2,2,0,0,1,1.08-3.81Z"/><path class="cls-2" d="M61.34,11.7a10.29,10.29,0,0,1,1.72-1.17,10.18,10.18,0,0,1,1.81-.81,10.44,10.44,0,0,1,4.07-.56,10,10,0,0,1,4,1.15,12,12,0,0,1,3.15,2.51,9.35,9.35,0,0,1,2.3,7.65,12.88,12.88,0,0,1-1,3.6,15.49,15.49,0,0,1-1.84,3.16,1.25,1.25,0,0,1-2.13-1.29l0-.09A14.12,14.12,0,0,0,74.9,20.2a6,6,0,0,0-1.81-4.52A8.45,8.45,0,0,0,71,14.23a6.39,6.39,0,0,0-2.31-.61,7.84,7.84,0,0,0-2.47.27,11.47,11.47,0,0,0-1.25.42c-.39.16-.87.41-1.13.54l-.31.15a2,2,0,0,1-2.15-3.3Z"/><path class="cls-2" d="M52.53,48.77c2,.1,4.1.26,6,.24a18.52,18.52,0,0,0,5.34-.7,10.71,10.71,0,0,0,2.23-1,8.09,8.09,0,0,0,1.79-1.46,6,6,0,0,0,1.17-2,9.75,9.75,0,0,0,.51-2.6l0-.25a1,1,0,0,1,2-.42,7.63,7.63,0,0,1,1,3.72,8.14,8.14,0,0,1-1,3.93,9.39,9.39,0,0,1-2.66,3.06A12.52,12.52,0,0,1,65.45,53a15,15,0,0,1-7.31.38,17.51,17.51,0,0,1-6.42-2.49,1.18,1.18,0,0,1,.7-2.16Z"/><path class="cls-2" d="M30.08,49.67c.11.08.35.37.54.55a7.59,7.59,0,0,0,.68.57,8.54,8.54,0,0,0,1.5.93,13,13,0,0,0,3.46,1.12,22.49,22.49,0,0,0,3.81.35l2,0a11.69,11.69,0,0,0,1.78-.21A11.11,11.11,0,0,0,47.1,51.7a12.71,12.71,0,0,0,2.84-2.28A21.74,21.74,0,0,0,54,42.7l0-.1a1.15,1.15,0,0,1,2.21.52,16.73,16.73,0,0,1-1,4.59,17,17,0,0,1-2.22,4.23,14,14,0,0,1-8.24,5.54,16.61,16.61,0,0,1-2.5.38c-.81,0-1.58,0-2.37,0a20.2,20.2,0,0,1-4.76-.77,13.61,13.61,0,0,1-4.46-2.29A10.12,10.12,0,0,1,28.92,53a12.8,12.8,0,0,1-.69-1.11,7.38,7.38,0,0,1-.52-1.33,1.21,1.21,0,0,1,.84-1.48,1.19,1.19,0,0,1,1.05.22Z"/><path class="cls-2" d="M13.33,45.91a16.24,16.24,0,0,0,1.71,2,14.05,14.05,0,0,0,2,1.71,8.12,8.12,0,0,0,4.53,1.58,8.47,8.47,0,0,0,4.61-1.69,24.57,24.57,0,0,0,4.24-3.81l.07-.08a1.28,1.28,0,0,1,2.09,1.46,18.42,18.42,0,0,1-4.18,5.29,11.2,11.2,0,0,1-6.7,3,11.45,11.45,0,0,1-7.11-2.15A15.55,15.55,0,0,1,12,50.83c-.39-.44-.75-.89-1.09-1.36a12.82,12.82,0,0,1-1-1.54,2,2,0,0,1,3.35-2.16Z"/><path class="cls-2" d="M34.36,7.77A8.23,8.23,0,0,1,34.7,7,6.25,6.25,0,0,1,35,6.39a13.05,13.05,0,0,1,.78-1.16,11.29,11.29,0,0,1,.91-1,10.05,10.05,0,0,1,1-.94A14,14,0,0,1,42.61.69L43.93.35a12.2,12.2,0,0,1,1.33-.2A19.57,19.57,0,0,1,47.9,0c.88,0,1.72.14,2.58.2S52.14.51,53,.67s1.66.51,2.48.77a23.27,23.27,0,0,1,2.43,1.14A12.75,12.75,0,0,1,62,6.38a10.22,10.22,0,0,1,1.68,5.36c0,.46,0,.91,0,1.35s-.1.88-.21,1.31a10.38,10.38,0,0,1-.88,2.5,1.2,1.2,0,0,1-2.27-.57v-.22a11.66,11.66,0,0,0-.38-3.88,7.26,7.26,0,0,0-1.67-3,12.24,12.24,0,0,0-6.53-3A19.79,19.79,0,0,0,44,6,11.94,11.94,0,0,0,40.67,7.3a9.27,9.27,0,0,0-1.48,1,7.69,7.69,0,0,0-.66.61,3,3,0,0,0-.31.31c-.09.08-.21.24-.24.23L35.07,9a.93.93,0,0,1-.77-1A1.8,1.8,0,0,1,34.36,7.77Z"/><path class="cls-2" d="M14.76,11a12.48,12.48,0,0,1,1-2.07,13.54,13.54,0,0,1,1.35-1.79,14,14,0,0,1,3.57-2.87,12.42,12.42,0,0,1,4.5-1.47l1.19-.11c.39,0,.78,0,1.17,0a13.4,13.4,0,0,1,2.3.3,11.76,11.76,0,0,1,7.73,5,11.09,11.09,0,0,1,1.59,4.24,12.07,12.07,0,0,1-.06,4.32,1.09,1.09,0,0,1-2.14,0l0-.15a11.42,11.42,0,0,0-2.76-5.85A8.23,8.23,0,0,0,29,8.21a10.47,10.47,0,0,0-5.72.94,14.37,14.37,0,0,0-2.61,1.59c-.41.34-.84.67-1.24,1s-.82.79-1.14,1.07l-.38.32A2,2,0,0,1,14.76,11Z"/><path class="cls-2" d="M8.13,33.1a10.18,10.18,0,0,1-4.56-8.16A15.8,15.8,0,0,1,4,20.22a13.53,13.53,0,0,1,1.88-4.54,9.86,9.86,0,0,1,4-3.55,10.35,10.35,0,0,1,5.19-1,12.85,12.85,0,0,1,8.52,4.16,1.54,1.54,0,0,1-1.86,2.39l-.06,0a14.06,14.06,0,0,0-6.75-1.9,6.22,6.22,0,0,0-5.15,2.57,14.58,14.58,0,0,0-2.31,6.57,10.69,10.69,0,0,0,.25,3.52,9.28,9.28,0,0,0,1.52,3.22l.11.15A.87.87,0,0,1,9.12,33,.9.9,0,0,1,8.13,33.1Z"/><path class="cls-2" d="M6.83,29.24A44.46,44.46,0,0,0,5,35.44a11.12,11.12,0,0,0-.16,2.71,8.68,8.68,0,0,0,.2,1.19,8.1,8.1,0,0,0,.45,1.16,5.65,5.65,0,0,0,3.62,3.11,10.74,10.74,0,0,0,2.91.5,9.43,9.43,0,0,0,3-.3l.2-.06a.62.62,0,0,1,.77.4.64.64,0,0,1-.09.54,5,5,0,0,1-1.6,1.4,9.3,9.3,0,0,1-1.81.84,10.07,10.07,0,0,1-4,.53A8.86,8.86,0,0,1,4.27,46.1a9.1,9.1,0,0,1-3.09-3.38A9.51,9.51,0,0,1,0,38.38,11.14,11.14,0,0,1,.75,34.2a13.82,13.82,0,0,1,1.93-3.43,13,13,0,0,1,2.75-2.68,1,1,0,0,1,1.31.24,1,1,0,0,1,.12.83Z"/></g></g></svg>