<svg xmlns="http://www.w3.org/2000/svg" viewBox="0 0 90.1 66.07"><defs><style>.cls-1{fill:#151515;}.cls-2{fill:#fff;}</style></defs><g id="Layer_2" data-name="Layer 2"><g id="Layer_3" data-name="Layer 3"><path class="cls-1" d="M9.64,31.59l7.16-4.4,1.8-8.06,6.57-3.94,3.76-6.41,7.24-4.95h9.32l3.13,4.58L53.21,9.6l5.66-.21,3,3.52v2.71l.47,4.44L66,20.8l5.8,3.95,2.69,4.32-2.49,5,6,.87,4.08,5.25,5,7.64-3.33,7.84L80.5,59.7,69.08,61.59l-7.23-2-7.31,2-9-1-5.86.65-8.39.36H24.31l-6.42-3.31L11.8,61.89,5,61.59.85,56.06l2.87-5.83s3.07-3.74,3.07-4.32S5,37.39,5,37.39Z"/></g><g id="Layer_2-2" data-name="Layer 2"><path class="cls-2" d="M71.84,31.85a11.88,11.88,0,0,1,2.09-.31,15.13,15.13,0,0,1,2,0,14.71,14.71,0,0,1,4.06.92,13,13,0,0,1,3.76,2.21,14,14,0,0,1,1.62,1.55A16.07,16.07,0,0,1,86.67,38a20.36,20.36,0,0,1,3.16,7.48A15.07,15.07,0,0,1,89,54a14.69,14.69,0,0,1-5.49,6.49,21.75,21.75,0,0,1-7.36,3.06,23,23,0,0,1-7.8.39,22.69,22.69,0,0,1-3.83-.81,16.43,16.43,0,0,1-1.85-.67c-.3-.12-.61-.26-.91-.41s-.58-.29-1-.52a2.2,2.2,0,0,1,1.94-3.94l.26.11.59.24.71.25c.48.16,1,.28,1.48.4a19.52,19.52,0,0,0,3,.43,20.14,20.14,0,0,0,6.09-.67,16.24,16.24,0,0,0,5.39-2.47,9.26,9.26,0,0,0,3.28-4.14c1.3-3.18.35-7.09-2-10.44a10.69,10.69,0,0,0-.78-1.07,9.15,9.15,0,0,0-.91-.85A9.5,9.5,0,0,0,77.67,38,18,18,0,0,0,75,37c-.47-.15-1-.27-1.44-.4s-1-.24-1.41-.36l-.53-.18a2.19,2.19,0,0,1-1.41-2.76A2.21,2.21,0,0,1,71.84,31.85Z"/><path class="cls-2" d="M61.31,19.63A2.33,2.33,0,0,1,62,19l.23-.13.1-.05.21-.08.11,0,.27-.07.26-.06.33-.08.52-.09c.32,0,.63-.06.93-.08a9.79,9.79,0,0,1,1.8.12,10.24,10.24,0,0,1,3.46,1.22,11.2,11.2,0,0,1,3,2.53A9.06,9.06,0,0,1,75,25.75a9.34,9.34,0,0,1,.17,3.85A11.8,11.8,0,0,1,74.09,33a16.69,16.69,0,0,1-3.93,5.18,1.15,1.15,0,0,1-1.62-.09,1.14,1.14,0,0,1-.15-1.31l0-.1a20.29,20.29,0,0,0,2-5,7,7,0,0,0-.17-4.39,5.18,5.18,0,0,0-2.76-2.6c-.65-.28-1.35-.55-2.08-.81l-1.12-.4-.54-.2-.23-.1s0,0,0-.06,0,0,.08,0l.17-.05.09,0,.19-.08.09-.05a.94.94,0,0,0,.22-.12,2.19,2.19,0,0,0,.62-.63,2.2,2.2,0,1,1-3.67-2.44Z"/><path class="cls-2" d="M44.75,57.7s.14,0,.23.09l.33.14c.22.1.46.19.7.28.48.18,1,.32,1.5.46a18.8,18.8,0,0,0,3.19.53,26.17,26.17,0,0,0,6.66-.34,8.93,8.93,0,0,0,5.22-2.56,8.58,8.58,0,0,0,1.75-5.87v0A1.19,1.19,0,0,1,66.65,50a11.41,11.41,0,0,1,.6,4.2,9.35,9.35,0,0,1-1.34,4.41,10,10,0,0,1-3.33,3.31,15.19,15.19,0,0,1-4.07,1.74,23.27,23.27,0,0,1-8.32.69,18.67,18.67,0,0,1-4.19-1,17.08,17.08,0,0,1-2-.91,10.8,10.8,0,0,1-1-.58,5.22,5.22,0,0,1-.48-.34c-.18-.14-.3-.23-.55-.45a2.2,2.2,0,1,1,2.75-3.44Z"/><path class="cls-2" d="M21.33,58.44c0-.09.08,0,.15.07l.27.17a5.15,5.15,0,0,0,.61.36,8.72,8.72,0,0,0,1.39.61,13.75,13.75,0,0,0,3.16.72,27.7,27.7,0,0,0,7-.12,16.25,16.25,0,0,0,6.37-2,10,10,0,0,0,2.41-2.14,9,9,0,0,0,.92-1.38,11.22,11.22,0,0,0,.64-1.48l.09-.26a1.2,1.2,0,0,1,1.53-.73,1.18,1.18,0,0,1,.8,1.05,9.5,9.5,0,0,1-.89,4.6A11.69,11.69,0,0,1,43,61.66a17.3,17.3,0,0,1-8.18,3.85,23.78,23.78,0,0,1-8.76.27,15.25,15.25,0,0,1-4.44-1.43A13,13,0,0,1,19.58,63a11,11,0,0,1-.95-.87c-.15-.17-.29-.32-.44-.51a8.12,8.12,0,0,1-.5-.69,2.21,2.21,0,0,1,3.64-2.5Z"/><path class="cls-2" d="M46.49,12.33a9,9,0,0,1,1.16-1.8,10.81,10.81,0,0,1,1.47-1.48,9.47,9.47,0,0,1,4-1.93,9.36,9.36,0,0,1,4.56.24,12.53,12.53,0,0,1,3.77,1.92,9.15,9.15,0,0,1,3,3.46,8.39,8.39,0,0,1,.72,4.52,11.73,11.73,0,0,1-1.21,3.93,14.88,14.88,0,0,1-2.16,3.26,1.61,1.61,0,0,1-2.63-1.83l.07-.13a15.71,15.71,0,0,0,1.22-2.77A9.34,9.34,0,0,0,60.9,17a4.26,4.26,0,0,0-2.18-3.81A9.17,9.17,0,0,0,56.32,12,5.57,5.57,0,0,0,54,11.91a7,7,0,0,0-2.3.84,11.72,11.72,0,0,0-1.17.73l-1.09.83-.31.24a1.78,1.78,0,0,1-2.5-.34A1.76,1.76,0,0,1,46.49,12.33Z"/><path class="cls-2" d="M24.71,15.15a12.87,12.87,0,0,1,0-2.48,13.86,13.86,0,0,1,.4-2.36,13.66,13.66,0,0,1,2.09-4.55A12.76,12.76,0,0,1,31,2.18,14.58,14.58,0,0,1,35.82.34a14.15,14.15,0,0,1,10,1.43,13.43,13.43,0,0,1,2.11,1.51,15,15,0,0,1,1.72,1.86A14.15,14.15,0,0,1,51,7.22c.17.37.34.74.49,1.12s.25.73.4,1.26a2.11,2.11,0,0,1-1.48,2.56,2.08,2.08,0,0,1-1.69-.28l-.92-.61a7.08,7.08,0,0,1-.52-.54c-.18-.2-.37-.4-.57-.59a13.21,13.21,0,0,0-1.22-1.06A9.8,9.8,0,0,0,42.87,7.6a10.51,10.51,0,0,0-5.72-.4,9,9,0,0,0-5,2.52,10.42,10.42,0,0,0-1.78,2.49,13.92,13.92,0,0,0-.7,1.51c-.21.49-.4,1.13-.55,1.51l-.19.51a2.19,2.19,0,0,1-4.22-.59Z"/><path class="cls-2" d="M16.83,31.87a14.17,14.17,0,0,1-1.68-3.49,14,14,0,0,1-.72-3.91,11.15,11.15,0,0,1,.62-4.23,10.54,10.54,0,0,1,1-2,10.1,10.1,0,0,1,1.4-1.77,11.64,11.64,0,0,1,3.52-2.53,9.9,9.9,0,0,1,8.55,0,9.63,9.63,0,0,1,3.28,2.52,1.46,1.46,0,0,1-1.55,2.32l-.32-.11a17.62,17.62,0,0,0-2.77-.72,7.89,7.89,0,0,0-2.57,0,7.2,7.2,0,0,0-2.27.78,9.69,9.69,0,0,0-2.05,1.47,6.89,6.89,0,0,0-1.36,1.92,8.66,8.66,0,0,0-.68,2.5,20.12,20.12,0,0,0,.34,6l0,.17a1.5,1.5,0,0,1-2.73,1.1Z"/><path class="cls-2" d="M8.4,50a12.87,12.87,0,0,1-3.09-2.52A13.52,13.52,0,0,1,3,44a11.23,11.23,0,0,1-1-4.37,11.44,11.44,0,0,1,.88-4.56,13.08,13.08,0,0,1,5.69-6.46,12.38,12.38,0,0,1,4-1.39,11,11,0,0,1,4.18.13,1.7,1.7,0,0,1,1.28,2.05,1.67,1.67,0,0,1-.77,1.07l-.51.31c-.36.22-.89.42-1.32.66s-.89.46-1.31.69a15.61,15.61,0,0,0-2.27,1.56c-.35.26-.64.58-1,.86a12.26,12.26,0,0,0-.83,1,12,12,0,0,0-1.4,2.16,7.14,7.14,0,0,0-.6,4.62,18.16,18.16,0,0,0,2.22,5.5l.11.19a1.48,1.48,0,0,1-2,2Z"/><path class="cls-2" d="M8.11,49.61a18.46,18.46,0,0,0-2.2,2.92,6.7,6.7,0,0,0-1,2.94,4.62,4.62,0,0,0,.71,2.64A6.22,6.22,0,0,0,7.76,60.3a5.65,5.65,0,0,0,3,.73,10.32,10.32,0,0,0,3.51-.76,14.18,14.18,0,0,0,3.35-1.87,9.45,9.45,0,0,0,2.53-2.73l.05-.09a1.09,1.09,0,0,1,2,.8,10,10,0,0,1-2.47,4.31,15.39,15.39,0,0,1-3.82,3,13.08,13.08,0,0,1-4.83,1.62,9.56,9.56,0,0,1-7.82-2.5,10.23,10.23,0,0,1-1.77-2.12,9.49,9.49,0,0,1-1.2-2.64,8.68,8.68,0,0,1-.24-3A10,10,0,0,1,2.12,50a13.33,13.33,0,0,1,1.71-1.87,13.57,13.57,0,0,1,2-1.53,1.89,1.89,0,0,1,2.4,2.88Z"/></g></g></svg>