<svg xmlns="http://www.w3.org/2000/svg" viewBox="0 0 102.47 69.55"><defs><style>.cls-1{fill:#151515;}.cls-2{fill:#fff;}</style></defs><g id="Layer_2" data-name="Layer 2"><g id="Layer_3" data-name="Layer 3"><path class="cls-1" d="M12.68,19.42l8.44-5.28,8.51-5.06,7.82.41,4.82.52,8.19-6.55,9.71.71,7.77,4.59,3.43,2.68h7.18l4.07,2.7L88,18.33l.6,3.78,1.77,2.83,6.5,4,2.54,8.46-3.18,8.4-5.86,3.82-3.81,5.88-6.38,1.79-1.37,3.15L72,65.56l-8.81,1-6.31-3.1-8.87,1.13s-8.74,1.43-9.59.37-10.71-5.43-10.71-5.43l-6.63-2.23-9.71-5.57L9.36,45.28,1.7,37.39,3,27.66l3.83-7Z"/></g><g id="Layer_2-2" data-name="Layer 2"><path class="cls-2" d="M89.78,21.54a10.68,10.68,0,0,1,2.75.38,12.25,12.25,0,0,1,2.51,1,13.3,13.3,0,0,1,4.25,3.55,15.13,15.13,0,0,1,2.62,5.15,14,14,0,0,1,.52,2.84c0,.49,0,.93,0,1.36s0,.87,0,1.31a19.61,19.61,0,0,1-.92,5.22,15.29,15.29,0,0,1-2.46,4.78,13.58,13.58,0,0,1-8.75,5.29,1.14,1.14,0,0,1-1.29-1,1.16,1.16,0,0,1,.58-1.17h0a12.82,12.82,0,0,0,5.49-5.65,15.07,15.07,0,0,0,1.23-7.48c0-.32-.07-.65-.1-1a7.63,7.63,0,0,0-.14-.93,9,9,0,0,0-.46-1.63A9.57,9.57,0,0,0,94,30.75a35.16,35.16,0,0,0-2.49-2.61L90,26.79a19.74,19.74,0,0,1-1.45-1.44l-.4-.49A2,2,0,0,1,88.5,22,2,2,0,0,1,89.78,21.54Z"/><path class="cls-2" d="M76,53.78a25,25,0,0,0,4.9.75,7.14,7.14,0,0,0,3.89-.83,6.92,6.92,0,0,0,2.61-3,25.55,25.55,0,0,0,1.7-4.84l0-.11a.82.82,0,0,1,1-.58.8.8,0,0,1,.53.45A10.23,10.23,0,0,1,91.41,52a9.47,9.47,0,0,1-1.35,3.28,8.81,8.81,0,0,1-2.71,2.62,9.64,9.64,0,0,1-7,1.13,12.54,12.54,0,0,1-5.76-2.89,1.42,1.42,0,0,1-.11-2,1.44,1.44,0,0,1,1.36-.44Z"/><path class="cls-2" d="M57.27,61c.1,0,.35.23.55.34l.65.38a12.52,12.52,0,0,0,1.38.67,12.87,12.87,0,0,0,2.88.86,16.23,16.23,0,0,0,6.09-.07,14.84,14.84,0,0,0,3-.77c.49-.14.9-.38,1.36-.56s.85-.46,1.23-.73a10.34,10.34,0,0,0,2.18-1.9,9.37,9.37,0,0,0,.92-1.16c.14-.21.28-.42.4-.63s.26-.47.33-.54l.77-.78a1.86,1.86,0,0,1,3.17,1.51c-.06.53-.11.85-.19,1.24a9.89,9.89,0,0,1-.3,1.1,12.23,12.23,0,0,1-.9,2.07,13,13,0,0,1-2.86,3.53,16.19,16.19,0,0,1-8,3.66,20.42,20.42,0,0,1-4.3.3,16.28,16.28,0,0,1-4.35-.8,14,14,0,0,1-4-2,14.36,14.36,0,0,1-1.69-1.43c-.26-.27-.51-.54-.75-.84s-.43-.57-.73-1a1.88,1.88,0,0,1,2.18-2.82Z"/><path class="cls-2" d="M29.34,56.07c.49.34,1.14.83,1.73,1.23s1.23.81,1.88,1.15a23.23,23.23,0,0,0,3.89,1.82A21.68,21.68,0,0,0,45,61.66a16.09,16.09,0,0,0,7.77-2,19.65,19.65,0,0,0,6.36-5.91l.09-.12a1.08,1.08,0,0,1,1.95.75,14.56,14.56,0,0,1-1.72,5.21A16.28,16.28,0,0,1,55.92,64a17.48,17.48,0,0,1-10.61,4.14,21.21,21.21,0,0,1-15.56-5.33,22.31,22.31,0,0,1-1.93-2,17,17,0,0,1-1.65-2.32A2,2,0,0,1,29,55.86Z"/><path class="cls-2" d="M11.35,45.07c.9,2.13,1.65,4.54,3,6.23a10,10,0,0,0,2.09,2.11c.2.11.39.24.59.37s.5.26.74.4c.52.25,1.05.51,1.58.72a12.59,12.59,0,0,0,6.63.89A10.9,10.9,0,0,0,32,52.5l0,0a1.08,1.08,0,0,1,1.71,1.27A13.71,13.71,0,0,1,31,57.27a11.74,11.74,0,0,1-4,2.36,15.46,15.46,0,0,1-9.25.16,18.54,18.54,0,0,1-2.18-.72c-.36-.16-.69-.27-1.07-.47L13.32,58a12.09,12.09,0,0,1-3.48-3.66A18,18,0,0,1,7.93,50a12.85,12.85,0,0,1-.56-4.54,2,2,0,0,1,3.87-.66Z"/><path class="cls-2" d="M72.3,10.41c.41-.27.67-.43,1-.61s.64-.31,1-.45a11.79,11.79,0,0,1,2-.6,10.9,10.9,0,0,1,4.37,0A13.42,13.42,0,0,1,88,13.11c.44.55.89,1.09,1.29,1.68a12.06,12.06,0,0,1,1,1.94,10.64,10.64,0,0,1,0,8.77,12.38,12.38,0,0,1-1.06,1.84,10.46,10.46,0,0,1-.65.84c-.24.28-.45.49-.79.83A2,2,0,0,1,85,29a1.93,1.93,0,0,1-.44-2l.23-.68c0-.11.18-.35.26-.55s.2-.42.28-.64a12.36,12.36,0,0,0,.43-1.3A6.82,6.82,0,0,0,86,21.34a8.08,8.08,0,0,0-2.21-4.43A10.28,10.28,0,0,0,79.44,14a7.86,7.86,0,0,0-2.54-.39,10.35,10.35,0,0,0-1.36.09c-.23,0-.46.06-.68.11s-.49.11-.59.11h-.94a1.9,1.9,0,0,1-1-3.48Z"/><path class="cls-2" d="M39.64,11.23a14.62,14.62,0,0,1,.49-1.53c.19-.47.41-.92.63-1.37a16.92,16.92,0,0,1,1.68-2.54,15.57,15.57,0,0,1,4.84-3.95A17.31,17.31,0,0,1,53.34.08c.52-.07,1,0,1.54-.06a13.17,13.17,0,0,1,1.54,0l1.5.16a9.47,9.47,0,0,1,1.46.24,22.39,22.39,0,0,1,10.73,5,16.37,16.37,0,0,1,3.76,4.91,14.63,14.63,0,0,1,1.06,2.9c.1.51.22,1,.27,1.52a6.63,6.63,0,0,1,.07.79c0,.13,0,.26,0,.4v.48a1.91,1.91,0,0,1-1.91,1.9,1.93,1.93,0,0,1-1.58-.86l-.5-.76c-.11-.17-.23-.57-.4-.86s-.32-.64-.48-.95a13.4,13.4,0,0,0-1.2-1.74,14.12,14.12,0,0,0-3-2.79,22.19,22.19,0,0,0-8.1-3c-.75-.18-1.43-.19-2.15-.31S54.53,7,53.84,7a14.6,14.6,0,0,0-3.91.71,12.88,12.88,0,0,0-3.55,2,14.52,14.52,0,0,0-1.62,1.44c-.25.26-.51.53-.74.81s-.48.61-.66.78l-.45.45a2,2,0,0,1-3.27-1.9Z"/><path class="cls-2" d="M15,19c.08-.5.14-.83.23-1.23s.2-.74.31-1.1a14,14,0,0,1,.89-2.12,16,16,0,0,1,2.71-3.78,16.65,16.65,0,0,1,8.17-4.48c.75-.13,1.53-.32,2.25-.39s1.45-.18,2.2-.18a18.35,18.35,0,0,1,4.56.41A12.77,12.77,0,0,1,40.86,8a9.14,9.14,0,0,1,1.91,1.77,8.81,8.81,0,0,1,.76,1.12,6.09,6.09,0,0,1,.3.63,6.64,6.64,0,0,1,.3.81,2,2,0,1,1-3.73,1.47c0,.11-.1,0-.17-.06L40,13.61c-.18-.12-.37-.23-.56-.34a7.76,7.76,0,0,0-1.24-.55,12.78,12.78,0,0,0-2.88-.58c-.52,0-1-.08-1.6-.06s-1.1,0-1.66,0-1.14.11-1.71.14-1.08.17-1.62.24A13.46,13.46,0,0,0,23,15a14.66,14.66,0,0,0-2.3,2.23,16.38,16.38,0,0,0-1,1.33c-.16.23-.29.47-.44.7s-.29.51-.37.64l-.35.5A2,2,0,0,1,15,19Z"/><path class="cls-2" d="M12.48,48.4a18.3,18.3,0,0,1-3-1.16,19,19,0,0,1-2.7-1.61A16.82,16.82,0,0,1,2.26,40.9,15.13,15.13,0,0,1,.07,34.39a18.38,18.38,0,0,1,.68-6.65,19.74,19.74,0,0,1,2.73-6A12.9,12.9,0,0,1,9.06,17a11.87,11.87,0,0,1,7.21-.54,14.16,14.16,0,0,1,3.14,1.15,13.12,13.12,0,0,1,1.4.82,15.36,15.36,0,0,1,1.34,1A2,2,0,0,1,20.54,23l-.45-.07c-.7-.1-1.59-.3-2.36-.39a18.44,18.44,0,0,0-2.28-.17,8.73,8.73,0,0,0-3.75.75,6.88,6.88,0,0,0-2.79,2.42,16.1,16.1,0,0,0-2,4.08,11.06,11.06,0,0,0,.26,8.49,13.38,13.38,0,0,0,2.74,3.66,19.06,19.06,0,0,0,1.88,1.57,21.59,21.59,0,0,0,2,1.32l.18.1a2,2,0,0,1-1.54,3.66Z"/></g></g></svg>