<svg xmlns="http://www.w3.org/2000/svg" viewBox="0 0 95.56 63.62"><defs><style>.cls-1{fill:#151515;}.cls-2{fill:#fff;}</style></defs><g id="Layer_2" data-name="Layer 2"><g id="Layer_3" data-name="Layer 3"><path class="cls-1" d="M28.07,15.63c1.11-.85,9.22-12.36,9.22-12.36l14.31,1,6.07,7.2,2.61,1.89,8.81-.47,6.52,3.47,1,5,7.42,3.28L87.4,30l3.22,4.13,2.6,7.07-1.78,6-4.77-.17L84.2,50.46,80.44,53c-.31.2-6.23.43-6.23.43l-5.12,4-4,1.52-7.42.9-4.21-2.71L47,60.55l-7.51-1.61-3.94-.89L30,60.73s-4.83,0-5.47-.18-8-3.79-8-3.79A8,8,0,0,0,15,54.53a25.3,25.3,0,0,0-4.49-2.8c-.63-.2-7.81-5.91-7.81-5.91s-.65-9.73,0-10.3,4.91-3.64,4.91-3.64L8.07,26s1.48-6.8,1.93-7.33A25.28,25.28,0,0,1,15,15c1.18-.45,2-1.21,4.43-1.15s4.78.5,6,0S28.07,15.63,28.07,15.63Z"/></g><g id="Layer_2-2" data-name="Layer 2"><path class="cls-2" d="M87.63,31.6a7.56,7.56,0,0,1,6.19,2.92,8.2,8.2,0,0,1,1.52,3.35,11.08,11.08,0,0,1,.15,3.43,7.61,7.61,0,0,1-1.3,3.61,7.42,7.42,0,0,1-2.84,2.44,9.86,9.86,0,0,1-3.22.95,10.14,10.14,0,0,1-3.2-.14,1.07,1.07,0,0,1-.12-2.07l.12,0a15.06,15.06,0,0,0,4.35-2.11A4.26,4.26,0,0,0,91,40.84a7.35,7.35,0,0,0-.54-4.05,5.17,5.17,0,0,0-1.22-1.6,9.88,9.88,0,0,0-1.88-1.31l-.24-.14a1.15,1.15,0,0,1,.54-2.14Z"/><path class="cls-2" d="M70.69,25.35a15,15,0,0,1,5.86-3.48,10.53,10.53,0,0,1,7.44.24,11,11,0,0,1,1.71,1l.78.59.72.71a8.38,8.38,0,0,1,2,3.56,9,9,0,0,1,.11,3.92,9.57,9.57,0,0,1-1.38,3.47,1.55,1.55,0,0,1-2.83-1.11l.05-.3a13.57,13.57,0,0,0,.29-2.5,6.85,6.85,0,0,0-.36-2.25A5,5,0,0,0,84,27.42l-.38-.4-.47-.35a11,11,0,0,0-1-.62,8.07,8.07,0,0,0-4.76-.6A21.32,21.32,0,0,0,72,27.09l-.11.05a1.09,1.09,0,0,1-1.18-1.79Z"/><path class="cls-2" d="M69.86,50.83a12.49,12.49,0,0,0,2.8,1.26,7.15,7.15,0,0,0,2.7.3,8.89,8.89,0,0,0,4.77-2.3l.56-.49a4.91,4.91,0,0,0,.39-.41,2.53,2.53,0,0,0,.51-.76,2.79,2.79,0,0,0,.13-1.86,16.69,16.69,0,0,0-2.87-5.33l-.07-.09a1.22,1.22,0,0,1,1.52-1.8,13.26,13.26,0,0,1,3.23,2.27A10.63,10.63,0,0,1,86,45.09a7,7,0,0,1,.23,5.07,7.25,7.25,0,0,1-1.29,2.26,11.62,11.62,0,0,1-.83.88l-.77.67a13.09,13.09,0,0,1-3.68,2.13,9.48,9.48,0,0,1-4.46.56,9,9,0,0,1-4.08-1.53,9.27,9.27,0,0,1-2.79-3,1,1,0,0,1,1.38-1.37Z"/><path class="cls-2" d="M52.57,52.76a12,12,0,0,0,3.84,3.92,10.31,10.31,0,0,0,9.44.17A11.32,11.32,0,0,0,68,55.43a27.14,27.14,0,0,0,2-1.9l.25-.26a1.53,1.53,0,0,1,2.59,1.36,10.09,10.09,0,0,1-1.45,3.59,10.74,10.74,0,0,1-6.42,4.62,12.35,12.35,0,0,1-4,.3A11.39,11.39,0,0,1,53.71,60a10.26,10.26,0,0,1-2.21-3.17,9.77,9.77,0,0,1-.87-3.64,1,1,0,0,1,1-1,1,1,0,0,1,.89.46Z"/><path class="cls-2" d="M38.71,55.53a9,9,0,0,1,.72.54,6.85,6.85,0,0,0,.76.52,7.89,7.89,0,0,0,1.5.72,10,10,0,0,0,3.23.5,15.63,15.63,0,0,0,5.47-1c.62-.2,1.31-.54,1.87-.72l.52-.17a1.58,1.58,0,0,1,2,1,1.62,1.62,0,0,1-.11,1.23,9.23,9.23,0,0,1-1.77,2.33,11.17,11.17,0,0,1-2.32,1.7,11.61,11.61,0,0,1-5.67,1.42,11.34,11.34,0,0,1-3-.41A9.83,9.83,0,0,1,39,61.8a8.72,8.72,0,0,1-2.13-2.33,7.07,7.07,0,0,1-1-3,1.36,1.36,0,0,1,1.91-1.37Z"/><path class="cls-2" d="M16,51.47a10.27,10.27,0,0,0,1.74,2.9,9.53,9.53,0,0,0,2.48,2,17.46,17.46,0,0,0,6.43,1.9,10.92,10.92,0,0,0,6.24-1,14.14,14.14,0,0,0,5.06-4.66l.09-.12a1.1,1.1,0,0,1,2,.8,11.93,11.93,0,0,1-1.59,4.25A12.37,12.37,0,0,1,35.27,61a13.09,13.09,0,0,1-9.16,2.34,18.35,18.35,0,0,1-4.44-1A13.65,13.65,0,0,1,17.55,60,9.46,9.46,0,0,1,14,51.46a1,1,0,0,1,1.86-.21Z"/><path class="cls-2" d="M56.82,16.36a10.2,10.2,0,0,1,5.62-5.53,12.69,12.69,0,0,1,4-.95,15,15,0,0,1,4,.35,14.5,14.5,0,0,1,2,.56l1,.4c.33.17.65.35,1,.53a10.57,10.57,0,0,1,3.24,3,10.45,10.45,0,0,1,1.65,3.89,9.79,9.79,0,0,1,0,4.07,1.47,1.47,0,0,1-2.78.28l-.15-.34A18.21,18.21,0,0,0,75.15,20a9.33,9.33,0,0,0-1.59-2A8.91,8.91,0,0,0,69.2,15.9a13,13,0,0,0-8,.33,19.05,19.05,0,0,0-2.7,1.29l-.24.13a1,1,0,0,1-1.4-.42A1.06,1.06,0,0,1,56.82,16.36Z"/><path class="cls-2" d="M27.94,20.05a14.46,14.46,0,0,1-.56-3.18l-.05-.81,0-.8a9.86,9.86,0,0,1,.13-1.63,14.67,14.67,0,0,1,2.39-6.31,15.64,15.64,0,0,1,5.18-4.6,27.4,27.4,0,0,1,3.09-1.37c1.06-.28,2.13-.62,3.19-.84S43.45.19,44.52.06s2.2-.11,3.33,0c.57,0,1.13.1,1.7.17s1.13.24,1.7.36l.85.21.83.31a9.86,9.86,0,0,1,1.64.7,17.09,17.09,0,0,1,1.56.9c.49.36,1,.69,1.45,1.08s.88.81,1.28,1.26A16.48,16.48,0,0,1,60,6.42a14.5,14.5,0,0,1,1.66,3.07,13.67,13.67,0,0,1,.54,1.64,8,8,0,0,1,.19.85c.06.31.1.55.15,1a2.17,2.17,0,0,1-3.86,1.61L58,13.77c0-.06-.13-.29-.21-.45s-.18-.35-.27-.52a8.25,8.25,0,0,0-.6-1,11.92,11.92,0,0,0-1.42-1.85,10.24,10.24,0,0,0-3.62-2.56,18.2,18.2,0,0,0-9.58-.86c-.85.11-1.65.33-2.48.47-.42.08-.77.27-1.16.38a12.15,12.15,0,0,0-1.16.39l-1,.52c-.18.1-.37.16-.53.27l-.47.34a10.72,10.72,0,0,0-.94.68l-.86.79a12.14,12.14,0,0,0-2.48,4.15,17.55,17.55,0,0,0-1,5.15v.13a1.16,1.16,0,0,1-2.28.29Z"/><path class="cls-2" d="M12.88,34.15a15.32,15.32,0,0,0-3.34,1A7.83,7.83,0,0,0,7,36.9a6.22,6.22,0,0,0-1.34,2.46c-.06.24-.13.47-.2.71l-.11.78a9.17,9.17,0,0,0-.06,1.58,3.17,3.17,0,0,0,.05.76l.09.74.21.68.09.34c.06.1.11.21.16.31a6.39,6.39,0,0,0,1.7,2.33,16.54,16.54,0,0,0,6.1,3.18l.18.06a1.57,1.57,0,0,1-.41,3.07,14.63,14.63,0,0,1-4.54-.49,12.72,12.72,0,0,1-4.32-2A10.37,10.37,0,0,1,1.2,47.53a6.54,6.54,0,0,1-.3-.59l-.21-.62-.4-1.25L.11,43.8A6,6,0,0,1,0,42.55,14.56,14.56,0,0,1,.2,40.09l.23-1.22c.12-.41.26-.82.41-1.22a10,10,0,0,1,3-4.24,10.72,10.72,0,0,1,4.53-2.06,12.23,12.23,0,0,1,4.67,0,1.4,1.4,0,0,1,0,2.75Z"/><path class="cls-2" d="M27.23,17.06c-.5-.11-1.18-.27-1.76-.38s-1.23-.21-1.83-.27a17.1,17.1,0,0,0-3.57-.06,13.35,13.35,0,0,0-6.49,2.25A8.48,8.48,0,0,0,10,24a18.14,18.14,0,0,0,0,7.41l0,.14a1.49,1.49,0,0,1-2.82.9A17.6,17.6,0,0,1,5.88,28a16.62,16.62,0,0,1-.15-4.74,13.43,13.43,0,0,1,1.53-4.78,12.9,12.9,0,0,1,3.41-3.86,16.28,16.28,0,0,1,9.15-3.26,14.74,14.74,0,0,1,7,1.56A12,12,0,0,1,28.9,14.2a1.64,1.64,0,0,1,.29,2.32,1.66,1.66,0,0,1-1.66.61Z"/></g></g></svg>