<svg xmlns="http://www.w3.org/2000/svg" viewBox="0 0 96.45 61.05"><defs><style>.cls-1{fill:#151515;}.cls-2{fill:#fff;}</style></defs><g id="Layer_2" data-name="Layer 2"><g id="Layer_3" data-name="Layer 3"><path class="cls-1" d="M12.15,25.9,5.58,31.22l-.76,6.43v9l5.07,5.47,11.27.24,8,3.77,9.94,1.77L46,56.39l4.23-2.61,8.67,4.08,7.9-3h3.49l8.28-2,9.75-1.78s5.22-8.71,5.18-9.19,0-6.15,0-6.15A75.77,75.77,0,0,0,88.32,30c-1.12-.85-5.23-3.89-5.23-3.89H78.57l-2-1.45-1.42-6-4-3.28-3-2.27L66.8,5.71,63.56,3.52l-4.66-.3-4.77.3-5,3.39s-4-3.66-5.06-3.39-7-.3-7-.3L33.27,5.71,31.2,8.33,28,11.49l-6.79,2.37L15.8,15.4l-1.74,4.36-.7,3.67Z"/></g><g id="Layer_2-2" data-name="Layer 2"><path class="cls-2" d="M75,25.24a14.26,14.26,0,0,1,2-.63A16.11,16.11,0,0,1,79,24.26a15.84,15.84,0,0,1,4,0,14.09,14.09,0,0,1,7.64,3.48,16.42,16.42,0,0,1,2.64,3.15,20.72,20.72,0,0,1,1.91,3.44,14.27,14.27,0,0,1,1.11,8.28A15.78,15.78,0,0,1,95,46.53a18.87,18.87,0,0,1-.91,1.73c-.33.53-.66,1.07-1.08,1.63a17.57,17.57,0,0,1-2.72,2.92A19,19,0,0,1,87,55a18.49,18.49,0,0,1-7.41,1.9A23.13,23.13,0,0,1,72.3,56,1.78,1.78,0,0,1,73,52.51h0a22.14,22.14,0,0,0,6.13.08,15.37,15.37,0,0,0,5.43-1.93,12.54,12.54,0,0,0,3.93-3.84,14.06,14.06,0,0,0,.7-1.24c.2-.43.41-.87.57-1.3a10.8,10.8,0,0,0,.67-2.53,8.76,8.76,0,0,0-.95-4.85,14.73,14.73,0,0,0-1.46-2.39,10.34,10.34,0,0,0-1.74-2,10.13,10.13,0,0,0-4.42-2.16,15.68,15.68,0,0,0-2.7-.37c-.47,0-1,0-1.42,0l-1.33,0H76a2.49,2.49,0,0,1-1-4.8Z"/><path class="cls-2" d="M51.42,53c-.06-.09.06,0,.12.09l.26.2a6.9,6.9,0,0,0,.59.43,9.66,9.66,0,0,0,1.4.71,13.71,13.71,0,0,0,3.23.89,23.73,23.73,0,0,0,7.27-.13,14.37,14.37,0,0,0,6.51-2.52,6.78,6.78,0,0,0,2.67-5.86h0a1.13,1.13,0,0,1,2.2-.39,9.15,9.15,0,0,1,.13,4.74,9.77,9.77,0,0,1-2.39,4.28,16.87,16.87,0,0,1-8.12,4.41,24.58,24.58,0,0,1-9,.68,16.27,16.27,0,0,1-4.63-1.29A13.1,13.1,0,0,1,49.46,58c-.35-.26-.69-.53-1-.83-.17-.16-.33-.32-.49-.49a7.84,7.84,0,0,1-.56-.68,2.5,2.5,0,0,1,4-3Z"/><path class="cls-2" d="M67.74,13l.63-.12a5.05,5.05,0,0,1,.52,0,7,7,0,0,1,1,0,8.41,8.41,0,0,1,2,.3A9.38,9.38,0,0,1,75.49,15a10.13,10.13,0,0,1,2.45,3,12.68,12.68,0,0,1,.82,1.82,10.74,10.74,0,0,1,.4,2,9.83,9.83,0,0,1-.4,3.85,11.19,11.19,0,0,1-1.57,3.26,11.68,11.68,0,0,1-2.37,2.59,7.9,7.9,0,0,1-3.34,1.71,1.4,1.4,0,0,1-1-2.56l.27-.17A6.64,6.64,0,0,0,72.3,29a9.54,9.54,0,0,0,1.24-2.14,7.31,7.31,0,0,0,.65-2.24,5,5,0,0,0-.08-2.06,5.15,5.15,0,0,0-.29-.89,9,9,0,0,0-.51-.84,6.54,6.54,0,0,0-1.38-1.51,5.88,5.88,0,0,0-1.61-.93,7.11,7.11,0,0,0-.93-.27L68.92,18l-.23,0s-.18,0-.11,0A2.5,2.5,0,0,1,67.74,13Z"/><path class="cls-2" d="M47.88,13a12.72,12.72,0,0,1,.68-5.52,11.62,11.62,0,0,1,3.42-5A10.28,10.28,0,0,1,58.13.07a12.27,12.27,0,0,1,6.16,1.44A15.35,15.35,0,0,1,69,5.23a9.77,9.77,0,0,1,1.69,3,8.63,8.63,0,0,1,.47,3.51,10.44,10.44,0,0,1-2.45,5.66,14.44,14.44,0,0,1-4.2,3.48,1.4,1.4,0,0,1-1.81-2l.08-.11c1.69-2.35,3.16-5.26,2.83-7.09a3.93,3.93,0,0,0-1.26-2.32A9.55,9.55,0,0,0,63,8.2a7.26,7.26,0,0,0-.81-.49c-.27-.14-.54-.34-.81-.45a7.49,7.49,0,0,0-3.12-.84,5.21,5.21,0,0,0-2.82.72C53.58,8.2,52,10.52,50.93,13.3l0,.06a1.56,1.56,0,0,1-3-.39Z"/><path class="cls-2" d="M27.19,51.27c0-.05,0,0,.07,0l.13.11.3.24a6.35,6.35,0,0,0,.64.49,10.28,10.28,0,0,0,1.43.87A15.1,15.1,0,0,0,33,54.24a23.41,23.41,0,0,0,7.35.43,30.07,30.07,0,0,0,3.74-.59,15,15,0,0,0,3.34-1.26,9.53,9.53,0,0,0,2.69-2.1,8.48,8.48,0,0,0,1-1.42,7.18,7.18,0,0,0,.38-.79c.13-.25.22-.59.3-.74l.23-.49a1.39,1.39,0,0,1,1.85-.67,1.43,1.43,0,0,1,.8,1.16,9.4,9.4,0,0,1-.19,2.7,10.08,10.08,0,0,1-.89,2.46,11.94,11.94,0,0,1-3.34,4,15.12,15.12,0,0,1-2.14,1.44c-.75.4-1.52.74-2.29,1.06a25,25,0,0,1-4.71,1.24,21.88,21.88,0,0,1-9.82-.44A16.6,16.6,0,0,1,26.59,58a13.27,13.27,0,0,1-2-1.76,11.28,11.28,0,0,1-.87-1.05,6.75,6.75,0,0,1-.4-.59l-.19-.32-.24-.41a2.5,2.5,0,0,1,4.3-2.56Z"/><path class="cls-2" d="M26.71,12.77A14.91,14.91,0,0,1,27,10.59a14.91,14.91,0,0,1,.58-2,13,13,0,0,1,2.11-3.85,12.31,12.31,0,0,1,8-4.58C38.46.08,39.25,0,40,0s1.35,0,2,.13a15.36,15.36,0,0,1,2.08.36,19.24,19.24,0,0,1,2.1.63A12.25,12.25,0,0,1,50.1,3.6a9.55,9.55,0,0,1,1.54,1.91,10.86,10.86,0,0,1,.57,1.13c.08.21.16.41.22.63s.12.39.22.82a2.5,2.5,0,1,1-4.83,1.3c0,.15-.06,0-.11,0l-.17-.15-.39-.33a5.93,5.93,0,0,0-.91-.59A9.31,9.31,0,0,0,44,7.49a18.12,18.12,0,0,0-2.69-.39c-.46,0-1,0-1.45,0s-.84,0-1.26.05A6.88,6.88,0,0,0,34.58,9a10,10,0,0,0-1.64,2,13.34,13.34,0,0,0-.7,1.24l-.58,1.22-.23.48a2.48,2.48,0,0,1-4.72-1.21Z"/><path class="cls-2" d="M13.22,31.78a18,18,0,0,1-1.84-4.3,16.74,16.74,0,0,1-.7-4.81,12.59,12.59,0,0,1,1.13-5.27A10.77,10.77,0,0,1,15.65,13a13.06,13.06,0,0,1,2.52-1.29c.85-.31,1.6-.49,2.4-.73a16.13,16.13,0,0,1,5.23-.34,11.34,11.34,0,0,1,5.26,2,9.58,9.58,0,0,1,2,2,9.23,9.23,0,0,1,.76,1.19c.11.22.21.42.31.65s.16.42.29.79A2.14,2.14,0,0,1,30.55,19c0,.05-.14-.08-.23-.14L30,18.62a5.23,5.23,0,0,0-.63-.41c-.19-.14-.43-.23-.63-.35s-.43-.19-.66-.26a8.24,8.24,0,0,0-2.79-.42,14.89,14.89,0,0,0-3.19.42c-.54.17-1.17.31-1.66.47a6,6,0,0,0-1.29.55,5.11,5.11,0,0,0-1.88,1.7,8.08,8.08,0,0,0-1.14,2.84A25.65,25.65,0,0,0,16,30.73l0,.14a1.5,1.5,0,0,1-1.36,1.63A1.48,1.48,0,0,1,13.22,31.78Z"/><path class="cls-2" d="M13.29,28.84a3.06,3.06,0,0,1-.44.33l-.54.4c-.37.26-.73.54-1.08.82a22.38,22.38,0,0,0-2,1.79,9.94,9.94,0,0,0-2.49,4.34,12.24,12.24,0,0,0-.13,5.34,9.65,9.65,0,0,0,.76,2.37,9.25,9.25,0,0,0,1.45,2c2.37,2.53,6.43,3.91,10.41,3.87a16.48,16.48,0,0,0,5.81-1.06,9.45,9.45,0,0,0,4.38-3.4l0,0a1.69,1.69,0,0,1,2.35-.49,1.71,1.71,0,0,1,.59,2.17,12.8,12.8,0,0,1-5.61,5.46,19.92,19.92,0,0,1-7.31,2.06,21.56,21.56,0,0,1-7.6-.65,16.89,16.89,0,0,1-7.07-3.76,15.13,15.13,0,0,1-2.68-3.3,16,16,0,0,1-1.59-4A18.74,18.74,0,0,1,.34,35,16.42,16.42,0,0,1,4.08,27.5a15.74,15.74,0,0,1,3.11-2.72,14.7,14.7,0,0,1,1.77-1,10,10,0,0,1,.94-.42A11.63,11.63,0,0,1,11,23a2.79,2.79,0,0,1,3.29,4Z"/></g></g></svg>