<svg xmlns="http://www.w3.org/2000/svg" viewBox="0 0 95.94 70.53"><defs><style>.cls-1{fill:#151515;}.cls-2{fill:#fff;}</style></defs><g id="Layer_2" data-name="Layer 2"><g id="Layer_3" data-name="Layer 3"><path class="cls-1" d="M11.13,26.62,14.32,26l3.81-12.36,6.41-2.17h6.35l5.29-7.13h9.11l6.56,2.25,2,4h6.89l7.28.8,4.15,6,1.4,5,3.74-.54,3.92,2.23,3,5.55v5.46l4.53,4.92,1.32,8.62L88.75,54.9s-6.73,2-7.3,3-1,3.83-3.09,3.71-9.53,1.22-9.53,1.22S63.22,64,62.48,64.32s-7.65,1.44-7.65,1.44l-4.62-3L42.73,67.4H36.17l-7.65-1.64-4-6.29-8.38-.68L5,53.41,2.91,42.62l1.34-9.9L8.87,28Z"/></g><g id="Layer_2-2" data-name="Layer 2"><path class="cls-2" d="M83.7,33.27a13.55,13.55,0,0,1,4.82,1.33,13.27,13.27,0,0,1,4.17,3.1,12.39,12.39,0,0,1,2.68,4.81,13.88,13.88,0,0,1,.5,5.36,12.59,12.59,0,0,1-1.62,5.32,12.18,12.18,0,0,1-3.82,4,13.89,13.89,0,0,1-9.57,2,1.39,1.39,0,0,1-.32-2.67l.06,0A18.73,18.73,0,0,0,87,52.72a8.07,8.07,0,0,0,2.43-5.4,9.46,9.46,0,0,0-1.32-6,12,12,0,0,0-2.21-2.6,23.38,23.38,0,0,0-3-2.25l-.23-.16A1.66,1.66,0,0,1,82.2,34,1.68,1.68,0,0,1,83.7,33.27Z"/><path class="cls-2" d="M67.24,59.14c1.56.15,3.27.4,4.8.43a10.61,10.61,0,0,0,4.1-.51,4.41,4.41,0,0,0,1.44-1,5.4,5.4,0,0,0,1-1.71,17,17,0,0,0,.93-4.9v0a.81.81,0,0,1,.88-.74.8.8,0,0,1,.69.51A12.35,12.35,0,0,1,82,57.17a7.92,7.92,0,0,1-1.09,3.26A7.55,7.55,0,0,1,78.3,63a11.12,11.12,0,0,1-6.49,1.44,15.73,15.73,0,0,1-3-.48,13.43,13.43,0,0,1-2.87-1.08A2,2,0,0,1,67,59.12Z"/><path class="cls-2" d="M73.37,19.69a8.53,8.53,0,0,1,1-.29,9.3,9.3,0,0,1,.92-.16,11.76,11.76,0,0,1,1.88,0,10,10,0,0,1,3.72,1.06A11.14,11.14,0,0,1,86,25.82a11,11,0,0,1,1,3.77,9.25,9.25,0,0,1-2.61,7,9.19,9.19,0,0,1-2.86,2,1,1,0,0,1-1.36-1.42l.09-.17a11.61,11.61,0,0,0,1.45-4.74,6.7,6.7,0,0,0-1.06-3.83A9.4,9.4,0,0,0,78,25.35a8.83,8.83,0,0,0-1.82-1A11.25,11.25,0,0,0,75.09,24l-.56-.16a2,2,0,0,1-.48-.16l-1.31-1.34a1.56,1.56,0,0,1,.63-2.6Z"/><path class="cls-2" d="M49.85,62.54c.85.09,1.91.24,2.86.3s1.94.09,2.88.08A18.66,18.66,0,0,0,61,62a10.4,10.4,0,0,0,4.33-2.6A12.27,12.27,0,0,0,68,54.49l0-.12a.82.82,0,0,1,1.56,0A9.2,9.2,0,0,1,70,58.09a10.28,10.28,0,0,1-1.13,3.75A11.09,11.09,0,0,1,66.33,65a12.9,12.9,0,0,1-3.4,2,16.32,16.32,0,0,1-7.47,1.21,17.74,17.74,0,0,1-3.64-.6,15.9,15.9,0,0,1-3.46-1.4,2,2,0,0,1,1.19-3.75Z"/><path class="cls-2" d="M26.23,58.4c.46.41,1.05,1,1.61,1.45s1.16.93,1.75,1.38a21.84,21.84,0,0,0,3.69,2.19,16.16,16.16,0,0,0,8.09,1.46,10.69,10.69,0,0,0,7.17-3.35,16.15,16.15,0,0,0,3.75-8.12v0a.88.88,0,0,1,1-.71.87.87,0,0,1,.71.73A15.44,15.44,0,0,1,51.9,64.07a13.21,13.21,0,0,1-4.24,4.14,15,15,0,0,1-5.56,2,18.54,18.54,0,0,1-5.81.1,18.19,18.19,0,0,1-5.55-1.82,19.29,19.29,0,0,1-4.57-3.4A18.34,18.34,0,0,1,24.35,63a14.7,14.7,0,0,1-1.49-2.47A2,2,0,0,1,26,58.19Z"/><path class="cls-2" d="M54.86,10.17a10.67,10.67,0,0,1,.93-.84,9.73,9.73,0,0,1,.94-.64,9.35,9.35,0,0,1,2.08-.9,10.71,10.71,0,0,1,4.58-.34,13.59,13.59,0,0,1,4.35,1.44,16.16,16.16,0,0,1,3.58,2.58,12.68,12.68,0,0,1,4,7.91,13.4,13.4,0,0,1-.19,4.21,13.75,13.75,0,0,1-1.39,3.86,1.3,1.3,0,0,1-2.44-.72l0-.17a15.38,15.38,0,0,0-.68-6.2A8.7,8.7,0,0,0,67.4,16.1a11.74,11.74,0,0,0-5-2.05,26.18,26.18,0,0,0-2.62-.3l-1.44-.06h-.75a2.44,2.44,0,0,1-.7-.07l-1.63-.83a1.62,1.62,0,0,1-.4-2.61Z"/><path class="cls-2" d="M26.61,11.38A9.89,9.89,0,0,1,27,9.66a10.84,10.84,0,0,1,.61-1.55A12.75,12.75,0,0,1,29.45,5.3a14,14,0,0,1,5.5-4A17.14,17.14,0,0,1,41.5,0a24.07,24.07,0,0,1,3.19.22A18,18,0,0,1,48,1a16.3,16.3,0,0,1,5.85,3.39,16.25,16.25,0,0,1,3.84,5.39A15.66,15.66,0,0,1,59,16.05,10.16,10.16,0,0,1,57,22.29,1.36,1.36,0,0,1,54.67,21l0-.14a8.62,8.62,0,0,0,.12-4.49,12.66,12.66,0,0,0-1.79-4.26,11.38,11.38,0,0,0-6.92-5A11.84,11.84,0,0,0,44,6.77a18.4,18.4,0,0,0-2.34,0,15.75,15.75,0,0,0-4.32.72,12.79,12.79,0,0,0-3.75,2,13.54,13.54,0,0,0-1.66,1.49c-.26.28-.54.56-.78.86s-.51.65-.68.82l-.55.54a1.94,1.94,0,0,1-3.27-1.72Z"/><path class="cls-2" d="M12.76,26.83a15.17,15.17,0,0,1-.82-4.2,15.87,15.87,0,0,1,.32-4.37,12.17,12.17,0,0,1,1.83-4.39,10.33,10.33,0,0,1,1.69-1.95,12.43,12.43,0,0,1,2-1.42,11.24,11.24,0,0,1,4.69-1.56,10.59,10.59,0,0,1,4.84.69A12.87,12.87,0,0,1,31.14,12a14.06,14.06,0,0,1,2.77,3.31A1.29,1.29,0,0,1,32.05,17l-.12-.09a15.36,15.36,0,0,0-6-2.87,6.65,6.65,0,0,0-5.24,1.16,9.65,9.65,0,0,0-1.09.86,7.16,7.16,0,0,0-.81,1,11.83,11.83,0,0,0-1.27,2.62,28.62,28.62,0,0,0-.87,3.23c-.24,1.12-.43,2.37-.65,3.49l0,.19a1.67,1.67,0,0,1-2,1.33A1.69,1.69,0,0,1,12.76,26.83Z"/><path class="cls-2" d="M19.11,28.53c-.53,0-1.25-.09-1.87-.1s-1.28,0-1.91.05a14,14,0,0,0-3.48.7,8.76,8.76,0,0,0-2.72,1.58,8.53,8.53,0,0,0-1.87,2.51,17.64,17.64,0,0,0-1.5,7.2,36.49,36.49,0,0,0,.13,4,15.65,15.65,0,0,0,.65,3.64,11.44,11.44,0,0,0,4,5.71,16.87,16.87,0,0,0,7,2.93,25.17,25.17,0,0,0,8,.2A18.07,18.07,0,0,0,29.36,56a6.47,6.47,0,0,0,2.85-1.84l.06-.08a1.33,1.33,0,0,1,2.29,1.36,6.51,6.51,0,0,1-1.78,2.13A10.54,10.54,0,0,1,30.68,59a20.59,20.59,0,0,1-4.46,1.62,26.51,26.51,0,0,1-9.36.6A20.6,20.6,0,0,1,7.66,58a16.28,16.28,0,0,1-6.28-8A20.09,20.09,0,0,1,.27,45.06,44.88,44.88,0,0,1,0,40.39a22.56,22.56,0,0,1,1.93-9.76,13,13,0,0,1,3.42-4.35,12.63,12.63,0,0,1,5-2.43,15.22,15.22,0,0,1,5.13-.34,17.75,17.75,0,0,1,2.44.41,16.7,16.7,0,0,1,2.4.78,2,2,0,0,1-.91,3.85Z"/></g></g></svg>