<svg xmlns="http://www.w3.org/2000/svg" viewBox="0 0 83.1 55.46"><defs><style>.cls-1{fill:#151515;}.cls-2{fill:#fff;}</style></defs><g id="Layer_2" data-name="Layer 2"><g id="Layer_3" data-name="Layer 3"><path class="cls-1" d="M14,16.7,20.13,9l8.94-5.61L34,5.88S40.16,7.6,40.83,7s7-3.62,7-3.62l7.82,1L59.2,9l1.86,3.21h5l4.27,3L73,18.26l1.67,6.32,2.86,6.89L80,39.9,74.65,43l-6.77,1.33-6.82-.51-4,5.78-7.59,2.56L33,50.46l-6.53,1.28L15.83,48.58l.06-4.76L8,42.64,2.45,34.28l2.24-8.39,5-5.49Z"/></g><g id="Layer_2-2" data-name="Layer 2"><path class="cls-2" d="M36.62,11.26a11.83,11.83,0,0,1,.74-2.56,13.76,13.76,0,0,1,1.23-2.38,14.22,14.22,0,0,1,3.88-4.06A12.68,12.68,0,0,1,48.11.11a14.85,14.85,0,0,1,6,.52c.46.14.92.3,1.37.46l1.28.55a18.27,18.27,0,0,1,2.49,1.42,13.92,13.92,0,0,1,4.13,4.3,11.39,11.39,0,0,1,1.69,5.74,10.72,10.72,0,0,1-.32,2.84,9,9,0,0,1-1.1,2.62,1.09,1.09,0,0,1-2-.35l0-.26c-.13-.66-.27-1.43-.46-2.09a14.28,14.28,0,0,0-.7-1.91,10.39,10.39,0,0,0-2.05-3,13.2,13.2,0,0,0-2.86-2.12C55,8.56,54.42,8.3,53.84,8l-.92-.38L52,7.31a10.08,10.08,0,0,0-6.85-.06,20.94,20.94,0,0,0-7,4.73l-.07.07a.87.87,0,0,1-1.24,0A.86.86,0,0,1,36.62,11.26Z"/><path class="cls-2" d="M61.38,42.21a41.63,41.63,0,0,0,9-.82A13.11,13.11,0,0,0,74,40a7.43,7.43,0,0,0,1.29-1,5.2,5.2,0,0,0,.83-1.17,5.46,5.46,0,0,0,.47-1.43,6.85,6.85,0,0,0,.13-.91c0-.32.06-.63.08-.94a7.43,7.43,0,0,0-.53-3.1,6.08,6.08,0,0,0-2-2.45,19.94,19.94,0,0,0-3.77-2.07l-.17-.07a1.12,1.12,0,0,1-.57-1.48,1.1,1.1,0,0,1,.69-.61,9.5,9.5,0,0,1,2.81-.46,10.05,10.05,0,0,1,2.9.35,9.17,9.17,0,0,1,5.27,3.74,9.74,9.74,0,0,1,1.36,3.11,12.79,12.79,0,0,1,.33,3.15,14.74,14.74,0,0,1-.09,1.5c-.07.49-.11.94-.24,1.49a10.9,10.9,0,0,1-1.15,3.15,11.08,11.08,0,0,1-2.13,2.67,12.65,12.65,0,0,1-2.7,1.79,16.34,16.34,0,0,1-5.62,1.45,24.85,24.85,0,0,1-5.33-.13,25.4,25.4,0,0,1-5.1-1.16,1.65,1.65,0,0,1,.52-3.22Z"/><path class="cls-2" d="M62.64,10.66a8,8,0,0,1,7.07-.24,13.87,13.87,0,0,1,5.37,4.44,9.23,9.23,0,0,1,1.7,3.27,12.54,12.54,0,0,1,.52,3.36,17.81,17.81,0,0,1-1,6.27.93.93,0,0,1-1.19.57.91.91,0,0,1-.62-.86v-.08a25.68,25.68,0,0,0-.62-5.47A12.14,12.14,0,0,0,73,19.56a6.15,6.15,0,0,0-1.3-1.76,11.3,11.3,0,0,0-4-2.61A40.87,40.87,0,0,0,63.26,14l-.11,0a1.83,1.83,0,0,1-1.35-2.2A1.86,1.86,0,0,1,62.64,10.66Z"/><path class="cls-2" d="M35.41,48.14l1.79.23c.62.09,1.26.15,1.88.22,1.26.11,2.52.23,3.76.25a33.61,33.61,0,0,0,7.33-.5,14.61,14.61,0,0,0,6.26-2.6,8.11,8.11,0,0,0,2.11-2.46,10,10,0,0,0,.69-1.56,12,12,0,0,0,.4-1.63l.06-.31a1.39,1.39,0,0,1,2.73-.07,9.73,9.73,0,0,1,.26,2.52,10.88,10.88,0,0,1-.34,2.46A11.31,11.31,0,0,1,60,49.21a17.16,17.16,0,0,1-8.27,5.1,26.21,26.21,0,0,1-9.19,1.1A27.08,27.08,0,0,1,38,54.76a21.09,21.09,0,0,1-2.2-.61,20,20,0,0,1-2.22-.88A2.72,2.72,0,0,1,35.1,48.1Z"/><path class="cls-2" d="M17.58,38.55c0,.85,0,1.52,0,2.21a16.69,16.69,0,0,0,.11,1.92,9.63,9.63,0,0,0,.39,1.66,5.79,5.79,0,0,0,.72,1.35c1.12,1.56,3.3,2.67,5.82,3.31.64.17,1.28.32,1.94.45a11.49,11.49,0,0,0,1.77.21A7.23,7.23,0,0,0,31.55,49a7.48,7.48,0,0,0,2.67-2.15,8,8,0,0,0,1.53-3.17l0-.15a1.25,1.25,0,0,1,2.48.15,9.26,9.26,0,0,1-1.18,5,10.25,10.25,0,0,1-3.57,3.81,10.79,10.79,0,0,1-5.09,1.56,13.26,13.26,0,0,1-2.55-.12c-.78-.09-1.56-.22-2.34-.37a17.24,17.24,0,0,1-4.69-1.73A9.93,9.93,0,0,1,14.93,48,9.09,9.09,0,0,1,14,42.63a13.76,13.76,0,0,1,1.42-4.46l.05-.1a1.12,1.12,0,0,1,1.5-.5A1.1,1.1,0,0,1,17.58,38.55Z"/><path class="cls-2" d="M12.7,16.68a9.55,9.55,0,0,1,0-1.22c0-.38.07-.75.13-1.12a13.51,13.51,0,0,1,.5-2.18,15.59,15.59,0,0,1,2-4.08A16.81,16.81,0,0,1,18.43,4.7a19.71,19.71,0,0,1,1.84-1.35,7.39,7.39,0,0,1,2.13-1,15.21,15.21,0,0,1,9.32,0,20.32,20.32,0,0,1,4,1.76,21.51,21.51,0,0,1,1.83,1.14A20,20,0,0,1,39.36,6.6a2.22,2.22,0,0,1-2.73,3.5l-.14-.1c-.36-.25-.9-.59-1.38-.86s-1-.54-1.54-.77a15.22,15.22,0,0,0-3.17-1,9.47,9.47,0,0,0-5.93.52c-.22.09-.43.21-.65.31l-.73.29a11.89,11.89,0,0,0-1.43.71,11.26,11.26,0,0,0-2.51,1.93,11,11,0,0,0-1.89,2.61,11.9,11.9,0,0,0-.66,1.51q-.13.39-.24.78c-.07.25-.13.57-.16.71l-.09.34a1.73,1.73,0,0,1-3.41-.37Z"/><path class="cls-2" d="M24.76,23.52A50.6,50.6,0,0,0,19.05,22a14.74,14.74,0,0,0-5.1-.14,8.28,8.28,0,0,0-4,1.86,9.68,9.68,0,0,0-1.61,1.75A19.63,19.63,0,0,0,7,27.7c-1.6,3.05-2.11,6.62-.91,9.53a7.69,7.69,0,0,0,3,3.58,10.9,10.9,0,0,0,5,1.55h0a1.44,1.44,0,0,1,.12,2.86,12.3,12.3,0,0,1-7-.74,11.43,11.43,0,0,1-5.52-5.08A14.13,14.13,0,0,1,0,32.13a18.7,18.7,0,0,1,1.84-7,20.89,20.89,0,0,1,1.83-3.07,14.22,14.22,0,0,1,2.57-2.76,12.15,12.15,0,0,1,7.17-2.85,14,14,0,0,1,7,1.56,17.13,17.13,0,0,1,5.25,4.08.87.87,0,0,1-.91,1.41Z"/></g></g></svg>