<svg xmlns="http://www.w3.org/2000/svg" viewBox="0 0 78.04 54.75"><defs><style>.cls-1{fill:#151515;}.cls-2{fill:#fff;}</style></defs><g id="Layer_2" data-name="Layer 2"><g id="Layer_3" data-name="Layer 3"><path class="cls-1" d="M12.41,19.29,14,12.91l5.65-2.7h7.6L31,8.8l8.5-6,9.24,1.25v7l1.84,3.82,7-.12,3.79,4.52,1.78,3.5v4.3l7.29.59,2.45,3.65,2.13,7.33-1,3.48-4.62,2.62L63.19,45.9,57.61,45l-1.38,3.29L50.88,51l-5.26-.11L42.36,51l-7.22,1.21L31,50.9l-4.48,1.32s-3.14-1.55-3.83-1.32S18.38,49,18.38,49l-2.53-6.83-4.72-.43L4,37.58,2.63,31.5l1-5.47,3-4.07L11.13,20Z"/></g><g id="Layer_2-2" data-name="Layer 2"><path class="cls-2" d="M10.91,19.32a12.74,12.74,0,0,1-.1-3.31,12.15,12.15,0,0,1,.79-3.32,9.66,9.66,0,0,1,2-3.13,8.58,8.58,0,0,1,3.23-2.09,12.51,12.51,0,0,1,6.87-.73A10.21,10.21,0,0,1,28.41,8.9a8.62,8.62,0,0,1,1.29,1.28A1.48,1.48,0,0,1,28,12.48l-.38-.17c-.25-.11-.67-.34-1-.48a9.5,9.5,0,0,0-1.13-.4,10.25,10.25,0,0,0-2.3-.39,11,11,0,0,0-4.57.85,7.42,7.42,0,0,0-.92.43,4.88,4.88,0,0,0-.74.57,6.59,6.59,0,0,0-1.29,1.66,19,19,0,0,0-1.69,4.71l0,.16a1.51,1.51,0,0,1-3-.1Z"/><path class="cls-2" d="M45.35,48s.13.1.21.16a1.9,1.9,0,0,0,.33.22,4.26,4.26,0,0,0,.74.37,5.89,5.89,0,0,0,1.69.41,10.27,10.27,0,0,0,3.77-.38,6.22,6.22,0,0,0,3-1.68,3.73,3.73,0,0,0,.78-1.35,4,4,0,0,0,.18-.78,3.57,3.57,0,0,0,0-.71V44a1.49,1.49,0,0,1,3-.33,7,7,0,0,1,.1,1.53,7.52,7.52,0,0,1-.22,1.41,6.69,6.69,0,0,1-1.33,2.58A9,9,0,0,1,53,52a12.55,12.55,0,0,1-5.1.44,8.74,8.74,0,0,1-2.6-.78,7.45,7.45,0,0,1-1.2-.74c-.19-.14-.37-.3-.56-.47a5.56,5.56,0,0,1-.57-.63A1.5,1.5,0,1,1,45.35,48Z"/><path class="cls-2" d="M31.69,49.55c1.5.18,3.05.5,4.46.62A10.15,10.15,0,0,0,39.94,50a6.09,6.09,0,0,0,2.89-2.18,13.63,13.63,0,0,0,2-4l0-.11a.84.84,0,0,1,1.62.13,10.19,10.19,0,0,1-.63,5.59A8.38,8.38,0,0,1,41.53,54a10.06,10.06,0,0,1-6.06.57,12.42,12.42,0,0,1-5.09-2.28,1.53,1.53,0,0,1,1.12-2.73Z"/><path class="cls-2" d="M60.07,26.13a13.17,13.17,0,0,1,6.54-2,10.63,10.63,0,0,1,7.17,2.28,11.54,11.54,0,0,1,3.85,6.41,11.81,11.81,0,0,1-.37,7.33,11.35,11.35,0,0,1-4.82,5.44,15.06,15.06,0,0,1-6.41,2,12.79,12.79,0,0,1-6.54-1.09,8.17,8.17,0,0,1-2.75-2.11,7,7,0,0,1-1.47-3.13,1,1,0,0,1,1.92-.51h0a5,5,0,0,0,3.39,3,10.25,10.25,0,0,0,5,.14c3.31-.63,6.31-2.87,6.89-5.48a7.69,7.69,0,0,0-.3-4.17,7.06,7.06,0,0,0-2-3.47,6.72,6.72,0,0,0-3.66-1.48,16.56,16.56,0,0,0-4.85.2l-.22,0a1.89,1.89,0,0,1-1.32-3.47Z"/><path class="cls-2" d="M50.22,13.44a13.82,13.82,0,0,1,6-1.17,10.66,10.66,0,0,1,3.3.62,8.35,8.35,0,0,1,3.11,2,10.9,10.9,0,0,1,2.73,6.19A9.27,9.27,0,0,1,65,24.52a5.76,5.76,0,0,1-2.15,3.14A1.37,1.37,0,0,1,61,27.33a1.39,1.39,0,0,1-.22-1l.15-.91a8,8,0,0,0,.2-1.64,8.34,8.34,0,0,0-.27-2,9.6,9.6,0,0,0-.72-1.91,8.88,8.88,0,0,0-1-1.6,5.89,5.89,0,0,0-3.3-1.6A23.06,23.06,0,0,0,51,16.34h-.18a1.52,1.52,0,0,1-1.51-1.52A1.49,1.49,0,0,1,50.22,13.44Z"/><path class="cls-2" d="M17.34,43.82c.13.31.33.8.53,1.18a8.1,8.1,0,0,0,.68,1.15A7.64,7.64,0,0,0,20.3,48a9.21,9.21,0,0,0,4.92,1.61,9.21,9.21,0,0,0,5.21-.86,5.44,5.44,0,0,0,2.78-4.16v-.09A.89.89,0,0,1,35,44.35a7,7,0,0,1-2.62,7.1A9.25,9.25,0,0,1,28.8,53.2a13.84,13.84,0,0,1-3.75.42l-.92,0-.95-.12a13.23,13.23,0,0,1-1.9-.42,10.67,10.67,0,0,1-3.51-1.92A9.78,9.78,0,0,1,15.33,48a11.1,11.1,0,0,1-.68-1.82,9.16,9.16,0,0,1-.29-2,1.49,1.49,0,0,1,2.86-.64Z"/><path class="cls-2" d="M27.42,13.16a12.38,12.38,0,0,1,.47-5.54,10.32,10.32,0,0,1,3.4-4.89,6.81,6.81,0,0,1,1.27-.87l.67-.4c.22-.12.46-.2.69-.3.47-.18.94-.39,1.41-.53L36.76.31c.24,0,.48-.11.72-.14l.7-.06L39.59,0c.94,0,1.82.07,2.74.12a25.13,25.13,0,0,1,2.85.56c.48.17,1,.38,1.44.58.24.1.48.19.71.31L48,2a8.86,8.86,0,0,1,1.33,1c.4.39.8.8,1.18,1.21s.63.93.93,1.4a10.51,10.51,0,0,1,.66,1.5A11.85,11.85,0,0,1,52.56,13a13.85,13.85,0,0,1-1.94,5.08,1.53,1.53,0,0,1-2.82-.86V17c.07-2.91-.09-5.93-1.06-7.78-.15-.21-.22-.46-.38-.65A6,6,0,0,1,46,8a4.8,4.8,0,0,1-.53-.47c-.15-.18-.43-.26-.62-.41l-.31-.22-.39-.15-.77-.33c-.61-.14-1.17-.33-1.83-.45-2.74-.54-5.41-.52-7.34.64a6.56,6.56,0,0,0-2.4,2.59,9.46,9.46,0,0,0-.8,1.83,14.86,14.86,0,0,0-.54,2l-.06.26a1.5,1.5,0,0,1-2.94-.13Z"/><path class="cls-2" d="M14.79,21.44c-.72.14-1.6.28-2.34.49a14.41,14.41,0,0,0-2.16.76,8.15,8.15,0,0,0-3.11,2.45A8.79,8.79,0,0,0,5.55,29a16.4,16.4,0,0,0-.27,2.35,12.16,12.16,0,0,0,.08,2.27,8.5,8.5,0,0,0,1.52,3.91,8.63,8.63,0,0,0,3.35,2.67,10.78,10.78,0,0,0,4.45,1c1.5,0,3.08-.44,3.62-1.12l.12-.16a1.5,1.5,0,0,1,2.1-.26A1.52,1.52,0,0,1,21,41.49a5.77,5.77,0,0,1-2.75,2.62,10.4,10.4,0,0,1-3.21.94,13.86,13.86,0,0,1-6.41-.69A12.64,12.64,0,0,1,3.07,40.6,12.86,12.86,0,0,1,.26,34.45,17.09,17.09,0,0,1,0,31.2a21.26,21.26,0,0,1,.31-3.15A13.75,13.75,0,0,1,3,21.82a10.45,10.45,0,0,1,5.89-3.69,11.86,11.86,0,0,1,3.28-.29,11,11,0,0,1,3.18.64,1.51,1.51,0,0,1-.22,2.9Z"/></g></g></svg>