<svg xmlns="http://www.w3.org/2000/svg" viewBox="0 0 85.43 57.32"><defs><style>.cls-1{fill:#151515;}.cls-2{fill:#fff;}</style></defs><g id="Layer_2" data-name="Layer 2"><g id="Layer_3" data-name="Layer 3"><polygon class="cls-1" points="11.73 18.99 10.03 11.58 19.6 6.23 33.48 4.16 40.43 3.2 49.58 3.78 52.3 6.23 56.49 9.37 60.14 10.46 65.87 13.31 67.77 18.51 70.08 18.99 73.08 20.47 78.16 26.04 78.39 32.2 81.04 34.92 82.37 42.64 78.39 48.13 70.08 49.76 62.13 54.03 57.03 51.77 49.58 51.77 45.1 54.26 33.48 53.39 27.43 55 21.16 51.77 14.32 51 7.04 51 1.16 43.95 3.54 37.88 3.16 32.77 7.3 24.77 10.03 24.77 11.73 18.99"/></g><g id="Layer_2-2" data-name="Layer 2"><path class="cls-2" d="M79.78,30.12a8.72,8.72,0,0,1,1,.59,9,9,0,0,1,.86.63,10.64,10.64,0,0,1,1.47,1.53,11.07,11.07,0,0,1,2,4,10.67,10.67,0,0,1,.2,4.46,11.33,11.33,0,0,1-.53,2.1,10.69,10.69,0,0,1-.94,2,11.8,11.8,0,0,1-6.54,5,11.41,11.41,0,0,1-4,.54A6.2,6.2,0,0,1,69,49.18a1.48,1.48,0,0,1,0-2.1A1.5,1.5,0,0,1,71,47l.14.11a3.26,3.26,0,0,0,2.12.41,7.79,7.79,0,0,0,2.64-.73,7.52,7.52,0,0,0,3.72-3.61A7,7,0,0,0,80,42a7.76,7.76,0,0,0,.11-1.26,6.31,6.31,0,0,0-.43-2.3,9.16,9.16,0,0,0-1.15-2.12c-.24-.35-.5-.7-.76-1-.13-.18-.28-.35-.4-.53s-.32-.37-.33-.47l-.19-2.11a2.05,2.05,0,0,1,1.86-2.25A2.08,2.08,0,0,1,79.78,30.12Z"/><path class="cls-2" d="M67.83,16.71a9.82,9.82,0,0,1,3.57-.14,11.06,11.06,0,0,1,3.46,1.1A11.34,11.34,0,0,1,78,20.06a9.58,9.58,0,0,1,1.23,1.7A9.78,9.78,0,0,1,80,23.62a13.38,13.38,0,0,1,.61,3.61A9.8,9.8,0,0,1,80,31a8.38,8.38,0,0,1-2.15,3.17,8.17,8.17,0,0,1-1.48,1.11,7.79,7.79,0,0,1-1.72.78,1.26,1.26,0,0,1-1.19-2.17l.21-.16c.24-.2.61-.53.89-.82a7.61,7.61,0,0,0,.77-1,5.78,5.78,0,0,0,.85-2.13,8.27,8.27,0,0,0-.72-4.62,4.61,4.61,0,0,0-.49-.93,4.77,4.77,0,0,0-.62-.74,6.67,6.67,0,0,0-1.81-1.18c-1.39-.69-3.15-1.26-4.79-2.05l-.27-.14a1.85,1.85,0,0,1,.39-3.47Z"/><path class="cls-2" d="M55.87,8.11a7,7,0,0,1,.9-.15l.78-.06a13.14,13.14,0,0,1,1.54,0,12,12,0,0,1,3,.67A12.53,12.53,0,0,1,67,11.88a7.67,7.67,0,0,1,1.69,2.68,8.12,8.12,0,0,1,.5,3,12.1,12.1,0,0,1-1.48,5.36,1,1,0,0,1-1.77-.74l0-.09a10.29,10.29,0,0,0,.42-4.38,4.67,4.67,0,0,0-1.85-3.18,8.42,8.42,0,0,0-3.68-1.65,8.64,8.64,0,0,0-2-.15,7.77,7.77,0,0,0-1,.08l-.45.07-.33.07L57,13a2.5,2.5,0,1,1-1.28-4.84Z"/><path class="cls-2" d="M53.32,49.93c1.89.12,3.79.35,5.56.4a24.32,24.32,0,0,0,2.57,0c.41,0,.81-.06,1.2-.13s.83-.13,1.23-.22a8.43,8.43,0,0,0,4-1.92,5.77,5.77,0,0,0,1.69-4.31v-.1a.77.77,0,0,1,.75-.8.8.8,0,0,1,.66.33,6.78,6.78,0,0,1,0,7.12,8.82,8.82,0,0,1-2.61,2.82,12.51,12.51,0,0,1-3.27,1.59,13.17,13.17,0,0,1-3.49.61A15.45,15.45,0,0,1,58.28,55a15,15,0,0,1-6-2.65,1.37,1.37,0,0,1,.9-2.45Z"/><path class="cls-2" d="M34.64,51.18c-.06,0,.1,0,.18,0l.32.08c.22.06.46.11.71.16.48.11,1,.18,1.53.25a28.59,28.59,0,0,0,3.25.22c1.11,0,2.24,0,3.38-.09a24.32,24.32,0,0,0,3.2-.4,15.43,15.43,0,0,0,3-1,13.22,13.22,0,0,0,2.67-1.66,10.43,10.43,0,0,0,3.5-5.39v0a.68.68,0,0,1,.83-.5.72.72,0,0,1,.53.6,10.81,10.81,0,0,1-2.41,7.65,15.24,15.24,0,0,1-6.77,4.77,22.06,22.06,0,0,1-4,1,29.74,29.74,0,0,1-3.92.35,22,22,0,0,1-4-.25,20.07,20.07,0,0,1-2.06-.45c-.34-.11-.69-.22-1-.35L33,55.93c-.21-.09-.33-.15-.67-.32a2.5,2.5,0,0,1,2.33-4.43Z"/><path class="cls-2" d="M17.46,49.24c.27.16.77.47,1.18.7s.89.47,1.34.7a22.06,22.06,0,0,0,2.82,1.12,18.82,18.82,0,0,0,3,.73c.5.1,1,.13,1.52.19a7.33,7.33,0,0,0,1.32,0,7.11,7.11,0,0,0,4.68-2.63,19.09,19.09,0,0,0,3.28-5.65v-.05a.64.64,0,0,1,1.24.25,16.42,16.42,0,0,1-1.94,7.23A11.11,11.11,0,0,1,33.3,55a9.44,9.44,0,0,1-3.9,2,10.92,10.92,0,0,1-2.16.31c-.65,0-1.31,0-2,0a19.07,19.07,0,0,1-3.9-.6,20.2,20.2,0,0,1-3.69-1.37,18.63,18.63,0,0,1-1.73-1,13.84,13.84,0,0,1-1.7-1.27,2.49,2.49,0,0,1,2.93-4Z"/><path class="cls-2" d="M33.59,10.21a8,8,0,0,1,.54-4.37,8.82,8.82,0,0,1,2.93-3.75A10.37,10.37,0,0,1,41.55.19a13.74,13.74,0,0,1,4.57,0,16.09,16.09,0,0,1,4.26,1.23,11.94,11.94,0,0,1,3.86,2.76,9.45,9.45,0,0,1,2.27,4.26,8.25,8.25,0,0,1,.2,2.31A7.29,7.29,0,0,1,56.25,13a1.17,1.17,0,0,1-1.5.7,1.18,1.18,0,0,1-.65-.59l-.18-.38c-.2-.41-.42-1-.66-1.41a10.7,10.7,0,0,0-.83-1.24,7.35,7.35,0,0,0-2-1.75,14.48,14.48,0,0,0-5.34-1.75,11.8,11.8,0,0,0-5.33.15,7.71,7.71,0,0,0-2.44,1.29A14.94,14.94,0,0,0,35,10.44l-.1.12a.73.73,0,0,1-1,.09A.66.66,0,0,1,33.59,10.21Z"/><path class="cls-2" d="M9,24.09a18.63,18.63,0,0,1-.93-5.52,18.11,18.11,0,0,1,.75-5.63,16.75,16.75,0,0,1,6.94-9.2,18,18,0,0,1,11-3.2A17,17,0,0,1,32.4,1.8a18.13,18.13,0,0,1,2.53,1.27,14.49,14.49,0,0,1,2.31,1.75,1.62,1.62,0,0,1-1.78,2.67l-.2-.1c-.58-.27-1.35-.6-2-.84A18.62,18.62,0,0,0,31,5.9a16.66,16.66,0,0,0-4.35-.47A15.79,15.79,0,0,0,18.53,8,13.43,13.43,0,0,0,13.1,14.4,16.27,16.27,0,0,0,12,18.73a21.1,21.1,0,0,0,0,4.56v.16a1.54,1.54,0,0,1-1.37,1.69A1.56,1.56,0,0,1,9,24.09Z"/><path class="cls-2" d="M6,42.2A10.48,10.48,0,0,1,2.5,39.61,9.6,9.6,0,0,1,.32,30.79a13.35,13.35,0,0,1,1.81-4.12,10.12,10.12,0,0,1,1.52-1.88,8.5,8.5,0,0,1,2.14-1.48,8.56,8.56,0,0,1,4.92-.66,12.41,12.41,0,0,1,4.14,1.46,14.59,14.59,0,0,1,3.3,2.52,1.21,1.21,0,0,1-1.33,2l-.09,0A18.94,18.94,0,0,0,10.33,27a4.65,4.65,0,0,0-2.41.58A4.88,4.88,0,0,0,6.2,29.31a8.38,8.38,0,0,0-1.65,5.4,7.63,7.63,0,0,0,.89,2.75,13.53,13.53,0,0,0,1.89,2.62l.13.14A1.25,1.25,0,0,1,7.36,42,1.23,1.23,0,0,1,6,42.2Z"/><path class="cls-2" d="M4.59,38.38a21.62,21.62,0,0,0,.3,6.78,5.36,5.36,0,0,0,1.19,2.25A7.85,7.85,0,0,0,8.42,49a7.71,7.71,0,0,0,5.95,0,22.42,22.42,0,0,0,6.25-3.84l0,0a.69.69,0,0,1,1,.1.67.67,0,0,1,.08.73,15.94,15.94,0,0,1-5.65,6.36,11.8,11.8,0,0,1-4.39,1.67,10.54,10.54,0,0,1-4.92-.44,12.77,12.77,0,0,1-2.22-1,8.83,8.83,0,0,1-2.09-1.6A8.86,8.86,0,0,1,.14,46.14a12.24,12.24,0,0,1,.2-4.66A13.34,13.34,0,0,1,2,37.39a1.41,1.41,0,0,1,2-.46,1.39,1.39,0,0,1,.67,1.29Z"/></g></g></svg>