<svg xmlns="http://www.w3.org/2000/svg" viewBox="0 0 118.01 65.67"><defs><style>.cls-1{fill:#151515;}.cls-2{fill:#fff;}</style></defs><g id="Layer_2" data-name="Layer 2"><g id="Layer_3" data-name="Layer 3"><path class="cls-1" d="M12.36,30.74l5.35-8.31L26.54,20l6.47-6,9.67-4.73,4.54-.73,6.94-5.16h9.91l5.75,2.72L71,11.5l7.23.8,5,1.76,3.11,4,6.79.79L99.45,20l3.26,4.23,7.45,1.19,3.12,8.49v8.34l-5.36,4.21-4.37,1.39L101,54.42s-5.66.14-6.28.13-7.23,2.78-7.23,2.78L81.35,61.4H69.82A4.26,4.26,0,0,1,67,62.59c-1.39-.18-11.13-1.67-11.13-1.67l-4.23-1.41H45l-9.39-.46L33,56.57l-7.82-.72-5-2.29-3.46-3H6.42L1.83,40.41,6.42,30.07Z"/></g><g id="Layer_2-2" data-name="Layer 2"><path class="cls-2" d="M102,24.42a1.66,1.66,0,0,1,.52-1.25,1.86,1.86,0,0,1,.38-.26l.2-.09.15-.05.17-.06.22-.08.36-.12q.35-.11.69-.18a12.4,12.4,0,0,1,1.36-.21,11.9,11.9,0,0,1,2.79.1,10.71,10.71,0,0,1,5.37,2.55,11.27,11.27,0,0,1,3.2,5.1,17,17,0,0,1,.64,5.45,15.25,15.25,0,0,1-.31,2.76,14.36,14.36,0,0,1-.84,2.7,13.4,13.4,0,0,1-3.19,4.61,11,11,0,0,1-5,2.65,9,9,0,0,1-5.55-.69,1.46,1.46,0,0,1-.68-2,1.47,1.47,0,0,1,1.64-.8h0a6.24,6.24,0,0,0,6.37-2.37A9.47,9.47,0,0,0,112.1,39a9.28,9.28,0,0,0,.33-1.78,11.65,11.65,0,0,0,0-1.87,13.82,13.82,0,0,0-.7-3.69A7.22,7.22,0,0,0,107.49,27a12.87,12.87,0,0,0-1.78-.66c-.31-.08-.64-.18-1-.25l-.47-.11-.21-.06-.07,0s0,0,0,0l.08,0,.17-.07a3.18,3.18,0,0,0,.36-.26,1.58,1.58,0,0,0,.51-1.23,1.6,1.6,0,1,1-3.19.12Z"/><path class="cls-2" d="M86.93,16c.37-.2.59-.31.87-.43s.54-.21.81-.31a12.3,12.3,0,0,1,5.13-.64,11.72,11.72,0,0,1,6.39,2.71A12.17,12.17,0,0,1,104,23a12.3,12.3,0,0,1,.59,3.26,12.63,12.63,0,0,1,0,1.63,10.42,10.42,0,0,1-.28,1.69,1.55,1.55,0,0,1-3.06-.25l0-.29c0-.28-.06-.75-.11-1.12a10.54,10.54,0,0,0-1-3.36,8.78,8.78,0,0,0-2.88-3.28c-.31-.21-.63-.4-1-.59a7.11,7.11,0,0,0-.94-.42,6.78,6.78,0,0,0-2-.46,8.91,8.91,0,0,0-2.12.06,9.93,9.93,0,0,0-1.09.19l-.94.27-.43.12A2.36,2.36,0,0,1,86.93,16Z"/><path class="cls-2" d="M91.11,51.71a3.39,3.39,0,0,1,.45,0,4.8,4.8,0,0,0,.56.06,10.55,10.55,0,0,0,1.13.06,9.75,9.75,0,0,0,4.24-.93l.49-.25a2.77,2.77,0,0,0,.34-.2,4.78,4.78,0,0,0,.59-.52,7.75,7.75,0,0,0,1.55-4,32.76,32.76,0,0,0,.24-5.38v-.13a1.41,1.41,0,0,1,2.69-.61,17.47,17.47,0,0,1,1.55,6.28,12.6,12.6,0,0,1-.25,3.48,9.34,9.34,0,0,1-1.55,3.61,7.54,7.54,0,0,1-1.48,1.56,8.18,8.18,0,0,1-.87.62l-.8.46a12.75,12.75,0,0,1-3.5,1.21,12.16,12.16,0,0,1-3.66.09,13.24,13.24,0,0,1-1.77-.37,8.87,8.87,0,0,1-.87-.29c-.31-.13-.54-.22-1-.42a1.94,1.94,0,0,1,0-3.5Z"/><path class="cls-2" d="M74.17,56.65a3.74,3.74,0,0,1,.47.23c.19.09.38.19.59.27.39.18.8.33,1.2.47a11.2,11.2,0,0,0,2.45.49,9.78,9.78,0,0,0,4.75-.89,8.46,8.46,0,0,0,3.44-3.6,20.52,20.52,0,0,0,2-5.72l0-.06a1.15,1.15,0,0,1,2.25-.05,14.56,14.56,0,0,1-.11,7.41,11.61,11.61,0,0,1-4.71,6.69,12.53,12.53,0,0,1-12.15.74,13.81,13.81,0,0,1-1.77-1.06c-.28-.2-.55-.42-.82-.64s-.48-.44-.83-.81a2.1,2.1,0,0,1,1.61-3.55Z"/><path class="cls-2" d="M53.46,56.49s.12.06.19.1l.28.18c.19.12.38.25.6.37.41.23.84.46,1.28.66a16.7,16.7,0,0,0,2.78,1,19.24,19.24,0,0,0,3,.56,13,13,0,0,0,1.53.12l.39,0,.31,0h.62a7.85,7.85,0,0,0,2.36-.62,12.39,12.39,0,0,0,1.15-.58,11.81,11.81,0,0,0,1.13-.81,23.79,23.79,0,0,0,4.17-4.59l.13-.18a1.63,1.63,0,0,1,2.92,1.2,14,14,0,0,1-1.14,3.9,14.65,14.65,0,0,1-2.22,3.52A12,12,0,0,1,65,65.58l-1.16.06-.58,0-.51,0a19.73,19.73,0,0,1-2-.2,18.26,18.26,0,0,1-4-1A16.6,16.6,0,0,1,53,62.58a14,14,0,0,1-1.67-1.32,9.57,9.57,0,0,1-.78-.78,5.2,5.2,0,0,1-.37-.43c-.14-.17-.23-.28-.43-.55a2.38,2.38,0,0,1,3.69-3Z"/><path class="cls-2" d="M33.24,54.88c-.05-.09.08,0,.14,0l.25.15c.18.11.37.22.57.32a10.66,10.66,0,0,0,1.28.59,18.09,18.09,0,0,0,2.87.86,25.73,25.73,0,0,0,3.12.47c.54.06,1.09.07,1.63.11s.95,0,1.43,0a11.53,11.53,0,0,0,5.47-2,20.93,20.93,0,0,0,4.76-4.52l.09-.11a1.19,1.19,0,0,1,2.08,1,15,15,0,0,1-1.56,3.72,15.5,15.5,0,0,1-2.48,3.27,19.67,19.67,0,0,1-1.58,1.42,16.42,16.42,0,0,1-1.84,1.17,13.7,13.7,0,0,1-4.18,1.48,20.7,20.7,0,0,1-2.21.23c-.67,0-1.34,0-2,0a21.39,21.39,0,0,1-4.08-.6,16.61,16.61,0,0,1-4-1.61,12.4,12.4,0,0,1-1.84-1.28c-.29-.25-.58-.52-.86-.81s-.27-.31-.41-.48-.23-.3-.47-.63a2.38,2.38,0,1,1,3.83-2.84Z"/><path class="cls-2" d="M17.65,51.46c.25.16.61.47,1,.66a10.23,10.23,0,0,0,1.09.57,13.91,13.91,0,0,0,2.33.8A19.6,19.6,0,0,0,24.5,54c.43.06.85.11,1.29.14l.65.06.56,0a8.57,8.57,0,0,0,4.22-1.09A16.58,16.58,0,0,0,35.11,50l.15-.14a1.32,1.32,0,0,1,2.21,1.29,10.67,10.67,0,0,1-1.45,3,11.8,11.8,0,0,1-2.33,2.52A10.51,10.51,0,0,1,26.91,59L26,58.9l-.8-.12a13.26,13.26,0,0,1-1.6-.31,13.5,13.5,0,0,1-3.12-1.15,10.64,10.64,0,0,1-2.77-2,8.54,8.54,0,0,1-1.08-1.38,6,6,0,0,1-.72-1.72.89.89,0,0,1,.66-1.08.92.92,0,0,1,.67.1Z"/><path class="cls-2" d="M65.6,18a8.07,8.07,0,0,1,.59-2.31,9.64,9.64,0,0,1,1.16-2,10.09,10.09,0,0,1,3.73-3,12.45,12.45,0,0,1,4.56-1.14,16.81,16.81,0,0,1,4.44.34,12.68,12.68,0,0,1,4.37,1.76,10.25,10.25,0,0,1,3.36,3.57,10.47,10.47,0,0,1,1.27,4.44,10.36,10.36,0,0,1-.64,4.3,1,1,0,0,1-1.33.59,1,1,0,0,1-.63-.72l0-.15a12.39,12.39,0,0,0-2.67-5.72A8.28,8.28,0,0,0,79,15.48a14.23,14.23,0,0,0-5.9,0,8,8,0,0,0-2.51,1.14,9.28,9.28,0,0,0-1.16.95c-.36.33-.73.81-1,1.1l-.35.36A1.41,1.41,0,0,1,65.6,18Z"/><path class="cls-2" d="M45.11,7.5l.19-.36.16-.3c.1-.18.21-.36.32-.53a12.09,12.09,0,0,1,.72-1,13.79,13.79,0,0,1,1.67-1.75A14.5,14.5,0,0,1,52.31,1,16.77,16.77,0,0,1,57,0a20.84,20.84,0,0,1,4.62.3A18.27,18.27,0,0,1,70.05,4.1a16.53,16.53,0,0,1,3.18,3.4,17.43,17.43,0,0,1,1.19,2c.18.35.35.7.5,1.07a12.19,12.19,0,0,1,.43,1.23,2.36,2.36,0,0,1-4.27,1.92l-.24-.39-.35-.59c-.14-.23-.29-.46-.44-.68a13.07,13.07,0,0,0-1-1.3,13.53,13.53,0,0,0-2.43-2.17,14.5,14.5,0,0,0-6-2.43,13.34,13.34,0,0,0-6.34.25,10.4,10.4,0,0,0-2.74,1.34,8.74,8.74,0,0,0-1.22,1,6.82,6.82,0,0,0-.53.55,2.05,2.05,0,0,0-.25.27l-.11.12s-.07.09-.07.07A2.38,2.38,0,0,1,45.11,7.5Z"/><path class="cls-2" d="M25.62,18.33A11.44,11.44,0,0,1,25.89,17c.11-.39.24-.76.37-1.13a14.35,14.35,0,0,1,1-2.12,13.5,13.5,0,0,1,3.11-3.55,16.53,16.53,0,0,1,2-1.34,14.43,14.43,0,0,1,2.12-1l1.09-.38,1.1-.27a15.51,15.51,0,0,1,2.22-.35A17.93,17.93,0,0,1,43.35,7a12.69,12.69,0,0,1,4.44,1.43,10.09,10.09,0,0,1,3.54,3.17,9.84,9.84,0,0,1,1.07,2.06A9.09,9.09,0,0,1,52.94,16a1.34,1.34,0,0,1-1.19,1.46,1.32,1.32,0,0,1-1.33-.76l-.12-.25a9.91,9.91,0,0,0-.76-1.34,7.48,7.48,0,0,0-1-1.2A7.25,7.25,0,0,0,46,12.32a12.57,12.57,0,0,0-6.33-.19,12.92,12.92,0,0,0-5.74,2.46,10.49,10.49,0,0,0-2.12,2.14A13.47,13.47,0,0,0,30.93,18a7.3,7.3,0,0,0-.36.67c-.11.2-.23.5-.28.57l-.64.83a2.27,2.27,0,0,1-4-1.76Z"/><path class="cls-2" d="M11.19,28.87l0-.36,0-.3c0-.18,0-.37.07-.54,0-.36.14-.7.22-1a11.32,11.32,0,0,1,.75-2,11.9,11.9,0,0,1,2.49-3.35,13.39,13.39,0,0,1,3.41-2.26c.62-.26,1.23-.51,1.85-.7a16,16,0,0,1,1.88-.45,15.35,15.35,0,0,1,3.83-.26,17.79,17.79,0,0,1,1.93.21,17.13,17.13,0,0,1,1.87.49A13,13,0,0,1,32.94,20a11.38,11.38,0,0,1,2.76,2.62,1.22,1.22,0,0,1-.25,1.72,1.21,1.21,0,0,1-1.37.06l-.2-.11a13.67,13.67,0,0,0-2.57-1.27,12.21,12.21,0,0,0-2.76-.67,13.32,13.32,0,0,0-5.5.5,14.38,14.38,0,0,0-2.52,1,10.93,10.93,0,0,0-2.06,1.43,8.81,8.81,0,0,0-1.54,1.85,7.38,7.38,0,0,0-.58,1.07c-.08.19-.17.37-.23.56s-.07.18-.1.26l0,.12s0,.08,0,0a2.39,2.39,0,0,1-4.76-.35Z"/><path class="cls-2" d="M20.06,33.5A37.06,37.06,0,0,0,13.82,33a11.19,11.19,0,0,0-5.25,1.19A6.3,6.3,0,0,0,5.66,37.9a13.73,13.73,0,0,0-.55,5.54,6.53,6.53,0,0,0,2.21,4.31,9.15,9.15,0,0,0,5,1.91A14.63,14.63,0,0,0,18.16,49,9.29,9.29,0,0,0,22.86,46l0-.06a1.42,1.42,0,0,1,2.42,1.47,11.54,11.54,0,0,1-5.82,5.11A17.53,17.53,0,0,1,12.05,54a13.22,13.22,0,0,1-7.64-2.5A11.16,11.16,0,0,1,.2,44.18a15.71,15.71,0,0,1-.13-4,17.4,17.4,0,0,1,.76-3.88,11.82,11.82,0,0,1,1.94-3.78,10.12,10.12,0,0,1,3.4-2.84,11.77,11.77,0,0,1,4-1.2,15.36,15.36,0,0,1,3.9.06,19.32,19.32,0,0,1,7,2.4,1.38,1.38,0,0,1-.89,2.56Z"/></g></g></svg>