<svg xmlns="http://www.w3.org/2000/svg" viewBox="0 0 111.84 59.26"><defs><style>.cls-1{fill:#151515;}.cls-2{fill:#fff;}</style></defs><g id="Layer_2" data-name="Layer 2"><g id="Layer_3" data-name="Layer 3"><path class="cls-1" d="M19.28,22.53l6.51-6.77,6.25-2h9.07l5.07-6.89L58.26,3.71l5.06,2.48,6.51,9.16,1.26-.21,6.59-.05,6.7,2.62L87.32,24l3.06,4.74h5.11l9.79,2,2,5.6.91,9L102.89,51,98.3,52.27,90.24,51,83.6,52.86,77.26,53,73.1,51.76l-3.27.15L61,57.12l-6-1.19L48.51,53h-4L34.34,56.4s-5.23-.67-6-1S23,53,23,53l-3.72-5-4.54-.38L5,44.34,3.19,36.25l2.13-6.64,7.57-4.94,4.85-1.4Z"/></g><g id="Layer_2-2" data-name="Layer 2"><path class="cls-2" d="M88.94,28.51a2.62,2.62,0,0,1,.28-.3L89.4,28l.26-.23a4,4,0,0,1,.44-.34A5.07,5.07,0,0,1,91,27a15.49,15.49,0,0,1,1.82-.6,21.33,21.33,0,0,1,3.76-.7,15,15,0,0,1,8,1.28,12.57,12.57,0,0,1,5.82,6.27,18,18,0,0,1,1.4,7.94A15.21,15.21,0,0,1,109.2,49a14.42,14.42,0,0,1-6.36,5.18,13.79,13.79,0,0,1-8,.79,14.1,14.1,0,0,1-6.86-3.67,1.58,1.58,0,0,1,2-2.44,10.62,10.62,0,0,0,10.88.89,10.14,10.14,0,0,0,5.41-8.81,14.65,14.65,0,0,0-.22-2.79,17.27,17.27,0,0,0-.78-2.7,7.55,7.55,0,0,0-3.13-3.8,10.16,10.16,0,0,0-5.3-1.3,17.48,17.48,0,0,0-3,.25c-.5.08-1,.21-1.49.32a6.55,6.55,0,0,1-.74.1h-.34c-.07,0-.09,0-.12,0s-.08,0,0,0a.78.78,0,0,0,.11-.18,1.58,1.58,0,0,1-2.23-2.23Z"/><path class="cls-2" d="M72.54,49.28c.73.22,1.63.52,2.46.72a25.64,25.64,0,0,0,2.52.52,13.75,13.75,0,0,0,4.75,0,9.25,9.25,0,0,0,4-1.83,18.71,18.71,0,0,0,3.37-3.74l0,0a1.7,1.7,0,0,1,3,1.42,13.72,13.72,0,0,1-3.19,5.83,12.72,12.72,0,0,1-2.82,2.2,13,13,0,0,1-3.37,1.28,15,15,0,0,1-6.84-.17,17.59,17.59,0,0,1-3.09-1.06,16.08,16.08,0,0,1-2.87-1.64,2,2,0,0,1,1.76-3.54Z"/><path class="cls-2" d="M49.27,50.1s.13.12.22.2l.3.28c.21.19.43.38.67.56a10.62,10.62,0,0,0,1.5,1,13.71,13.71,0,0,0,3.46,1.25,20.08,20.08,0,0,0,3.85.46,18.29,18.29,0,0,0,2,0l1-.06.91-.16a7.11,7.11,0,0,0,5.41-3.65,10,10,0,0,0,.29-7.42v0A1.14,1.14,0,0,1,69.55,41a1.17,1.17,0,0,1,1.31.46,11.63,11.63,0,0,1,1.48,10A10.07,10.07,0,0,1,69.15,56a13.27,13.27,0,0,1-1.14.83l-1.22.68c-.41.2-.84.34-1.26.5a6.72,6.72,0,0,1-1.28.39,18.61,18.61,0,0,1-5.07.59,19.4,19.4,0,0,1-5-.65,15.18,15.18,0,0,1-4.78-2.22,12.28,12.28,0,0,1-2-1.79,13.14,13.14,0,0,1-.86-1.08l-.38-.61c-.13-.23-.22-.39-.39-.75a2,2,0,1,1,3.56-1.83Z"/><path class="cls-2" d="M23.34,48.69a3,3,0,0,1,.19.26,3.79,3.79,0,0,0,.25.35,7.33,7.33,0,0,0,.57.68,8.9,8.9,0,0,0,1.33,1.19,10.55,10.55,0,0,0,3.22,1.6,17.29,17.29,0,0,0,1.82.46c.64.08,1.26.21,1.92.23a22.27,22.27,0,0,0,4-.06,13.25,13.25,0,0,0,1.92-.26L39.5,53l.89-.29A12.73,12.73,0,0,0,42.11,52c.27-.14.52-.3.78-.45a4.33,4.33,0,0,0,.77-.48,11,11,0,0,0,2.66-2.53l.56-.76c.16-.28.34-.54.49-.82s.31-.57.45-.85.27-.62.36-.79l.22-.43a1.88,1.88,0,0,1,3.55,1,12.13,12.13,0,0,1-.2,1.42c-.09.44-.21.86-.34,1.29a16.31,16.31,0,0,1-1,2.45A14,14,0,0,1,47,55.28a17.34,17.34,0,0,1-9.8,3.88,21.72,21.72,0,0,1-2.54.09,21.91,21.91,0,0,1-2.55-.14c-.85-.09-1.72-.3-2.57-.47A16.48,16.48,0,0,1,27,57.76a13.65,13.65,0,0,1-4.53-3.06,12,12,0,0,1-1.67-2.21,9.75,9.75,0,0,1-.63-1.25,6.82,6.82,0,0,1-.25-.68,6.66,6.66,0,0,1-.23-.79.13.13,0,0,1,.1-.17Z"/><path class="cls-2" d="M69.4,13.31a17.21,17.21,0,0,1,4.48-1.23,19.34,19.34,0,0,1,4.7-.13,15.84,15.84,0,0,1,4.89,1.26,12.55,12.55,0,0,1,4.43,3.26A15.1,15.1,0,0,1,90.47,21a17.86,17.86,0,0,1,1,4.78,18.1,18.1,0,0,1-.25,4.72,16.37,16.37,0,0,1-1.47,4.45,1.64,1.64,0,0,1-2.2.73,1.67,1.67,0,0,1-.91-1.5v-.24a31.23,31.23,0,0,0-.12-3.72,22.62,22.62,0,0,0-.64-3.56,16.1,16.1,0,0,0-1.25-3.17,11,11,0,0,0-1.74-2.55,10.7,10.7,0,0,0-5.33-2.56,31.24,31.24,0,0,0-3.57-.6c-1.22-.15-2.57-.23-3.77-.37l-.26,0a2.12,2.12,0,0,1-.6-4Z"/><path class="cls-2" d="M38.78,14.76A12.18,12.18,0,0,1,39.91,8a13,13,0,0,1,4.81-5.38A17.4,17.4,0,0,1,51.38.24L53.07.09A11.82,11.82,0,0,1,54.74,0c1.1.06,2.19,0,3.29.18a20.62,20.62,0,0,1,6.65,1.86,13.53,13.53,0,0,1,5.6,5,13.13,13.13,0,0,1,1.85,7,15.06,15.06,0,0,1-1.55,6.46,1.39,1.39,0,0,1-2.64-.62v-.19a20,20,0,0,0-.56-5.18,9.3,9.3,0,0,0-2-4,9,9,0,0,0-3.46-2.31,18.37,18.37,0,0,0-4.67-1.07c-.84-.1-1.72-.1-2.57-.17S53,7,52.16,7a14.79,14.79,0,0,0-4.51,1A9.92,9.92,0,0,0,44,10.54a10.85,10.85,0,0,0-1.43,2,18.79,18.79,0,0,0-1.06,2.3l-.11.27a1.38,1.38,0,0,1-1.79.77A1.4,1.4,0,0,1,38.78,14.76Z"/><path class="cls-2" d="M18.34,24a10.77,10.77,0,0,1-.08-2.76,11.82,11.82,0,0,1,.61-2.65,8.86,8.86,0,0,1,.55-1.27,8.24,8.24,0,0,1,.69-1.23,12.49,12.49,0,0,1,1.81-2.17A14.24,14.24,0,0,1,26.61,11,19.28,19.28,0,0,1,31.78,9.8l1.36-.08c.46,0,.93,0,1.39.08a13.76,13.76,0,0,1,7.66,3,15.9,15.9,0,0,1,3.49,4,16.12,16.12,0,0,1,1.17,2.26,12.76,12.76,0,0,1,.79,2.47,1.57,1.57,0,0,1-2.78,1.3l-.14-.19a26,26,0,0,0-2.65-3,15.93,15.93,0,0,0-3-2.29,12,12,0,0,0-3.25-1.22,10.91,10.91,0,0,0-1.71-.19l-.87,0-.9.08a14.32,14.32,0,0,0-1.85.28c-.64.08-1.19.31-1.8.44a13,13,0,0,0-3.14,1.48,9.67,9.67,0,0,0-2.43,2.43,10.4,10.4,0,0,0-.94,1.59c-.27.55-.51,1.23-.69,1.71l-.15.39a1.55,1.55,0,0,1-3-.31Z"/><path class="cls-2" d="M24.29,30.64a19.7,19.7,0,0,0-2.56-2.52,11.83,11.83,0,0,0-2.9-1.73,7.27,7.27,0,0,0-2.93-.52q-.36.06-.72.09l-.36,0-.36.12-.72.2a7.79,7.79,0,0,0-.72.34L12.3,27l-.7.47-.71.45c-.24.16-.45.37-.67.55L9.55,29,9,29.63c-.2.21-.42.39-.6.61l-.52.67a12.71,12.71,0,0,0-1.65,2.88A11.2,11.2,0,0,0,5.49,37a8.49,8.49,0,0,0,1.64,5.87,7.35,7.35,0,0,0,1,1.11,7.2,7.2,0,0,0,1.25.92,18.43,18.43,0,0,0,3.24,1.43,11.72,11.72,0,0,0,6.78.3,10.92,10.92,0,0,0,3.21-1.37,13.39,13.39,0,0,0,1.47-1A12.17,12.17,0,0,0,25.39,43l.1-.12A1.69,1.69,0,0,1,28.13,45a13.86,13.86,0,0,1-1.54,1.84,14,14,0,0,1-1.74,1.52A15.39,15.39,0,0,1,16,51.5a17.52,17.52,0,0,1-4.69-.57A21.54,21.54,0,0,1,7,49.28a12.37,12.37,0,0,1-2.13-1.39A13,13,0,0,1,3,46.1a13.86,13.86,0,0,1-3-9.47A16.24,16.24,0,0,1,1,31.8,18.73,18.73,0,0,1,3.4,27.56l.74-.95c.26-.31.54-.58.82-.87s.56-.57.85-.84l.92-.75c.31-.24.61-.5.94-.72l1-.65,1-.62,1.16-.49c.4-.15.77-.34,1.18-.45l1.27-.3.63-.13a4.77,4.77,0,0,1,.66-.05c.44,0,.88,0,1.32,0a11.66,11.66,0,0,1,5,1.4,14.69,14.69,0,0,1,3.75,3A16.3,16.3,0,0,1,27.23,29a1.69,1.69,0,0,1-2.82,1.83Z"/></g></g></svg>