<svg xmlns="http://www.w3.org/2000/svg" viewBox="0 0 133.06 70.89"><defs><style>.cls-1{fill:#151515;}.cls-2{fill:#fff;}</style></defs><g id="Layer_2" data-name="Layer 2"><g id="Layer_3" data-name="Layer 3"><path class="cls-1" d="M12.68,37.22s4.74-2.1,5.05-3.48S22.85,25,22.85,25l8.81-3.39,5.1-3.89L46.25,6.09s9.61-2,11.64-2.08,11,.75,11,.75l7.69,2.79,3.38,7.94,3.12,6.12,5.16.35,6.45,1.75,4.63,4s1.64,3.41,1.62,4.9,4.72,3.46,4.72,3.46l6.8-1a18.14,18.14,0,0,1,2.75,2.13c.65.78,1,6,1,6s2.77,3.38,2.48,3.52,4.3,1.17,4.3,1.17,4.26-.79,4.92,0a8.26,8.26,0,0,1,2.23,3.81c.33,1.77.39,3.92-.22,5.14a12.26,12.26,0,0,1-1.82,2.84c-.5.5-1.17-.38-2.56,1.14s.55,2-3.35,2.08a23.41,23.41,0,0,1-5.9-.52l-4.8.52-1.27,1.33s.17,2.25-1.78,2.3-5.43,2-5.43,2l-2.1,1s-.9,2.11-2.17.93a12,12,0,0,0-3.32-2l-3-1.37-1.54-1.68s-1.3-.07-2.68-.3-1.61,0-2.91.52-3.67,1.13-3.67,1.13l-8.14.7s-.63-1.63-2-1-1.27,1.25-4-.22-3.39-2.82-3.39-2.82a9,9,0,0,0-5.13.74c-2.32,1.23-8,2.28-8,2.28l-2.71-.09-4.11-2.19-9.22-1.63s-6.19.26-7.74-.22a30,30,0,0,1-5.86-3.09c-.42-.42,3.47-.55-2.23-.62s-9-2-9.69-1.83-4.09-2.14-4.87-3.6-.85-9.13-.85-9.13,2.59-4.07,3-4.35S12.68,37.22,12.68,37.22Z"/></g><g id="Layer_2-2" data-name="Layer 2"><path class="cls-2" d="M99.57,34.71a10.35,10.35,0,0,1,1.59-1.44,13.64,13.64,0,0,1,1.76-1.09A11.13,11.13,0,0,1,107,31a12.32,12.32,0,0,1,8.19,2.36,12.88,12.88,0,0,1,3.06,3.1,11.88,11.88,0,0,1,1.09,2,11.16,11.16,0,0,1,.62,2.17,11.38,11.38,0,0,1-.06,4.28,12.82,12.82,0,0,1-.59,2,11,11,0,0,1-.94,1.89l-3-2.49h0A13.68,13.68,0,0,1,118,44.63a12.92,12.92,0,0,1,2.91-1.07,9.17,9.17,0,0,1,9.38,3.18,7.69,7.69,0,0,1,.95,1.32,10.68,10.68,0,0,1,.79,1.41,10.44,10.44,0,0,1,.78,6.72,11.46,11.46,0,0,1-3.33,5.69A13.31,13.31,0,0,1,124,64.94a12.69,12.69,0,0,1-6.24.19,13.09,13.09,0,0,1-5.49-2.69,2,2,0,0,1,2.36-3.23l0,0a9.19,9.19,0,0,0,8,1.12,7.72,7.72,0,0,0,5.19-5.28,5.3,5.3,0,0,0-.46-3.41,8.23,8.23,0,0,0-.48-.85l-.25-.43a2.73,2.73,0,0,0-.3-.36,3.5,3.5,0,0,0-.6-.66,3.12,3.12,0,0,0-.64-.51,4.85,4.85,0,0,0-3.27-.64,11.28,11.28,0,0,0-2,.47,16.44,16.44,0,0,0-2,.83h0a1.74,1.74,0,0,1-3.12-1.25L114.8,47c0-.33.15-.87.18-1.32a10.54,10.54,0,0,0,.06-1.37,8.18,8.18,0,0,0-.38-2.49c-.1-.38-.3-.71-.43-1.07a6.57,6.57,0,0,0-.65-.94,8,8,0,0,0-1.76-1.66c-.36-.23-.73-.48-1.1-.69a9.28,9.28,0,0,0-1.13-.5,7,7,0,0,0-2.33-.5,8.57,8.57,0,0,0-2.52.27,12.82,12.82,0,0,0-1.29.41c-.22.09-.43.17-.64.27s-.45.21-.56.24l-.76.21a1.93,1.93,0,0,1-1.92-3.18Z"/><path class="cls-2" d="M89.35,63.57c.38.18.94.44,1.44.63s1,.39,1.58.55a18.47,18.47,0,0,0,3.24.73,21,21,0,0,0,3.26.18,18,18,0,0,0,3.19-.42,16,16,0,0,0,5.79-2.43,9.53,9.53,0,0,0,2.1-2,7.72,7.72,0,0,0,.77-1.18A5.51,5.51,0,0,0,111,59c0-.1.09-.21.12-.3s.07-.23.08-.17a2.26,2.26,0,1,1,4.49.47,6.7,6.7,0,0,1-.1.74c0,.22-.08.41-.12.61a10.13,10.13,0,0,1-.37,1.14,11.68,11.68,0,0,1-1,2.1A13.16,13.16,0,0,1,111,67a18.38,18.38,0,0,1-7.86,3.44,19.8,19.8,0,0,1-8.43-.12,21.82,21.82,0,0,1-4-1.29c-.63-.29-1.25-.6-1.85-.94a15.42,15.42,0,0,1-1.83-1.2,2,2,0,0,1,2.05-3.4Z"/><path class="cls-2" d="M64.78,62.3c.11,0,.38.21.6.31a7.8,7.8,0,0,0,.71.35,15.06,15.06,0,0,0,1.49.62,19.55,19.55,0,0,0,3.14.81,22,22,0,0,0,3.26.28c.56,0,1.11,0,1.67,0s1.14-.07,1.75-.13a39.47,39.47,0,0,0,6.81-1.16A10.87,10.87,0,0,0,89.6,60.2l.06-.07a1.48,1.48,0,0,1,2.53,1.34,9.17,9.17,0,0,1-2.27,4,13.5,13.5,0,0,1-3.71,2.7A24.26,24.26,0,0,1,78,70.46a21.39,21.39,0,0,1-8.64-.57,16,16,0,0,1-4.09-1.8,13.2,13.2,0,0,1-1.83-1.34,10.35,10.35,0,0,1-.84-.79,11,11,0,0,1-.83-1,1.82,1.82,0,0,1,1.76-2.88Z"/><path class="cls-2" d="M41.62,61s.15.11.24.18l.32.25c.21.17.45.32.68.48a11.66,11.66,0,0,0,1.47.81,13.17,13.17,0,0,0,3.23,1,19.54,19.54,0,0,0,7.15-.3,18.73,18.73,0,0,0,6.73-2.78A12.18,12.18,0,0,0,64,58.14a9.58,9.58,0,0,0,1-1.51,12.08,12.08,0,0,0,.69-1.58l.08-.24a1.23,1.23,0,0,1,2.39.39,9.57,9.57,0,0,1-.29,2.47,12.06,12.06,0,0,1-.82,2.27,13.89,13.89,0,0,1-2.85,3.91A19.46,19.46,0,0,1,56,68.35a19.46,19.46,0,0,1-9.47.46,14.4,14.4,0,0,1-4.59-1.94,12.41,12.41,0,0,1-2-1.58c-.29-.3-.58-.61-.85-1-.13-.16-.26-.34-.39-.53s-.23-.34-.41-.64a.21.21,0,0,1,.08-.29h0Z"/><path class="cls-2" d="M83,21l.67-.36c.21-.11.4-.19.6-.28.4-.16.8-.3,1.21-.42a12.47,12.47,0,0,1,2.5-.44,14,14,0,0,1,5,.56,16.51,16.51,0,0,1,4.45,2.09l1,.68a16.33,16.33,0,0,1,2.8,2.8,12.71,12.71,0,0,1,2.09,4.93,15.42,15.42,0,0,1,0,5,23.23,23.23,0,0,1-3.4,8.53,2,2,0,0,1-3.58-1.78l0-.05A26.61,26.61,0,0,0,98.23,35a11.68,11.68,0,0,0-.2-3.33,8.37,8.37,0,0,0-1.26-2.7,14,14,0,0,0-5.45-3.75,12.62,12.62,0,0,0-3.25-.77,9.43,9.43,0,0,0-1.68,0c-.28,0-.55,0-.83.07l-.39.06c-.12,0-.29.07-.3,0L83,21Z"/><path class="cls-2" d="M33,21a24.11,24.11,0,0,1,1.56-4.62,29.6,29.6,0,0,1,2.35-4.22A31.79,31.79,0,0,1,40,8.31a29.6,29.6,0,0,1,3.78-3.26A26.47,26.47,0,0,1,53,.85,31.65,31.65,0,0,1,62.83.1a30.41,30.41,0,0,1,9.71,2.15,22,22,0,0,1,8.49,6,19.06,19.06,0,0,1,4.37,9.41,21.37,21.37,0,0,1-.74,9.78,2,2,0,0,1-3.94-.67v0a21.9,21.9,0,0,0-1-7.73,14.52,14.52,0,0,0-3.78-6,17.24,17.24,0,0,0-6.13-3.62,29.12,29.12,0,0,0-7.5-1.39A25.52,25.52,0,0,0,47.67,11a23.71,23.71,0,0,0-3.16,2.18,24,24,0,0,0-2.89,2.65A32.28,32.28,0,0,0,39,18.91c-.41.55-.8,1.1-1.17,1.67s-.74,1.19-1,1.67l-.14.22A2,2,0,0,1,33,21Z"/><path class="cls-2" d="M21.81,56.87s.1.09.17.15l.25.23c.18.15.34.31.54.45a9,9,0,0,0,1.21.8,12.73,12.73,0,0,0,2.71,1.14,17.21,17.21,0,0,0,6.06.54,19,19,0,0,0,6-1.47,22.55,22.55,0,0,0,2.82-1.42c.45-.27.91-.55,1.34-.86s.9-.65,1.22-.87l.27-.2a2,2,0,0,1,2.77,2.8,16.61,16.61,0,0,1-1.37,1.61c-.47.48-1,.93-1.48,1.36A21,21,0,0,1,41,63.35a19.34,19.34,0,0,1-7.82,2.17,17.24,17.24,0,0,1-2,0,15.59,15.59,0,0,1-2-.17A20.1,20.1,0,0,1,27,65a18.63,18.63,0,0,1-2-.65,14.08,14.08,0,0,1-3.68-2.07,13.69,13.69,0,0,1-1.58-1.47,8.2,8.2,0,0,1-.7-.84c-.11-.15-.22-.29-.33-.46s-.19-.3-.35-.58a2,2,0,0,1,3.42-2.08Z"/><path class="cls-2" d="M17.28,44.13A15,15,0,0,1,16,41.76a17.44,17.44,0,0,1-.82-2.47,17,17,0,0,1-.46-5.3,16.24,16.24,0,0,1,4.45-9.86,20.85,20.85,0,0,1,4.18-3.35,13.62,13.62,0,0,1,5.35-1.89,11,11,0,0,1,5.8.81A11.61,11.61,0,0,1,37,21.14a13.17,13.17,0,0,1,1.05.93,11.69,11.69,0,0,1,1,1.12,1.94,1.94,0,0,1-2.27,3l-.7-.31c-.16-.06-.45-.27-.72-.39a7.4,7.4,0,0,0-.8-.39,8.15,8.15,0,0,0-1.66-.52,6.87,6.87,0,0,0-3.16.07,9.38,9.38,0,0,0-3,1.43,14.73,14.73,0,0,0-1.49,1.11c-.5.38-.89.88-1.35,1.29s-.78.93-1.18,1.38-.67,1-.92,1.52a12.61,12.61,0,0,0-1.2,3.35,15.94,15.94,0,0,0-.23,3.75,14.45,14.45,0,0,0,.19,2c.09.64.25,1.37.36,1.88l.08.33a2,2,0,0,1-3.64,1.5Z"/><path class="cls-2" d="M15.94,39.05c-.72.09-1.66.24-2.47.43a16.71,16.71,0,0,0-2.36.76,8.3,8.3,0,0,0-3.46,2.61,8.41,8.41,0,0,0-1.57,4,6.53,6.53,0,0,0,.46,4c1.12,2.48,4,4.45,7.18,5.08a9.5,9.5,0,0,0,8.76-2.18l0,0a2,2,0,0,1,3.06,2.57,11.93,11.93,0,0,1-5.73,4.23,15.1,15.1,0,0,1-7,.71,16.8,16.8,0,0,1-6.63-2.37,13.63,13.63,0,0,1-5-5.45,12.41,12.41,0,0,1-1-7.52,13.26,13.26,0,0,1,3-6.75,12.39,12.39,0,0,1,6.28-3.83,15.49,15.49,0,0,1,6.86-.25A2,2,0,0,1,16.22,39Z"/></g></g></svg>