<svg xmlns="http://www.w3.org/2000/svg" viewBox="0 0 47.58 29.92"><defs><style>.cls-1{fill:#fff;fill-rule:evenodd;}</style></defs><g id="Layer_2" data-name="Layer 2"><g id="Layer_1-2" data-name="Layer 1"><path id="Behance-10" class="cls-1" d="M13.56,16.64H5.94v8h7.5c2.57,0,4.62-.82,4.62-3.86S16.3,16.64,13.56,16.64Zm-1-11.7H5.94v6.84h7.14c2.26,0,4-1,4-3.48,0-2.8-2.18-3.36-4.5-3.36Zm12.15,16c0,5.94-5.1,8.48-10.41,8.48H0V0H13.9c5.61,0,9.43,2,9.43,7.44a6.45,6.45,0,0,1-4,6.1c3.58,1,5.4,3.76,5.4,7.4Zm7-19H43.57V5.88H31.73ZM37,12c-3.72,0-4.8,2.08-4.88,3.7h9.56c-.52-2.9-1.8-3.66-4.66-3.66Zm-4.88,7.52c.16,3.68,2,6,5.24,6a5.61,5.61,0,0,0,4.9-3.24h5.16c-1.64,5-5.42,7.62-10.26,7.62-6.74,0-11-4.58-11-11.14,0-6.34,4.5-11.18,11-11.18C44.45,7.6,48,13,47.55,19.5Z"/></g></g></svg>