<svg xmlns="http://www.w3.org/2000/svg" viewBox="0 0 47.77 47.68"><defs><style>.cls-1{fill:#fff;}</style></defs><g id="Layer_2" data-name="Layer 2"><g id="Layer_1-2" data-name="Layer 1"><path class="cls-1" d="M23.84,4.34c6.35,0,7.11,0,9.62.14a12.82,12.82,0,0,1,4.42.82,7.89,7.89,0,0,1,4.51,4.51,12.82,12.82,0,0,1,.82,4.42c.12,2.51.14,3.27.14,9.62s0,7.11-.14,9.62a12.82,12.82,0,0,1-.82,4.42,7.89,7.89,0,0,1-4.51,4.51,12.82,12.82,0,0,1-4.42.82c-2.51.12-3.26.14-9.62.14s-7.11,0-9.62-.14A12.82,12.82,0,0,1,9.8,42.4a7.93,7.93,0,0,1-4.46-4.52,12.82,12.82,0,0,1-.82-4.42c-.12-2.51-.14-3.27-.14-9.62s0-7.11.14-9.62A12.82,12.82,0,0,1,5.34,9.8,7.89,7.89,0,0,1,9.8,5.34a12.82,12.82,0,0,1,4.42-.82c2.51-.12,3.27-.14,9.62-.14m0-4.29c-6.46,0-7.27,0-9.81.14A17.54,17.54,0,0,0,8.25,1.34a12.14,12.14,0,0,0-7,7A17.54,17.54,0,0,0,.14,14.12C0,16.66,0,17.47,0,23.93s0,7.27.14,9.81a17.64,17.64,0,0,0,1.2,5.69,12.14,12.14,0,0,0,7,7,17.54,17.54,0,0,0,5.78,1.11c2.54.11,3.35.14,9.81.14s7.27,0,9.81-.14a17.54,17.54,0,0,0,5.78-1.11,12.14,12.14,0,0,0,7-7,17.54,17.54,0,0,0,1.11-5.78c.11-2.54.14-3.35.14-9.81s0-7.27-.14-9.81a17.54,17.54,0,0,0-1.11-5.78,12.14,12.14,0,0,0-7-7A17.54,17.54,0,0,0,33.74.14C31.2,0,30.39,0,23.93,0Z"/><path class="cls-1" d="M23.84,11.62A12.22,12.22,0,1,0,36.06,23.84,12.22,12.22,0,0,0,23.84,11.62Zm0,20.15a7.93,7.93,0,1,1,7.93-7.93h0A7.93,7.93,0,0,1,23.84,31.77Z"/><circle class="cls-1" cx="36.54" cy="11.14" r="2.86"/></g></g></svg>