<svg xmlns="http://www.w3.org/2000/svg" viewBox="0 0 285.98 404.43"><defs><style>.cls-1{fill:#424143;}.cls-11,.cls-12,.cls-2{fill:#fff;}.cls-10,.cls-13,.cls-3,.cls-4,.cls-5,.cls-6,.cls-7,.cls-8{fill:none;}.cls-10,.cls-11,.cls-12,.cls-13,.cls-3,.cls-4,.cls-5,.cls-6,.cls-7,.cls-8,.cls-9{stroke:#fff;stroke-miterlimit:10;}.cls-13,.cls-3{stroke-width:4.85px;}.cls-13,.cls-4{stroke-linecap:round;}.cls-4{stroke-width:4.13px;}.cls-5{stroke-width:5px;}.cls-6{stroke-width:8px;}.cls-11,.cls-7{stroke-width:2.91px;}.cls-8{stroke-width:2.73px;}.cls-9{fill:#231f20;stroke-width:2.51px;}.cls-10{stroke-width:1.73px;}.cls-12{stroke-width:3.54px;}</style></defs><g id="Layer_2" data-name="Layer 2"><g id="Layer_1-2" data-name="Layer 1"><g id="Layer_2-2" data-name="Layer 2"><g id="Layer_3" data-name="Layer 3"><polygon class="cls-1" points="64.22 45.58 54.31 75.5 56.06 77.86 86 66.31 83.56 57.88 64.22 45.58"/><polygon class="cls-1" points="200.82 47.59 206.76 76 174.86 63.69 189.95 50.66 200.82 47.59"/><path class="cls-1" d="M100.57,63.15l28.51-7,26.19,4.53c1.49,5.44-.82,10.82-4.63,16.18l-16.19,9.8-16.77-1.57-13.93-15.5Z"/><polygon class="cls-1" points="84.05 336.79 102.9 315.5 135.47 311.43 148.05 313.65 168.44 325.87 178.23 347.4 179.27 363.99 172.61 387.13 166.37 396.99 143.23 390.13 121.3 390.24 105.49 390.94 103.63 383.06 95.3 369.73 92.15 367.63 86.75 350.86 84.05 336.79"/><polygon class="cls-1" points="118.14 11.44 120.93 4.8 128.15 2.42 135.24 3.81 138.8 8.79 138.8 15.13 118.54 14.23 118.14 12.29 118.14 11.44"/><polygon class="cls-1" points="123.46 160.97 130.1 159.59 134.26 160.69 133.59 165.4 129.08 169.1 124.35 164.32 123.46 160.97"/></g><g id="Layer_1-2-2" data-name="Layer 1-2"><path class="cls-2" d="M239.38,257.6c-.24-1.64-.64-3.47-1-5.22s-.89-3.52-1.4-5.27a66.66,66.66,0,0,0-4-10.31,68.53,68.53,0,0,1,7.89,8.18c1.23,1.48,2.41,3,3.56,4.54s2.23,3.1,3.33,4.86Z"/><path class="cls-3" d="M95.29,53.52s12-9.64,33.79-9.64c21,0,34.49,8.66,34.49,8.66"/><path class="cls-2" d="M231.48,126.66a28.51,28.51,0,0,1,1.66,3.14c.48,1,.92,2.08,1.33,3.14a48.69,48.69,0,0,1,2,6.49c.3,1.09.5,2.21.75,3.32s.39,2.23.56,3.35c.27,2.25.46,4.5.52,6.77a61,61,0,0,1-.19,6.77c-.19,2.23-.41,4.38-.67,6.57-.56,4.36-1.36,8.68-2.25,13-.46,2.14-.94,4.27-1.47,6.4s-1,4.26-1.61,6.38l-.46,1.61-.2.64a2.44,2.44,0,0,0,0,.54c-.09,1.27-.24,2.27-.37,3.37-.26,2.15-.5,4.29-.66,6.42s-.27,4.26-.27,6.34a22.14,22.14,0,0,1-.92,7A24.58,24.58,0,0,1,226,224l-1.82,2.7a4.9,4.9,0,0,1-2.94,2,4.48,4.48,0,0,1,.38-3.58l1.62-2.84a24.4,24.4,0,0,0,2.57-5.47,20.52,20.52,0,0,0,.74-5.89c0-2.24.2-4.44.41-6.63l.68-6.51c.1-1,.23-2.19.27-3.1a6.52,6.52,0,0,1,.06-1.08c.1-.52.15-.66.21-.93l.34-1.53c.88-4.18,1.54-8.44,2.07-12.69s1-8.53,1.31-12.78c.2-2.12.33-4.25.49-6.39a56.35,56.35,0,0,0,.11-6.22c-.07-2.08-.2-4.13-.44-6.17-.12-1-.27-2-.42-3.08s-.34-2-.58-3c-.42-2-1-4-1.61-6-.31-1-.64-2-1-2.91s-.78-1.94-1.15-2.72Z"/><path class="cls-2" d="M44.33,275.63c-1.15,4.16-2.2,8.32-3.08,12.51s-1.65,8.4-2.17,12.63a102.88,102.88,0,0,0,5.48,50.14c1.44,4,3,8,4.81,11.88s3.69,7.76,5.75,11.41v.07a2,2,0,1,1-3.35,2h0a135.07,135.07,0,0,1-11.58-23.78,101.21,101.21,0,0,1-5.69-52.33q1-6.57,2.5-13c1-4.27,2.28-8.49,3.59-12.67a2,2,0,0,1,3.74,1.11Z"/><path class="cls-4" d="M195.69,396.69c-4.27-4.49-8.4-21.46,5.51-33.25,19.64-16.65,34.82.78,34.82.78"/><path class="cls-5" d="M4.08,303.47s7.08-1.53,21,8C31.76,316,36,323.92,36,323.92"/><path class="cls-2" d="M13.83,364.23a12,12,0,0,1,.54-1.12c.18-.35.38-.66.57-1,.39-.64.81-1.24,1.25-1.83a23,23,0,0,1,3-3.24,22.64,22.64,0,0,1,7.44-4.55,26.81,26.81,0,0,1,8.4-1.62,29.45,29.45,0,0,1,8.42.8l-.82,3.48a25.31,25.31,0,0,0-7.37-.39,22.2,22.2,0,0,0-7.08,1.64,18.33,18.33,0,0,0-5.88,3.93A19.79,19.79,0,0,0,20,363.05c-.33.49-.64,1-.93,1.49-.13.25-.27.51-.39.76s-.22.45-.31.68Z"/><path class="cls-5" d="M209,358.45s-2.06-17.51,6.57-34.53c10.43-20.54,34.95-20.54,34.95-20.54"/><path class="cls-6" d="M221.24,85.09c-7.49,8.43-9.09,14.1-9.09,24.45,0,3.45,2.51,12.91,11.63,17.07,4.25,1.92,8.17.15,9.38-1.63"/><path class="cls-2" d="M233.33,108.48a16.51,16.51,0,0,0-1.27,8.13,19.57,19.57,0,0,0,.38,2,20.66,20.66,0,0,0,.58,2,10.24,10.24,0,0,0,2,3.26c1.66,1.78,4.06,2.45,6.87,2.39a8.61,8.61,0,0,0,1.9-.15,10,10,0,0,0,1.85-.54,18,18,0,0,0,3.61-1.83h.07A2.42,2.42,0,1,1,252,127.8l-.09.06a22.87,22.87,0,0,1-4.72,2.16,14.71,14.71,0,0,1-2.62.63,12.38,12.38,0,0,1-2.72.12,15.59,15.59,0,0,1-5.23-.94,11.19,11.19,0,0,1-4.61-3.19,14.07,14.07,0,0,1-2.6-4.7,24.22,24.22,0,0,1-1-5,19.79,19.79,0,0,1,.36-5.09,20.39,20.39,0,0,1,1.61-4.8,1.66,1.66,0,0,1,3,1.37Z"/><path class="cls-2" d="M67,383.73a15.6,15.6,0,0,1,1.53,3.79,13.45,13.45,0,0,1,.52,4.14,35.68,35.68,0,0,1-.32,3.85c-.09.64-.19,1.29-.33,1.95-.07.33-.14.66-.23,1s-.21.74-.34,1.11l-.09.22a2.24,2.24,0,0,1-4.19-1.59,2,2,0,0,1,.23-.44c.1-.21.19-.41.27-.62s.2-.5.29-.77c.18-.52.34-1.07.49-1.63.29-1.11.53-2.26.72-3.42a10.53,10.53,0,0,0,0-3.17,13.12,13.12,0,0,0-.82-3.16v-.11a1.32,1.32,0,0,1,.92-1.6A1.29,1.29,0,0,1,67,383.73Z"/><path class="cls-2" d="M91.23,383.66A24.66,24.66,0,0,1,92.9,387a15.2,15.2,0,0,1,1,3.84,14.15,14.15,0,0,1-.06,4.11,11.56,11.56,0,0,1-.5,2.07,7.47,7.47,0,0,1-.41,1l-.25.51a3.55,3.55,0,0,1-.38.62,2.38,2.38,0,0,1-3.74-2.94c0,.06.07-.06.12-.12l.18-.25a4.85,4.85,0,0,0,.35-.57,7.26,7.26,0,0,0,.58-1.31,10.25,10.25,0,0,0,.55-3,11.48,11.48,0,0,0-.26-3.15,23.43,23.43,0,0,0-1-3.25,1.16,1.16,0,0,1,.72-1.48,1.17,1.17,0,0,1,1.38.48Z"/><path class="cls-2" d="M79.43,386.67a10.33,10.33,0,0,1,1.38,3.24,23.3,23.3,0,0,1,.48,3.32,22.36,22.36,0,0,1,.14,3.37,13.37,13.37,0,0,1-.15,1.79,4.67,4.67,0,0,1-.17.94,1.64,1.64,0,0,1-.14.5,3.09,3.09,0,0,1-.25.66,2.23,2.23,0,1,1-4-1.92,2,2,0,0,1,.14-.25c-.06.13,0,0,.06-.06A1.59,1.59,0,0,0,77,398l.24-.57a9.44,9.44,0,0,0,.39-1.31,18.92,18.92,0,0,0,.47-2.89,20.75,20.75,0,0,0,.15-3,8.17,8.17,0,0,0-.58-2.7h0a1,1,0,0,1,1.74-.9Z"/><path class="cls-2" d="M205.7,384.76c.06,0,0,.4,0,.72a10.25,10.25,0,0,0,.2,1.13,8.53,8.53,0,0,0,.77,2.08,6,6,0,0,0,1.32,1.48,7.1,7.1,0,0,0,.87.6,6,6,0,0,0,.87.46,2.21,2.21,0,1,1-1.36,4.21h0a2.72,2.72,0,0,1-.46-.21l-.17-.1a9.7,9.7,0,0,1-1.38-1A11.44,11.44,0,0,1,205.2,393a9.28,9.28,0,0,1-1.75-2.85,12,12,0,0,1-.48-4.68,4.31,4.31,0,0,1,.13-.83,3.89,3.89,0,0,1,.41-1.06,1.23,1.23,0,0,1,1.69-.45A1.21,1.21,0,0,1,205.7,384.76Z"/><path class="cls-2" d="M220.86,372.91a4.14,4.14,0,0,0-.12.86,4.49,4.49,0,0,0,.23,2,5.35,5.35,0,0,0,1.72,2.24,9.91,9.91,0,0,0,.85.59,6.58,6.58,0,0,0,.84.42,2.21,2.21,0,1,1-1.34,4.22,2.07,2.07,0,0,1-.46-.2l-.19-.11a10.85,10.85,0,0,1-1.34-1,11.74,11.74,0,0,1-1.13-1.1,9.51,9.51,0,0,1-1.74-2.74,6.4,6.4,0,0,1-.44-1.65,7.4,7.4,0,0,1,0-1.63,8.71,8.71,0,0,1,.28-1.54,5.4,5.4,0,0,1,.68-1.6,1.21,1.21,0,0,1,2.21.92Z"/><path class="cls-2" d="M213.26,376.3a9.51,9.51,0,0,0-.33,3,6.08,6.08,0,0,0,.68,2.67,8.85,8.85,0,0,0,1.86,2.14,8.59,8.59,0,0,0,1.15.73l.58.25.28.09c.07,0,.22.06.16,0a2.19,2.19,0,0,1-1.07,4.25,5.46,5.46,0,0,1-.67-.26c-.19-.08-.36-.18-.53-.26-.33-.19-.64-.39-1-.61a10.37,10.37,0,0,1-1.62-1.42,11.75,11.75,0,0,1-2.26-3.5,9.19,9.19,0,0,1-.54-4.19,13,13,0,0,1,1-3.85,1.25,1.25,0,0,1,1.61-.67,1.23,1.23,0,0,1,.7,1.51Z"/><path class="cls-2" d="M35.23,372a5.57,5.57,0,0,1,.68,1.59,9.17,9.17,0,0,1,.28,1.55,7.31,7.31,0,0,1,0,1.62,6.34,6.34,0,0,1-.43,1.66A9.36,9.36,0,0,1,34,381.19a12.93,12.93,0,0,1-1.12,1.1,11.23,11.23,0,0,1-1.35,1l-.17.1a2.22,2.22,0,0,1-2.51-3.67,2.25,2.25,0,0,1,.21-.12,2.56,2.56,0,0,1,.48-.22,5.11,5.11,0,0,0,.84-.43,6.14,6.14,0,0,0,.85-.59A5.18,5.18,0,0,0,33,376.13a4.84,4.84,0,0,0,.23-1,5.57,5.57,0,0,0,0-1,4.34,4.34,0,0,0-.12-.87L33,373a1.21,1.21,0,0,1,.9-1.45h0A1.21,1.21,0,0,1,35.23,372Z"/><path class="cls-2" d="M43,375.76a12.23,12.23,0,0,1,1,3.85,9.09,9.09,0,0,1-.54,4.19,11.81,11.81,0,0,1-2.26,3.5,11,11,0,0,1-1.62,1.42c-.3.21-.62.41-1,.6l-.52.26c-.22.1-.45.18-.68.26a2.19,2.19,0,1,1-1.07-4.25h.16l.28-.09.59-.25a6.75,6.75,0,0,0,1.14-.74,8.23,8.23,0,0,0,1.86-2.13,6.07,6.07,0,0,0,.68-2.66,9.44,9.44,0,0,0-.33-3v-.06a1.23,1.23,0,0,1,2.31-.84Z"/><path class="cls-2" d="M249.5,109.23a8.71,8.71,0,0,0-1.16,7.21,17.86,17.86,0,0,0,1.32,3.76,9.44,9.44,0,0,0,2.25,2.89c1.84,1.46,3.6,1.42,5.87,1,2.07-.42,2.11-2.51,3.15-3.23a15.33,15.33,0,0,0,1.6-1.18,14.38,14.38,0,0,0,1.41-1.29l.89,1.76a2.43,2.43,0,1,1,3.54,3.33h0l-.1.1a20.81,20.81,0,0,1-2,1.62,22.31,22.31,0,0,1-2.06,1.37,17.74,17.74,0,0,1-4.72,2,12,12,0,0,1-5.39.08,10.5,10.5,0,0,1-4.84-2.52,13.35,13.35,0,0,1-3-4.25,21.52,21.52,0,0,1-.83-2.33,20.22,20.22,0,0,1-.57-2.39,14.48,14.48,0,0,1,0-5,10.51,10.51,0,0,1,2.2-4.7,1.51,1.51,0,1,1,2.36,1.89Z"/><path class="cls-7" d="M33.75,210.82s1.73-8.89,10.74-7.56c7.37,1.09,8,7,8,7"/><path class="cls-7" d="M28.33,216.61c2.48,3.94,4.84,4.94,9.18,5.07,4.76.14,8.19-1.3,9.77-5.51,1.44-3.83-1.22-5.81-2.9-5.88-3-.12-3.71,3-7.38,2.86C33.63,213,30.74,209,30.74,209Z"/><path class="cls-7" d="M46.13,218.55s1,3.07,5.44,2.36c3.17-.51,5.27-5.39,8.25-3.19s.23,11.39-10.65,10.92c-6.7-.28-11-7-11-7a15.49,15.49,0,0,0,5.13-1A6.83,6.83,0,0,0,46.13,218.55Z"/><path class="cls-7" d="M47.66,214.53s1.87-4.74,9.41-4.17c7.24.52,7.73,6.78,7.73,6.78"/><path class="cls-7" d="M41,203.11s-.23-5.84-6.83-6.81a6.36,6.36,0,0,0-2.64.14"/><path class="cls-7" d="M60.72,221.91s2.37-6.56,9.47-5.94c5.8.5,7.69,5.94,7.69,5.94"/><path class="cls-7" d="M52.46,228.47s2.66,5.47,8.48,6.6,8.63-.11,10.58-2,4.48-7.67.92-9.3c-3.21-1.47-4.18,2.89-8.37,3.55a7.06,7.06,0,0,1-5.43-1.88"/><path class="cls-7" d="M72.81,231.39s3.71,2.55,6.59,1.25,4.23-5.62,7.56-4c2.66,1.33,3.59,11.17-8.93,12.1-5.53.42-12.2-5.3-12.2-5.3"/><path class="cls-7" d="M74,225.61s1.07-5,8.48-5a9.31,9.31,0,0,1,8.39,5"/><path class="cls-7" d="M88.29,234.55a13.16,13.16,0,0,0,5.51.46c3-.46,2.4-4.35,6.24-4,2.7.21,3.77,4.53,2,7.58-2.42,4.09-5.83,5.57-11.22,5.08-5.74-.53-8.27-3.72-8.27-3.72C85.47,238.77,87.55,237.08,88.29,234.55Z"/><path class="cls-7" d="M88,229.78s.73-5.71,8.55-6.29c5.55-.41,9.67,3.84,9.67,3.84"/><path class="cls-7" d="M102.27,232.55a11.06,11.06,0,0,1,10.5-6.94,12,12,0,0,1,9,4"/><path class="cls-7" d="M98,242.58s4.31,4.19,11.8,3c6.77-1.11,8.37-5.15,8.74-7.45s.39-5.55-4-5.55c-4.09,0-2.44,4.19-6.16,5.24a5.85,5.85,0,0,1-5.41-1.11A11.07,11.07,0,0,1,98,242.58Z"/><path class="cls-7" d="M118.65,236a9.45,9.45,0,0,1,8.39-8.61,12.22,12.22,0,0,1,9.49,2.22"/><path class="cls-7" d="M111.76,245.19a18,18,0,0,0,11.82,2.33c3.13-.39,7.56-2,8-4.78.7-4.41-.35-7-2.78-7.19-3.5-.22-2.11,4.08-10.53,3.61A9.31,9.31,0,0,1,111.76,245.19Z"/><path class="cls-7" d="M132.94,238.38s.5-10.93,10.12-11.91c6.13-.62,8.33,1.52,8.33,1.52"/><path class="cls-7" d="M131.11,244.72a15.08,15.08,0,0,0,13.29.57c7.62-3.1,7.12-12.06,3.8-12.51-3.13-.42-4.5,1.82-7,5.12-2.14,2.89-8.15,1.28-9.21,1.12C131.46,241.61,132.19,243.52,131.11,244.72Z"/><path class="cls-7" d="M149.65,233.17A9.53,9.53,0,0,1,157,225c6.35-1.58,9.32,1.86,9.32,1.86"/><path class="cls-7" d="M151.39,237.32s4.49,1.28,6.59-1.77c1.32-1.92,3.37-5.23,6.7-4.14s1.44,10.28-5.81,12.78-11.63-.49-11.63-.49A10.32,10.32,0,0,0,151.39,237.32Z"/><path class="cls-7" d="M165.37,231.63a9.34,9.34,0,0,1,6.19-9.44c6.05-2.36,8.8.72,8.8.72"/><path class="cls-7" d="M166.64,235.49a7.46,7.46,0,0,0,5-.94c3.08-1.78,2.39-6.92,6.54-6.25,3.45.57,4.69,9.6-3.46,13.31-7.71,3.52-13.42,1.6-13.42,1.6C164.4,241.33,166.57,237.3,166.64,235.49Z"/><path class="cls-7" d="M179.83,229.64s-1.42-8.76,5.43-12.08c5.53-2.67,9.37-.16,9.37-.16"/><path class="cls-8" d="M179,238.19a16.21,16.21,0,0,0,9.69-1.5c2.71-1.47,6.57-3.52,7-8.06.3-3.42-1-6.39-4-5.6-3.62.94-2.13,4.62-5.19,6a38,38,0,0,1-5.9,1.93C181.51,233.94,181.58,235.41,179,238.19Z"/><path class="cls-7" d="M194.63,223.92c0-4-1.11-7.33,4.33-12.16a9.92,9.92,0,0,1,9.77-2"/><path class="cls-7" d="M195.34,225.07c.55-.29,5.59.54,6.44-3.43.72-3.38,2.43-5.61,5.16-5.3s3.34,2.77,2.23,6.92a10.92,10.92,0,0,1-5.7,7.62c-3.87,2.21-9.61,1.88-9.61,1.88A9.63,9.63,0,0,0,195.34,225.07Z"/><path class="cls-7" d="M209.37,218.05s-2.44-7.5,3.66-12.94a10.21,10.21,0,0,1,8.9-2.25"/><path class="cls-7" d="M209.37,218.05s1.66,1.47,5.6-1.17c3-2,.49-7,5.65-7.61,4.55-.58,4.9,6,3,10s-8.86,7.7-14.87,6.92"/><path class="cls-7" d="M221.63,209.27s-.4-6,2.87-9.11c2-1.85,5.39-1.92,5.39-1.92"/><path class="cls-9" d="M126,247l.07-7.71s-.09-4,2.86-4S132,239,132,239l.07,7.18"/><path class="cls-7" d="M142.6,260.14a13.51,13.51,0,0,1-27,0"/><path class="cls-7" d="M116.24,256a13.5,13.5,0,0,1,25.64-.22"/><path class="cls-2" d="M128.57,273.22,127,267.7a2.15,2.15,0,0,1,4.1-1.31c0,.06,0,.11,0,.16a2.19,2.19,0,0,1,0,1.19l-1.64,5.48a.49.49,0,0,1-.62.33A.48.48,0,0,1,128.57,273.22Z"/><path class="cls-10" d="M141.87,260.6c-8.56,1.69-24.4.48-26.15,0s-2.69-1.09-2.55-2.69,2.45-1.94,4-1.52c2.85.76,19.33,1.38,25-.36,0,0,2.45-.45,2.87,1.49C145.52,259.85,141.87,260.6,141.87,260.6Z"/><path class="cls-2" d="M130,169.47c.29,1.78.49,3.58.65,5.38l.22,2.7,0,.67a4.31,4.31,0,0,1,0,.88,4.65,4.65,0,0,1-.82,2.14,8,8,0,0,1-2.68,2.28,16.23,16.23,0,0,1-2.83,1.25,22.67,22.67,0,0,1-5.78,1.06,14.91,14.91,0,0,1-6-.75,12.21,12.21,0,0,1-2.83-1.45,9.39,9.39,0,0,1-2.29-2.33,7.67,7.67,0,0,1-.74-1.49c-.09-.27-.17-.54-.24-.8l-.16-.72a9.73,9.73,0,0,1-.1-3,6.28,6.28,0,0,1,1.15-2.8,7.09,7.09,0,0,1,2.17-1.83.14.14,0,0,1,.18.05.14.14,0,0,1,0,.15,8,8,0,0,0-1.38,2.18,5.17,5.17,0,0,0-.3,2.33,7.82,7.82,0,0,0,.6,2.29,4.29,4.29,0,0,0,1.21,1.78,6.09,6.09,0,0,0,1.77,1.16,8.69,8.69,0,0,0,2.09.69,12.34,12.34,0,0,0,2.26.27h2.39a25.26,25.26,0,0,0,4.82-.71,11.12,11.12,0,0,0,2.16-.77,4.54,4.54,0,0,0,1.49-1,1,1,0,0,0,.2-.32,1.77,1.77,0,0,0,0-.46v-.67l.22-2.7c.16-1.79.36-3.59.65-5.38a.9.9,0,0,1,1.77,0Z"/><path class="cls-2" d="M130,169.47c.29,1.78.49,3.58.65,5.38l.21,2.7.06.67a3.53,3.53,0,0,0,0,.46,1.55,1.55,0,0,0,.2.32,5,5,0,0,0,1.49,1,13.88,13.88,0,0,0,2.16.77,27.08,27.08,0,0,0,4.82.71c.83,0,1.65.06,2.39,0a14.23,14.23,0,0,0,2.26-.27,9.49,9.49,0,0,0,2.09-.69,6.53,6.53,0,0,0,1.77-1.16,4.11,4.11,0,0,0,1.21-1.78,7.32,7.32,0,0,0,.6-2.29,5,5,0,0,0-.3-2.33,7.5,7.5,0,0,0-1.37-2.18.13.13,0,0,1,0-.18.14.14,0,0,1,.15,0,6.75,6.75,0,0,1,2.18,1.83,5.86,5.86,0,0,1,1.14,2.8,9.45,9.45,0,0,1-.09,3l-.17.72c-.06.26-.15.53-.23.8a7.18,7.18,0,0,1-.75,1.49,9.39,9.39,0,0,1-2.29,2.33,12.75,12.75,0,0,1-2.82,1.45,15.08,15.08,0,0,1-6,.74,22.68,22.68,0,0,1-5.77-1.06,17,17,0,0,1-2.83-1.24,8,8,0,0,1-2.68-2.29,4.65,4.65,0,0,1-.82-2.14,4.31,4.31,0,0,1,0-.88v-.67l.22-2.7c.16-1.79.36-3.59.65-5.38a.9.9,0,0,1,1.78,0Z"/><path class="cls-2" d="M35.79,145.49a39.15,39.15,0,0,1,8.07,1.06A52.52,52.52,0,0,1,51.62,149a56.72,56.72,0,0,1,7.34,3.5,42.7,42.7,0,0,1,6.69,4.64.56.56,0,0,1,.06.81h0a.58.58,0,0,1-.61.17c-2.58-.81-5.06-1.75-7.52-2.67l-7.37-2.75c-2.46-.91-4.91-1.81-7.36-2.76s-4.92-1.87-7.38-3a.74.74,0,0,1-.35-1,.71.71,0,0,1,.67-.42Z"/><path class="cls-2" d="M42.57,163.41A18,18,0,0,1,46.66,162a23.7,23.7,0,0,1,8.56-.33,16.32,16.32,0,0,1,4.18,1.1.71.71,0,0,1,.37.94.73.73,0,0,1-.56.43h0c-1.41.19-2.78.25-4.14.31s-2.7.08-4,.14l-4.06.07c-1.36,0-2.73,0-4.16-.07a.64.64,0,0,1-.58-.68.67.67,0,0,1,.34-.52Z"/><path class="cls-2" d="M38.71,177.72a37,37,0,0,1,5.67-3.48,52,52,0,0,1,6.11-2.58c1-.36,2.1-.67,3.17-1a30.21,30.21,0,0,1,3.23-.75,32.08,32.08,0,0,1,6.62-.7.82.82,0,0,1,.82.83.83.83,0,0,1-.49.75c-2,.89-4,1.63-6.07,2.34-1,.38-2,.67-3,1.05l-3.05,1c-2,.66-4.07,1.34-6.13,2s-4.14,1.26-6.3,1.74a.7.7,0,0,1-.58-1.2Z"/><path class="cls-2" d="M222.82,146.91c-2.41,1.22-4.84,2.25-7.29,3.22s-4.88,2-7.34,2.86-4.92,1.84-7.42,2.7-5,1.72-7.63,2.42a.59.59,0,0,1-.68-.46.57.57,0,0,1,.18-.54,47.32,47.32,0,0,1,6.81-4.39,68.38,68.38,0,0,1,7.31-3.42,62.58,62.58,0,0,1,7.68-2.5,43.34,43.34,0,0,1,8-1.3.74.74,0,0,1,.8.68.71.71,0,0,1-.43.73Z"/><path class="cls-2" d="M215.43,164.6c-1.42.06-2.79,0-4.14,0l-4-.09-4-.1a36.76,36.76,0,0,1-4.14-.25h0a.71.71,0,0,1-.62-.79h0a.72.72,0,0,1,.42-.56,16,16,0,0,1,4.17-1.18,22.78,22.78,0,0,1,8.6.32,16,16,0,0,1,4.08,1.49.62.62,0,0,1,.25.85.66.66,0,0,1-.53.33Z"/><path class="cls-2" d="M219,179.83c-2.14-.6-4.18-1.3-6.21-2s-4-1.36-6.08-2l-3-1c-1-.33-2-.64-3-1-2-.64-4.08-1.3-6.14-2.09a.82.82,0,0,1-.49-1.05.8.8,0,0,1,.73-.53,28.83,28.83,0,0,1,6.69.45c1.11.16,2.19.44,3.28.69a28.35,28.35,0,0,1,3.21,1,42.55,42.55,0,0,1,6,2.69,31.13,31.13,0,0,1,5.57,3.73.64.64,0,0,1,.07.92A.62.62,0,0,1,219,179.83Z"/><path class="cls-2" d="M79.7,107.51a13.94,13.94,0,0,1,3.17,2.86,14.34,14.34,0,0,1,2.32,3.69.9.9,0,0,1-.48,1.17.94.94,0,0,1-.7,0,14.69,14.69,0,0,1-3.62-2.42,13.73,13.73,0,0,1-2.78-3.25,1.51,1.51,0,0,1,.61-2,1.48,1.48,0,0,1,1.48,0Z"/><path class="cls-2" d="M91.83,107.29a6.2,6.2,0,0,1,.86,2.51,8.92,8.92,0,0,1,0,2.73,1.07,1.07,0,0,1-1.21.86,1.05,1.05,0,0,1-.63-.37,8.88,8.88,0,0,1-1.34-2.38A6.67,6.67,0,0,1,89,108a1.53,1.53,0,0,1,1.59-1.45h0A1.46,1.46,0,0,1,91.83,107.29Z"/><path class="cls-2" d="M165.74,111.12a6.53,6.53,0,0,1,.32-2,9.57,9.57,0,0,1,.74-1.75,11.08,11.08,0,0,1,1.06-1.57,6.88,6.88,0,0,1,1.44-1.36,1.24,1.24,0,0,1,1.71.33h0a1.23,1.23,0,0,1,.21.74,6.51,6.51,0,0,1-.4,1.94,9.65,9.65,0,0,1-.78,1.74,9.27,9.27,0,0,1-1.1,1.55,6.21,6.21,0,0,1-1.53,1.31,1.11,1.11,0,0,1-1.51-.38h0A1.3,1.3,0,0,1,165.74,111.12Z"/><path class="cls-2" d="M171.66,112.73a14.67,14.67,0,0,1,2.19-2.47,10.39,10.39,0,0,1,2.67-1.88,1.51,1.51,0,0,1,2,.75,1.48,1.48,0,0,1-.19,1.54,9.91,9.91,0,0,1-2.45,2.16,15.2,15.2,0,0,1-2.93,1.55,1.09,1.09,0,0,1-1.4-.64,1.08,1.08,0,0,1,.12-1Z"/><path class="cls-2" d="M73.49,136.33a18,18,0,0,1,8.1-8.34,23.7,23.7,0,0,1,11.52-2.73,24.46,24.46,0,0,1,11.58,2.84,20.49,20.49,0,0,1,4.84,3.59,17.37,17.37,0,0,1,2,2.28c.29.41.57.82.84,1.25a13.62,13.62,0,0,1,.74,1.44,1.9,1.9,0,0,1-1,2.5,1.94,1.94,0,0,1-1.89-.19l-.43-.33c-.21-.15-.53-.48-.82-.71l-.92-.74a22.31,22.31,0,0,0-1.94-1.35,25,25,0,0,0-4.12-2.12,27.45,27.45,0,0,0-9-1.88,28,28,0,0,0-9.28,1,25.94,25.94,0,0,0-8.61,4.48l-.12.09a1,1,0,0,1-1.34-.16A.93.93,0,0,1,73.49,136.33Z"/><path class="cls-2" d="M183.09,137.36a25.94,25.94,0,0,0-8.61-4.48,27.94,27.94,0,0,0-9.28-1,27.27,27.27,0,0,0-9,1.89,24.72,24.72,0,0,0-4.13,2.11,21.62,21.62,0,0,0-1.93,1.36c-.32.24-.62.49-.92.74s-.61.56-.82.71L148,139a1.9,1.9,0,0,1-2.85-2.3,13.93,13.93,0,0,1,.74-1.44c.26-.44.55-.85.84-1.26a18.47,18.47,0,0,1,2-2.28,21.33,21.33,0,0,1,4.85-3.59A24.5,24.5,0,0,1,165,125.26,23.92,23.92,0,0,1,176.57,128a18,18,0,0,1,8.1,8.34.94.94,0,0,1-.47,1.25h0a1,1,0,0,1-1-.11Z"/><path class="cls-11" d="M230.78,112.65a17.24,17.24,0,0,1,7.75-1.17,33.55,33.55,0,0,1,7.85,1.17"/><path class="cls-12" d="M231.75,118.86a24.25,24.25,0,0,1,7.8-1,36.51,36.51,0,0,1,7.8,1.8"/><path class="cls-7" d="M224,211.11a5.66,5.66,0,0,0,4-2.31"/><line class="cls-7" x1="225.91" y1="210.33" x2="226.04" y2="217.08"/><path class="cls-2" d="M71.93,29c.61-.62,1.06-1,1.59-1.51a18.56,18.56,0,0,1,1.55-1.31c1.06-.84,2.13-1.62,3.22-2.38a73.81,73.81,0,0,1,6.78-4.08,85,85,0,0,1,14.57-5.86,103.84,103.84,0,0,1,30.8-4.06,103.93,103.93,0,0,1,30.68,4.7,82.75,82.75,0,0,1,14.41,6.21A66,66,0,0,1,182.17,25c1.07.79,2.12,1.61,3.14,2.48.5.44,1,.89,1.5,1.36s.94.92,1.53,1.57l-4.53,4.12a11.55,11.55,0,0,0-1.17-1c-.41-.3-.89-.73-1.36-1.07-.92-.71-1.88-1.39-2.86-2a57.92,57.92,0,0,0-6.17-3.54,76.51,76.51,0,0,0-13.32-5.21,105.64,105.64,0,0,0-28.56-3.87,105.34,105.34,0,0,0-28.59,3.53,75.54,75.54,0,0,0-13.4,5,60.81,60.81,0,0,0-6.25,3.38c-1,.61-2,1.27-2.91,2-.48.33-.94.67-1.39,1s-.92.75-1.2,1Z"/><path class="cls-2" d="M129.36,16.64a26.73,26.73,0,0,0-2.94.56c-1,.26-2,.53-3,.87a39.36,39.36,0,0,0-5.79,2.47,37.4,37.4,0,0,0-10,7.54A35,35,0,0,0,103.69,33a39.17,39.17,0,0,0-3.07,5.57A49.53,49.53,0,0,0,97,50.9L94,50.46A53.69,53.69,0,0,1,97.38,37.2,43.61,43.61,0,0,1,100.53,31a39.77,39.77,0,0,1,4.15-5.6,41.67,41.67,0,0,1,10.84-8.76,45.1,45.1,0,0,1,6.35-2.94c1.1-.42,2.22-.77,3.35-1.09a34,34,0,0,1,3.57-.8Z"/><path class="cls-2" d="M129.34,11.82a34.12,34.12,0,0,1,3.64.78c1.17.31,2.31.66,3.44,1.06a47.65,47.65,0,0,1,6.6,2.86,43.19,43.19,0,0,1,11.37,8.59A41,41,0,0,1,162.15,37a50.14,50.14,0,0,1,3.63,13.55l-2.47.36a47.29,47.29,0,0,0-4-12.61,37.91,37.91,0,0,0-7.62-10.57A40,40,0,0,0,141,20.37,45.8,45.8,0,0,0,135,18c-1-.32-2.08-.59-3.13-.82a28.75,28.75,0,0,0-3.06-.52Z"/><path class="cls-3" d="M117.68,15.13s-.3-12.71,11.6-12.71,11.58,12.15,11.58,12.15"/><path class="cls-2" d="M53.75,78.12c7.78-4.2,15.66-8.46,24.12-11.53,2.11-.78,4.26-1.47,6.42-2.11L85.92,64l.4-.11h.11a2,2,0,0,0-.36.17,1.5,1.5,0,0,0-.68,1.41,1.84,1.84,0,0,0,.08.38l-.07-.18-.15-.34-.3-.7c-.18-.46-.44-.9-.67-1.35a30.37,30.37,0,0,0-7.8-9.4,31.45,31.45,0,0,0-10.77-5.43L65,48.27l-.35-.09h-.16a1.89,1.89,0,0,0,.47.06,2.09,2.09,0,0,0,1.67-.74h0l-.1.16-.19.32c-.55.82-1.08,1.68-1.6,2.55A51.66,51.66,0,0,0,62,56.06,82.24,82.24,0,0,0,58.09,68.2c-.52,2.09-1,4.2-1.33,6.32-.19,1.06-.34,2.13-.5,3.2L56,79.33v.19h0v-.08a1,1,0,0,0,0-.25,1.54,1.54,0,0,0-1.3-1.31A1.58,1.58,0,0,0,53.75,78.12Zm2.09,3.72a2.64,2.64,0,0,1-1.74.34,2.78,2.78,0,0,1-2.39-2.4,3.38,3.38,0,0,1,0-.45v-.45l.15-1.68c.11-1.12.22-2.23.38-3.34.28-2.24.61-4.45,1-6.67A88.66,88.66,0,0,1,56.69,54a62.61,62.61,0,0,1,2.73-6.43,32.15,32.15,0,0,1,1.83-3.09l.26-.36.12-.19.27-.35A4,4,0,0,1,65,42.15a3.73,3.73,0,0,1,.88.12l.24.08.45.14.88.29a35.56,35.56,0,0,1,12.08,7.46,36.77,36.77,0,0,1,8.76,10.95,13.22,13.22,0,0,1,.77,1.61l.35.83.17.41.08.21a2.79,2.79,0,0,1,.18.77,3,3,0,0,1-2.11,3.14l-.29.08-.39.1-1.56.42c-2.06.58-4.12,1.22-6.15,1.94A140.89,140.89,0,0,0,55.84,81.84Z"/><path class="cls-2" d="M174.68,63c2.15.46,4.31.94,6.47,1.46a61.59,61.59,0,0,1,6.38,1.92,92.52,92.52,0,0,1,11.91,5.52l5.68,3c.47.26,1,.46,1.45.69l.18.09a1.4,1.4,0,0,0-.36-.13A1.54,1.54,0,0,0,204.51,77v-.63l0-.78c0-.51-.08-1-.12-1.55a81.6,81.6,0,0,0-2-12.31,85.21,85.21,0,0,0-3.76-11.87c-.19-.48-.38-1-.59-1.43l-.3-.71-.08-.18v.05l.07.12a1.43,1.43,0,0,0,.35.45,1.92,1.92,0,0,0,1.56.47c.16,0,.49-.16.24-.05l-1.42.67c-1.88.91-3.7,1.91-5.5,2.91-3.56,2.06-7,4.17-10.3,6.52a53.36,53.36,0,0,0-4.71,3.78l-1.1,1-1,1.1-.26.28a1.17,1.17,0,0,0,.17-.31A1.19,1.19,0,0,0,175,63l-.24-.07Zm-.93,5a3.77,3.77,0,0,1-2-1,3.83,3.83,0,0,1-1.11-2,4,4,0,0,1,.17-2.29,4.08,4.08,0,0,1,.56-1l.26-.34c.68-.91,1.39-1.8,2.11-2.69a50.23,50.23,0,0,1,4.73-4.94,47.42,47.42,0,0,1,11.24-7.47c2-1,4-1.84,6.09-2.69l1.53-.62a5.25,5.25,0,0,1,1-.31,4.37,4.37,0,0,1,3.77,1.07,3.86,3.86,0,0,1,.85,1.07c.06.1.11.21.16.31l.1.23.07.2.29.78c.2.52.39,1,.56,1.57a89.73,89.73,0,0,1,3.43,12.82A86.48,86.48,0,0,1,209,73.83c0,.55,0,1.1,0,1.66V77.3a3,3,0,0,1-1.91,2.61,2.85,2.85,0,0,1-1.66.14,2.55,2.55,0,0,1-.75-.25l-.18-.1c-.48-.23-.94-.51-1.43-.73l-5.86-2.66c-3.89-1.77-7.74-3.47-11.59-5A58.89,58.89,0,0,0,173.75,68Z"/><path class="cls-2" d="M81.85,339.14a29.79,29.79,0,0,1,.72-3,21.65,21.65,0,0,1,1-2.84,38.32,38.32,0,0,1,2.58-5.41,41.65,41.65,0,0,1,17.42-16.56c.9-.49,1.83-.88,2.76-1.33s1.88-.77,2.83-1.14l2.89-.95,2.94-.78a61.23,61.23,0,0,1,11.9-1.58,83.86,83.86,0,0,1,11.86.36,51.07,51.07,0,0,1,22.88,8,42.4,42.4,0,0,1,9.14,8.34,46.67,46.67,0,0,1,6.38,10.37,65.28,65.28,0,0,1,5.36,22.92c.12,1.95.14,3.9.12,5.85,0,1-.06,2-.13,3l-.06.77a7.34,7.34,0,0,1-.09.82l-.22,1.48a86,86,0,0,1-2.72,11.27c-.58,1.84-1.21,3.67-1.91,5.47s-1.49,3.57-2.34,5.31c-.4.88-.88,1.73-1.34,2.57s-.92,1.71-1.43,2.53l-.75,1.25a7,7,0,0,1-.83,1.21,5.41,5.41,0,0,1-2.68,1.7l-2.7-1.82c-.45-2.47.77-3.75,1.55-5.37.43-.78.82-1.58,1.2-2.39s.77-1.61,1.12-2.43a49.61,49.61,0,0,0,2-5c.58-1.72,1.25-3.35,1.79-5.06a85.88,85.88,0,0,0,2.63-10.39l.21-1.27a5.22,5.22,0,0,1,.07-.57l.06-.62c.07-.86.12-1.74.14-2.62.07-1.76,0-3.53-.1-5.29a48.59,48.59,0,0,0-5.53-20.08,35.46,35.46,0,0,0-13.91-14.07,51.94,51.94,0,0,0-19.16-5.93,69.76,69.76,0,0,0-10.42-.63,59.78,59.78,0,0,0-10.25.88,45.68,45.68,0,0,0-9.69,2.86,39.88,39.88,0,0,0-8.67,5,39.38,39.38,0,0,0-7.15,7.27,41.4,41.4,0,0,0-2.86,4.32c-.43.75-.83,1.52-1.22,2.3s-.74,1.61-1,2.28Z"/><path class="cls-13" d="M51.68,395.6S44.66,369.33,77,368c31.23-1.29,27.58,24.36,27.58,24.36"/><path class="cls-2" d="M87.63,280.17c-.43,3.79-.86,7.62-1.21,11.44s-.72,7.63-1,11.45a217.38,217.38,0,0,0-.71,22.83l.12,2.82.26,2.77c.21,1.85.47,3.73.81,5.59.65,3.72,1.46,7.44,2.37,11.14s2,7.38,3.07,11,2.28,7.32,3.57,10.88h0a1.7,1.7,0,0,1-3.17,1.23,197.91,197.91,0,0,1-7.67-22.07c-1.07-3.75-2-7.57-2.71-11.43-.39-1.93-.69-3.87-1-5.84L80,329l-.18-3c-.19-3.94-.16-7.86,0-11.76s.34-7.78.66-11.65c.64-7.75,1.49-15.44,2.69-23.14a2.22,2.22,0,0,1,4.4.59Z"/><path class="cls-2" d="M31.09,220.3Q26,235.39,21.2,250.52l-4.79,15.17L14,273.27l-1.16,3.8L12.32,279l-.52,1.83A109.52,109.52,0,0,0,8.36,311.2a141.26,141.26,0,0,0,3.74,30.64,105,105,0,0,0,4.55,14.6,62.46,62.46,0,0,0,7,13.16,60.37,60.37,0,0,0,22.47,19,77.38,77.38,0,0,0,29,7.84c1.26.08,2.53.17,3.79.18a23.76,23.76,0,0,0,3.48-.08,32.11,32.11,0,0,0,6.91-1.67c4.74-1.67,9.83-3.88,15.17-5.4a79.32,79.32,0,0,1,16.37-3c2.75-.22,5.51-.31,8.26-.3a74.73,74.73,0,0,1,8.33.44,63.39,63.39,0,0,1,8.33,1.46c2.73.67,5.39,1.51,7.92,2.36a80.72,80.72,0,0,0,14.76,3.77,88,88,0,0,0,15.13.68c1.28,0,2.57-.11,3.85-.18l1.93-.13a17.72,17.72,0,0,0,1.87-.15,39.68,39.68,0,0,0,6.92-1.32,41.56,41.56,0,0,0,12.65-6.22,58.53,58.53,0,0,0,10.62-10c6.37-7.59,11.29-16.61,15.2-26a123.13,123.13,0,0,0,4.93-14.46c.66-2.45,1.25-4.84,1.69-7.34s.84-5,1.16-7.53a140.29,140.29,0,0,0,.91-15.33c0-5.15-.22-10.31-.6-15.49s-1-10.32-1.77-15.47c-.38-2.57-.83-5.13-1.31-7.68s-1-5.14-1.58-7.53L239.3,257l2.46-1.58h0c.46-.35,1.09-.85,1.63-1.3s1.13-1,1.68-1.45q1.68-1.46,3.3-3c2.14-2.08,4.2-4.25,6.14-6.53a91.72,91.72,0,0,0,10.25-14.5,71.19,71.19,0,0,0,3.88-7.89,67,67,0,0,0,2.91-8.23c.42-1.38.71-2.8,1.06-4.21a36.86,36.86,0,0,0,.75-4.28c.18-1.43.38-2.94.54-4.46s.37-3,.47-4.56c1-12.14,1.09-24.3-.9-36.08A113.92,113.92,0,0,0,262,125l.63-5h0l.27-.3.34-.42c.23-.29.46-.6.68-.91a20.49,20.49,0,0,0,1.23-1.94,22.49,22.49,0,0,0,1.84-4.17,18.16,18.16,0,0,0,.64-8.72,24.66,24.66,0,0,0-3.13-8.69,18.66,18.66,0,0,0-6.22-6.21,25.45,25.45,0,0,0-8.71-3.15,46.89,46.89,0,0,0-9.9-.58A41.5,41.5,0,0,0,230,86.39a24.82,24.82,0,0,0-4.34,1.6c-.34.16-.68.34-1,.53s-.6.38-.89.57-.54.4-.77.59l-.31.28-.12.11h0l-7.5-3.28c.06-.45.14-1.1.19-1.69l.14-1.82c.08-1.22.12-2.46.15-3.71.06-2.48,0-5-.09-7.49a137.41,137.41,0,0,0-1.57-15,100.68,100.68,0,0,0-3.27-14.53A37.62,37.62,0,0,0,208,36.08a10.6,10.6,0,0,0-.82-1.43,10.36,10.36,0,0,0-.88-1.28,7.93,7.93,0,0,0-1.78-1.83c-.12-.07-.25-.17-.31-.19h0a4.37,4.37,0,0,0,.5.09h-1.27a27.07,27.07,0,0,0-3.35.39,36.43,36.43,0,0,0-6.7,1.87,44.83,44.83,0,0,0-12.22,7.16,102.82,102.82,0,0,0-10.82,10.26c-1.66,1.84-3.27,3.74-4.77,5.7-.75,1-1.48,2-2.17,3-.35.5-.68,1-1,1.5a16.45,16.45,0,0,0-.88,1.43l-1.75,3-3.31-1.08c-1-.32-2.16-.66-3.27-1s-2.27-.58-3.42-.84q-3.44-.8-6.93-1.35a91.16,91.16,0,0,0-14-1.14,56.57,56.57,0,0,0-13.51,1.82,66.35,66.35,0,0,0-6.62,2c-1.08.4-2.16.8-3.21,1.26-.53.23-1.05.45-1.56.69s-1.06.5-1.44.7l-4,2-1.86-4.06c-1-2.22-2.28-4.62-3.55-6.87s-2.65-4.5-4.09-6.66a62.87,62.87,0,0,0-9.76-11.64c-.45-.42-.92-.8-1.39-1.19a11.88,11.88,0,0,0-1.37-1,25.57,25.57,0,0,0-3-1.83,36.7,36.7,0,0,0-6.77-2.72,28.93,28.93,0,0,0-6.91-1.26,5.24,5.24,0,0,0-1.12,0h.06l.24,0c.12-.06.06,0,.08,0a2.11,2.11,0,0,0-.31.21,19.05,19.05,0,0,0-2.28,2.3,50.5,50.5,0,0,0-7.59,12.8,66.07,66.07,0,0,0-2.5,7.21c-.67,2.43-1.24,5-1.76,7.62-1.06,5.19-1.89,10.47-2.6,15.78s-1.29,10.67-1.71,15.93h0l-.09,1.17-.75,1.06c-.3.42-.69,1-1,1.53l-1,1.65c-.68,1.11-1.35,2.24-2,3.39-1.28,2.29-2.47,4.64-3.58,7A89.2,89.2,0,0,0,26.51,124a72.57,72.57,0,0,0-1.6,7.59l-.26,1.91-.2,1.91-.28,4a111.27,111.27,0,0,0,.23,15.81A104.54,104.54,0,0,0,27,170.71a106.74,106.74,0,0,0,5,15.06l1.66,3.86A27.39,27.39,0,0,1,35,194.22a31,31,0,0,1,.4,9.31,53.45,53.45,0,0,1-1.72,8.78c-.38,1.42-.81,2.8-1.26,4.15Zm-7.29-2.47c1-2.8,2-5.13,2.78-7.61a31.67,31.67,0,0,0,1.5-7.35,23.47,23.47,0,0,0-.45-7.09,19,19,0,0,0-1.05-3.28l-.79-1.74-.89-1.92a106.18,106.18,0,0,1-9.61-50l.28-4.27.22-2.18.29-2.17a83.27,83.27,0,0,1,1.76-8.56,93.6,93.6,0,0,1,6-16.18c1.23-2.6,2.59-5.12,4-7.59.73-1.24,1.49-2.46,2.27-3.66.39-.61.8-1.21,1.22-1.81s.81-1.16,1.33-1.84l-.84,2.23h0c.45-5.55,1-11,1.77-16.43S35.18,65.48,36.28,60c.55-2.72,1.14-5.43,1.92-8.24A71.55,71.55,0,0,1,41,43.64a58.38,58.38,0,0,1,9-15.06,26.93,26.93,0,0,1,3.47-3.45,11.77,11.77,0,0,1,1.37-.93,5.12,5.12,0,0,1,.52-.27,6,6,0,0,1,.7-.28,8.68,8.68,0,0,1,1-.27A15.24,15.24,0,0,1,60,23.19a32.23,32.23,0,0,1,4.7.55c1.48.28,2.94.63,4.37,1.05a46.74,46.74,0,0,1,8.31,3.35,37.47,37.47,0,0,1,3.94,2.38c.63.45,1.27.93,1.87,1.42s1.15,1,1.7,1.46A71.08,71.08,0,0,1,96.09,46.63c1.58,2.34,3,4.75,4.44,7.2s2.66,4.89,3.91,7.59l-5.87-2c.71-.36,1.26-.63,1.88-.9s1.2-.55,1.8-.8c1.2-.51,2.4-1,3.62-1.43A77.75,77.75,0,0,1,113.3,54a65.94,65.94,0,0,1,15.56-2.08,99.45,99.45,0,0,1,15.32,1.25c2.52.4,5,.88,7.5,1.46,1.24.28,2.48.59,3.72.92s2.43.67,3.78,1.11l-5.06,2c.43-.75.77-1.29,1.16-1.9s.77-1.16,1.16-1.72c.78-1.14,1.59-2.24,2.42-3.32,1.66-2.16,3.4-4.23,5.21-6.24a114,114,0,0,1,11.76-11.18,54,54,0,0,1,14.54-8.5,46.54,46.54,0,0,1,8.27-2.3A37.88,37.88,0,0,1,203,23h2.62a5.55,5.55,0,0,1,1,.21,4.56,4.56,0,0,1,.52.18,6.3,6.3,0,0,1,.84.37,10.78,10.78,0,0,1,1.36.8,16.86,16.86,0,0,1,3.7,3.65,20.44,20.44,0,0,1,1.32,1.92c.41.65.8,1.3,1.13,1.95A46.42,46.42,0,0,1,218.72,40a107.39,107.39,0,0,1,3.58,15.82,144.65,144.65,0,0,1,1.66,16c.11,2.68.16,5.37.11,8.07,0,1.34-.09,2.69-.18,4.07l-.16,2c-.06.71-.13,1.35-.24,2.19L216,84.8c.26-.32.32-.38.47-.54s.25-.24.37-.36.47-.43.7-.63c.46-.4.92-.73,1.38-1.07s.93-.62,1.4-.9.94-.55,1.42-.79a33,33,0,0,1,5.81-2.3,49.18,49.18,0,0,1,11.74-1.82,54.68,54.68,0,0,1,11.78.7,33.92,33.92,0,0,1,11.61,4.26,27,27,0,0,1,9,9A33,33,0,0,1,276,102a26.72,26.72,0,0,1-.92,12.77,31.13,31.13,0,0,1-2.54,5.76c-.52.92-1.08,1.79-1.68,2.65a11.59,11.59,0,0,1-1,1.27l-.52.64c-.19.23-.34.39-.63.71h0l.63-5,2.52,4.16,2.32,4.29c.72,1.47,1.47,2.92,2.16,4.4s1.36,3,2,4.52a104.13,104.13,0,0,1,5.58,18.91,117.43,117.43,0,0,1,2.06,19.52,157.31,157.31,0,0,1-.7,19.42c-.12,1.61-.35,3.2-.51,4.8s-.35,3.17-.64,4.87-.61,3.33-.95,5a44.57,44.57,0,0,1-1.32,4.89,78.5,78.5,0,0,1-8.19,18.3,91.65,91.65,0,0,1-12.05,15.73c-2.27,2.39-4.65,4.65-7.13,6.81-1.25,1.07-2.51,2.13-3.82,3.13-.66.5-1.33,1-2,1.48s-1.33,1-2.15,1.49h0l1.72-4.65c.79,2.75,1.41,5.33,2,8s1.12,5.31,1.61,8q1.47,8,2.31,16.11a162.49,162.49,0,0,1,.2,32.78c-.3,2.75-.65,5.5-1.14,8.23s-1.06,5.54-1.78,8.21a134,134,0,0,1-5.27,15.7,107.07,107.07,0,0,1-16.88,28.75A64.5,64.5,0,0,1,216.6,395.3a48.72,48.72,0,0,1-16,7.35,43.91,43.91,0,0,1-8.76,1.3c-.76,0-1.43.06-2.11.07l-2,.05h-4.11a95.33,95.33,0,0,1-16.6-1.58,90.76,90.76,0,0,1-15.87-4.82c-2.47-.93-4.85-1.75-7.26-2.43a46.72,46.72,0,0,0-7.32-1.46,70.4,70.4,0,0,0-7.55-.53c-2.56,0-5.11.06-7.65.26a66.72,66.72,0,0,0-14.88,2.81c-4.87,1.47-9.49,3.64-14.71,5.62a39.59,39.59,0,0,1-8.5,2.24,33.31,33.31,0,0,1-4.47.25c-1.39,0-2.77,0-4.16-.09a81,81,0,0,1-32.28-8.09,68,68,0,0,1-25.61-21.74,71,71,0,0,1-7.91-14.9,114.9,114.9,0,0,1-4.9-15.79A150.54,150.54,0,0,1,0,311.27a117.13,117.13,0,0,1,4-32.69c.4-1.36.79-2.64,1.19-3.89l1.19-3.81,2.42-7.61,4.9-15.19Q18.64,232.93,23.8,217.83Z"/><path class="cls-2" d="M102.79,66.48a15.53,15.53,0,0,0,1,2c.38.64.77,1.38,1.2,2a36.6,36.6,0,0,0,2.77,3.86,33.32,33.32,0,0,0,7,6.36,26.69,26.69,0,0,0,34.18-4.15,34.52,34.52,0,0,0,5.44-7.74,39.67,39.67,0,0,0,2-4.34,30.93,30.93,0,0,0,1.4-4.44l4.72,1.12a43.2,43.2,0,0,1-1.84,5.07A44.91,44.91,0,0,1,158.18,71a40.72,40.72,0,0,1-6.31,8.49,31,31,0,0,1-4,3.51,28.34,28.34,0,0,1-4.57,2.84,30.17,30.17,0,0,1-10.27,3,32.86,32.86,0,0,1-10.65-.52,30.4,30.4,0,0,1-9.86-4.15,37.53,37.53,0,0,1-8-6.93,44,44,0,0,1-3.28-4.15c-.51-.72-1-1.47-1.46-2.24s-.9-1.48-1.35-2.41Z"/><path class="cls-2" d="M121.43,162.44a2,2,0,0,1,.27-2,2.45,2.45,0,0,1,.36-.36l.17-.11.27-.18a9.85,9.85,0,0,1,1.11-.59,11.08,11.08,0,0,1,2.31-.73,16,16,0,0,1,4.73-.25,10.67,10.67,0,0,1,4.68,1.34c.18.11.37.23.55.36l.14.09.22.18a1.92,1.92,0,0,1,.54.88,1.89,1.89,0,0,1,0,1,2.07,2.07,0,0,1-.18.47l-.24.52c-.33.68-.68,1.34-1.07,2a15.31,15.31,0,0,1-2.94,3.63A5.38,5.38,0,0,1,130,170a4.32,4.32,0,0,1-.72.11,3.05,3.05,0,0,1-.74,0,3.42,3.42,0,0,1-.71-.13,3.09,3.09,0,0,1-.66-.25,7,7,0,0,1-2-1.5,13.18,13.18,0,0,1-1.51-1.81A22.81,22.81,0,0,1,121.43,162.44Zm2.69-1.11a28.28,28.28,0,0,0,1.72,3.65,7.92,7.92,0,0,0,2.36,2.78,1.52,1.52,0,0,0,1.32.24,3.34,3.34,0,0,0,1.32-.94A12.82,12.82,0,0,0,133,163.8c.29-.6.58-1.22.83-1.85l.19-.47h0a1,1,0,0,0,0,.49.91.91,0,0,0,.26.42h0l-.08-.06-.36-.22a9.69,9.69,0,0,0-3.48-1.13,9.94,9.94,0,0,0-3.8.25,11.72,11.72,0,0,0-1.74.65c-.27.14-.54.27-.78.42l-.18.12h0a.55.55,0,0,0,.17-.17A.92.92,0,0,0,124.12,161.33Z"/></g></g></g></g></svg>