<svg xmlns="http://www.w3.org/2000/svg" viewBox="0 0 311.46 440.46"><defs><style>.cls-1,.cls-10{fill:#231f20;}.cls-2{fill:#424143;}.cls-12,.cls-13,.cls-3{fill:#fff;}.cls-11,.cls-14,.cls-4,.cls-5,.cls-6,.cls-7,.cls-8,.cls-9{fill:none;}.cls-10,.cls-11,.cls-12,.cls-13,.cls-14,.cls-4,.cls-5,.cls-6,.cls-7,.cls-8,.cls-9{stroke:#fff;stroke-miterlimit:10;}.cls-14,.cls-4{stroke-width:5.28px;}.cls-14,.cls-5{stroke-linecap:round;}.cls-5{stroke-width:4.5px;}.cls-6{stroke-width:5.45px;}.cls-7{stroke-width:8.71px;}.cls-12,.cls-8{stroke-width:3.17px;}.cls-9{stroke-width:2.97px;}.cls-10{stroke-width:2.73px;}.cls-11{stroke-width:1.88px;}.cls-13{stroke-width:3.86px;}</style></defs><g id="Layer_2" data-name="Layer 2"><g id="Layer_2-2" data-name="Layer 2"><path class="cls-1" d="M137.25,423.18l34.82,8.8,41.05,0,32.82-16.2,23.94-49.32,3-42.13-6.43-44L293,249.26l13.21-46.83-6.64-51.65-11.15-20,11.15-14.12-11.75-22.3-25.67-6.12L241,92.68,237.09,50,221.73,30l-21.54,7.57L183.49,23.1l-30.08-7.23L147.29,4.14l-7.72-1.5-7.86,2.59-5.81,9L86.82,30l-8.48,1.56L65.16,30,51.91,49.36,41.4,89.56l-6.47,17.78L21.84,140.58v34.58l12.52,38.78-4,29.43L9.06,298s-.76,42.54-4.61,47.87S21.84,407,21.84,407l39.4,25.34,26.95,3.1,27.62-8.27Z"/></g><g id="Layer_1-2" data-name="Layer 1"><g id="Layer_2-3" data-name="Layer 2"><g id="Layer_3" data-name="Layer 3"><polygon class="cls-2" points="69.94 49.63 59.15 82.23 61.06 84.79 93.66 72.22 91.01 63.03 69.94 49.63"/><polygon class="cls-2" points="218.71 51.84 225.18 82.78 190.44 69.36 206.87 55.18 218.71 51.84"/><path class="cls-2" d="M109.53,68.78l31.05-7.62,28.52,4.93c1.63,5.93-.89,11.78-5,17.61L146.43,94.39l-18.26-1.71L113,75.79Z"/><polygon class="cls-2" points="91.54 366.79 112.07 343.6 147.54 339.17 161.24 341.6 183.45 354.89 194.11 378.35 195.24 396.41 187.99 421.62 181.19 432.35 155.99 424.89 132.11 425 114.89 425.77 112.86 417.18 103.79 402.66 100.36 400.37 94.48 382.11 91.54 366.79"/><polygon class="cls-2" points="128.67 12.45 131.71 5.23 139.57 2.64 147.29 4.14 151.17 9.57 151.17 16.48 129.1 15.5 128.67 13.38 128.67 12.45"/><polygon class="cls-2" points="134.46 175.3 141.69 173.8 146.22 175 145.49 180.13 140.58 184.17 135.43 178.96 134.46 175.3"/></g><g id="Layer_1-2-2" data-name="Layer 1-2"><path class="cls-3" d="M260.71,280.55c-.26-1.78-.7-3.78-1.09-5.68s-1-3.84-1.53-5.74a72.78,72.78,0,0,0-4.31-11.24,75.33,75.33,0,0,1,8.59,8.91q2,2.42,3.88,4.94c1.25,1.68,2.43,3.38,3.63,5.31Z"/><path class="cls-4" d="M103.78,58.28s13.07-10.5,36.8-10.5c22.87,0,37.56,9.43,37.56,9.43"/><path class="cls-3" d="M252.1,137.94a31,31,0,0,1,1.81,3.42c.52,1.09,1,2.26,1.45,3.42a54,54,0,0,1,2.18,7.07c.32,1.18.54,2.4.81,3.61s.43,2.43.61,3.65c.3,2.45.51,4.9.57,7.37a64.71,64.71,0,0,1-.21,7.38c-.2,2.42-.44,4.77-.73,7.15-.61,4.75-1.48,9.45-2.45,14.16-.5,2.33-1,4.65-1.6,7s-1.09,4.64-1.75,7l-.5,1.75-.22.7a1.94,1.94,0,0,0,0,.59c-.1,1.38-.26,2.47-.4,3.67-.29,2.34-.55,4.67-.72,7s-.3,4.64-.3,6.9a24.05,24.05,0,0,1-1,7.63,27,27,0,0,1-3.49,6.63l-2,2.93a5.3,5.3,0,0,1-3.2,2.18,4.88,4.88,0,0,1,.42-3.9l1.76-3.08a27.47,27.47,0,0,0,2.8-6,22.44,22.44,0,0,0,.81-6.42c0-2.44.21-4.84.44-7.22l.74-7.09c.11-1.09.25-2.39.3-3.37a5.8,5.8,0,0,1,.06-1.18c.11-.57.17-.72.23-1l.37-1.68c1-4.55,1.68-9.19,2.26-13.82s1.08-9.28,1.42-13.92c.22-2.31.36-4.63.54-6.95a64,64,0,0,0,.12-6.77c-.08-2.27-.22-4.5-.48-6.73-.13-1.09-.3-2.23-.46-3.34s-.37-2.18-.63-3.27c-.46-2.18-1.09-4.36-1.76-6.54-.34-1.07-.7-2.13-1.09-3.17s-.84-2.11-1.25-3Z"/><path class="cls-3" d="M48.28,300.18c-1.25,4.53-2.39,9.06-3.35,13.63s-1.8,9.14-2.37,13.76a112,112,0,0,0,6,54.6c1.57,4.36,3.27,8.72,5.24,12.94s4,8.45,6.26,12.43v.08a2.12,2.12,0,1,1-3.65,2.17h0A147.52,147.52,0,0,1,43.77,383.9a110.12,110.12,0,0,1-6.19-57q1-7.14,2.72-14.16c1.14-4.65,2.48-9.24,3.91-13.78a2.18,2.18,0,0,1,4.07,1.21Z"/><path class="cls-5" d="M213.12,432c-4.65-4.88-9.14-23.36,6-36.21,21.39-18.13,37.92.85,37.92.85"/><path class="cls-6" d="M4.45,330.5s7.71-1.67,22.87,8.71c7.27,4.93,11.91,13.57,11.91,13.57"/><path class="cls-3" d="M15.06,396.67c.22-.52.4-.84.59-1.22s.42-.72.62-1.09c.43-.7.89-1.35,1.36-2a25.44,25.44,0,0,1,3.27-3.53,25,25,0,0,1,8.1-5,29.81,29.81,0,0,1,9.15-1.76,32.14,32.14,0,0,1,9.17.87l-.89,3.79a27.72,27.72,0,0,0-8-.42,24.4,24.4,0,0,0-7.71,1.78,20,20,0,0,0-6.4,4.28,20.75,20.75,0,0,0-2.48,3c-.36.53-.7,1.09-1,1.62-.14.27-.29.55-.42.83a6.21,6.21,0,0,0-.34.74Z"/><path class="cls-6" d="M227.64,390.39s-2.24-19.07,7.16-37.61c11.36-22.38,38.06-22.38,38.06-22.38"/><path class="cls-7" d="M241,92.68c-8.16,9.18-9.9,15.35-9.9,26.61,0,3.77,2.73,14.07,12.67,18.59,4.63,2.1,8.89.17,10.21-1.76"/><path class="cls-3" d="M254.12,118.14a18,18,0,0,0-1.39,8.85,20,20,0,0,0,.42,2.18,20.84,20.84,0,0,0,.63,2.18,11,11,0,0,0,2.18,3.56c1.81,1.94,4.42,2.67,7.48,2.6a10.26,10.26,0,0,0,2.07-.16,12.54,12.54,0,0,0,2-.59,20.8,20.8,0,0,0,3.94-2h.07a2.64,2.64,0,1,1,2.89,4.42l-.1.07a25.4,25.4,0,0,1-5.14,2.35,16.42,16.42,0,0,1-2.85.68,14.05,14.05,0,0,1-3,.13,17.28,17.28,0,0,1-5.69-1,12.29,12.29,0,0,1-5-3.47,15.14,15.14,0,0,1-2.83-5.12,25.32,25.32,0,0,1-1.09-5.45,20.62,20.62,0,0,1,.39-5.54,21.9,21.9,0,0,1,1.75-5.23,1.81,1.81,0,0,1,3.27,1.49Z"/><path class="cls-3" d="M73,417.91A17.45,17.45,0,0,1,74.66,422a14.87,14.87,0,0,1,.57,4.5,42,42,0,0,1-.35,4.2c-.1.69-.21,1.4-.36,2.12-.08.36-.16.72-.25,1.09s-.23.81-.37,1.21l-.1.24a2.44,2.44,0,0,1-4.56-1.73,2.19,2.19,0,0,1,.25-.48c.11-.22.2-.45.29-.68s.22-.54.32-.84c.19-.56.37-1.16.53-1.77a37.33,37.33,0,0,0,.78-3.73,11.09,11.09,0,0,0,0-3.45,15.14,15.14,0,0,0-.89-3.44v-.12A1.41,1.41,0,0,1,73,417.91Z"/><path class="cls-3" d="M99.36,417.83a28.74,28.74,0,0,1,1.82,3.64,16.83,16.83,0,0,1,1.09,4.18,15.58,15.58,0,0,1-.07,4.47,12.5,12.5,0,0,1-.54,2.25,7.55,7.55,0,0,1-.45,1.09l-.27.57a4.69,4.69,0,0,1-.42.67,2.59,2.59,0,0,1-4.07-3.2c0,.06.08-.07.13-.13s.13-.19.2-.27.26-.42.38-.64a7.49,7.49,0,0,0,.63-1.42,11.44,11.44,0,0,0,.6-3.27,12.27,12.27,0,0,0-.28-3.42A27.31,27.31,0,0,0,97,418.81a1.28,1.28,0,0,1,.78-1.62,1.26,1.26,0,0,1,1.5.53Z"/><path class="cls-3" d="M86.51,421.12a11.08,11.08,0,0,1,1.5,3.52,26.09,26.09,0,0,1,.52,3.62,26.52,26.52,0,0,1,.16,3.67,15.7,15.7,0,0,1-.17,1.95,5.57,5.57,0,0,1-.18,1,1.91,1.91,0,0,1-.15.54,3.7,3.7,0,0,1-.28.72,2.43,2.43,0,1,1-4.38-2.1c0-.09.1-.18.16-.27-.07.14,0,0,.06-.07a1.43,1.43,0,0,0,.13-.28l.26-.62a12.33,12.33,0,0,0,.43-1.43,21,21,0,0,0,.51-3.16,22.79,22.79,0,0,0,.16-3.2,8.75,8.75,0,0,0-.63-2.94h0a1.09,1.09,0,0,1,1.9-1Z"/><path class="cls-3" d="M224,419c.06,0,0,.42,0,.78a9.87,9.87,0,0,0,.21,1.23,9,9,0,0,0,.84,2.26,6.15,6.15,0,0,0,1.44,1.61,7.06,7.06,0,0,0,.95.67,7.73,7.73,0,0,0,.95.49,2.41,2.41,0,1,1-1.49,4.58h0a3.16,3.16,0,0,1-.5-.22l-.18-.12a9,9,0,0,1-1.5-1.09,10.63,10.63,0,0,1-1.27-1.24,10.05,10.05,0,0,1-1.9-3.11,12.77,12.77,0,0,1-.53-5.1,5.06,5.06,0,0,1,.14-.9,4.66,4.66,0,0,1,.45-1.16A1.37,1.37,0,0,1,224,419Z"/><path class="cls-3" d="M240.54,406.12a4.35,4.35,0,0,0-.13.95,6.61,6.61,0,0,0,0,1.09,5.21,5.21,0,0,0,.25,1.09,5.8,5.8,0,0,0,1.87,2.43,7.65,7.65,0,0,0,.93.64,6,6,0,0,0,.91.47,2.41,2.41,0,1,1-1.46,4.59,2.24,2.24,0,0,1-.5-.22l-.21-.12a11.08,11.08,0,0,1-1.46-1.09,11.62,11.62,0,0,1-1.23-1.2,10.17,10.17,0,0,1-1.89-3,6.5,6.5,0,0,1-.48-1.79,7.57,7.57,0,0,1,0-1.78,9.43,9.43,0,0,1,.3-1.67,6.45,6.45,0,0,1,.74-1.75,1.32,1.32,0,0,1,2.41,1Z"/><path class="cls-3" d="M232.26,409.83a10.54,10.54,0,0,0-.36,3.26,6.5,6.5,0,0,0,.74,2.9,9.24,9.24,0,0,0,2,2.33,8.56,8.56,0,0,0,1.25.8,6,6,0,0,0,.63.27l.31.1c.07,0,.24.06.17,0a2.39,2.39,0,0,1-1.17,4.63,5.7,5.7,0,0,1-.72-.29,6.27,6.27,0,0,1-.58-.28c-.36-.2-.7-.42-1-.65a12.36,12.36,0,0,1-1.76-1.55,12.71,12.71,0,0,1-2.46-3.81,10,10,0,0,1-.59-4.57,13.58,13.58,0,0,1,1.09-4.19,1.34,1.34,0,0,1,2.51.92Z"/><path class="cls-3" d="M38.37,405.13a6.45,6.45,0,0,1,.74,1.73,10.91,10.91,0,0,1,.31,1.69,8.73,8.73,0,0,1,0,1.77,7.46,7.46,0,0,1-.47,1.8,10,10,0,0,1-1.9,3,11.52,11.52,0,0,1-1.22,1.2,12.16,12.16,0,0,1-1.47,1.09l-.18.11a2.42,2.42,0,1,1-2.73-4,1.64,1.64,0,0,1,.22-.14,2.53,2.53,0,0,1,.53-.24,5.55,5.55,0,0,0,.91-.46,8.1,8.1,0,0,0,.93-.64,5.88,5.88,0,0,0,1.87-2.43,5.75,5.75,0,0,0,.25-1.09,6.61,6.61,0,0,0,0-1.09,5,5,0,0,0-.13-.94l-.07-.3a1.32,1.32,0,0,1,1-1.59h0A1.33,1.33,0,0,1,38.37,405.13Z"/><path class="cls-3" d="M46.85,409.23a13.23,13.23,0,0,1,1.09,4.19,10.09,10.09,0,0,1-.58,4.56,13,13,0,0,1-2.47,3.82A12,12,0,0,1,42.1,424l-.57.28a6.61,6.61,0,0,1-.74.28,2.39,2.39,0,1,1-1.17-4.63h.18l.3-.09a5.3,5.3,0,0,0,.65-.28A8.12,8.12,0,0,0,44,416.44a6.53,6.53,0,0,0,.74-2.9,10.06,10.06,0,0,0-.36-3.27v-.06a1.34,1.34,0,0,1,2.52-.92Z"/><path class="cls-3" d="M271.73,119a9.47,9.47,0,0,0-1.27,7.86,19.11,19.11,0,0,0,1.44,4.09,10.15,10.15,0,0,0,2.45,3.15c2,1.59,3.92,1.55,6.39,1.06,2.26-.46,2.3-2.73,3.44-3.51q.9-.6,1.74-1.29a15.58,15.58,0,0,0,1.53-1.4l1,1.9a2.65,2.65,0,0,1,3.86,3.63h0l-.11.11a19.29,19.29,0,0,1-2.18,1.76,20.82,20.82,0,0,1-2.24,1.5,19.23,19.23,0,0,1-5.14,2.17,12.66,12.66,0,0,1-5.87.09,11.29,11.29,0,0,1-5.27-2.74,14.34,14.34,0,0,1-3.27-4.63,20.7,20.7,0,0,1-.9-2.54,21,21,0,0,1-.63-2.6,15.59,15.59,0,0,1,0-5.45,11.52,11.52,0,0,1,2.4-5.12,1.65,1.65,0,0,1,2.57,2.06Z"/><path class="cls-8" d="M36.76,229.59s1.88-9.68,11.7-8.23c8,1.19,8.71,7.62,8.71,7.62"/><path class="cls-8" d="M30.86,235.9c2.7,4.29,5.27,5.39,10,5.52,5.19.15,8.92-1.41,10.64-6,1.57-4.17-1.32-6.33-3.15-6.4-3.27-.13-4,3.26-8,3.11-3.67-.16-6.82-4.52-6.82-4.52Z"/><path class="cls-8" d="M50.24,238s1.09,3.35,5.93,2.57c3.45-.55,5.74-5.87,9-3.47s.25,12.41-11.6,11.9c-7.29-.3-12-7.62-12-7.62a17.24,17.24,0,0,0,5.59-1.09A7.43,7.43,0,0,0,50.24,238Z"/><path class="cls-8" d="M51.91,233.65s2-5.17,10.25-4.56c7.88.58,8.41,7.4,8.41,7.4"/><path class="cls-8" d="M44.68,221.21s-.25-6.36-7.44-7.42a7,7,0,0,0-2.88.15"/><path class="cls-8" d="M66.13,241.67s2.58-7.14,10.32-6.47c6.31.56,8.37,6.47,8.37,6.47"/><path class="cls-8" d="M57.14,248.82s2.89,6,9.23,7.18,9.4-.12,11.52-2.17,4.88-8.36,1-10.13c-3.5-1.6-4.56,3.16-9.12,3.86a7.61,7.61,0,0,1-5.91-2"/><path class="cls-8" d="M79.3,252s4,2.77,7.18,1.36,4.6-6.12,8.23-4.36c2.9,1.44,3.91,12.17-9.73,13.18-6,.45-13.28-5.78-13.28-5.78"/><path class="cls-8" d="M80.62,245.7s1.16-5.44,9.23-5.44A10.17,10.17,0,0,1,99,245.7"/><path class="cls-8" d="M96.16,255.44a14.33,14.33,0,0,0,6,.5c3.27-.5,2.61-4.74,6.79-4.36,2.94.23,4.11,4.94,2.18,8.26-2.63,4.45-6.35,6.06-12.22,5.53-6.25-.58-9-4.05-9-4.05C93.09,260,95.35,258.2,96.16,255.44Z"/><path class="cls-8" d="M95.86,250.25s.8-6.21,9.32-6.85c6-.44,10.53,4.19,10.53,4.19"/><path class="cls-8" d="M111.38,253.26a12.07,12.07,0,0,1,11.44-7.56,13,13,0,0,1,9.8,4.36"/><path class="cls-8" d="M106.69,264.18s4.69,4.58,12.85,3.27c7.37-1.2,9.12-5.61,9.52-8.11s.42-6-4.36-6c-4.45,0-2.66,4.57-6.71,5.71a6.32,6.32,0,0,1-5.89-1.21A12,12,0,0,1,106.69,264.18Z"/><path class="cls-8" d="M129.22,257a10.31,10.31,0,0,1,9.14-9.39,13.32,13.32,0,0,1,10.33,2.42"/><path class="cls-8" d="M121.72,267a19.63,19.63,0,0,0,12.87,2.52c3.41-.41,8.23-2.17,8.71-5.19.77-4.81-.38-7.62-3-7.83-3.82-.24-2.3,4.43-11.47,3.92A10.19,10.19,0,0,1,121.72,267Z"/><path class="cls-8" d="M144.78,259.62s.55-11.9,11-13c6.67-.68,9.07,1.66,9.07,1.66"/><path class="cls-8" d="M142.79,266.51a16.46,16.46,0,0,0,14.48.63c8.29-3.38,7.75-13.14,4.13-13.63-3.4-.46-4.9,2-7.62,5.58-2.33,3.14-8.88,1.39-10,1.22C143.17,263.13,144,265.21,142.79,266.51Z"/><path class="cls-8" d="M163,254a10.35,10.35,0,0,1,8-8.91c6.92-1.73,10.15,2,10.15,2"/><path class="cls-8" d="M164.88,258.46s4.89,1.39,7.18-1.93c1.43-2.08,3.67-5.7,7.29-4.5S180.92,263.21,173,266s-12.66-.54-12.66-.54A11.32,11.32,0,0,0,164.88,258.46Z"/><path class="cls-8" d="M180.1,252.27A10.16,10.16,0,0,1,186.85,242c6.58-2.58,9.58.77,9.58.77"/><path class="cls-8" d="M181.49,256.46a8.09,8.09,0,0,0,5.44-1c3.36-1.93,2.61-7.54,7.12-6.81,3.76.62,5.11,10.46-3.76,14.5-8.4,3.83-14.62,1.74-14.62,1.74C179.05,262.83,181.41,258.44,181.49,256.46Z"/><path class="cls-8" d="M195.85,250.1s-1.54-9.54,5.92-13.15c6-2.91,10.2-.18,10.2-.18"/><path class="cls-9" d="M195,259.41a17.78,17.78,0,0,0,10.55-1.63c2.95-1.6,7.16-3.83,7.63-8.78.32-3.73-1.09-7-4.36-6.1-3.94,1-2.32,5-5.65,6.54a43.91,43.91,0,0,1-6.43,2.1C197.68,254.77,197.76,256.37,195,259.41Z"/><path class="cls-8" d="M212,243.87c0-4.35-1.21-8,4.72-13.24a10.79,10.79,0,0,1,10.64-2.18"/><path class="cls-8" d="M212.74,245.11c.6-.31,6.09.59,7-3.73.78-3.68,2.64-6.11,5.62-5.77s3.63,3,2.43,7.53a11.91,11.91,0,0,1-6.21,8.3c-4.22,2.41-10.47,2.05-10.47,2.05A10.47,10.47,0,0,0,212.74,245.11Z"/><path class="cls-8" d="M228,237.48s-2.65-8.17,4-14.1a11,11,0,0,1,9.69-2.44"/><path class="cls-8" d="M228,237.48s1.81,1.6,6.1-1.29c3.27-2.17.54-7.62,6.16-8.28,4.95-.62,5.33,6.53,3.26,10.89s-9.65,8.38-16.19,7.54"/><path class="cls-8" d="M241.38,227.91s-.44-6.54,3.12-9.91c2.18-2,5.87-2.1,5.87-2.1"/><path class="cls-10" d="M137.25,269l.07-8.4s-.09-4.36,3.12-4.36,3.34,4,3.34,4l.08,7.82"/><path class="cls-8" d="M155.31,283.32a14.72,14.72,0,0,1-29.41,0"/><path class="cls-8" d="M126.6,278.8a14.7,14.7,0,0,1,27.92-.25"/><path class="cls-3" d="M140,297.55l-1.69-6a2.34,2.34,0,0,1,4.46-1.43c0,.06,0,.12,0,.18a2.39,2.39,0,0,1,0,1.3l-1.79,5.95a.54.54,0,0,1-.67.37A.5.5,0,0,1,140,297.55Z"/><path class="cls-11" d="M154.51,283.81c-9.32,1.84-26.57.53-28.48,0s-2.93-1.19-2.78-2.93,2.67-2.11,4.36-1.66c3.1.83,21,1.51,27.17-.39,0,0,2.67-.49,3.13,1.62C158.49,283,154.51,283.81,154.51,283.81Z"/><path class="cls-3" d="M141.54,184.56c.32,1.95.53,3.91.71,5.86l.24,2.94,0,.73a5.13,5.13,0,0,1,0,1,4.93,4.93,0,0,1-.89,2.33,8.65,8.65,0,0,1-2.92,2.49,17.23,17.23,0,0,1-3.08,1.35,24.57,24.57,0,0,1-6.3,1.16,16.09,16.09,0,0,1-6.53-.81,13.19,13.19,0,0,1-3.08-1.58,10.36,10.36,0,0,1-2.5-2.53,9.12,9.12,0,0,1-.8-1.63c-.1-.29-.19-.59-.27-.87l-.17-.78a10.55,10.55,0,0,1-.11-3.27,6.83,6.83,0,0,1,1.25-3,7.46,7.46,0,0,1,2.37-2,.14.14,0,0,1,.19,0,.14.14,0,0,1,0,.17,8.28,8.28,0,0,0-1.5,2.37,5.5,5.5,0,0,0-.33,2.54,8.27,8.27,0,0,0,.66,2.49,4.71,4.71,0,0,0,1.31,1.94,6.84,6.84,0,0,0,1.93,1.26,9.68,9.68,0,0,0,2.28.75,14.51,14.51,0,0,0,2.46.3h2.6a29,29,0,0,0,5.25-.77,13.68,13.68,0,0,0,2.35-.84,5.3,5.3,0,0,0,1.63-1.09,1.38,1.38,0,0,0,.22-.35,4.17,4.17,0,0,0,0-.5v-.73l.23-2.94c.18-2,.4-3.91.71-5.86a1,1,0,0,1,1.93,0Z"/><path class="cls-3" d="M141.6,184.56c.32,1.95.54,3.91.71,5.86l.23,2.94.07.73a4.17,4.17,0,0,0,0,.5,1.13,1.13,0,0,0,.21.35,5.3,5.3,0,0,0,1.63,1.09,13.68,13.68,0,0,0,2.35.84,28.18,28.18,0,0,0,5.25.77c.9,0,1.8.07,2.6,0a13.55,13.55,0,0,0,2.46-.29,10.16,10.16,0,0,0,2.28-.75,6.87,6.87,0,0,0,1.93-1.27,4.38,4.38,0,0,0,1.31-1.94,8.27,8.27,0,0,0,.66-2.49,5.5,5.5,0,0,0-.33-2.54,8.25,8.25,0,0,0-1.49-2.37.13.13,0,0,1,.16-.2,7.6,7.6,0,0,1,2.38,2,6.7,6.7,0,0,1,1.24,3.05,10.55,10.55,0,0,1-.1,3.27l-.18.79c-.07.28-.17.57-.25.87a8.8,8.8,0,0,1-.82,1.62,10.4,10.4,0,0,1-2.5,2.54,13.93,13.93,0,0,1-3.07,1.58,16.08,16.08,0,0,1-6.53.8,24.07,24.07,0,0,1-6.29-1.15,17.55,17.55,0,0,1-3.08-1.35,8.47,8.47,0,0,1-2.92-2.5,4.89,4.89,0,0,1-.89-2.33,5.13,5.13,0,0,1,0-1v-.73l.24-2.94c.17-2,.39-3.91.71-5.86a1,1,0,0,1,1.11-.82,1,1,0,0,1,.83.82Z"/><path class="cls-3" d="M39,158.46a41.37,41.37,0,0,1,8.79,1.15,55.6,55.6,0,0,1,8.45,2.66,60.29,60.29,0,0,1,8,3.81,47,47,0,0,1,7.29,5,.62.62,0,0,1,.07.89h0a.61.61,0,0,1-.67.19c-2.81-.88-5.51-1.91-8.19-2.91l-8-3c-2.68-1-5.35-2-8-3s-5.36-2-8-3.27a.81.81,0,0,1-.39-1.07.83.83,0,0,1,.74-.46Z"/><path class="cls-3" d="M46.36,178a19.13,19.13,0,0,1,4.46-1.53,25.64,25.64,0,0,1,9.32-.37,18.27,18.27,0,0,1,4.55,1.19.79.79,0,0,1,.41,1,.82.82,0,0,1-.61.47h0c-1.54.2-3,.28-4.51.33l-4.36.16-4.42.07c-1.48,0-3,0-4.53-.07a.7.7,0,0,1-.64-.74.68.68,0,0,1,.38-.56Z"/><path class="cls-3" d="M42.16,193.56a39.07,39.07,0,0,1,6.18-3.79A54.74,54.74,0,0,1,55,187c1.09-.4,2.29-.74,3.45-1.09A33.27,33.27,0,0,1,62,185a35,35,0,0,1,7.21-.76.89.89,0,0,1,.89.9.91.91,0,0,1-.53.82c-2.18,1-4.36,1.77-6.61,2.55-1.09.41-2.18.74-3.27,1.14l-3.32,1.09c-2.18.72-4.43,1.46-6.68,2.18s-4.51,1.37-6.86,1.89a.72.72,0,0,1-.85-.54A.69.69,0,0,1,42.16,193.56Z"/><path class="cls-3" d="M242.67,160c-2.62,1.33-5.27,2.45-7.94,3.52s-5.31,2.11-8,3.11-5.36,2-8.08,2.93-5.45,1.89-8.31,2.64a.63.63,0,0,1-.74-.5.62.62,0,0,1,.19-.59,52.61,52.61,0,0,1,7.42-4.77,70.24,70.24,0,0,1,8-3.72,65.28,65.28,0,0,1,8.36-2.73,46,46,0,0,1,8.72-1.41.8.8,0,0,1,.4,1.53Z"/><path class="cls-3" d="M234.62,179.26c-1.54.06-3,0-4.51,0l-4.35-.1-4.36-.11a41.13,41.13,0,0,1-4.51-.27h0a.77.77,0,0,1-.67-.86h0a.77.77,0,0,1,.46-.61,17.35,17.35,0,0,1,4.54-1.29,24.52,24.52,0,0,1,4.69-.27,25.33,25.33,0,0,1,4.67.62A18.12,18.12,0,0,1,235,178a.69.69,0,0,1-.31,1.29Z"/><path class="cls-3" d="M238.53,195.85c-2.33-.65-4.55-1.41-6.76-2.17s-4.36-1.5-6.62-2.18l-3.27-1.09c-1.09-.36-2.18-.7-3.27-1.09-2.17-.71-4.44-1.42-6.68-2.28a.88.88,0,0,1-.54-1.14.9.9,0,0,1,.8-.59,32.28,32.28,0,0,1,7.28.49c1.21.19,2.39.48,3.58.76a33.52,33.52,0,0,1,3.49,1.09,46.89,46.89,0,0,1,6.55,2.93,33.76,33.76,0,0,1,6.06,4.06.71.71,0,0,1,.08,1A.7.7,0,0,1,238.53,195.85Z"/><path class="cls-3" d="M86.8,117.09a14.86,14.86,0,0,1,3.45,3.12,15.32,15.32,0,0,1,2.53,4,1,1,0,0,1-.52,1.26,1,1,0,0,1-.76,0,15.59,15.59,0,0,1-4-2.64,14.44,14.44,0,0,1-3-3.54,1.63,1.63,0,0,1,2.27-2.17Z"/><path class="cls-3" d="M100,116.84a7,7,0,0,1,.94,2.74,9.86,9.86,0,0,1,0,3,1.17,1.17,0,0,1-1.32.94,1.1,1.1,0,0,1-.68-.41,9.2,9.2,0,0,1-1.46-2.59,7.08,7.08,0,0,1-.54-2.87A1.65,1.65,0,0,1,98.68,116h0A1.62,1.62,0,0,1,100,116.84Z"/><path class="cls-3" d="M180.51,121a6.41,6.41,0,0,1,.35-2.17,10,10,0,0,1,.8-1.91,10.94,10.94,0,0,1,1.16-1.71,7.07,7.07,0,0,1,1.56-1.48,1.33,1.33,0,0,1,1.86.36h0a1.23,1.23,0,0,1,.22.79A7,7,0,0,1,186,117a11,11,0,0,1-.85,1.89,10,10,0,0,1-1.2,1.69,6.49,6.49,0,0,1-1.66,1.43,1.21,1.21,0,0,1-1.65-.42h0A1.34,1.34,0,0,1,180.51,121Z"/><path class="cls-3" d="M187,122.78a15.29,15.29,0,0,1,2.39-2.69,10.79,10.79,0,0,1,2.91-2,1.63,1.63,0,0,1,2,2.49,10.88,10.88,0,0,1-2.67,2.35,16.2,16.2,0,0,1-3.19,1.68,1.19,1.19,0,0,1-1.4-1.78Z"/><path class="cls-3" d="M80,148.47a19.55,19.55,0,0,1,8.82-9.08,26.1,26.1,0,0,1,12.55-3,26.79,26.79,0,0,1,12.61,3.1,22.9,22.9,0,0,1,5.27,3.91,20.58,20.58,0,0,1,2.18,2.48c.31.45.62.89.91,1.37a14.14,14.14,0,0,1,.81,1.57,2.09,2.09,0,0,1-3.15,2.5l-.47-.34c-.23-.17-.57-.53-.89-.78l-1-.8a19.09,19.09,0,0,0-2.12-1.47,26.37,26.37,0,0,0-4.48-2.31,29.44,29.44,0,0,0-9.8-2,30.25,30.25,0,0,0-10.11,1.09,28,28,0,0,0-9.38,4.88l-.13.1a1.1,1.1,0,0,1-1.46-.18A1,1,0,0,1,80,148.47Z"/><path class="cls-3" d="M199.4,149.6a28.26,28.26,0,0,0-9.37-4.88,30.31,30.31,0,0,0-10.11-1.09,29.64,29.64,0,0,0-9.8,2.05,26.91,26.91,0,0,0-4.5,2.31,21.93,21.93,0,0,0-2.1,1.47c-.35.26-.68.53-1,.81s-.67.61-.9.77l-.47.35a2.07,2.07,0,0,1-3.1-2.51,16.66,16.66,0,0,1,.81-1.57c.28-.47.59-.92.91-1.37a20.87,20.87,0,0,1,2.12-2.48,23.31,23.31,0,0,1,5.29-3.91,26.88,26.88,0,0,1,12.54-3.14,26,26,0,0,1,12.58,3,19.55,19.55,0,0,1,8.82,9.08,1,1,0,0,1-.51,1.36h0a1.07,1.07,0,0,1-1.09-.13Z"/><path class="cls-12" d="M251.34,122.68a18.87,18.87,0,0,1,8.44-1.27,37.43,37.43,0,0,1,8.55,1.27"/><path class="cls-13" d="M252.4,129.44a27.07,27.07,0,0,1,8.49-1.09,40.52,40.52,0,0,1,8.5,2"/><path class="cls-8" d="M244,229.91a6.11,6.11,0,0,0,4.35-2.52"/><line class="cls-8" x1="246.04" y1="229.07" x2="246.18" y2="236.41"/><path class="cls-3" d="M78.34,31.58c.66-.69,1.15-1.09,1.73-1.65a18.17,18.17,0,0,1,1.69-1.42c1.15-.92,2.32-1.78,3.51-2.6a77.57,77.57,0,0,1,7.38-4.44,92.33,92.33,0,0,1,15.87-6.38,112.2,112.2,0,0,1,33.54-4.42,112.76,112.76,0,0,1,33.42,5.12,88.84,88.84,0,0,1,15.69,6.76,71.29,71.29,0,0,1,7.23,4.67c1.17.85,2.31,1.74,3.42,2.7.54.48,1.09,1,1.63,1.48s1,1,1.67,1.71l-4.93,4.48a15.86,15.86,0,0,0-1.28-1.09c-.44-.33-1-.78-1.48-1.16a36.26,36.26,0,0,0-3.11-2.18,64.8,64.8,0,0,0-6.72-3.85,84,84,0,0,0-14.51-5.68A115.13,115.13,0,0,0,142,19.41a114.78,114.78,0,0,0-31.14,3.85A82.29,82.29,0,0,0,96.26,28.7a68.63,68.63,0,0,0-6.81,3.68c-1.09.67-2.18,1.39-3.17,2.13-.52.36-1,.73-1.51,1.09a16,16,0,0,0-1.31,1.09Z"/><path class="cls-3" d="M140.89,18.13a27.1,27.1,0,0,0-3.21.61c-1.08.28-2.17.57-3.26,1a42.63,42.63,0,0,0-6.31,2.67,40.57,40.57,0,0,0-10.89,8.23,38.59,38.59,0,0,0-4.29,5.34A41.56,41.56,0,0,0,109.59,42a53.85,53.85,0,0,0-3.92,13.44L102.33,55a58.14,58.14,0,0,1,3.73-14.44,46,46,0,0,1,3.43-6.75,41.5,41.5,0,0,1,4.52-6.1,45.08,45.08,0,0,1,11.8-9.54,48.8,48.8,0,0,1,6.92-3.21c1.2-.45,2.42-.83,3.65-1.18a31.74,31.74,0,0,1,3.89-.87Z"/><path class="cls-3" d="M140.86,12.88a33.79,33.79,0,0,1,4,.85c1.27.34,2.51.72,3.74,1.15A50.33,50.33,0,0,1,155.76,18a47.18,47.18,0,0,1,12.39,9.35,45.16,45.16,0,0,1,8.45,13,54.67,54.67,0,0,1,4,14.75l-2.69.39A51.72,51.72,0,0,0,173.5,41.7a41.4,41.4,0,0,0-8.29-11.51,43.33,43.33,0,0,0-11.61-8,48.46,48.46,0,0,0-6.55-2.59c-1.09-.35-2.27-.64-3.41-.9a28.92,28.92,0,0,0-3.33-.56Z"/><path class="cls-4" d="M128.17,16.48S127.84,2.64,140.8,2.64s12.61,13.23,12.61,13.23"/><path class="cls-3" d="M58.54,85.08C67,80.51,75.6,75.87,84.81,72.53c2.3-.85,4.64-1.6,7-2.3l1.78-.53.43-.12h.12a1.71,1.71,0,0,0-.39.17A1.63,1.63,0,0,0,93,71.29a1.43,1.43,0,0,0,.09.41L93,71.5l-.16-.37-.33-.76c-.2-.5-.48-1-.73-1.47A33.43,33.43,0,0,0,83.3,58.66a34.61,34.61,0,0,0-11.73-5.91l-.76-.19-.38-.08h-.17a3,3,0,0,0,.51.06,2.29,2.29,0,0,0,1.82-.8h0l-.11.17-.21.35c-.6.89-1.17,1.83-1.74,2.78a56,56,0,0,0-3,6,87.61,87.61,0,0,0-4.28,13.23c-.57,2.28-1.09,4.57-1.45,6.88-.21,1.16-.37,2.32-.55,3.49L61,86.39v.22h0v-.09a1.22,1.22,0,0,0,0-.27,1.68,1.68,0,0,0-1.41-1.43A1.72,1.72,0,0,0,58.54,85.08Zm2.28,4.06a3,3,0,0,1-1.9.37,3.09,3.09,0,0,1-1.73-.85,3,3,0,0,1-.87-1.77,2,2,0,0,1,0-.49v-.49l.16-1.83c.12-1.22.24-2.44.42-3.65q.45-3.63,1.09-7.26A96.37,96.37,0,0,1,61.74,58.8a66.24,66.24,0,0,1,3-7,31.56,31.56,0,0,1,2-3.36L67,48l.13-.2c.08-.09,0,0,.3-.38a4.34,4.34,0,0,1,3.39-1.54,3.83,3.83,0,0,1,1,.12l.26.09.49.15,1,.32a38.89,38.89,0,0,1,13.16,8.12,40.27,40.27,0,0,1,9.54,11.93A17.6,17.6,0,0,1,97,68.39l.38.9.18.45.09.23a3.43,3.43,0,0,1,.2.84,3.27,3.27,0,0,1-1.51,3.06,3.17,3.17,0,0,1-.79.37l-.32.08-.42.11-1.7.45c-2.24.64-4.49,1.33-6.7,2.12A152.63,152.63,0,0,0,60.82,89.14Z"/><path class="cls-3" d="M190.24,68.61c2.34.5,4.7,1,7,1.59a63,63,0,0,1,7,2.09,100.26,100.26,0,0,1,13,6l6.18,3.27c.52.28,1.09.5,1.58.75l.2.1a1.32,1.32,0,0,0-.39-.15,1.85,1.85,0,0,0-1,.07,1.76,1.76,0,0,0-1.09,1.52v-.68l0-.85c0-.56-.09-1.09-.13-1.69a89.45,89.45,0,0,0-2.18-13.41,92.78,92.78,0,0,0-4.1-12.92c-.2-.53-.41-1.09-.64-1.56L215.3,52l-.08-.2v0l.07.14a2,2,0,0,0,.38.49,1.94,1.94,0,0,0,1.09.51,3.11,3.11,0,0,0,.61,0,1.39,1.39,0,1,1,.26-.06l-1.54.73c-2.05,1-4,2.08-6,3.17-3.88,2.25-7.63,4.54-11.22,7.1A56.39,56.39,0,0,0,193.75,68l-1.2,1.09-1.09,1.2-.28.3a1.83,1.83,0,0,0,.18-.34,1.3,1.3,0,0,0-.75-1.68,1.25,1.25,0,0,0-.26-.07Zm-1,5.44A4.23,4.23,0,0,1,187.05,73a4.15,4.15,0,0,1-1.21-2.18,4.36,4.36,0,0,1,.19-2.5,4.68,4.68,0,0,1,.61-1.09l.28-.37c.74-1,1.52-2,2.3-2.93a56.86,56.86,0,0,1,5.15-5.38,51.65,51.65,0,0,1,12.24-8.13c2.18-1.09,4.41-2,6.63-2.93l1.67-.68a6.88,6.88,0,0,1,1.09-.34,4.83,4.83,0,0,1,4.11,1.17,4.49,4.49,0,0,1,.92,1.16c.07.11.12.23.18.34l.1.25.08.22.32.85c.21.57.42,1.09.61,1.71a99.07,99.07,0,0,1,3.73,14,93.11,93.11,0,0,1,1.59,14.32c0,.6.06,1.2.06,1.81v2A3.28,3.28,0,0,1,225.62,87a3.21,3.21,0,0,1-1.81.16,3.46,3.46,0,0,1-.82-.28l-.19-.1c-.53-.27-1-.56-1.56-.8l-6.38-2.9c-4.24-1.92-8.43-3.78-12.63-5.39a63.8,63.8,0,0,0-13-3.67Z"/><path class="cls-3" d="M89.14,369.35a32.45,32.45,0,0,1,.79-3.27A22.12,22.12,0,0,1,91,363a41.4,41.4,0,0,1,2.81-5.9,48.26,48.26,0,0,1,3.65-5.44,46.1,46.1,0,0,1,15.32-12.59c1-.54,2-1,3-1.45s2-.84,3.09-1.24l3.14-1,3.21-.85a67.29,67.29,0,0,1,13-1.71,88.34,88.34,0,0,1,12.91.4A55.44,55.44,0,0,1,176,341.88,45.71,45.71,0,0,1,186,351a50.67,50.67,0,0,1,7,11.3,71.13,71.13,0,0,1,5.84,25c.13,2.12.15,4.23.13,6.37,0,1.09-.06,2.18-.14,3.27l-.07.82a8.31,8.31,0,0,1-.09.9l-.24,1.61a92.52,92.52,0,0,1-3,12.27c-.63,2-1.31,4-2.08,6s-1.62,3.89-2.54,5.78c-.44,1-1,1.89-1.46,2.81s-1,1.85-1.56,2.76l-.82,1.36a8.23,8.23,0,0,1-.9,1.31,5.92,5.92,0,0,1-2.92,1.85l-2.94-2c-.49-2.69.84-4.09,1.69-5.85.47-.85.89-1.72,1.3-2.61s.84-1.74,1.22-2.63a52.9,52.9,0,0,0,2.18-5.45c.63-1.87,1.36-3.66,1.95-5.51A94.13,94.13,0,0,0,191.38,399l.22-1.39a6.17,6.17,0,0,1,.08-.62l.07-.67c.07-.94.13-1.9.15-2.86.07-1.91,0-3.84-.11-5.77a53.1,53.1,0,0,0-6-21.87,38.82,38.82,0,0,0-15.15-15.32A56.79,56.79,0,0,0,149.75,344a75.53,75.53,0,0,0-11.35-.68,66.29,66.29,0,0,0-11.16.95,51,51,0,0,0-10.55,3.12,43.28,43.28,0,0,0-9.45,5.48,42.79,42.79,0,0,0-7.78,7.9,44.78,44.78,0,0,0-3.12,4.72c-.47.82-.9,1.65-1.33,2.49s-.8,1.77-1.09,2.49Z"/><path class="cls-14" d="M56.29,430.85s-7.65-28.61,27.59-30.07c34-1.42,30,26.52,30,26.52"/><path class="cls-3" d="M95.44,305.12c-.47,4.13-.94,8.3-1.32,12.46s-.78,8.31-1.09,12.47a237.12,237.12,0,0,0-.77,24.86l.13,3.08.28,3c.23,2,.51,4.07.88,6.09.71,4.05,1.59,8.1,2.59,12.13s2.17,8,3.34,12,2.48,8,3.89,11.85h0a1.86,1.86,0,1,1-3.46,1.34,214.69,214.69,0,0,1-8.35-24c-1.16-4.09-2.18-8.25-3-12.45-.42-2.1-.75-4.22-1.09-6.36l-.36-3.27L87,355c-.21-4.29-.18-8.56,0-12.8s.37-8.48.71-12.69c.7-8.44,1.63-16.82,2.93-25.2a2.42,2.42,0,0,1,4.8.64Z"/><path class="cls-3" d="M33.86,239.92q-5.52,16.44-10.77,32.91l-5.22,16.52-2.6,8.27L14,301.76l-.59,2.09-.57,2a119.07,119.07,0,0,0-3.74,33.09,153.7,153.7,0,0,0,4.07,33.37,112.15,112.15,0,0,0,5,15.9,67.24,67.24,0,0,0,7.62,14.33,65.66,65.66,0,0,0,24.47,20.69,84,84,0,0,0,31.58,8.54c1.38.09,2.76.18,4.13.2a26.62,26.62,0,0,0,3.79-.09A34.19,34.19,0,0,0,97.26,430c5.16-1.82,10.7-4.23,16.52-5.88a87.09,87.09,0,0,1,17.83-3.27c3-.24,6-.34,9-.33a85.83,85.83,0,0,1,9.07.48,73.38,73.38,0,0,1,9.08,1.59c3,.73,5.87,1.65,8.62,2.57a86.63,86.63,0,0,0,16.08,4.11,95.54,95.54,0,0,0,16.48.74c1.39,0,2.79-.12,4.19-.18l2.1-.15a18.17,18.17,0,0,0,2-.16,42.8,42.8,0,0,0,7.53-1.45,44.92,44.92,0,0,0,13.78-6.77,63.52,63.52,0,0,0,11.57-10.89c6.93-8.27,12.29-18.09,16.55-28.32a136.36,136.36,0,0,0,5.37-15.74c.72-2.68,1.36-5.27,1.84-8s.91-5.45,1.26-8.2a152.91,152.91,0,0,0,1-16.71c0-5.61-.24-11.23-.65-16.86s-1.09-11.25-1.93-16.84c-.41-2.8-.9-5.59-1.42-8.37s-1.09-5.6-1.72-8.2l-.81-3.33,2.68-1.72h0c.5-.38,1.19-.93,1.77-1.42s1.23-1.09,1.83-1.58q1.83-1.59,3.6-3.26c2.33-2.27,4.57-4.64,6.68-7.12A99.09,99.09,0,0,0,288.35,249a77.66,77.66,0,0,0,4.22-8.59,73.33,73.33,0,0,0,3.17-9c.46-1.51.78-3.05,1.16-4.59a39,39,0,0,0,.81-4.65c.2-1.56.42-3.2.59-4.86s.4-3.26.51-5c1.09-13.23,1.19-26.47-1-39.3a123.89,123.89,0,0,0-12.47-37l.69-5.45h0l.29-.33.37-.45c.25-.32.5-.65.74-1a23.42,23.42,0,0,0,1.34-2.11,25.29,25.29,0,0,0,2-4.55,19.71,19.71,0,0,0,.69-9.49,27,27,0,0,0-3.4-9.47,20.29,20.29,0,0,0-6.78-6.76,27.49,27.49,0,0,0-9.48-3.43A50,50,0,0,0,261,92.47a44.06,44.06,0,0,0-10.57,1.62,26.56,26.56,0,0,0-4.73,1.74,11.37,11.37,0,0,0-1.09.58c-.34.2-.65.41-1,.62s-.58.44-.83.64l-.34.31-.13.12h0l-8.17-3.57c.06-.49.15-1.2.21-1.84l.15-2c.09-1.32.13-2.68.16-4,.07-2.7,0-5.44-.1-8.15a149.07,149.07,0,0,0-1.71-16.34,108,108,0,0,0-3.56-15.82,41.38,41.38,0,0,0-2.81-7.06,13.35,13.35,0,0,0-.89-1.56,13.21,13.21,0,0,0-1-1.39,9.2,9.2,0,0,0-1.94-2c-.13-.07-.27-.18-.33-.2h0a5.12,5.12,0,0,0,.54.1H221.6a29.77,29.77,0,0,0-3.65.42,40.38,40.38,0,0,0-7.3,2,49.17,49.17,0,0,0-13.31,7.79,112.12,112.12,0,0,0-11.78,11.18c-1.81,2-3.56,4.07-5.19,6.21-.82,1.09-1.62,2.17-2.37,3.26-.38.55-.74,1.09-1.09,1.64s-.73,1.09-1,1.55l-1.9,3.27-3.61-1.17c-1.09-.35-2.35-.72-3.56-1.09s-2.47-.64-3.72-.92q-3.75-.87-7.55-1.47a97.32,97.32,0,0,0-15.25-1.24,61.44,61.44,0,0,0-14.71,2,72.11,72.11,0,0,0-7.21,2.18c-1.18.43-2.35.88-3.5,1.37-.57.25-1.14.49-1.69.75s-1.16.55-1.57.77l-4.36,2.17-2-4.42c-1.08-2.42-2.48-5-3.86-7.48s-2.89-4.9-4.46-7.25A67.88,67.88,0,0,0,86.34,43.09c-.49-.46-1-.87-1.51-1.3a14.08,14.08,0,0,0-1.49-1.09,29.39,29.39,0,0,0-3.27-2,40.54,40.54,0,0,0-7.37-3,31.62,31.62,0,0,0-7.53-1.37,6.22,6.22,0,0,0-1.22,0H64a1.09,1.09,0,0,0,.26,0c.13-.07.07,0,.09,0a2.08,2.08,0,0,0-.34.24,20.19,20.19,0,0,0-2.48,2.5,54.57,54.57,0,0,0-8.27,13.94A70.87,70.87,0,0,0,50.56,59c-.73,2.64-1.35,5.44-1.92,8.3-1.15,5.65-2.06,11.4-2.83,17.18S44.4,96.05,44,101.78h0l-.1,1.27L43,104.21c-.32.46-.75,1.09-1.09,1.66l-1.09,1.8c-.74,1.21-1.47,2.44-2.17,3.69-1.4,2.5-2.69,5.06-3.9,7.63a96.5,96.5,0,0,0-5.91,16,77.18,77.18,0,0,0-1.74,8.26l-.28,2.08-.22,2.08-.3,4.35A117.84,117.84,0,0,0,26.58,169a112.28,112.28,0,0,0,2.85,16.88,117.59,117.59,0,0,0,5.44,16.4l1.81,4.22a29.85,29.85,0,0,1,1.46,5,33.82,33.82,0,0,1,.44,10.14,58.77,58.77,0,0,1-1.88,9.56c-.41,1.54-.88,3.05-1.37,4.52Zm-7.94-2.68c1.09-3.05,2.18-5.59,3-8.29a34.14,34.14,0,0,0,1.63-8,25.65,25.65,0,0,0-.49-7.72A20.42,20.42,0,0,0,29,209.65l-.86-1.89-1-2.09a115.69,115.69,0,0,1-10.47-54.46l.31-4.65.24-2.37.31-2.38a92.59,92.59,0,0,1,1.92-9.31A101.63,101.63,0,0,1,26,114.88c1.34-2.83,2.82-5.57,4.35-8.26.8-1.35,1.63-2.68,2.47-4,.43-.66.88-1.32,1.33-2s.89-1.27,1.45-2l-.91,2.43h0c.49-6,1.09-12,1.92-17.89s1.74-11.87,2.93-17.8c.6-3,1.25-5.92,2.1-9a75.94,75.94,0,0,1,3.08-8.89,63,63,0,0,1,9.79-16.4,28,28,0,0,1,3.78-3.76,12.58,12.58,0,0,1,1.49-1,3.81,3.81,0,0,1,.57-.29,5,5,0,0,1,.76-.31,7.94,7.94,0,0,1,1.09-.29,15.56,15.56,0,0,1,3.2-.21,33.89,33.89,0,0,1,5.12.6c1.6.3,3.19.68,4.76,1.14a50,50,0,0,1,9,3.65,42.48,42.48,0,0,1,4.29,2.59c.68.49,1.38,1,2,1.55s1.26,1.09,1.86,1.59a76.9,76.9,0,0,1,12.17,14.4c1.72,2.56,3.32,5.18,4.84,7.85s2.89,5.33,4.26,8.27l-6.4-2.18c.78-.4,1.38-.69,2.05-1l2-.87c1.31-.56,2.61-1.09,3.94-1.56q4-1.45,8.1-2.5a71.16,71.16,0,0,1,16.94-2.26A107.25,107.25,0,0,1,157,57.9c2.74.44,5.44,1,8.16,1.59,1.35.31,2.71.64,4.06,1s2.64.73,4.11,1.21l-5.51,2.18c.47-.82.84-1.4,1.27-2.07s.83-1.26,1.26-1.87c.85-1.24,1.73-2.44,2.63-3.62q2.72-3.52,5.68-6.79A120.83,120.83,0,0,1,191.5,37.35a58.52,58.52,0,0,1,15.83-9.26,49.34,49.34,0,0,1,9-2.5,40.26,40.26,0,0,1,4.77-.55H224a5.71,5.71,0,0,1,1.09.23,4.3,4.3,0,0,1,.57.2,5.24,5.24,0,0,1,.91.4,10.44,10.44,0,0,1,1.48.87,18.33,18.33,0,0,1,4,4,22.8,22.8,0,0,1,1.44,2.09c.45.71.87,1.41,1.23,2.12a50.49,50.49,0,0,1,3.5,8.63,119.3,119.3,0,0,1,3.9,17.23,160.31,160.31,0,0,1,1.8,17.36c.12,2.92.18,5.85.12,8.79,0,1.47-.1,2.94-.19,4.43l-.18,2.23c-.06.77-.14,1.47-.26,2.39l-8.13-3.63a7,7,0,0,1,.51-.59c.16-.17.27-.26.4-.39s.51-.47.76-.69c.5-.43,1-.8,1.51-1.16a17,17,0,0,1,1.52-1,15.64,15.64,0,0,1,1.55-.86,35.11,35.11,0,0,1,6.32-2.51,53.26,53.26,0,0,1,12.79-2,59.3,59.3,0,0,1,12.83.76A36.9,36.9,0,0,1,286.1,88.6a29.37,29.37,0,0,1,9.81,9.8,36.19,36.19,0,0,1,4.62,12.68,29,29,0,0,1-1,13.9,35.11,35.11,0,0,1-2.76,6.28c-.57,1-1.18,2-1.83,2.89a15,15,0,0,1-1.09,1.38l-.57.7c-.21.25-.37.42-.69.77h0l.69-5.44,2.75,4.53,2.52,4.67c.79,1.6,1.6,3.18,2.35,4.79s1.49,3.27,2.18,4.92a113.79,113.79,0,0,1,6.08,20.6,127.48,127.48,0,0,1,2.24,21.26,171.67,171.67,0,0,1-.76,21.15c-.13,1.75-.38,3.48-.55,5.22s-.39,3.46-.7,5.31-.67,3.62-1,5.44a49.74,49.74,0,0,1-1.43,5.33A86.73,86.73,0,0,1,298,254.71a100.6,100.6,0,0,1-13.13,17.13c-2.47,2.6-5.06,5.06-7.76,7.42-1.36,1.16-2.74,2.32-4.16,3.41l-2.18,1.61c-.73.52-1.45,1-2.34,1.61h0l1.87-5.05c.86,3,1.54,5.79,2.18,8.71s1.22,5.78,1.75,8.71q1.59,8.72,2.52,17.55a178.2,178.2,0,0,1,.22,35.7c-.33,3-.71,6-1.25,9s-1.15,6-1.93,8.93a147.33,147.33,0,0,1-5.74,17.1,116.61,116.61,0,0,1-18.39,31.31,70.29,70.29,0,0,1-13.76,12.7,53,53,0,0,1-17.43,8,47.28,47.28,0,0,1-9.54,1.42c-.83.05-1.56.06-2.3.07l-2.23.06h-4.48a103.34,103.34,0,0,1-18.07-1.71,98.53,98.53,0,0,1-17.29-5.26c-2.69-1-5.28-1.91-7.9-2.65a54.18,54.18,0,0,0-8-1.59,77.91,77.91,0,0,0-8.22-.57c-2.79,0-5.56.06-8.33.28a72.73,72.73,0,0,0-16.21,3.06c-5.3,1.6-10.33,4-16,6.12a42.34,42.34,0,0,1-9.25,2.44,34.49,34.49,0,0,1-4.87.27c-1.52,0-3,0-4.53-.1a87.84,87.84,0,0,1-35.16-8.81A74,74,0,0,1,18.2,407.87a77,77,0,0,1-8.61-16.23,123.12,123.12,0,0,1-5.34-17.2A163.82,163.82,0,0,1,0,339a127.68,127.68,0,0,1,4.36-35.6c.44-1.49.86-2.87,1.3-4.25L7,295l2.64-8.27,5.33-16.55Q20.31,253.68,25.92,237.24Z"/><path class="cls-3" d="M112,72.41A16.4,16.4,0,0,0,113,74.59c.41.69.84,1.49,1.31,2.17a40.25,40.25,0,0,0,3,4.21A36.12,36.12,0,0,0,125,87.89a29.06,29.06,0,0,0,37.22-4.52A38,38,0,0,0,168.13,75a44.83,44.83,0,0,0,2.18-4.73,34,34,0,0,0,1.53-4.84L177,66.6a46.64,46.64,0,0,1-2,5.52,50.19,50.19,0,0,1-2.7,5.2,45,45,0,0,1-6.87,9.25A34.47,34.47,0,0,1,161,90.39a31.41,31.41,0,0,1-5,3.08,32.66,32.66,0,0,1-11.19,3.27,35.88,35.88,0,0,1-11.6-.56,33.09,33.09,0,0,1-10.73-4.52,41,41,0,0,1-8.72-7.54,47.52,47.52,0,0,1-3.57-4.54c-.55-.78-1.09-1.6-1.59-2.42s-1-1.63-1.47-2.63Z"/><path class="cls-3" d="M132.25,176.92a2.12,2.12,0,0,1,.29-2.18,1.85,1.85,0,0,1,.4-.39l.18-.14.29-.19a12.79,12.79,0,0,1,1.21-.64,12.52,12.52,0,0,1,2.52-.8,17.79,17.79,0,0,1,5.15-.27,11.73,11.73,0,0,1,5.1,1.46l.6.39.15.1.24.19a2.24,2.24,0,0,1,.59,1,2,2,0,0,1,0,1.09,2.25,2.25,0,0,1-.2.51l-.26.57c-.36.74-.74,1.46-1.17,2.18a16.23,16.23,0,0,1-3.2,4,5.89,5.89,0,0,1-2.54,1.43,5.05,5.05,0,0,1-.78.11,2.75,2.75,0,0,1-.81,0,3.37,3.37,0,0,1-.77-.14,3.16,3.16,0,0,1-.72-.28,7.51,7.51,0,0,1-2.18-1.62,15.44,15.44,0,0,1-1.64-2A24.52,24.52,0,0,1,132.25,176.92Zm2.93-1.21a31.2,31.2,0,0,0,1.87,4,8.64,8.64,0,0,0,2.57,3,1.69,1.69,0,0,0,1.44.26,3.76,3.76,0,0,0,1.44-1,14.88,14.88,0,0,0,2.32-3.55c.31-.66.63-1.33.9-2l.21-.51h0a1,1,0,0,0,0,.53.85.85,0,0,0,.28.46h0l-.09-.06-.39-.24a10.18,10.18,0,0,0-3.79-1.23,10.34,10.34,0,0,0-4.14.27,10.77,10.77,0,0,0-1.89.71c-.3.15-.59.29-.85.45l-.2.13h0a.81.81,0,0,0,.19-.18A1,1,0,0,0,135.18,175.71Z"/></g></g></g></g></svg>