<svg xmlns="http://www.w3.org/2000/svg" viewBox="0 0 307.6 434.81"><defs><style>.cls-1{fill:#424143;}.cls-2{fill:#fed126;}.cls-12,.cls-13,.cls-3{fill:#fff;}.cls-11,.cls-14,.cls-4,.cls-5,.cls-6,.cls-7,.cls-8,.cls-9{fill:none;}.cls-10,.cls-11,.cls-12,.cls-13,.cls-14,.cls-4,.cls-5,.cls-6,.cls-7,.cls-8,.cls-9{stroke:#fff;stroke-miterlimit:10;}.cls-14,.cls-4{stroke-width:4.85px;}.cls-14,.cls-5{stroke-linecap:round;}.cls-5{stroke-width:4.13px;}.cls-6{stroke-width:5px;}.cls-7{stroke-width:8px;}.cls-12,.cls-8{stroke-width:2.91px;}.cls-9{stroke-width:2.73px;}.cls-10{fill:#fed525;stroke-width:2.51px;}.cls-11{stroke-width:1.73px;}.cls-13{stroke-width:3.54px;}</style></defs><g id="Layer_2" data-name="Layer 2"><g id="Layer_1-2" data-name="Layer 1"><g id="Layer_2-2" data-name="Layer 2"><g id="Layer_3" data-name="Layer 3"><polygon class="cls-1" points="69.08 48.84 58.42 81.03 60.3 83.56 92.5 71.14 89.88 62.07 69.08 48.84"/><polygon class="cls-1" points="216 51.01 222.39 81.57 188.08 68.31 204.31 54.31 216 51.01"/><path class="cls-1" d="M108.17,67.74l30.67-7.52L167,65.09c1.6,5.85-.88,11.64-5,17.39L144.61,93l-18-1.69-15-16.67Z"/><polygon class="cls-1" points="90.41 362.06 110.68 339.16 145.71 334.78 159.24 337.18 181.17 350.31 191.7 373.48 192.82 391.31 185.66 416.21 178.95 426.81 154.06 419.44 130.47 419.55 113.47 420.31 111.47 411.82 102.5 397.49 99.12 395.23 93.31 377.19 90.41 362.06"/><polygon class="cls-1" points="127.07 12.12 130.07 4.99 137.84 2.42 145.46 3.91 149.29 9.27 149.29 16.1 127.5 15.13 127.07 13.03 127.07 12.12"/><polygon class="cls-1" points="132.79 172.95 139.94 171.46 144.41 172.65 143.69 177.71 138.84 181.7 133.75 176.56 132.79 172.95"/><path class="cls-2" d="M34,211.11l8,2.27,2.19,4.9,7.11,1.08,5.17,6.57,5,.09,6.75,3.37,1.57,3.93,8.6-.59L83,237.79l5.71-.7,5.5,2.58,3.55,2.8,7.53-2.9,7.82,3.83h12.91l4.87,2.36L141,244.19,145.6,246l8.22-2.55,9,.17,9.57-2.24,7.26,1.14,8.41-5.38,5.92,2.42,6.52-6.27,7-1.23,1.87,1.59,6-7.09,9.15-1.07,3.68-4.11,7.68-2.39,5.12-3.35,4.3-2.31v11.08L244,235.24l-12.21,7-8.92,2.35L217,248.9l-8.52,1.2L201.29,256,193,257l-6.8,2.63-7.34,2.26h-6.69l-6.31,1.57h-7.47l-7.83.66-4.88.93-6-.93-8.6.93L125,265l-4.82-1.43-6,.59L105.37,262H99.72L91,259.71l-3.23-1.56-6.57-.58-6.69-2.47-4.84-1.91-4.15-.52L58.91,249,57,246.66l-6.87-1.36s-3.23-1.84-3.84-2a33.48,33.48,0,0,1-3.83-3.1l-2.15-1.92-6-1.81-3.88-3.64,2-6.22Z"/><polygon class="cls-2" points="248.22 120.97 256.61 118.58 264 120.72 265.09 124.2 265 127.84 258.51 127.84 249.98 128.51 247.7 126.19 248.22 120.97"/><polygon class="cls-2" points="130.09 268.05 142.1 264.62 152.61 272.57 155.98 276.84 153.11 285.19 145.66 292.45 132.79 292.82 125.24 284.7 121.76 278.12 124.33 275.19 127.62 270.44 130.09 268.05"/></g><g id="Layer_1-2-2" data-name="Layer 1-2"><path class="cls-3" d="M257.47,276.89c-.25-1.76-.68-3.73-1.07-5.61s-1-3.79-1.51-5.67a71,71,0,0,0-4.26-11.1,73.53,73.53,0,0,1,8.49,8.8c1.32,1.59,2.59,3.22,3.83,4.88s2.4,3.33,3.58,5.24Z"/><path class="cls-4" d="M102.49,57.38S115.4,47,138.84,47c22.59,0,37.09,9.31,37.09,9.31"/><path class="cls-3" d="M249,136a33,33,0,0,1,1.78,3.38c.52,1.08,1,2.24,1.43,3.38a51.63,51.63,0,0,1,2.15,7c.33,1.17.54,2.38.81,3.57s.42,2.4.6,3.6c.29,2.42.5,4.84.56,7.29a65.29,65.29,0,0,1-.2,7.28c-.21,2.4-.44,4.71-.72,7.06-.6,4.69-1.46,9.34-2.42,14-.5,2.3-1,4.59-1.58,6.88s-1.08,4.58-1.73,6.86l-.5,1.73-.21.69a1.88,1.88,0,0,0,0,.58c-.1,1.37-.26,2.44-.4,3.63-.28,2.31-.54,4.61-.71,6.9s-.29,4.58-.29,6.82a24,24,0,0,1-1,7.53,26.35,26.35,0,0,1-3.46,6.55l-1.95,2.89a5.27,5.27,0,0,1-3.16,2.16,4.82,4.82,0,0,1,.4-3.86l1.75-3A27.2,27.2,0,0,0,242.9,233a22.24,22.24,0,0,0,.8-6.34c0-2.41.21-4.78.44-7.13l.73-7c.11-1.08.25-2.37.29-3.34a5.68,5.68,0,0,1,.06-1.16c.11-.56.17-.71.23-1l.37-1.65c.94-4.5,1.65-9.08,2.22-13.65s1.08-9.17,1.41-13.75c.22-2.28.36-4.57.53-6.86a62.47,62.47,0,0,0,.12-6.69c-.08-2.24-.22-4.44-.48-6.65-.13-1.07-.29-2.2-.45-3.3s-.36-2.15-.62-3.23c-.45-2.15-1.08-4.3-1.73-6.45-.34-1.06-.7-2.1-1.08-3.13s-.84-2.09-1.24-2.93Z"/><path class="cls-3" d="M47.68,296.27c-1.23,4.48-2.36,9-3.31,13.47s-1.77,9-2.33,13.58a110.53,110.53,0,0,0,5.89,53.93c1.55,4.31,3.23,8.61,5.17,12.78s4,8.35,6.19,12.27v.08a2.1,2.1,0,1,1-3.6,2.15h0A145.4,145.4,0,0,1,43.23,379a108.76,108.76,0,0,1-6.12-56.29q1-7.07,2.69-14c1.13-4.59,2.45-9.13,3.86-13.61a2.15,2.15,0,0,1,4,1.19Z"/><path class="cls-5" d="M210.48,426.48c-4.59-4.82-9-23.07,5.93-35.76,21.12-17.91,37.45.84,37.45.84"/><path class="cls-6" d="M4.39,326.22S12,324.57,27,334.82c7.18,4.87,11.76,13.4,11.76,13.4"/><path class="cls-3" d="M14.88,391.57c.21-.52.39-.83.58-1.21s.41-.71.61-1.07c.42-.69.87-1.33,1.35-2a24.7,24.7,0,0,1,3.22-3.48,24.4,24.4,0,0,1,8-4.9,29.34,29.34,0,0,1,9-1.74,31.8,31.8,0,0,1,9.06.86l-.89,3.74a27.67,27.67,0,0,0-7.92-.42,24.39,24.39,0,0,0-7.62,1.77A19.68,19.68,0,0,0,24,387.37a20.77,20.77,0,0,0-2.45,2.94c-.36.53-.69,1.08-1,1.6-.14.27-.3.55-.42.82a6.89,6.89,0,0,0-.34.73Z"/><path class="cls-6" d="M224.82,385.36s-2.22-18.83,7.07-37.14c11.21-22.1,37.59-22.1,37.59-22.1"/><path class="cls-7" d="M238,91.34c-8.05,9.07-9.77,15.17-9.77,26.29,0,3.72,2.7,13.9,12.51,18.36,4.57,2.08,8.78.16,10.08-1.74"/><path class="cls-3" d="M251,116.49a17.7,17.7,0,0,0-1.37,8.74c.1.73.24,1.45.41,2.16s.38,1.44.62,2.15a10.78,10.78,0,0,0,2.16,3.51c1.78,1.92,4.36,2.64,7.38,2.57a10.07,10.07,0,0,0,2.05-.16,11.61,11.61,0,0,0,2-.58,19.66,19.66,0,0,0,3.88-2h.08a2.61,2.61,0,0,1,2.85,4.37l-.1.07a24.81,24.81,0,0,1-5.08,2.32,16.8,16.8,0,0,1-2.82.68,15,15,0,0,1-2.92.13,17.18,17.18,0,0,1-5.63-1,11.94,11.94,0,0,1-4.95-3.43,15.1,15.1,0,0,1-2.8-5.05,25.92,25.92,0,0,1-1.08-5.38,20.93,20.93,0,0,1,.39-5.47,21.84,21.84,0,0,1,1.73-5.17,1.79,1.79,0,0,1,3.23,1.48Z"/><path class="cls-3" d="M72.09,412.54a17.34,17.34,0,0,1,1.64,4.08,14.28,14.28,0,0,1,.56,4.45,38.09,38.09,0,0,1-.34,4.14c-.1.69-.21,1.39-.36,2.1-.07.36-.15.71-.24,1.08s-.23.8-.37,1.19l-.1.24a2.41,2.41,0,1,1-4.5-1.71,2.69,2.69,0,0,1,.24-.48,5.51,5.51,0,0,0,.29-.66c.11-.26.22-.54.32-.83.19-.56.36-1.15.52-1.75.32-1.2.57-2.44.78-3.68a11.46,11.46,0,0,0,0-3.41,15.18,15.18,0,0,0-.88-3.4v-.12a1.4,1.4,0,0,1,2.44-1.24Z"/><path class="cls-3" d="M98.13,412.47a27.93,27.93,0,0,1,1.79,3.59,16.33,16.33,0,0,1,1.08,4.13,15.16,15.16,0,0,1-.07,4.41,13.15,13.15,0,0,1-.53,2.23,8.55,8.55,0,0,1-.44,1.07l-.27.56a5.72,5.72,0,0,1-.41.67,2.56,2.56,0,0,1-4-3.16c0,.06.07-.07.12-.13s.13-.19.2-.27a6.5,6.5,0,0,0,.37-.63,7.32,7.32,0,0,0,.63-1.4,11.51,11.51,0,0,0,.59-3.23,12.4,12.4,0,0,0-.28-3.38,24.69,24.69,0,0,0-1.07-3.49,1.25,1.25,0,0,1,2.25-1.08Z"/><path class="cls-3" d="M85.44,415.72a11,11,0,0,1,1.48,3.47,27.09,27.09,0,0,1,.52,3.58,27.48,27.48,0,0,1,.15,3.63,17.75,17.75,0,0,1-.16,1.92,4.71,4.71,0,0,1-.19,1,1.63,1.63,0,0,1-.15.54,3.06,3.06,0,0,1-.27.71,2.4,2.4,0,1,1-4.32-2.07,1.17,1.17,0,0,1,.15-.27c-.06.14,0,0,.06-.07a1.43,1.43,0,0,0,.13-.28l.26-.61a11.43,11.43,0,0,0,.42-1.41,22.05,22.05,0,0,0,.51-3.12,23.89,23.89,0,0,0,.16-3.16,8.82,8.82,0,0,0-.63-2.91h0a1.08,1.08,0,0,1,1.88-1Z"/><path class="cls-3" d="M221.25,413.66c.06,0,0,.42,0,.78a12.23,12.23,0,0,0,.21,1.21,9.2,9.2,0,0,0,.83,2.23,6.17,6.17,0,0,0,1.42,1.59,8.81,8.81,0,0,0,.94.66,8.17,8.17,0,0,0,.93.48,2.38,2.38,0,1,1-1.46,4.53h0a2.71,2.71,0,0,1-.49-.22l-.19-.12a10.31,10.31,0,0,1-1.48-1.07,11.18,11.18,0,0,1-1.25-1.23,10,10,0,0,1-1.88-3.07,12.83,12.83,0,0,1-.52-5,5,5,0,0,1,.14-.89,4.28,4.28,0,0,1,.44-1.14,1.34,1.34,0,0,1,1.82-.48A1.32,1.32,0,0,1,221.25,413.66Z"/><path class="cls-3" d="M237.55,400.91a4.83,4.83,0,0,0-.12.93,6.49,6.49,0,0,0,0,1.08,4.8,4.8,0,0,0,2.09,3.47,8.39,8.39,0,0,0,.92.64,7.62,7.62,0,0,0,.9.46A2.38,2.38,0,1,1,239.9,412a2.5,2.5,0,0,1-.5-.23l-.2-.12a10,10,0,0,1-1.44-1.07,10.54,10.54,0,0,1-1.22-1.19,10.07,10.07,0,0,1-1.87-2.94,6.5,6.5,0,0,1-.47-1.78,7.32,7.32,0,0,1,0-1.75,9.32,9.32,0,0,1,.3-1.66,6,6,0,0,1,.73-1.72,1.3,1.3,0,0,1,2.38,1Z"/><path class="cls-3" d="M229.38,404.56a10.05,10.05,0,0,0-.35,3.23,6.32,6.32,0,0,0,.73,2.86,9.16,9.16,0,0,0,2,2.3,8.31,8.31,0,0,0,1.23.79c.21.1.41.19.63.27l.3.09c.07,0,.24.07.17,0a2.36,2.36,0,1,1-1.15,4.57,3.7,3.7,0,0,1-.72-.28,5,5,0,0,1-.57-.28,10.87,10.87,0,0,1-1-.64,11.49,11.49,0,0,1-1.74-1.53,12.61,12.61,0,0,1-2.44-3.76,10,10,0,0,1-.58-4.51,13.47,13.47,0,0,1,1.08-4.14,1.32,1.32,0,0,1,2.48.9Z"/><path class="cls-3" d="M37.9,399.93a6.17,6.17,0,0,1,.73,1.71,9.32,9.32,0,0,1,.3,1.66,8.53,8.53,0,0,1,0,1.75,7.29,7.29,0,0,1-.46,1.78,10,10,0,0,1-1.88,3,11.14,11.14,0,0,1-1.2,1.18,11.61,11.61,0,0,1-1.45,1.08l-.19.11a2.39,2.39,0,0,1-2.69-3.94,1.64,1.64,0,0,1,.22-.14,4.9,4.9,0,0,1,.52-.24,5.4,5.4,0,0,0,.9-.45,8.18,8.18,0,0,0,.91-.63,4.88,4.88,0,0,0,2.1-3.48,6.37,6.37,0,0,0,0-1.07,4.26,4.26,0,0,0-.13-.94l-.06-.29a1.3,1.3,0,0,1,1-1.57h0A1.32,1.32,0,0,1,37.9,399.93Z"/><path class="cls-3" d="M46.27,404a13.47,13.47,0,0,1,1.08,4.14,9.9,9.9,0,0,1-.58,4.51,12.78,12.78,0,0,1-2.43,3.76,11.49,11.49,0,0,1-1.74,1.53,12,12,0,0,1-1,.65l-.56.28a5.76,5.76,0,0,1-.73.27,2.36,2.36,0,1,1-1.15-4.57h.17l.31-.09.63-.27a8.09,8.09,0,0,0,1.23-.8,8.94,8.94,0,0,0,2-2.29,6.45,6.45,0,0,0,.73-2.86,10.35,10.35,0,0,0-.36-3.23v-.06a1.32,1.32,0,0,1,2.49-.9Z"/><path class="cls-3" d="M268.36,117.3a9.33,9.33,0,0,0-1.25,7.75,18.73,18.73,0,0,0,1.42,4,10,10,0,0,0,2.42,3.1c2,1.58,4.5,2.14,8,.41,2.78-1.37,3.32-3.07,3.55-3.73.6-.39,3.75-2.56,3.75-2.56a2.61,2.61,0,1,1,3.81,3.58l-1.4,2.69L290,130a20.26,20.26,0,0,1-2.15,1.75c-.71.53-.67,1.5-1.44,1.94-1.58,1-3.67,3-7.18,3.87-1.86.47-4,1-5.87.59a11.13,11.13,0,0,1-5.21-2.71,14.28,14.28,0,0,1-3.23-4.57,22,22,0,0,1-.89-2.51,20.43,20.43,0,0,1-.61-2.57,15.14,15.14,0,0,1,0-5.37,11.34,11.34,0,0,1,2.36-5.06,1.63,1.63,0,0,1,2.54,2Z"/><path class="cls-8" d="M36.3,226.56s1.86-9.56,11.56-8.13c7.92,1.18,8.6,7.53,8.6,7.53"/><path class="cls-8" d="M30.47,232.79c2.67,4.24,5.21,5.33,9.88,5.46,5.12.15,8.81-1.4,10.51-5.93,1.54-4.12-1.32-6.25-3.12-6.33-3.23-.12-4,3.23-7.94,3.08-3.63-.16-6.73-4.46-6.73-4.46Z"/><path class="cls-8" d="M49.62,234.88s1.07,3.3,5.85,2.54c3.41-.55,5.67-5.8,8.87-3.43s.25,12.26-11.45,11.75c-7.21-.3-11.83-7.53-11.83-7.53a16.86,16.86,0,0,0,5.52-1.07A7.48,7.48,0,0,0,49.62,234.88Z"/><path class="cls-8" d="M51.26,230.57s2-5.1,10.13-4.5c7.78.57,8.31,7.3,8.31,7.3"/><path class="cls-8" d="M44.12,218.28S43.88,212,36.78,211a6.48,6.48,0,0,0-2.84.15"/><path class="cls-8" d="M65.31,238.49s2.55-7.05,10.19-6.39c6.24.55,8.27,6.39,8.27,6.39"/><path class="cls-8" d="M56.43,245.55s2.86,5.89,9.12,7.1,9.28-.12,11.38-2.15,4.82-8.25,1-10c-3.46-1.58-4.5,3.12-9,3.82a7.54,7.54,0,0,1-5.84-2"/><path class="cls-8" d="M78.32,248.7s4,2.74,7.08,1.34,4.55-6,8.13-4.3c2.87,1.42,3.87,12-9.6,13-6,.44-13.12-5.71-13.12-5.71"/><path class="cls-8" d="M79.62,242.47s1.15-5.38,9.12-5.38a10,10,0,0,1,9,5.38"/><path class="cls-8" d="M95,252.09a13.78,13.78,0,0,0,5.92.49c3.23-.49,2.58-4.68,6.71-4.3,2.91.23,4.06,4.87,2.15,8.15-2.6,4.4-6.27,6-12.06,5.47-6.18-.57-8.9-4-8.9-4C91.93,256.63,94.17,254.82,95,252.09Z"/><path class="cls-8" d="M94.67,247s.79-6.14,9.2-6.77c6-.44,10.4,4.13,10.4,4.13"/><path class="cls-8" d="M110,249.94a11.92,11.92,0,0,1,11.3-7.47,13,13,0,0,1,9.68,4.3"/><path class="cls-8" d="M105.37,260.73s4.63,4.51,12.69,3.22c7.28-1.18,9-5.54,9.4-8s.42-6-4.3-6c-4.4,0-2.63,4.51-6.63,5.64a6.29,6.29,0,0,1-5.82-1.2A11.9,11.9,0,0,1,105.37,260.73Z"/><path class="cls-8" d="M127.62,253.65a10.17,10.17,0,0,1,9-9.27,13.18,13.18,0,0,1,10.21,2.38"/><path class="cls-8" d="M120.21,263.54a19.35,19.35,0,0,0,12.71,2.5c3.37-.41,8.13-2.15,8.61-5.13.75-4.76-.38-7.53-3-7.74-3.77-.23-2.27,4.38-11.33,3.88A10.06,10.06,0,0,1,120.21,263.54Z"/><path class="cls-8" d="M143,256.22s.54-11.76,10.88-12.82c6.6-.67,9,1.64,9,1.64"/><path class="cls-8" d="M141,263a16.23,16.23,0,0,0,14.3.61c8.19-3.33,7.65-13,4.08-13.46-3.36-.45-4.84,2-7.53,5.51-2.3,3.11-8.76,1.38-9.9,1.21C141.4,259.68,142.18,261.74,141,263Z"/><path class="cls-8" d="M161,250.61a10.25,10.25,0,0,1,7.93-8.79c6.83-1.71,10,2,10,2"/><path class="cls-8" d="M162.83,255.07s4.83,1.37,7.09-1.91c1.42-2,3.63-5.62,7.21-4.44s1.55,11-6.25,13.75-12.51-.53-12.51-.53A11.13,11.13,0,0,0,162.83,255.07Z"/><path class="cls-8" d="M177.87,249a10,10,0,0,1,6.66-10.16c6.51-2.54,9.46.77,9.46.77"/><path class="cls-8" d="M179.24,253.1a8,8,0,0,0,5.37-1c3.32-1.91,2.58-7.44,7-6.72,3.71.61,5,10.32-3.72,14.31-8.3,3.79-14.44,1.72-14.44,1.72C176.83,259.39,179.16,255.06,179.24,253.1Z"/><path class="cls-8" d="M193.42,246.82s-1.52-9.42,5.84-13c6-2.87,10.08-.17,10.08-.17"/><path class="cls-9" d="M192.55,256A17.51,17.51,0,0,0,203,254.4c2.92-1.58,7.07-3.79,7.53-8.67.33-3.69-1.07-6.87-4.3-6-3.89,1-2.29,5-5.58,6.45a42.85,42.85,0,0,1-6.35,2.08C195.23,251.43,195.31,253,192.55,256Z"/><path class="cls-8" d="M209.34,240.67c0-4.31-1.19-7.89,4.66-13.08a10.64,10.64,0,0,1,10.51-2.15"/><path class="cls-8" d="M210.11,241.89c.59-.31,6,.58,6.92-3.69.78-3.63,2.62-6,5.55-5.7s3.6,3,2.4,7.45a11.73,11.73,0,0,1-6.13,8.19c-4.16,2.38-10.34,2-10.34,2A10.36,10.36,0,0,0,210.11,241.89Z"/><path class="cls-8" d="M225.2,234.35s-2.63-8.06,3.93-13.93a11,11,0,0,1,9.58-2.41"/><path class="cls-8" d="M225.2,234.35s1.78,1.58,6-1.27c3.23-2.15.53-7.53,6.08-8.18,4.89-.62,5.27,6.45,3.22,10.75s-9.53,8.29-16,7.46"/><path class="cls-8" d="M238.38,224.9s-.43-6.46,3.09-9.79c2.15-2,5.8-2.07,5.8-2.07"/><path class="cls-10" d="M135.55,265.48l.07-8.29s-.09-4.31,3.08-4.31,3.3,4,3.3,4l.08,7.73"/><path class="cls-8" d="M153.38,279.62a14.53,14.53,0,0,1-29,0"/><path class="cls-8" d="M125,275.16a14.52,14.52,0,0,1,27.58-.25"/><path class="cls-3" d="M138.29,293.68l-1.67-5.93a2.31,2.31,0,0,1,4.41-1.41c0,.06,0,.12.05.18a2.52,2.52,0,0,1,0,1.28l-1.77,5.88a.53.53,0,0,1-1,0Z"/><path class="cls-11" d="M152.59,280.11c-9.2,1.81-26.24.52-28.12,0s-2.89-1.18-2.74-2.9,2.63-2.08,4.3-1.63c3.06.82,20.79,1.48,26.83-.39,0,0,2.64-.48,3.09,1.6C156.52,279.3,152.59,280.11,152.59,280.11Z"/><path class="cls-3" d="M139.78,182.09c.32,1.92.53,3.86.7,5.79l.24,2.9.05.72a5,5,0,0,1,0,.95,4.81,4.81,0,0,1-.88,2.3,8.54,8.54,0,0,1-2.88,2.46,17.89,17.89,0,0,1-3,1.34,24.45,24.45,0,0,1-6.22,1.14,15.87,15.87,0,0,1-6.45-.8,13.51,13.51,0,0,1-3-1.56,10.29,10.29,0,0,1-2.46-2.51,8.54,8.54,0,0,1-.8-1.6c-.09-.29-.18-.58-.26-.86l-.17-.77a10.62,10.62,0,0,1-.11-3.23,6.73,6.73,0,0,1,1.24-3,7.42,7.42,0,0,1,2.34-2,.16.16,0,0,1,.19.05.17.17,0,0,1,0,.17,8.07,8.07,0,0,0-1.48,2.34,5.38,5.38,0,0,0-.33,2.51,8.36,8.36,0,0,0,.65,2.46,4.5,4.5,0,0,0,1.3,1.91,6.66,6.66,0,0,0,1.9,1.25,9.42,9.42,0,0,0,2.25.74,13.22,13.22,0,0,0,2.43.29h2.57a27.54,27.54,0,0,0,5.19-.76,12.83,12.83,0,0,0,2.32-.83,4.94,4.94,0,0,0,1.6-1.07,1.15,1.15,0,0,0,.22-.35,2,2,0,0,0,0-.49v-.72l.23-2.91c.18-1.92.39-3.86.7-5.78a1,1,0,0,1,1.91,0Z"/><path class="cls-3" d="M139.85,182.09c.31,1.92.53,3.86.7,5.79l.22,2.9.07.72a4.17,4.17,0,0,0,0,.5,1.2,1.2,0,0,0,.21.34,5.3,5.3,0,0,0,1.61,1.08,13.31,13.31,0,0,0,2.32.82,28.42,28.42,0,0,0,5.18.77c.9,0,1.78.06,2.57,0a14.26,14.26,0,0,0,2.44-.29,9.84,9.84,0,0,0,2.24-.75,6.54,6.54,0,0,0,1.91-1.24,4.53,4.53,0,0,0,1.3-1.92,8,8,0,0,0,.64-2.46,5.5,5.5,0,0,0-.32-2.51,8,8,0,0,0-1.47-2.34.14.14,0,0,1,0-.19.12.12,0,0,1,.16,0,7.26,7.26,0,0,1,2.34,2,6.43,6.43,0,0,1,1.23,3,10.23,10.23,0,0,1-.1,3.22l-.18.78c-.06.28-.16.57-.25.86a8,8,0,0,1-.8,1.6,10.33,10.33,0,0,1-2.47,2.51,13.34,13.34,0,0,1-3,1.55,15.87,15.87,0,0,1-6.45.8,23.87,23.87,0,0,1-6.21-1.14,17.09,17.09,0,0,1-3-1.33,8.49,8.49,0,0,1-2.89-2.47,4.7,4.7,0,0,1-.88-3.24v-.72l.24-2.91c.17-1.92.39-3.86.7-5.79a1,1,0,0,1,1.1-.81,1,1,0,0,1,.81.81Z"/><path class="cls-3" d="M38.5,156.31a41.07,41.07,0,0,1,8.68,1.14,55.26,55.26,0,0,1,8.34,2.62,59.55,59.55,0,0,1,7.9,3.77,45.61,45.61,0,0,1,7.19,5,.61.61,0,0,1,.07.88h0a.61.61,0,0,1-.66.18C67.25,169,64.58,168,61.93,167l-7.92-3c-2.65-1-5.28-1.94-7.92-3s-5.29-2-7.94-3.22a.8.8,0,0,1,.35-1.52Z"/><path class="cls-3" d="M45.79,175.57a19.08,19.08,0,0,1,4.4-1.51,25.25,25.25,0,0,1,9.21-.37,17.92,17.92,0,0,1,4.49,1.18.77.77,0,0,1,.4,1,.8.8,0,0,1-.6.47h0c-1.52.2-3,.28-4.46.33l-4.3.15-4.36.08c-1.47,0-2.94,0-4.48-.08a.69.69,0,0,1-.63-.72.7.7,0,0,1,.37-.56Z"/><path class="cls-3" d="M41.64,191a38.79,38.79,0,0,1,6.1-3.74,55.69,55.69,0,0,1,6.57-2.77c1.07-.39,2.26-.74,3.41-1.08a34.93,34.93,0,0,1,3.47-.82,35.49,35.49,0,0,1,7.12-.75.89.89,0,0,1,.88.89.91.91,0,0,1-.52.81c-2.15,1-4.3,1.75-6.53,2.52-1.08.4-2.15.73-3.23,1.13l-3.28,1.07c-2.15.71-4.38,1.44-6.59,2.15s-4.45,1.36-6.78,1.87a.74.74,0,0,1-.62-1.28Z"/><path class="cls-3" d="M239.66,157.82c-2.59,1.32-5.2,2.42-7.84,3.48s-5.25,2.09-7.89,3.07-5.29,2-8,2.9-5.38,1.86-8.21,2.6a.62.62,0,0,1-.54-1.07,51.39,51.39,0,0,1,7.33-4.72,71,71,0,0,1,7.86-3.67,64.74,64.74,0,0,1,8.26-2.69,45.64,45.64,0,0,1,8.6-1.4.8.8,0,0,1,.4,1.52Z"/><path class="cls-3" d="M231.71,176.85c-1.52.07-3,0-4.45,0l-4.3-.1-4.3-.1a40.1,40.1,0,0,1-4.46-.27h0a.76.76,0,0,1-.66-.85h0a.73.73,0,0,1,.45-.6,17.11,17.11,0,0,1,4.48-1.27,24.05,24.05,0,0,1,4.64-.27,25.54,25.54,0,0,1,4.61.61,17.5,17.5,0,0,1,4.39,1.6.68.68,0,0,1-.3,1.27Z"/><path class="cls-3" d="M235.58,193.24c-2.31-.64-4.5-1.39-6.68-2.15s-4.31-1.47-6.54-2.15l-3.23-1.07c-1.08-.36-2.15-.69-3.23-1.08-2.15-.7-4.38-1.4-6.6-2.25a.88.88,0,0,1-.53-1.13.89.89,0,0,1,.79-.58,31.5,31.5,0,0,1,7.19.49c1.2.18,2.36.47,3.53.75a30.52,30.52,0,0,1,3.45,1.07,46.3,46.3,0,0,1,6.47,2.9,33.8,33.8,0,0,1,6,4,.7.7,0,0,1,.07,1A.67.67,0,0,1,235.58,193.24Z"/><path class="cls-3" d="M85.73,115.46a14.89,14.89,0,0,1,3.41,3.07,15.61,15.61,0,0,1,2.49,4,1,1,0,0,1-.52,1.25,1,1,0,0,1-.75,0,15.66,15.66,0,0,1-3.89-2.6,14.31,14.31,0,0,1-3-3.5,1.6,1.6,0,0,1,.65-2.18,1.63,1.63,0,0,1,1.6,0Z"/><path class="cls-3" d="M98.77,115.21a6.84,6.84,0,0,1,.93,2.7,9.66,9.66,0,0,1,0,2.94,1.14,1.14,0,0,1-1.3.92,1,1,0,0,1-.68-.4,9.22,9.22,0,0,1-1.44-2.56,7.06,7.06,0,0,1-.53-2.84,1.63,1.63,0,0,1,1.71-1.56h0A1.6,1.6,0,0,1,98.77,115.21Z"/><path class="cls-3" d="M178.27,119.34a6.54,6.54,0,0,1,.34-2.15,9.75,9.75,0,0,1,.8-1.88,10.88,10.88,0,0,1,1.14-1.69,6.93,6.93,0,0,1,1.55-1.46,1.32,1.32,0,0,1,1.84.35h0a1.37,1.37,0,0,1,.22.79,6.77,6.77,0,0,1-.43,2.08,10.48,10.48,0,0,1-.84,1.87,9.32,9.32,0,0,1-1.18,1.67,6.32,6.32,0,0,1-1.64,1.41,1.19,1.19,0,0,1-1.63-.41h0A1.34,1.34,0,0,1,178.27,119.34Z"/><path class="cls-3" d="M184.64,121.07a14.44,14.44,0,0,1,2.35-2.65,10.91,10.91,0,0,1,2.87-2,1.63,1.63,0,0,1,2.14.81,1.61,1.61,0,0,1-.2,1.66,10.79,10.79,0,0,1-2.64,2.31,16.09,16.09,0,0,1-3.15,1.67,1.17,1.17,0,0,1-1.37-1.77Z"/><path class="cls-3" d="M79.05,146.44a19.36,19.36,0,0,1,8.71-9,25.69,25.69,0,0,1,12.39-2.93,26.44,26.44,0,0,1,12.45,3.05,22.72,22.72,0,0,1,5.21,3.86,20.15,20.15,0,0,1,2.15,2.46c.31.44.61.88.91,1.35a14.77,14.77,0,0,1,.79,1.55,2.06,2.06,0,0,1-3.11,2.47l-.46-.34c-.23-.16-.57-.52-.88-.76l-1-.8a21.6,21.6,0,0,0-2.09-1.45,26.11,26.11,0,0,0-4.43-2.28,29.21,29.21,0,0,0-9.68-2,29.77,29.77,0,0,0-10,1.07,27.78,27.78,0,0,0-9.26,4.82l-.13.1a1.08,1.08,0,0,1-1.44-.17A1,1,0,0,1,79.05,146.44Z"/><path class="cls-3" d="M196.93,147.56a28,28,0,0,0-9.26-4.82,29.77,29.77,0,0,0-10-1.07,29.21,29.21,0,0,0-9.68,2,27,27,0,0,0-4.44,2.28,23.38,23.38,0,0,0-2.08,1.45c-.34.26-.67.53-1,.8s-.66.6-.88.76l-.46.35a2,2,0,0,1-3.07-2.48,16.24,16.24,0,0,1,.8-1.55c.28-.47.59-.91.9-1.35a20.41,20.41,0,0,1,2.1-2.45,22.86,22.86,0,0,1,5.21-3.86,26.4,26.4,0,0,1,12.39-3.1,25.61,25.61,0,0,1,12.43,3,19.32,19.32,0,0,1,8.71,9,1,1,0,0,1-.5,1.33h0a1.09,1.09,0,0,1-1.07-.13Z"/><path class="cls-12" d="M248.22,121a18.71,18.71,0,0,1,8.34-1.26A36.49,36.49,0,0,1,265,121"/><path class="cls-13" d="M249.27,127.65a26.43,26.43,0,0,1,8.39-1.07,39,39,0,0,1,8.39,2"/><path class="cls-8" d="M241,226.88a6.08,6.08,0,0,0,4.31-2.49"/><line class="cls-8" x1="242.99" y1="226.05" x2="243.13" y2="233.3"/><path class="cls-3" d="M77.37,31c.66-.67,1.14-1.07,1.71-1.62A16.64,16.64,0,0,1,80.75,28q1.71-1.35,3.46-2.56A77,77,0,0,1,91.5,21a91.47,91.47,0,0,1,15.67-6.3,111.12,111.12,0,0,1,33.13-4.37,111.24,111.24,0,0,1,33,5.06,87.44,87.44,0,0,1,15.5,6.68,69.51,69.51,0,0,1,7.14,4.61c1.15.84,2.28,1.72,3.38,2.67.54.47,1.07,1,1.61,1.46s1,1,1.65,1.69l-4.88,4.42a15,15,0,0,0-1.25-1.08c-.44-.32-1-.77-1.47-1.15-1-.76-2-1.49-3.07-2.15a63.15,63.15,0,0,0-6.64-3.79,82,82,0,0,0-14.33-5.62A113.83,113.83,0,0,0,140.23,19a113.22,113.22,0,0,0-30.76,3.8,81.62,81.62,0,0,0-14.41,5.37,66,66,0,0,0-6.72,3.64c-1.08.66-2.15,1.37-3.13,2.1-.52.35-1,.72-1.5,1.07s-1,.81-1.29,1.08Z"/><path class="cls-3" d="M139.14,17.72a28,28,0,0,0-3.16.6c-1.08.28-2.15.57-3.23.94a42.64,42.64,0,0,0-6.23,2.64A40.45,40.45,0,0,0,115.77,30a37.24,37.24,0,0,0-4.24,5.29,40.4,40.4,0,0,0-3.3,6,53.34,53.34,0,0,0-3.87,13.27l-3.3-.47a57.63,57.63,0,0,1,3.68-14.27,46.44,46.44,0,0,1,3.39-6.67,43,43,0,0,1,4.46-6,44.76,44.76,0,0,1,11.66-9.42,48,48,0,0,1,6.83-3.16c1.19-.45,2.39-.83,3.61-1.18a33.31,33.31,0,0,1,3.84-.86Z"/><path class="cls-3" d="M139.12,12.54a34.38,34.38,0,0,1,3.91.83c1.26.34,2.49.71,3.7,1.14a51.91,51.91,0,0,1,7.1,3.07,46.82,46.82,0,0,1,12.23,9.24,44.28,44.28,0,0,1,8.35,12.79,54.1,54.1,0,0,1,3.9,14.56l-2.65.39A51.18,51.18,0,0,0,171.35,41a40.56,40.56,0,0,0-8.19-11.36,42.7,42.7,0,0,0-11.47-7.91,48.48,48.48,0,0,0-6.46-2.56c-1.08-.34-2.24-.63-3.37-.88a27.9,27.9,0,0,0-3.29-.56Z"/><path class="cls-4" d="M126.58,16.1s-.33-13.68,12.47-13.68,12.46,13.07,12.46,13.07"/><path class="cls-3" d="M57.81,83.85c8.37-4.52,16.85-9.1,26-12.41,2.27-.83,4.58-1.58,6.9-2.26l1.76-.53.43-.12H93a1.84,1.84,0,0,0-.38.17,1.62,1.62,0,0,0-.73,1.52,1.42,1.42,0,0,0,.08.41l-.07-.2-.16-.36-.33-.75a15.18,15.18,0,0,0-.72-1.46,33,33,0,0,0-8.39-10.11,34.1,34.1,0,0,0-11.58-5.84l-.74-.18-.38-.09h-.17a2.74,2.74,0,0,0,.5.07,2.3,2.3,0,0,0,1.8-.8h0l-.11.17-.2.35c-.59.88-1.16,1.81-1.72,2.74a54.69,54.69,0,0,0-3,5.94,88.15,88.15,0,0,0-4.23,13.07c-.56,2.24-1.07,4.51-1.43,6.79-.2,1.14-.36,2.3-.54,3.45l-.25,1.72v.21h0V85a1.67,1.67,0,0,0-1.4-1.41A1.62,1.62,0,0,0,57.81,83.85Zm2.25,4a3,3,0,0,1-4.44-2.22,1.93,1.93,0,0,1,0-.48v-.49l.16-1.8c.12-1.21.24-2.41.41-3.61q.45-3.59,1.08-7.17A95.2,95.2,0,0,1,61,57.89,63.62,63.62,0,0,1,63.91,51a32.72,32.72,0,0,1,2-3.33l.28-.39.13-.21c.08-.09,0,0,.29-.38a4.3,4.3,0,0,1,3.36-1.51,3.73,3.73,0,0,1,.94.12l.26.08.49.15.94.31a38.34,38.34,0,0,1,13,8A39.87,39.87,0,0,1,95,65.63a18.31,18.31,0,0,1,.83,1.73l.37.89.18.44.09.23a3.23,3.23,0,0,1-1.29,3.85,3.14,3.14,0,0,1-.79.36l-.31.09-.42.11L92,73.77c-2.22.63-4.44,1.31-6.62,2.1A150.82,150.82,0,0,0,60.06,87.85Z"/><path class="cls-3" d="M187.88,67.57c2.32.5,4.64,1,7,1.57a63.14,63.14,0,0,1,6.87,2.07,98.43,98.43,0,0,1,12.81,5.94l6.11,3.22c.5.28,1.07.5,1.55.74l.2.1a1.3,1.3,0,0,0-.39-.14,1.82,1.82,0,0,0-1,.07,1.74,1.74,0,0,0-1.07,1.5V82l-.05-.83c0-.55-.09-1.08-.13-1.67a88.46,88.46,0,0,0-2.15-13.24,92,92,0,0,0-4-12.77c-.2-.52-.41-1.08-.63-1.54l-.33-.76-.08-.19v0l.07.13a1.79,1.79,0,0,0,.38.48,1.88,1.88,0,0,0,1.07.51,3.11,3.11,0,0,0,.61,0,1.27,1.27,0,1,1,.26-.06l-1.53.72c-2,1-4,2.06-5.92,3.13-3.83,2.22-7.53,4.49-11.08,7A54.82,54.82,0,0,0,191.35,67l-1.19,1.08-1.07,1.18-.28.3a1.74,1.74,0,0,0,.18-.33,1.29,1.29,0,0,0-.75-1.67,1,1,0,0,0-.25-.06Zm-1,5.38a4.22,4.22,0,0,1-2.15-1.07,4.1,4.1,0,0,1-1.19-2.16,4.34,4.34,0,0,1,.18-2.47,5,5,0,0,1,.6-1.08l.28-.36c.74-1,1.5-1.94,2.27-2.89A55.63,55.63,0,0,1,192,57.6a51.2,51.2,0,0,1,12.09-8c2.15-1.08,4.36-2,6.55-2.9l1.65-.66a5.56,5.56,0,0,1,1.07-.34,4.78,4.78,0,0,1,4.06,1.15,4.67,4.67,0,0,1,.91,1.16,2.06,2.06,0,0,1,.17.33l.11.25.08.21.31.84c.21.56.42,1.08.6,1.69a98,98,0,0,1,3.69,13.79,93.27,93.27,0,0,1,1.57,14.14c0,.59.05,1.19.05,1.79V83a3.21,3.21,0,0,1-2.05,2.81,3.13,3.13,0,0,1-1.79.15,2.8,2.8,0,0,1-.8-.27l-.2-.1c-.51-.26-1-.55-1.53-.79l-6.31-2.86c-4.18-1.9-8.32-3.73-12.46-5.32A63,63,0,0,0,186.88,73Z"/><path class="cls-3" d="M87.15,364.43c.14-.72.25-1.18.4-1.75s.31-1.08.47-1.6c.33-1.08.69-2.08,1.07-3.09A45.58,45.58,0,0,1,92,352.14a47.39,47.39,0,0,1,3.74-5.38,45.09,45.09,0,0,1,4.56-4.91,46.7,46.7,0,0,1,10.9-7.53,51.84,51.84,0,0,1,12.39-4.41,66.91,66.91,0,0,1,12.84-1.6,89.18,89.18,0,0,1,12.76.5,55.55,55.55,0,0,1,24.56,8.6,46.24,46.24,0,0,1,9.84,8.94,50.9,50.9,0,0,1,6.89,11.13,69.93,69.93,0,0,1,5.77,24.65c.13,2.09.15,4.18.13,6.29,0,1.07-.06,2.15-.14,3.22l-.06.82a7.88,7.88,0,0,1-.1.88l-.24,1.6a90.23,90.23,0,0,1-2.92,12.12c-.62,2-1.3,3.95-2.06,5.88s-1.6,3.84-2.51,5.71c-.43,1-1,1.86-1.44,2.78s-1,1.83-1.54,2.72l-.81,1.34a7.59,7.59,0,0,1-.89,1.29,5.75,5.75,0,0,1-2.88,1.83l-2.91-2c-.48-2.65.83-4,1.67-5.77.46-.84.88-1.7,1.29-2.57s.83-1.72,1.2-2.6a54.88,54.88,0,0,0,2.16-5.38c.62-1.85,1.34-3.62,1.92-5.45A93.19,93.19,0,0,0,189,393.71l.23-1.37c0-.24.05-.37.07-.61l.07-.67c.07-.92.12-1.87.15-2.81.07-1.9,0-3.8-.11-5.7a52.45,52.45,0,0,0-5.94-21.6,38,38,0,0,0-14.93-15.2,55,55,0,0,0-20.65-6.31,76.15,76.15,0,0,0-11.2-.58,64.44,64.44,0,0,0-11,1.07,48.57,48.57,0,0,0-10.31,3.23,42.12,42.12,0,0,0-9.16,5.54,40.51,40.51,0,0,0-7.44,7.81,41.74,41.74,0,0,0-2.93,4.61c-.45.81-.84,1.62-1.23,2.44-.19.41-.38.82-.54,1.23l-.44,1.13Z"/><path class="cls-14" d="M55.59,425.32S48,397.07,82.84,395.62c33.59-1.39,29.67,26.19,29.67,26.19"/><path class="cls-3" d="M94.26,301.16c-.47,4.07-.93,8.19-1.31,12.3s-.77,8.21-1.07,12.32a233.86,233.86,0,0,0-.77,24.55l.13,3,.28,3c.23,2,.51,4,.87,6,.7,4,1.58,8,2.55,12s2.16,7.94,3.31,11.83,2.45,7.87,3.84,11.7h0a1.84,1.84,0,0,1-1,2.37,1.82,1.82,0,0,1-2.36-1,210.23,210.23,0,0,1-8.25-23.74c-1.15-4-2.15-8.14-2.92-12.3-.42-2.07-.74-4.16-1.07-6.28l-.36-3.22-.19-3.23c-.21-4.24-.17-8.46,0-12.65s.36-8.37.71-12.53c.69-8.34,1.6-16.61,2.89-24.89a2.39,2.39,0,0,1,4.73.63Z"/><path class="cls-3" d="M33.44,236.76Q28,253,22.8,269.27l-5.15,16.31-2.57,8.17-1.25,4.08-.58,2.07-.56,2A118,118,0,0,0,9,334.53a151.87,151.87,0,0,0,4,33,110.6,110.6,0,0,0,4.89,15.7,66.79,66.79,0,0,0,7.53,14.16,64.83,64.83,0,0,0,24.17,20.43,82.9,82.9,0,0,0,31.19,8.43c1.36.09,2.72.19,4.08.2a26,26,0,0,0,3.74-.09,34.41,34.41,0,0,0,7.43-1.79c5.1-1.8,10.57-4.18,16.32-5.81A85.62,85.62,0,0,1,130,415.49c3-.24,5.92-.33,8.88-.32a83.89,83.89,0,0,1,9,.47,71.46,71.46,0,0,1,9,1.57c2.94.72,5.8,1.63,8.52,2.54a85.93,85.93,0,0,0,15.87,4.05,94.27,94.27,0,0,0,16.28.74c1.37,0,2.76-.12,4.14-.19l2.07-.14a17.62,17.62,0,0,0,2-.16,42.06,42.06,0,0,0,7.45-1.43,44.45,44.45,0,0,0,13.6-6.69,63,63,0,0,0,11.43-10.75c6.85-8.17,12.14-17.87,16.35-28a135.44,135.44,0,0,0,5.3-15.54c.71-2.65,1.34-5.21,1.82-7.9s.9-5.37,1.24-8.1a151.41,151.41,0,0,0,1-16.5c0-5.53-.23-11.08-.64-16.64s-1.08-11.12-1.91-16.64c-.41-2.77-.89-5.52-1.41-8.26s-1.07-5.53-1.7-8.1l-.79-3.29,2.64-1.7h0c.5-.38,1.18-.92,1.76-1.4s1.21-1.08,1.8-1.56c1.21-1.06,2.39-2.13,3.55-3.23q3.47-3.36,6.61-7a98.35,98.35,0,0,0,11-15.61,75.93,75.93,0,0,0,4.18-8.49,74.34,74.34,0,0,0,3.13-8.85c.45-1.48.76-3,1.14-4.53a39.69,39.69,0,0,0,.8-4.59c.2-1.54.41-3.16.58-4.8s.4-3.22.51-4.9c1.07-13.06,1.17-26.14-1-38.81a122.8,122.8,0,0,0-12.31-36.49l.67-5.38h0l.29-.33.37-.44c.25-.32.49-.65.73-1a22.9,22.9,0,0,0,1.32-2.09,24.52,24.52,0,0,0,2-4.48,19.52,19.52,0,0,0,.69-9.38,26.33,26.33,0,0,0-3.37-9.35,19.88,19.88,0,0,0-6.69-6.68,27,27,0,0,0-9.36-3.39,49.35,49.35,0,0,0-10.65-.62,43.49,43.49,0,0,0-10.45,1.6,25.8,25.8,0,0,0-4.66,1.72,11.13,11.13,0,0,0-1.08.57c-.34.2-.64.41-1,.62a8.35,8.35,0,0,0-.82.63l-.34.3-.13.12h0l-8.06-3.53c.06-.48.15-1.18.2-1.82l.15-1.95c.09-1.32.13-2.65.16-4,.07-2.67,0-5.38-.09-8.06A150.48,150.48,0,0,0,230,61.22a108.35,108.35,0,0,0-3.52-15.63,40.36,40.36,0,0,0-2.78-7,13,13,0,0,0-.88-1.54,12.9,12.9,0,0,0-.94-1.38,8.93,8.93,0,0,0-1.92-2,3.79,3.79,0,0,0-.33-.21h0a3.41,3.41,0,0,0,.54.1h-1.37a31,31,0,0,0-3.6.42,40.19,40.19,0,0,0-7.21,2,48.62,48.62,0,0,0-13.14,7.7,111.32,111.32,0,0,0-11.64,11c-1.79,2-3.52,4-5.13,6.14-.81,1.07-1.59,2.15-2.33,3.22q-.57.81-1.08,1.62c-.34.53-.72,1.07-.95,1.53l-1.88,3.23-3.56-1.16c-1.08-.35-2.32-.71-3.52-1.08s-2.44-.62-3.68-.9c-2.46-.57-4.95-1.06-7.45-1.45a94.92,94.92,0,0,0-15.06-1.23,61,61,0,0,0-14.53,2A71.09,71.09,0,0,0,117,68.81c-1.16.43-2.32.87-3.45,1.35-.57.25-1.13.49-1.68.75s-1.14.53-1.55.75L106,73.81l-2-4.37c-1.08-2.38-2.45-5-3.82-7.38s-2.85-4.85-4.4-7.17a67.61,67.61,0,0,0-10.5-12.52c-.48-.45-1-.86-1.49-1.28A13.27,13.27,0,0,0,82.31,40a27.31,27.31,0,0,0-3.23-2,40.89,40.89,0,0,0-7.28-2.93,31.88,31.88,0,0,0-7.43-1.35,6.12,6.12,0,0,0-1.21,0h.07a1.07,1.07,0,0,0,.25,0c.13-.06.07,0,.09,0a2,2,0,0,0-.33.24,19.79,19.79,0,0,0-2.46,2.47,54,54,0,0,0-8.16,13.77A69,69,0,0,0,49.93,58c-.72,2.62-1.33,5.38-1.89,8.2-1.14,5.58-2,11.26-2.8,17s-1.39,11.48-1.84,17.13h0l-.09,1.26-.81,1.14c-.32.46-.74,1.08-1.08,1.65l-1.07,1.77c-.73,1.2-1.45,2.41-2.15,3.65-1.38,2.46-2.66,5-3.85,7.53a95.3,95.3,0,0,0-5.83,15.85,75.83,75.83,0,0,0-1.72,8.16l-.28,2-.22,2.05-.3,4.31a117.65,117.65,0,0,0,.25,17,111.81,111.81,0,0,0,2.81,16.67,115.19,115.19,0,0,0,5.38,16.2l1.79,4.16a30.36,30.36,0,0,1,1.44,4.94,33.62,33.62,0,0,1,.43,10,58.26,58.26,0,0,1-1.85,9.45c-.41,1.53-.87,3-1.36,4.46Zm-7.84-2.64c1.08-3,2.15-5.52,3-8.19A33.89,33.89,0,0,0,30.2,218a25.33,25.33,0,0,0-.48-7.62,19.88,19.88,0,0,0-1.13-3.53L27.74,205l-1-2.07a114.22,114.22,0,0,1-10.33-53.77l.3-4.6.24-2.34.31-2.35a87.57,87.57,0,0,1,1.89-9.19,100.8,100.8,0,0,1,6.45-17.41c1.33-2.79,2.79-5.5,4.31-8.16.78-1.33,1.6-2.65,2.44-3.94.42-.65.86-1.3,1.31-1.94s.87-1.25,1.43-2l-.9,2.4h0c.48-6,1.07-11.83,1.9-17.68S37.84,70.25,39,64.4c.6-2.93,1.23-5.85,2.07-8.86a75.26,75.26,0,0,1,3-8.78,62.74,62.74,0,0,1,9.67-16.2,28.5,28.5,0,0,1,3.74-3.71,11.52,11.52,0,0,1,1.47-1,3.71,3.71,0,0,1,.56-.29,4.89,4.89,0,0,1,.75-.3A7.8,7.8,0,0,1,61.4,25a15.89,15.89,0,0,1,3.16-.21,32.84,32.84,0,0,1,5,.6,44,44,0,0,1,4.7,1.13,48.73,48.73,0,0,1,8.94,3.6,38.8,38.8,0,0,1,4.24,2.56c.68.48,1.37,1,2,1.53s1.24,1.07,1.83,1.57a76.06,76.06,0,0,1,12,14.22c1.7,2.52,3.29,5.12,4.78,7.75S111,63,112.34,65.88L106,63.73c.77-.39,1.36-.67,2-1l1.94-.86c1.29-.54,2.58-1.07,3.89-1.53a82.18,82.18,0,0,1,8-2.47,69.91,69.91,0,0,1,16.73-2.23A104.57,104.57,0,0,1,155.08,57c2.71.43,5.38,1,8.07,1.57,1.33.3,2.66.63,4,1s2.61.72,4.06,1.19l-5.44,2.15c.46-.8.83-1.38,1.25-2s.83-1.25,1.25-1.85q1.26-1.83,2.6-3.57c1.78-2.32,3.66-4.55,5.6-6.71a120.84,120.84,0,0,1,12.65-12,57.92,57.92,0,0,1,15.64-9.14,48.94,48.94,0,0,1,8.9-2.47,37.11,37.11,0,0,1,4.71-.54h2.81a4.43,4.43,0,0,1,1.08.23,3.69,3.69,0,0,1,.56.19,5.15,5.15,0,0,1,.9.4,10.85,10.85,0,0,1,1.47.86,18.27,18.27,0,0,1,4,3.92c.5.67,1,1.36,1.42,2.07s.86,1.4,1.21,2.1a49.41,49.41,0,0,1,3.45,8.51,115.41,115.41,0,0,1,3.85,17A156.55,156.55,0,0,1,240.89,77c.12,2.89.17,5.78.12,8.68,0,1.46-.1,2.91-.2,4.38l-.17,2.21c-.06.76-.14,1.45-.26,2.35l-8-3.58c.28-.34.34-.41.5-.58l.4-.39c.13-.13.51-.46.76-.67.49-.43,1-.8,1.48-1.16a17.4,17.4,0,0,1,1.51-1,15.1,15.1,0,0,1,1.52-.85,34.33,34.33,0,0,1,6.25-2.48,52.5,52.5,0,0,1,12.63-2,57.79,57.79,0,0,1,12.67.75,36.31,36.31,0,0,1,12.49,4.58A29.09,29.09,0,0,1,292.24,97a36,36,0,0,1,4.57,12.52,28.87,28.87,0,0,1-1,13.72,34,34,0,0,1-2.73,6.21c-.56,1-1.16,1.93-1.81,2.85a13.21,13.21,0,0,1-1.08,1.37l-.55.69-.68.76h0l.68-5.38,2.71,4.48,2.49,4.61c.78,1.58,1.58,3.14,2.32,4.73s1.47,3.23,2.16,4.86a113.57,113.57,0,0,1,6,20.34,126.59,126.59,0,0,1,2.21,21,169.42,169.42,0,0,1-.75,20.89c-.13,1.73-.38,3.44-.55,5.16s-.38,3.41-.69,5.24-.65,3.58-1,5.37a46.29,46.29,0,0,1-1.42,5.26,85.07,85.07,0,0,1-8.81,19.69,99,99,0,0,1-13,16.92c-2.44,2.57-5,5-7.67,7.32-1.34,1.15-2.7,2.29-4.11,3.37-.71.54-1.43,1.07-2.15,1.59s-1.43,1-2.31,1.59h0l1.85-5c.85,3,1.52,5.72,2.15,8.61s1.21,5.71,1.73,8.6q1.57,8.61,2.49,17.33a176,176,0,0,1,.21,35.26c-.32,2.95-.7,5.91-1.22,8.85s-1.14,6-1.92,8.82a143,143,0,0,1-5.67,16.88,115.1,115.1,0,0,1-18.15,30.93A69.49,69.49,0,0,1,233,425a52.2,52.2,0,0,1-17.21,7.9,46.09,46.09,0,0,1-9.42,1.4c-.82.06-1.54.07-2.27.08l-2.2.05h-4.42a102.87,102.87,0,0,1-17.86-1.69,96.87,96.87,0,0,1-17.07-5.19c-2.65-1-5.21-1.89-7.81-2.62a52.7,52.7,0,0,0-7.87-1.57,78.73,78.73,0,0,0-8.12-.57c-2.75,0-5.5.07-8.23.28a72,72,0,0,0-16,3c-5.24,1.59-10.21,3.92-15.82,6.05a42.56,42.56,0,0,1-9.15,2.41,35,35,0,0,1-4.8.27c-1.5,0-3,0-4.48-.1A86.91,86.91,0,0,1,45.52,426,72.86,72.86,0,0,1,18,402.63a75.81,75.81,0,0,1-8.51-16,121.72,121.72,0,0,1-5.27-17,161.16,161.16,0,0,1-4.18-35,125.66,125.66,0,0,1,4.31-35.16c.43-1.48.85-2.84,1.28-4.2l1.28-4.1L9.49,283l5.27-16.34Q20.06,250.36,25.6,234.12Z"/><path class="cls-3" d="M110.56,71.33a17.29,17.29,0,0,0,1.08,2.15c.41.69.83,1.47,1.29,2.15a37.85,37.85,0,0,0,3,4.15,35.74,35.74,0,0,0,7.53,6.84,28.72,28.72,0,0,0,36.76-4.46,37.78,37.78,0,0,0,5.85-8.33,42,42,0,0,0,2.15-4.67,34.33,34.33,0,0,0,1.51-4.77l5.07,1.2a44.51,44.51,0,0,1-2,5.46,51.88,51.88,0,0,1-2.66,5.13,44.22,44.22,0,0,1-6.79,9.13,35,35,0,0,1-4.3,3.77,30.79,30.79,0,0,1-4.92,3,32.13,32.13,0,0,1-11,3.22,35.28,35.28,0,0,1-11.46-.54A33,33,0,0,1,121,90.34a40.85,40.85,0,0,1-8.61-7.45,48,48,0,0,1-3.53-4.48c-.54-.77-1.07-1.58-1.57-2.39s-1-1.61-1.45-2.6Z"/><path class="cls-3" d="M130.61,174.54a2.09,2.09,0,0,1,.29-2.15,1.8,1.8,0,0,1,.39-.39l.18-.13.29-.19A11.38,11.38,0,0,1,133,171a12.19,12.19,0,0,1,2.49-.78,17.38,17.38,0,0,1,5.09-.27,11.54,11.54,0,0,1,5,1.44c.19.12.4.25.59.39l.15.09.24.2a2.19,2.19,0,0,1,.58.94,2,2,0,0,1,0,1.08,2.23,2.23,0,0,1-.19.51l-.26.56c-.36.73-.73,1.44-1.15,2.15a16.74,16.74,0,0,1-3.16,3.9,6,6,0,0,1-2.51,1.41,5.05,5.05,0,0,1-.78.11,3.48,3.48,0,0,1-.79,0,3.19,3.19,0,0,1-.76-.14,2.89,2.89,0,0,1-.71-.27,7.54,7.54,0,0,1-2.16-1.6,15.1,15.1,0,0,1-1.62-1.95A24.31,24.31,0,0,1,130.61,174.54Zm2.89-1.19a31.17,31.17,0,0,0,1.85,3.92,8.53,8.53,0,0,0,2.54,3,1.64,1.64,0,0,0,1.42.26,3.77,3.77,0,0,0,1.42-1A14.34,14.34,0,0,0,143,176c.31-.64.63-1.31.89-2l.21-.5h0a1,1,0,0,0,.28,1h0l-.09-.07-.38-.24a10.68,10.68,0,0,0-7.83-.94,10.64,10.64,0,0,0-1.88.7c-.29.15-.58.29-.83.45l-.2.13h0a1.07,1.07,0,0,0,.18-.19A1,1,0,0,0,133.5,173.35Z"/></g></g></g></g></svg>