<svg xmlns="http://www.w3.org/2000/svg" viewBox="0 0 125.28 125.28"><defs><style>.cls-1{fill:#f4f4f7;}</style></defs><g id="Layer_2" data-name="Layer 2"><g id="Layer_2-2" data-name="Layer 2"><rect width="125.28" height="125.28"/></g><g id="Layer_1-2" data-name="Layer 1"><path class="cls-1" d="M63.12,72.21c.16,1,.27,2,.36,2.93l.11,1.46,0,.37a2.2,2.2,0,0,1,0,.48,2.32,2.32,0,0,1-.45,1.16,4.31,4.31,0,0,1-1.46,1.25,8.71,8.71,0,0,1-1.54.68,12.23,12.23,0,0,1-3.14.58c-2.07.16-4.66-.43-6.06-2.47A4.32,4.32,0,0,1,50.35,77a5.35,5.35,0,0,1-.05-1.65,3.3,3.3,0,0,1,.62-1.52,3.6,3.6,0,0,1,1.19-1,.07.07,0,0,1,.1,0,.08.08,0,0,1,0,.08,3.15,3.15,0,0,0-.91,2.46,4.2,4.2,0,0,0,.32,1.24,2.32,2.32,0,0,0,.66,1,4.38,4.38,0,0,0,2.11,1,9.92,9.92,0,0,0,2.53.14,14.15,14.15,0,0,0,2.62-.39,4.35,4.35,0,0,0,2-1,.69.69,0,0,0,.11-.18,1.41,1.41,0,0,0,0-.25l0-.37.12-1.46c.09-1,.2-2,.35-2.93a.5.5,0,0,1,.57-.41A.48.48,0,0,1,63.12,72.21Z"/><path class="cls-1" d="M63.12,72.21c.16,1,.27,2,.36,2.93l.12,1.46,0,.37a2.13,2.13,0,0,0,0,.25.69.69,0,0,0,.11.18,4.31,4.31,0,0,0,2,1,14.13,14.13,0,0,0,2.63.39,10,10,0,0,0,2.53-.14,4.43,4.43,0,0,0,2.11-1,2.22,2.22,0,0,0,.65-1A3.93,3.93,0,0,0,74,75.41,3.15,3.15,0,0,0,73.08,73a.08.08,0,0,1,0-.1.08.08,0,0,1,.09,0,3.57,3.57,0,0,1,1.18,1A3.42,3.42,0,0,1,75,75.36,5.05,5.05,0,0,1,74.92,77a4.14,4.14,0,0,1-.62,1.64,6.67,6.67,0,0,1-6.06,2.47,12.31,12.31,0,0,1-3.15-.58,9.4,9.4,0,0,1-1.54-.68,4.4,4.4,0,0,1-1.46-1.25,2.41,2.41,0,0,1-.44-1.16,2.2,2.2,0,0,1,0-.48l0-.37.12-1.46c.09-1,.2-2,.36-2.93a.49.49,0,0,1,.56-.41A.48.48,0,0,1,63.12,72.21Z"/><path class="cls-1" d="M11.83,59.15a20.89,20.89,0,0,1,4.4.58,30,30,0,0,1,4.23,1.32,31.07,31.07,0,0,1,4,1.91,22.59,22.59,0,0,1,3.65,2.52.31.31,0,0,1,0,.44.3.3,0,0,1-.33.09c-1.41-.44-2.76-1-4.1-1.45l-4-1.5-4-1.5c-1.34-.51-2.68-1-4-1.64a.4.4,0,0,1-.2-.53A.41.41,0,0,1,11.83,59.15Z"/><path class="cls-1" d="M15.53,68.91a11.58,11.58,0,0,1,4.55-1.07,11.18,11.18,0,0,1,4.61.72.39.39,0,0,1,.21.51.4.4,0,0,1-.31.24c-1.53.19-3,.19-4.46.24s-2.92.1-4.47,0a.34.34,0,0,1-.32-.36A.32.32,0,0,1,15.53,68.91Z"/><path class="cls-1" d="M13.42,76.7a24.11,24.11,0,0,1,6.42-3.3,26.06,26.06,0,0,1,3.49-1,17.33,17.33,0,0,1,3.6-.38.44.44,0,0,1,.18.85c-1.1.49-2.2.89-3.31,1.28s-2.2.75-3.31,1.12c-2.22.71-4.42,1.47-6.77,2a.36.36,0,0,1-.43-.26A.37.37,0,0,1,13.42,76.7Z"/><path class="cls-1" d="M113.69,59.92c-1.31.66-2.64,1.22-4,1.76s-2.66,1-4,1.55-2.68,1-4,1.47S99,65.64,97.53,66a.31.31,0,0,1-.28-.55A26,26,0,0,1,101,63.08a39.06,39.06,0,0,1,4-1.86,33.44,33.44,0,0,1,4.18-1.36,22.67,22.67,0,0,1,4.36-.71.41.41,0,0,1,.2.77Z"/><path class="cls-1" d="M109.67,69.55c-1.55,0-3,0-4.46,0s-2.92,0-4.45-.19a.39.39,0,0,1-.35-.43.38.38,0,0,1,.23-.31,11.57,11.57,0,0,1,9.18.34.34.34,0,0,1,.14.46A.33.33,0,0,1,109.67,69.55Z"/><path class="cls-1" d="M111.6,77.85c-2.31-.67-4.48-1.47-6.69-2.18L101.6,74.6c-1.11-.36-2.23-.71-3.35-1.14a.45.45,0,0,1-.26-.58.44.44,0,0,1,.39-.29,15.91,15.91,0,0,1,3.65.25,21.53,21.53,0,0,1,3.53.91,20.53,20.53,0,0,1,6.37,3.49.36.36,0,0,1,0,.5A.37.37,0,0,1,111.6,77.85Z"/><path class="cls-1" d="M35.75,38.47A7.12,7.12,0,0,1,37.47,40a7.74,7.74,0,0,1,1.27,2,.49.49,0,0,1-.27.64.47.47,0,0,1-.37,0,7.61,7.61,0,0,1-2-1.32,7.38,7.38,0,0,1-1.51-1.77.81.81,0,0,1,.3-1.11A.82.82,0,0,1,35.75,38.47Z"/><path class="cls-1" d="M42.36,38.34a3,3,0,0,1,.3.66c.06.24.12.47.16.71a5.83,5.83,0,0,1,.06.73,3.35,3.35,0,0,1-.05.76.57.57,0,0,1-.66.46.59.59,0,0,1-.34-.2,3.64,3.64,0,0,1-.42-.63c-.13-.22-.2-.44-.31-.67s-.15-.45-.21-.68a3.54,3.54,0,0,1-.07-.73.84.84,0,0,1,.9-.78A.85.85,0,0,1,42.36,38.34Z"/><path class="cls-1" d="M82.61,40.43a4.29,4.29,0,0,1,.57-2,4.71,4.71,0,0,1,1.37-1.6.67.67,0,0,1,.92.16.66.66,0,0,1,.12.42,4.68,4.68,0,0,1-.65,2,4.18,4.18,0,0,1-1.43,1.57.59.59,0,0,1-.81-.2A.56.56,0,0,1,82.61,40.43Z"/><path class="cls-1" d="M85.83,41.31a5.65,5.65,0,0,1,.56-.71c.2-.23.43-.42.63-.63s.46-.38.69-.57a4.24,4.24,0,0,1,.77-.46.82.82,0,0,1,1.07.43.8.8,0,0,1-.09.82,5.45,5.45,0,0,1-.63.64c-.23.18-.46.37-.71.53s-.49.33-.77.46a5.58,5.58,0,0,1-.82.38.59.59,0,0,1-.77-.35A.63.63,0,0,1,85.83,41.31Z"/><path class="cls-1" d="M32.36,54.16a9.86,9.86,0,0,1,4.42-4.54,13,13,0,0,1,6.27-1.48,13.17,13.17,0,0,1,6.3,1.55A11,11,0,0,1,52,51.63a9.12,9.12,0,0,1,1.93,2.71,1,1,0,0,1-.52,1.38,1.06,1.06,0,0,1-1.11-.16l-.15-.14a15.11,15.11,0,0,0-2-1.52,12.53,12.53,0,0,0-2.24-1.16,16.14,16.14,0,0,0-10-.46,14.57,14.57,0,0,0-4.68,2.44l-.07.05a.52.52,0,0,1-.73-.08A.54.54,0,0,1,32.36,54.16Z"/><path class="cls-1" d="M92.05,54.72a14.57,14.57,0,0,0-4.68-2.44,16.14,16.14,0,0,0-10,.46,12.53,12.53,0,0,0-2.24,1.16,14.49,14.49,0,0,0-2,1.52l-.15.13a1,1,0,0,1-1.47-.1,1,1,0,0,1-.16-1.11,9.12,9.12,0,0,1,1.93-2.71,11,11,0,0,1,2.64-1.94,13.17,13.17,0,0,1,6.3-1.55,13,13,0,0,1,6.27,1.48,9.86,9.86,0,0,1,4.42,4.54.53.53,0,0,1-.27.68.51.51,0,0,1-.53-.07Z"/><path class="cls-1" d="M58.47,68.38a1.09,1.09,0,0,1,.15-1.07,1.19,1.19,0,0,1,.2-.19l.09-.07.15-.09a5,5,0,0,1,.6-.32,5.8,5.8,0,0,1,1.26-.41,9.33,9.33,0,0,1,2.58-.13,5.78,5.78,0,0,1,2.54.73l.3.19.08.06.12.1a1,1,0,0,1,.29.47,1.07,1.07,0,0,1,0,.56,1.1,1.1,0,0,1-.1.25l-.13.28c-.18.37-.38.73-.59,1.09a8,8,0,0,1-1.6,2,2.89,2.89,0,0,1-1.26.68,2.38,2.38,0,0,1-1.54-.15,5.29,5.29,0,0,1-1.94-1.8A12.1,12.1,0,0,1,58.47,68.38Zm1.47-.6a14.47,14.47,0,0,0,.94,2,4.31,4.31,0,0,0,1.28,1.51c.47.33,1,.13,1.44-.38a7.43,7.43,0,0,0,1.16-1.77c.17-.33.32-.67.46-1l.1-.26c.07-.19-.06.08,0,.25a.53.53,0,0,0,.14.24s0,0,0,0l0,0-.19-.12a5.45,5.45,0,0,0-1.9-.62,5.54,5.54,0,0,0-2.07.14,4.81,4.81,0,0,0-.94.36,2.93,2.93,0,0,0-.43.23l-.1.06,0,0a.47.47,0,0,0,.1-.1A.5.5,0,0,0,59.94,67.78Z"/></g></g></svg>